<svg id="vector" xmlns="http://www.w3.org/2000/svg" width="24.0d" height="24.0d" viewBox="0 0 24.0 24.0"><path fill="#FF0000" d="M18.5,10.8v8.4c0,1.5 -1.2,2.8 -2.8,2.8H8.3c-1.5,0 -2.8,-1.2 -2.8,-2.8v-8.4c0,-0.4 0.3,-0.8 0.8,-0.8s0.8,0.3 0.8,0.8v8.4c0,0.7 0.6,1.2 1.2,1.2h7.5c0.7,0 1.2,-0.6 1.2,-1.2v-8.4c0,-0.4 0.3,-0.8 0.8,-0.8S18.5,10.4 18.5,10.8zM20,6.7v1.5C20,8.6 19.7,9 19.2,9H4.8C4.4,8.9 4,8.6 4,8.2V6.7C4,5.2 5.3,4 6.8,4h2V3.2C8.8,2.5 9.3,2 10,2h4c0.7,0 1.2,0.6 1.2,1.2V4h2C18.8,4 20,5.2 20,6.7zM10.2,4h3.5V3.5h-3.5V4zM18.6,6.7c0,-0.7 -0.7,-1.2 -1.3,-1.2H6.8c-0.7,0 -1.2,0.6 -1.2,1.2v0.7h13V6.7zM10.8,17.9V12c0,-0.4 -0.3,-0.8 -0.8,-0.8S9.2,11.6 9.2,12v5.9c0,0.4 0.3,0.8 0.8,0.8S10.8,18.3 10.8,17.9zM14.8,17.9V12c0,-0.4 -0.3,-0.8 -0.8,-0.8s-0.8,0.3 -0.8,0.8v5.9c0,0.4 0.3,0.8 0.8,0.8S14.8,18.3 14.8,17.9z" id="path_0"/></svg>