<svg id="vector" xmlns="http://www.w3.org/2000/svg" width="24.0d" height="24.0d" viewBox="0 0 24.0 24.0"><path fill="#52575f" d="M12.053,4.344C13.827,4.344 15.497,4.742 17.063,5.537C18.628,6.333 19.919,7.459 20.936,8.916C21.097,9.147 21.149,9.358 21.089,9.55C21.03,9.743 20.919,9.89 20.758,9.992C20.605,10.095 20.437,10.139 20.253,10.126C20.069,10.113 19.914,10.009 19.788,9.814C18.916,8.542 17.798,7.562 16.432,6.874C15.066,6.185 13.606,5.837 12.053,5.827C10.524,5.827 9.083,6.171 7.729,6.86C6.375,7.548 5.271,8.538 4.419,9.828C4.274,10.049 4.098,10.166 3.893,10.179C3.688,10.192 3.509,10.153 3.357,10.06C3.195,9.958 3.086,9.815 3.031,9.632C2.975,9.449 3.01,9.265 3.136,9.079C4.15,7.592 5.444,6.431 7.016,5.596C8.589,4.762 10.268,4.344 12.053,4.344ZM12.053,6.759C14.265,6.759 16.139,7.531 17.674,9.076C19.21,10.621 19.977,12.491 19.977,14.686C19.977,15.574 19.678,16.338 19.079,16.979C18.481,17.621 17.743,17.941 16.864,17.941C15.976,17.941 15.231,17.632 14.628,17.015C14.024,16.397 13.723,15.649 13.723,14.771C13.723,14.29 13.563,13.879 13.242,13.538C12.921,13.198 12.53,13.027 12.068,13.027C11.612,13.027 11.229,13.198 10.916,13.538C10.604,13.879 10.448,14.29 10.448,14.771C10.448,16.366 10.865,17.727 11.7,18.854C12.535,19.98 13.805,20.725 15.511,21.087C15.723,21.137 15.871,21.245 15.955,21.41C16.039,21.575 16.06,21.751 16.018,21.939C15.975,22.117 15.877,22.272 15.725,22.404C15.573,22.536 15.364,22.577 15.098,22.527C13.083,22.129 11.557,21.223 10.52,19.808C9.484,18.392 8.965,16.713 8.965,14.771C8.965,13.881 9.265,13.121 9.863,12.49C10.462,11.86 11.196,11.545 12.068,11.545C12.946,11.545 13.688,11.85 14.295,12.462C14.902,13.073 15.206,13.815 15.206,14.686C15.206,15.165 15.362,15.582 15.676,15.939C15.989,16.295 16.385,16.473 16.864,16.473C17.334,16.473 17.725,16.295 18.039,15.939C18.352,15.582 18.509,15.165 18.509,14.686C18.509,12.89 17.879,11.367 16.621,10.117C15.362,8.866 13.84,8.241 12.053,8.241C10.265,8.241 8.753,8.878 7.516,10.152C6.28,11.426 5.662,12.966 5.662,14.771C5.662,15.52 5.702,16.192 5.782,16.787C5.861,17.381 5.967,17.879 6.098,18.279C6.183,18.51 6.19,18.714 6.118,18.892C6.045,19.071 5.915,19.194 5.727,19.263C5.499,19.356 5.292,19.35 5.105,19.245C4.918,19.14 4.781,18.98 4.694,18.764C4.505,18.194 4.372,17.577 4.295,16.914C4.218,16.251 4.179,15.537 4.179,14.771C4.179,12.547 4.941,10.656 6.463,9.097C7.986,7.538 9.849,6.759 12.053,6.759ZM12.068,1.959C13.168,1.959 14.241,2.094 15.287,2.364C16.333,2.634 17.34,3.028 18.307,3.544C18.513,3.647 18.64,3.792 18.688,3.981C18.735,4.17 18.712,4.345 18.62,4.506C18.517,4.668 18.375,4.79 18.192,4.872C18.009,4.954 17.803,4.93 17.575,4.802C16.735,4.336 15.846,3.99 14.909,3.765C13.972,3.54 13.025,3.427 12.068,3.427C11.094,3.427 10.138,3.547 9.2,3.788C8.262,4.029 7.359,4.382 6.493,4.849C6.286,4.96 6.08,4.995 5.876,4.952C5.672,4.909 5.519,4.787 5.416,4.585C5.324,4.425 5.309,4.245 5.373,4.043C5.438,3.841 5.563,3.689 5.751,3.587C6.711,3.009 7.724,2.593 8.79,2.339C9.856,2.085 10.949,1.959 12.068,1.959ZM12.068,9.159C13.603,9.159 14.908,9.695 15.981,10.769C17.055,11.842 17.591,13.148 17.591,14.686C17.591,14.916 17.528,15.107 17.401,15.257C17.273,15.408 17.095,15.484 16.864,15.484C16.624,15.484 16.438,15.408 16.307,15.257C16.175,15.107 16.109,14.916 16.109,14.686C16.109,13.557 15.717,12.598 14.935,11.81C14.152,11.021 13.196,10.627 12.068,10.627C10.946,10.627 9.995,11.033 9.216,11.845C8.437,12.657 8.048,13.632 8.048,14.771C8.048,15.88 8.208,16.951 8.528,17.982C8.849,19.014 9.47,20.003 10.391,20.951C10.536,21.096 10.613,21.262 10.621,21.45C10.63,21.638 10.579,21.811 10.47,21.971C10.332,22.158 10.135,22.239 9.88,22.213C9.625,22.187 9.42,22.101 9.265,21.956C8.244,20.925 7.54,19.8 7.156,18.581C6.772,17.362 6.579,16.092 6.579,14.771C6.579,13.224 7.11,11.901 8.17,10.804C9.231,9.707 10.53,9.159 12.068,9.159ZM12.068,13.944C12.298,13.944 12.481,14.015 12.616,14.156C12.752,14.298 12.82,14.484 12.82,14.714C12.82,16.102 13.236,17.142 14.07,17.834C14.903,18.527 15.965,18.873 17.256,18.873C17.487,18.873 17.693,18.856 17.875,18.823C18.057,18.789 18.243,18.773 18.434,18.773C18.653,18.782 18.826,18.851 18.954,18.978C19.083,19.105 19.147,19.258 19.147,19.436C19.137,19.642 19.08,19.803 18.974,19.917C18.868,20.031 18.731,20.118 18.562,20.177C18.388,20.237 18.188,20.281 17.96,20.311C17.733,20.341 17.498,20.355 17.256,20.355C15.566,20.355 14.159,19.869 13.036,18.896C11.913,17.923 11.351,16.529 11.351,14.714C11.351,14.484 11.415,14.298 11.544,14.156C11.672,14.015 11.846,13.944 12.068,13.944Z" id="path_0"/></svg>