<svg id="vector" xmlns="http://www.w3.org/2000/svg" width="24.0d" height="24.0d" viewBox="0 0 24.0 24.0"><path fill="#52575f" d="m16.99,14.45h0c-0.41,0 -0.75,0.34 -0.75,0.75v0.25s-8.49,0 -8.49,0v-0.26c0,-0.41 -0.34,-0.75 -0.75,-0.75h0c-0.41,0 -0.75,0.34 -0.75,0.75v1s0,0 0,0 0,0 0,0v4.05c0,0.96 0.79,1.75 1.75,1.75h7.99c0.47,0 0.91,-0.18 1.24,-0.52 0.33,-0.33 0.51,-0.77 0.51,-1.24v-5.05c0,-0.41 -0.34,-0.75 -0.76,-0.75ZM16.17,20.43s-0.09,0.07 -0.18,0.07h-7.99c-0.14,0 -0.25,-0.11 -0.25,-0.25v-3.3s8.48,0 8.48,0v3.3c0,0.09 -0.04,0.15 -0.07,0.18ZM12.94,18.6c0,0.52 -0.43,0.95 -0.95,0.95s-0.95,-0.43 -0.95,-0.95 0.43,-0.95 0.95,-0.95 0.95,0.43 0.95,0.95ZM7.01,8h0c0.42,0 0.75,-0.34 0.75,-0.75v-0.79s8.49,0 8.49,0v0.8c0,0.41 0.34,0.75 0.75,0.75h0c0.41,0 0.75,-0.34 0.75,-0.75v-1.53s0,0 0,-0.01 0,0 0,-0.02v-1.93c0,-0.96 -0.79,-1.75 -1.75,-1.75h-7.99c-0.96,0 -1.75,0.79 -1.75,1.76v3.49c0,0.41 0.34,0.75 0.76,0.75ZM8,3.51h7.99c0.14,0 0.25,0.11 0.25,0.25v1.2s-8.48,0 -8.48,0v-1.19c0,-0.14 0.11,-0.25 0.25,-0.25ZM13.81,10.53l-0.75,0.75 0.75,0.75c0.29,0.29 0.29,0.77 0,1.06 -0.15,0.15 -0.34,0.22 -0.53,0.22s-0.38,-0.07 -0.53,-0.22l-0.75,-0.75 -0.75,0.75c-0.15,0.15 -0.34,0.22 -0.53,0.22s-0.38,-0.07 -0.53,-0.22c-0.29,-0.29 -0.29,-0.77 0,-1.06l0.75,-0.75 -0.75,-0.75c-0.29,-0.29 -0.29,-0.77 0,-1.06s0.77,-0.29 1.06,0l0.75,0.75 0.75,-0.75c0.29,-0.29 0.77,-0.29 1.06,0s0.29,0.77 0,1.06ZM6,12.34l-0.75,0.75c-0.15,0.15 -0.34,0.22 -0.53,0.22s-0.38,-0.07 -0.53,-0.22c-0.29,-0.29 -0.29,-0.77 0,-1.06l0.75,-0.75 -0.75,-0.75c-0.29,-0.29 -0.29,-0.77 0,-1.06s0.77,-0.29 1.06,0l0.75,0.75 0.75,-0.75c0.29,-0.29 0.77,-0.29 1.06,0s0.29,0.77 0,1.06l-0.75,0.75 0.75,0.75c0.29,0.29 0.29,0.77 0,1.06 -0.15,0.15 -0.34,0.22 -0.53,0.22s-0.38,-0.07 -0.53,-0.22l-0.75,-0.75ZM19.81,12.03c0.29,0.29 0.29,0.77 0,1.06 -0.15,0.15 -0.34,0.22 -0.53,0.22s-0.38,-0.07 -0.53,-0.22l-0.75,-0.75 -0.75,0.75c-0.15,0.15 -0.34,0.22 -0.53,0.22s-0.38,-0.07 -0.53,-0.22c-0.29,-0.29 -0.29,-0.77 0,-1.06l0.75,-0.75 -0.75,-0.75c-0.29,-0.29 -0.29,-0.77 0,-1.06s0.77,-0.29 1.06,0l0.75,0.75 0.75,-0.75c0.29,-0.29 0.77,-0.29 1.06,0s0.29,0.77 0,1.06l-0.75,0.75 0.75,0.75Z" id="path_0"/></svg>