<svg id="vector" xmlns="http://www.w3.org/2000/svg" width="24.0d" height="24.0d" viewBox="0 0 24.0 24.0"><path fill="#52575f" d="M7.7,15.5v0.2c0,0.7 0.6,1.3 1.4,1.3h5.9c0,0 0,0 0,0c0.7,0 1.3,-0.6 1.3,-1.3v-0.2c0,-1.8 -1.4,-3.2 -3.2,-3.2h-2.2C9.1,12.3 7.7,13.7 7.7,15.5zM9.2,15.5c0,-0.9 0.7,-1.7 1.7,-1.7h2.2c0.9,0 1.7,0.7 1.7,1.7v0.1L9.2,15.5L9.2,15.5zM14.3,9.3C14.3,8 13.3,7 12,7S9.6,8 9.6,9.3c0,1.3 1,2.4 2.3,2.4S14.3,10.7 14.3,9.3zM11.1,9.3c0,-0.5 0.4,-0.8 0.8,-0.8c0.5,0 0.9,0.4 0.9,0.8c0,0.5 -0.4,0.9 -0.9,0.9C11.5,10.2 11.1,9.8 11.1,9.3zM20.8,3.8V20c0,1.4 -1.1,2.6 -2.5,2.6H5.8c-1.4,0 -2.5,-1.1 -2.5,-2.6v-1.5c0,-0.4 0.3,-0.8 0.8,-0.8s0.8,0.3 0.8,0.8V20c0,0.6 0.5,1.1 1,1.1h12.4c0.6,0 1,-0.5 1,-1.1V3.8c0,-0.6 -0.5,-1 -1,-1H5.8c-0.6,0 -1,0.5 -1,1v1.7c0,0.4 -0.3,0.8 -0.8,0.8S3.2,5.9 3.2,5.5V3.8c0,-1.4 1.1,-2.5 2.5,-2.5h12.4C19.6,1.3 20.8,2.4 20.8,3.8zM4,9.9c0.4,0 0.8,0.3 0.8,0.8v2.8c0,0.4 -0.3,0.8 -0.8,0.8s-0.8,-0.3 -0.8,-0.8v-2.8C3.2,10.3 3.6,9.9 4,9.9zM2,8c0,-0.4 0.3,-0.8 0.8,-0.8h2.6c0.4,0 0.8,0.3 0.8,0.8S5.8,8.8 5.4,8.8H2.8C2.4,8.8 2,8.4 2,8zM5.4,16.8H2.8C2.4,16.8 2,16.4 2,16s0.3,-0.8 0.8,-0.8h2.6c0.4,0 0.8,0.3 0.8,0.8S5.8,16.8 5.4,16.8z" id="path_0"/></svg>