<svg id="vector" xmlns="http://www.w3.org/2000/svg" width="24.0d" height="24.0d" viewBox="0 0 24.0 24.0"><path fill="#52575f" d="M6.25,10C6.94,10 7.5,10.56 7.5,11.25C7.5,11.94 6.94,12.5 6.25,12.5C5.56,12.5 5,11.94 5,11.25C5,10.56 5.56,10 6.25,10Z" id="path_0"/><path fill="#52575f" d="M17.75,10C18.44,10 19,10.56 19,11.25C19,11.94 18.44,12.5 17.75,12.5C17.06,12.5 16.5,11.94 16.5,11.25C16.5,10.56 17.06,10 17.75,10Z" id="path_1"/><path fill="#52575f" d="M9.5,6C10.19,6 10.75,6.56 10.75,7.25C10.75,7.94 10.19,8.5 9.5,8.5C8.81,8.5 8.25,7.94 8.25,7.25C8.25,6.56 8.81,6 9.5,6Z" id="path_2"/><path fill="#52575f" d="M14.5,6C15.19,6 15.75,6.56 15.75,7.25C15.75,7.94 15.19,8.5 14.5,8.5C13.81,8.5 13.25,7.94 13.25,7.25C13.25,6.56 13.81,6 14.5,6Z" id="path_3"/><path fill="#52575f" d="M12,2C17.523,2 22,6.376 22,11.773L21.992,12.183C21.66,20.541 11.035,13.088 13.25,18.614C15.465,24.14 2.418,21.391 2.01,12.215L2,11.773C2,6.376 6.477,2 12,2ZM12,3.5C7.273,3.5 3.5,7.237 3.5,11.773C3.5,15.738 6.306,18.406 9.02,19.477C10.419,20.029 11.464,20.023 11.901,19.854C11.953,19.835 11.982,19.816 11.999,19.805C12.006,19.742 12.009,19.55 11.857,19.172C11.549,18.402 11.32,17.534 11.524,16.714C11.78,15.692 12.565,15.195 13.263,14.999C13.872,14.828 14.555,14.835 15.096,14.858C15.386,14.871 15.69,14.893 15.979,14.913C16.276,14.934 16.563,14.954 16.853,14.968C18.082,15.026 18.955,14.936 19.52,14.582C19.929,14.325 20.5,13.713 20.5,11.773C20.5,7.237 16.727,3.5 12,3.5Z" fill-rule="evenodd" id="path_4"/></svg>