<svg id="vector" xmlns="http://www.w3.org/2000/svg" width="24.0d" height="24.0d" viewBox="0 0 24.0 24.0"><path fill="#52575f" d="m18.53,17.47c0.29,0.29 0.29,0.77 0,1.06 -0.15,0.15 -0.34,0.22 -0.53,0.22s-0.38,-0.07 -0.53,-0.22l-5.47,-5.47 -5.47,5.47c-0.15,0.15 -0.34,0.22 -0.53,0.22s-0.38,-0.07 -0.53,-0.22c-0.29,-0.29 -0.29,-0.77 0,-1.06l5.47,-5.47 -5.47,-5.47c-0.29,-0.29 -0.29,-0.77 0,-1.06s0.77,-0.29 1.06,0l5.47,5.47 5.47,-5.47c0.29,-0.29 0.77,-0.29 1.06,0s0.29,0.77 0,1.06l-5.47,5.47 5.47,5.47Z" id="path_0"/></svg>