<svg id="vector" xmlns="http://www.w3.org/2000/svg" width="24.0d" height="24.0d" viewBox="0 0 24.0 24.0"><path fill="#4ba5ff" d="M21.9,11.5l-3.4,-3.4c-0.3,-0.3 -0.8,-0.3 -1.1,0s-0.3,0.8 0,1.1l2.1,2.1h-8.9c-0.4,0 -0.8,0.3 -0.8,0.8s0.3,0.8 0.8,0.8h8.9L17.4,15c-0.3,0.3 -0.3,0.8 0,1.1c0.1,0.1 0.3,0.2 0.5,0.2s0.4,-0.1 0.5,-0.2l3.4,-3.4C22.1,12.3 22.2,11.9 21.9,11.5z" id="path_0"/><path fill="#4ba5ff" d="M14.3,16.1c-0.4,0 -0.8,0.3 -0.8,0.8v1.6c0,0.2 -0.1,0.3 -0.3,0.3H3.8c-0.2,0 -0.3,-0.1 -0.3,-0.3V5.9c0,-0.2 0.1,-0.3 0.3,-0.3h9.5c0.2,0 0.3,0.1 0.3,0.3v1.5c0,0.4 0.3,0.8 0.8,0.8s0.8,-0.3 0.8,-0.8V5.9c0,-1 -0.8,-1.8 -1.8,-1.8H3.8C2.8,4.1 2,4.9 2,5.9v12.5c0,1 0.8,1.8 1.8,1.8h9.5c1,0 1.8,-0.8 1.8,-1.8v-1.6C15.1,16.4 14.7,16.1 14.3,16.1z" id="path_1"/></svg>