<svg id="vector" xmlns="http://www.w3.org/2000/svg" width="24.0d" height="24.0d" viewBox="0 0 24.0 24.0"><path fill="#52575f" d="M12.591,4.531L12,4.468L11.409,4.531C8.65,4.825 6.499,7.162 6.499,10V12.619C6.499,13.476 6.185,14.304 5.615,14.944L4.083,16.668C3.797,16.99 4.026,17.5 4.457,17.5H11.55L11.553,17.5C11.85,17.499 12.151,17.499 12.448,17.5L12.45,17.5L12.453,17.5H19.546C19.977,17.5 20.206,16.99 19.92,16.668L18.383,14.94C17.814,14.299 17.499,13.472 17.499,12.615V10C17.499,7.163 15.35,4.825 12.591,4.531ZM12.453,19L12.444,19C12.15,18.999 11.853,18.999 11.559,19L11.55,19H9.5V19.5C9.5,19.884 9.644,20.235 9.882,20.5C10.157,20.807 10.556,21 11,21H13C13.444,21 13.843,20.807 14.118,20.5C14.356,20.235 14.5,19.884 14.5,19.5V19H12.453ZM11.25,3.04C7.736,3.414 4.999,6.387 4.999,10V12.619C4.999,13.109 4.82,13.582 4.494,13.948L2.962,15.671C1.816,16.961 2.731,19 4.457,19H8V19.5C8,21.157 9.343,22.5 11,22.5H13C14.657,22.5 16,21.157 16,19.5V19H19.546C21.271,19 22.187,16.961 21.041,15.671L19.505,13.943C19.179,13.577 18.999,13.104 18.999,12.615V10C18.999,6.388 16.263,3.414 12.75,3.04V2C12.75,1.586 12.414,1.25 12,1.25C11.586,1.25 11.25,1.586 11.25,2V3.04Z" fill-rule="evenodd" id="path_0"/></svg>