<svg id="vector" xmlns="http://www.w3.org/2000/svg" width="24.0d" height="24.0d" viewBox="0 0 24.0 24.0"><path fill="#52575f" d="m12,2C6.48,2 2,6.48 2,12s4.48,10 10,10 10,-4.48 10,-10S17.52,2 12,2ZM12,20.5c-4.69,0 -8.5,-3.81 -8.5,-8.5S7.31,3.5 12,3.5s8.5,3.81 8.5,8.5 -3.81,8.5 -8.5,8.5ZM14.36,9.44c0.31,1.18 -0.24,2.38 -1.33,2.91 -0.21,0.1 -0.34,0.34 -0.34,0.6v0.33c0,0.41 -0.34,0.75 -0.75,0.75s-0.75,-0.34 -0.75,-0.75v-0.33c0,-0.84 0.47,-1.6 1.19,-1.95 0.36,-0.17 0.68,-0.62 0.53,-1.18 -0.08,-0.33 -0.36,-0.6 -0.69,-0.69 -0.32,-0.09 -0.64,-0.02 -0.89,0.17 -0.25,0.19 -0.39,0.48 -0.39,0.79 0,0.41 -0.34,0.75 -0.75,0.75s-0.75,-0.34 -0.75,-0.75c0,-0.78 0.35,-1.5 0.97,-1.98 0.62,-0.48 1.41,-0.64 2.19,-0.44 0.85,0.22 1.54,0.91 1.76,1.76ZM12.95,15.66c0,0.52 -0.43,0.95 -0.95,0.95s-0.95,-0.43 -0.95,-0.95 0.43,-0.95 0.95,-0.95 0.95,0.43 0.95,0.95Z" id="path_0"/></svg>