<svg id="vector" xmlns="http://www.w3.org/2000/svg" width="24.0d" height="24.0d" viewBox="0 0 24.0 24.0"><path fill="#52575f" d="M7.201,8.637C7.308,8.237 7.719,7.999 8.119,8.106L16.813,10.436C17.213,10.543 17.45,10.954 17.343,11.354C17.236,11.755 16.825,11.992 16.424,11.885L7.731,9.555C7.331,9.448 7.094,9.037 7.201,8.637Z" id="path_0"/><path fill="#52575f" d="M7.472,10.521C7.072,10.414 6.661,10.651 6.554,11.052C6.447,11.452 6.684,11.863 7.084,11.97L12.88,13.523C13.28,13.63 13.691,13.393 13.798,12.993C13.906,12.593 13.668,12.181 13.268,12.074L7.472,10.521Z" id="path_1"/><path fill="#52575f" d="M8.195,2.691C6.77,2.31 5.308,3.145 4.929,4.558L2.935,11.999C2.557,13.412 3.405,14.867 4.83,15.248L16.09,18.265C17.515,18.647 18.978,17.812 19.356,16.399L21.35,8.958C21.729,7.545 20.88,6.09 19.455,5.708L8.195,2.691ZM6.337,4.935C6.509,4.293 7.174,3.913 7.821,4.087L19.081,7.104C19.729,7.277 20.115,7.939 19.943,8.581L17.949,16.022C17.777,16.664 17.112,17.044 16.464,16.87L5.204,13.853C4.557,13.68 4.171,13.018 4.343,12.376L6.337,4.935Z" fill-rule="evenodd" id="path_2"/><path fill="#52575f" d="M5.5,16.75C5.5,16.336 5.164,16 4.75,16C4.336,16 4,16.336 4,16.75V18.25C4,19.769 5.231,21 6.75,21H18.25C19.769,21 21,19.769 21,18.25C21,17.836 20.664,17.5 20.25,17.5C19.836,17.5 19.5,17.836 19.5,18.25C19.5,18.94 18.94,19.5 18.25,19.5H6.75C6.06,19.5 5.5,18.94 5.5,18.25V16.75Z" id="path_3"/></svg>