<svg id="vector" xmlns="http://www.w3.org/2000/svg" width="24.0d" height="24.0d" viewBox="0 0 24.0 24.0"><path fill="#52575f" d="M9.5,3C8.948,3 8.5,3.448 8.5,4V9.5H7.75C7.336,9.5 7,9.836 7,10.25C7,10.664 7.336,11 7.75,11H16.25C16.664,11 17,10.664 17,10.25C17,9.836 16.664,9.5 16.25,9.5H15.5V4C15.5,3.448 15.052,3 14.5,3H9.5ZM13.924,5.265C14.07,5.031 13.999,4.722 13.765,4.576C13.531,4.43 13.222,4.501 13.076,4.735L11.587,7.117L10.9,6.2C10.734,5.979 10.421,5.934 10.2,6.1C9.979,6.266 9.934,6.579 10.1,6.8L11.181,8.242C11.413,8.551 11.883,8.531 12.088,8.203L13.924,5.265Z" fill-rule="evenodd" id="path_0"/><path fill="#52575f" d="M5.484,7.921C5.518,7.819 5.613,7.75 5.721,7.75H6.5C6.914,7.75 7.25,7.414 7.25,7C7.25,6.586 6.914,6.25 6.5,6.25H5.721C4.968,6.25 4.299,6.732 4.061,7.447L2.34,12.609C2.28,12.787 2.25,12.974 2.25,13.162L2.25,19C2.25,19.881 2.903,20.75 3.889,20.75H20.111C21.097,20.75 21.75,19.881 21.75,19L21.75,13.162C21.75,12.974 21.72,12.787 21.66,12.609L19.939,7.447C19.701,6.732 19.032,6.25 18.279,6.25H17.5C17.086,6.25 16.75,6.586 16.75,7C16.75,7.414 17.086,7.75 17.5,7.75H18.279C18.387,7.75 18.482,7.819 18.516,7.921L20.043,12.5H3.957L5.484,7.921ZM3.75,14H20.25L20.25,19C20.25,19.096 20.215,19.168 20.179,19.209C20.144,19.248 20.119,19.25 20.111,19.25H3.889C3.881,19.25 3.856,19.248 3.821,19.209C3.785,19.168 3.75,19.096 3.75,19L3.75,14Z" fill-rule="evenodd" id="path_1"/></svg>