<svg id="vector" xmlns="http://www.w3.org/2000/svg" width="24.0d" height="24.0d" viewBox="0 0 24.0 24.0"><path fill="#52575f" d="m16.1,20.43c0,0.41 -0.34,0.75 -0.75,0.75L5.07,21.18c-1.19,0 -2.15,-0.96 -2.15,-2.15v-0.57c0,-3.59 2.81,-6.39 6.39,-6.39h2.77c0.41,0 0.75,0.34 0.75,0.75s-0.34,0.75 -0.75,0.75h-2.77c-2.74,0 -4.89,2.15 -4.89,4.89v0.57c0,0.36 0.29,0.65 0.65,0.65h10.28c0.41,0 0.75,0.34 0.75,0.75ZM7.26,6.45c0,-2.46 1.99,-4.45 4.45,-4.45s4.45,1.99 4.45,4.45 -1.99,4.45 -4.45,4.45 -4.45,-1.99 -4.45,-4.45ZM8.76,6.45c0,1.62 1.32,2.95 2.95,2.95s2.95,-1.32 2.95,-2.95 -1.32,-2.95 -2.95,-2.95 -2.95,1.32 -2.95,2.95ZM20.86,13.25c-0.29,-0.29 -0.77,-0.29 -1.06,0l-3.3,3.3 -1.68,-1.68c-0.29,-0.29 -0.77,-0.29 -1.06,0s-0.29,0.77 0,1.06l2.21,2.21c0.15,0.15 0.34,0.22 0.53,0.22s0.38,-0.07 0.53,-0.22l3.83,-3.83c0.29,-0.29 0.29,-0.77 0,-1.06Z" id="path_0"/></svg>