<svg id="vector" xmlns="http://www.w3.org/2000/svg" width="24.0d" height="24.0d" viewBox="0 0 24.0 24.0"><path fill="#52575f" d="M16.709,6.256L12.01,2.471L4.5,8.787V20.5C4.5,20.776 4.724,21 5,21H13C13.257,21 13.51,20.985 13.758,20.956C14.109,21.411 14.474,21.855 14.846,22.286C14.254,22.426 13.635,22.5 13,22.5H5C3.895,22.5 3,21.605 3,20.5V10.048L1.483,11.324C1.166,11.59 0.693,11.55 0.426,11.233C0.159,10.916 0.2,10.443 0.517,10.176L11.202,1.191C11.66,0.806 12.326,0.799 12.791,1.174L19.907,6.906C19.027,6.486 18.041,6.25 17,6.25C16.902,6.25 16.805,6.252 16.709,6.256Z" id="path_0"/><path fill="#52575f" d="M17,16C18.657,16 20,14.657 20,13C20,11.343 18.657,10 17,10C15.343,10 14,11.343 14,13C14,14.657 15.343,16 17,16ZM17,14.5C17.828,14.5 18.5,13.828 18.5,13C18.5,12.172 17.828,11.5 17,11.5C16.172,11.5 15.5,12.172 15.5,13C15.5,13.828 16.172,14.5 17,14.5Z" fill-rule="evenodd" id="path_1"/><path fill="#52575f" d="M17.679,7.038C17.456,7.013 17.23,7 17,7C13.686,7 11,9.686 11,13C11,15.994 13.448,19.699 16.133,22.599C16.603,23.106 17.397,23.106 17.867,22.599C20.552,19.699 23,15.994 23,13C23,11.545 22.482,10.211 21.62,9.172C20.656,8.009 19.261,7.216 17.679,7.038ZM20.137,17.092C21.028,15.528 21.5,14.122 21.5,13C21.5,10.515 19.485,8.5 17,8.5C14.515,8.5 12.5,10.515 12.5,13C12.5,14.122 12.972,15.528 13.863,17.092C14.686,18.537 15.801,20 17,21.325C18.199,20 19.314,18.537 20.137,17.092Z" fill-rule="evenodd" id="path_2"/></svg>