<svg id="vector" xmlns="http://www.w3.org/2000/svg" width="24" height="24" viewBox="0 0 24 24"><defs><clipPath id="clip_path_0"><path d="M0,0h24v24h-24z"/></clipPath><linearGradient gradientUnits="userSpaceOnUse" x1="12.0" y1="18.201" x2="12.0" y2="23.411" id="gradient_1"><stop stop-color="#00b55d" offset="0.0"/><stop stop-color="#00db89" offset="1.0"/></linearGradient><linearGradient gradientUnits="userSpaceOnUse" x1="12.409" y1="0.0" x2="12.409" y2="16.374" id="gradient_2"><stop stop-color="#00b55d" offset="0.0"/><stop stop-color="#00db89" offset="1.0"/></linearGradient></defs><g id="g_0"><path fill="url(#gradient_1)" d="M23.874,21.031C23.874,22.056 22.704,22.64 21.885,22.026L21.151,21.222C20.694,20.878 20.061,20.892 19.618,21.254L17.786,22.849C16.87,23.598 15.553,23.598 14.637,22.849L12.756,21.234C12.298,20.859 11.639,20.859 11.181,21.234L9.505,22.731C8.589,23.48 7.272,23.48 6.356,22.731L4.482,21.262C4.039,20.9 3.407,20.887 2.949,21.23L2.115,22.04C1.296,22.655 0.126,22.07 0.126,21.045C0.126,20.654 0.31,20.286 0.623,20.051L2.17,18.706C3.085,18.02 4.351,18.046 5.236,18.771L7.143,20.267C7.601,20.641 8.26,20.641 8.718,20.267L10.394,18.77C11.31,18.02 12.627,18.02 13.543,18.77L15.424,20.385C15.882,20.76 16.541,20.76 16.999,20.385L18.864,18.763C19.75,18.038 21.015,18.011 21.931,18.698L23.376,20.036C23.69,20.271 23.874,20.64 23.874,21.031Z" clip-path="url(#clip_path_0)"/><path fill="url(#gradient_2)" d="M11.416,0.217C12.047,-0.072 12.77,-0.072 13.401,0.217C14.125,0.549 14.675,1.547 15.775,3.543L19.639,10.557C20.694,12.47 21.222,13.427 21.133,14.21C21.055,14.893 20.697,15.512 20.146,15.914C19.515,16.375 18.434,16.374 16.273,16.374H8.545C6.384,16.374 5.303,16.375 4.672,15.914C4.121,15.512 3.763,14.893 3.685,14.21C3.597,13.427 4.123,12.47 5.178,10.557L9.042,3.543C10.142,1.547 10.692,0.549 11.416,0.217ZM12.419,10.916C11.846,10.916 11.382,11.381 11.382,11.953C11.382,12.526 11.846,12.99 12.419,12.99C12.992,12.99 13.456,12.526 13.456,11.953C13.456,11.38 12.991,10.916 12.419,10.916ZM12.408,5.239C11.622,5.239 11.01,5.923 11.097,6.704L11.377,9.23C11.435,9.754 11.88,10.152 12.408,10.152C12.936,10.152 13.38,9.754 13.438,9.23L13.719,6.704C13.805,5.923 13.194,5.239 12.408,5.239Z"/></g></svg>