<svg id="vector" xmlns="http://www.w3.org/2000/svg" width="24" height="24" viewBox="0 0 24 24"><defs><clipPath id="clip_path_0"><path d="M0,0h24v24h-24z"/></clipPath><linearGradient gradientUnits="userSpaceOnUse" x1="12.0" y1="0.0" x2="12.0" y2="24.0" id="gradient_1"><stop stop-color="#9145df" offset="0.0"/><stop stop-color="#ba62f0" offset="1.0"/></linearGradient></defs><g id="g_0"><path fill="url(#gradient_1)" d="M9.687,0.778C10.958,-0.261 13.034,-0.262 14.317,0.79L22.632,7.564C23.556,8.323 24.156,9.925 23.964,11.123L22.368,20.857C22.08,22.581 20.436,24 18.721,24H5.283C3.556,24 1.924,22.594 1.636,20.857L0.04,11.123C-0.164,9.925 0.435,8.323 1.371,7.564L9.687,0.778ZM12.01,6.308C8.05,6.302 4.836,9.5 4.83,13.451C4.825,17.402 8.03,20.608 11.989,20.614C15.949,20.62 19.164,17.422 19.17,13.472C19.176,9.521 15.97,6.313 12.01,6.308ZM9.803,15.582C11.257,15.798 12.736,15.8 14.191,15.589C14.025,16.364 13.778,17.051 13.485,17.609C13.215,18.125 12.92,18.505 12.641,18.746C12.36,18.988 12.138,19.055 11.991,19.055C11.844,19.054 11.624,18.987 11.344,18.744C11.065,18.502 10.771,18.122 10.502,17.605C10.211,17.046 9.966,16.358 9.803,15.582ZM17.461,14.73C17.117,16.211 16.183,17.467 14.92,18.237C15.344,17.399 15.669,16.378 15.84,15.254C16.387,15.111 16.929,14.936 17.461,14.73ZM6.534,14.715C7.066,14.922 7.607,15.098 8.154,15.243C8.322,16.368 8.643,17.389 9.065,18.228C7.805,17.454 6.874,16.197 6.534,14.715ZM12.008,7.867C12.155,7.867 12.376,7.936 12.656,8.179C12.935,8.421 13.229,8.8 13.498,9.316C14.035,10.347 14.415,11.816 14.412,13.465C14.412,13.637 14.408,13.807 14.399,13.974C12.812,14.258 11.185,14.256 9.599,13.968C9.591,13.8 9.587,13.63 9.587,13.458C9.589,11.809 9.974,10.342 10.514,9.312C10.784,8.797 11.079,8.418 11.358,8.177C11.639,7.934 11.861,7.867 12.008,7.867ZM14.934,8.693C16.41,9.6 17.433,11.17 17.586,12.987C17.059,13.225 16.521,13.428 15.975,13.595C15.975,13.552 15.976,13.509 15.976,13.467C15.978,11.641 15.571,9.96 14.934,8.693ZM9.079,8.684C8.439,9.95 8.026,11.63 8.023,13.455C8.023,13.498 8.024,13.54 8.024,13.583C7.478,13.414 6.94,13.21 6.414,12.971C6.572,11.154 7.6,9.587 9.079,8.684Z" clip-path="url(#clip_path_0)"/></g></svg>