<svg id="vector" xmlns="http://www.w3.org/2000/svg" width="24" height="24" viewBox="0 0 24 24"><defs><clipPath id="clip_path_0"><path d="M0,0h24v24h-24z"/></clipPath><linearGradient gradientUnits="userSpaceOnUse" x1="12.0" y1="0.0" x2="12.0" y2="21.0" id="gradient_1"><stop stop-color="#165ef8" offset="0.0"/><stop stop-color="#165ef8" offset="1.0"/></linearGradient></defs><g id="g_0"><path fill="#165ef8" d="M12.5,24C14.985,24 17,21.985 17,19.5C17,17.015 14.985,15 12.5,15C10.015,15 8,17.015 8,19.5C8,21.985 10.015,24 12.5,24Z" clip-path="url(#clip_path_0)"/><path fill="url(#gradient_1)" d="M24,11V21H19V19.5C19,15.91 16.09,13 12.5,13C8.91,13 6,15.91 6,19.5V21H2C0.895,21 0,20.105 0,19L0,3C0,1.343 1.343,0 3,0H24V3H18C16.895,3 16,3.895 16,5V9C16,10.105 16.895,11 18,11H24ZM3,5C3,3.895 3.895,3 5,3H11C12.105,3 13,3.895 13,5V9C13,10.105 12.105,11 11,11H5C3.895,11 3,10.105 3,9V5Z" fill-rule="evenodd"/></g></svg>