<svg id="vector" xmlns="http://www.w3.org/2000/svg" width="24" height="24" viewBox="0 0 24 24"><defs><clipPath id="clip_path_0"><path d="M0,0h24v24h-24z"/></clipPath><linearGradient gradientUnits="userSpaceOnUse" x1="12.0" y1="0.027" x2="12.0" y2="19.679" id="gradient_1"><stop stop-color="#feb300" offset="0.0"/><stop stop-color="#ffce59" offset="1.0"/></linearGradient></defs><g id="g_0"><path fill="#44340a" d="M9.168,18.613C9.107,18.841 8.987,19.058 8.808,19.237L4.423,23.621C3.876,24.167 2.99,24.167 2.444,23.621C1.897,23.074 1.897,22.188 2.444,21.641L5.471,18.613H9.168ZM21.585,21.641C22.131,22.188 22.131,23.074 21.585,23.621C21.038,24.167 20.152,24.167 19.605,23.621L15.221,19.237C15.042,19.058 14.922,18.841 14.861,18.613H18.557L21.585,21.641Z" clip-path="url(#clip_path_0)"/><path fill="url(#gradient_1)" d="M20.687,0.027C22.343,0.027 23.687,1.37 23.687,3.027V16.433C23.686,18.416 21.949,19.679 19.812,19.679H4.188C2.064,19.679 0.314,18.416 0.313,16.433V3.027C0.313,1.37 1.657,0.027 3.313,0.027H20.687ZM5.238,3.574C4.686,3.574 4.238,4.021 4.238,4.574V10.574C4.239,11.126 4.686,11.574 5.238,11.574L18.656,11.614C19.208,11.614 19.656,11.166 19.656,10.614V4.614C19.656,4.062 19.208,3.614 18.656,3.614L5.238,3.574Z"/><path fill="#44340a" d="M6.374,17.746C7.617,17.746 8.625,16.739 8.625,15.496C8.625,14.253 7.617,13.246 6.374,13.246C5.132,13.246 4.124,14.253 4.124,15.496C4.124,16.739 5.132,17.746 6.374,17.746Z"/><path fill="#44340a" d="M17.626,17.746C18.869,17.746 19.876,16.739 19.876,15.496C19.876,14.253 18.869,13.246 17.626,13.246C16.383,13.246 15.375,14.253 15.375,15.496C15.375,16.739 16.383,17.746 17.626,17.746Z"/></g></svg>