<svg id="vector" xmlns="http://www.w3.org/2000/svg" width="24.0d" height="24.0d" viewBox="0 0 24.0 24.0"><path fill="#52575f" d="m12,2C6.48,2 2,6.48 2,12s4.48,10 10,10 10,-4.48 10,-10S17.52,2 12,2ZM12,20.5c-4.69,0 -8.5,-3.81 -8.5,-8.5S7.31,3.5 12,3.5s8.5,3.81 8.5,8.5 -3.81,8.5 -8.5,8.5ZM12.75,11.72v3.57c0,0.41 -0.34,0.75 -0.75,0.75s-0.75,-0.34 -0.75,-0.75v-3.57c0,-0.41 0.34,-0.75 0.75,-0.75s0.75,0.34 0.75,0.75ZM12.95,8.97c0,0.52 -0.43,0.95 -0.95,0.95s-0.95,-0.43 -0.95,-0.95 0.43,-0.95 0.95,-0.95 0.95,0.43 0.95,0.95Z" id="path_0"/></svg>