<svg id="vector" xmlns="http://www.w3.org/2000/svg" width="297.0d" height="24.0d" viewBox="0 0 297.0 24.0"><path fill="#000000" d="M149.22,14.33C149.02,14.35 148.85,14.41 148.77,14.44L148.88,15.12C148.99,15.09 149.1,15.06 149.27,15.03C149.44,15.03 149.61,15 149.81,15C150.01,15 150.06,15 150.18,15.06C150.26,15.09 150.35,15.14 150.4,15.23C150.46,15.28 150.49,15.37 150.51,15.45C150.51,15.54 150.54,15.62 150.54,15.74V15.88C150.43,15.88 150.32,15.82 150.21,15.82C150.09,15.82 150.01,15.82 149.92,15.82C149.73,15.82 149.53,15.82 149.36,15.88C149.19,15.91 149.02,15.99 148.88,16.07C148.74,16.16 148.63,16.27 148.54,16.41C148.46,16.55 148.43,16.72 148.43,16.95C148.43,17.17 148.46,17.34 148.54,17.48C148.63,17.63 148.71,17.77 148.85,17.85C148.99,17.94 149.13,18.02 149.3,18.05C149.47,18.08 149.67,18.1 149.9,18.1C150.23,18.1 150.51,18.1 150.77,18.05C151.02,18.02 151.22,17.96 151.36,17.94V15.74C151.36,15.51 151.36,15.34 151.28,15.14C151.22,14.97 151.14,14.81 151.02,14.69C150.91,14.58 150.77,14.47 150.57,14.41C150.37,14.35 150.15,14.3 149.87,14.3C149.59,14.3 149.41,14.3 149.22,14.35M149.41,17.29C149.3,17.2 149.22,17.06 149.22,16.86C149.22,16.67 149.22,16.67 149.27,16.61C149.33,16.55 149.39,16.5 149.47,16.44C149.56,16.41 149.64,16.38 149.73,16.36C149.81,16.36 149.92,16.36 150.01,16.36C150.09,16.36 150.21,16.36 150.29,16.36C150.37,16.36 150.43,16.36 150.49,16.38V17.32C150.35,17.32 150.15,17.34 149.9,17.34C149.64,17.34 149.5,17.32 149.39,17.23M145.78,12.61L144.93,12.75V17.99H145.78V16.33C145.89,16.41 146.03,16.53 146.17,16.67C146.31,16.81 146.43,16.95 146.57,17.09C146.68,17.23 146.82,17.4 146.9,17.54C147.02,17.71 147.1,17.85 147.19,17.99H148.15C148.06,17.82 147.95,17.65 147.84,17.48C147.72,17.29 147.58,17.12 147.44,16.92C147.3,16.72 147.16,16.55 146.99,16.38C146.85,16.22 146.68,16.07 146.57,15.96C146.82,15.71 147.07,15.43 147.33,15.14C147.58,14.86 147.84,14.61 148.06,14.33H147.07C146.99,14.41 146.9,14.52 146.82,14.64C146.71,14.75 146.6,14.89 146.48,15C146.37,15.14 146.26,15.26 146.12,15.4C146,15.54 145.89,15.65 145.78,15.76V12.61ZM142.17,17.32C142,17.26 141.86,17.23 141.72,17.17L141.57,17.88C141.66,17.91 141.8,17.96 142,18.02C142.2,18.08 142.45,18.1 142.76,18.1C143.24,18.1 143.61,18.02 143.86,17.85C144.11,17.68 144.25,17.4 144.25,17.06C144.25,16.72 144.25,16.75 144.2,16.64C144.17,16.53 144.09,16.41 144,16.33C143.92,16.24 143.8,16.16 143.66,16.07C143.52,15.99 143.35,15.93 143.15,15.85C143.04,15.82 142.93,15.76 142.84,15.74C142.76,15.71 142.7,15.65 142.65,15.62C142.59,15.59 142.56,15.54 142.53,15.48C142.53,15.43 142.51,15.37 142.51,15.31C142.51,15.2 142.56,15.12 142.68,15.06C142.79,15 142.93,14.97 143.1,14.97C143.27,14.97 143.46,14.97 143.61,15.03C143.75,15.06 143.86,15.12 143.97,15.14L144.11,14.47C144.03,14.44 143.86,14.38 143.66,14.35C143.46,14.33 143.27,14.3 143.04,14.3C142.62,14.3 142.28,14.38 142.05,14.58C141.8,14.78 141.69,15.03 141.69,15.37C141.69,15.71 141.69,15.68 141.77,15.79C141.83,15.91 141.88,16.02 142,16.1C142.08,16.19 142.2,16.27 142.34,16.33C142.45,16.38 142.59,16.44 142.76,16.5C143.01,16.58 143.18,16.67 143.29,16.75C143.41,16.84 143.46,16.92 143.46,17.06C143.46,17.2 143.41,17.29 143.32,17.34C143.21,17.4 143.07,17.43 142.84,17.43C142.62,17.43 142.42,17.43 142.25,17.37M141.07,17.37C140.96,17.37 140.87,17.34 140.79,17.32C140.7,17.32 140.64,17.26 140.62,17.2C140.59,17.15 140.56,17.09 140.53,17.03C140.53,16.98 140.53,16.89 140.53,16.78V12.63L139.69,12.77V16.95C139.69,17.12 139.69,17.29 139.74,17.43C139.77,17.57 139.85,17.68 139.94,17.79C140.02,17.88 140.16,17.96 140.33,18.02C140.5,18.08 140.7,18.1 140.96,18.1L141.07,17.4V17.37ZM137.82,17.06C137.65,17.29 137.46,17.37 137.18,17.37C136.89,17.37 136.7,17.26 136.53,17.06C136.39,16.84 136.3,16.55 136.3,16.19C136.3,15.82 136.39,15.54 136.53,15.34C136.7,15.14 136.89,15.03 137.18,15.03C137.46,15.03 137.65,15.14 137.82,15.34C137.96,15.54 138.05,15.85 138.05,16.19C138.05,16.53 137.96,16.84 137.82,17.06ZM138.81,15.4C138.73,15.17 138.61,14.97 138.45,14.81C138.3,14.64 138.11,14.52 137.88,14.41C137.65,14.33 137.43,14.27 137.18,14.27C136.92,14.27 136.7,14.33 136.47,14.41C136.24,14.49 136.08,14.64 135.91,14.81C135.76,14.97 135.62,15.17 135.54,15.4C135.46,15.62 135.4,15.91 135.4,16.19C135.4,16.47 135.46,16.72 135.54,16.98C135.62,17.2 135.74,17.4 135.91,17.57C136.05,17.74 136.24,17.85 136.44,17.96C136.67,18.05 136.89,18.1 137.15,18.1C137.4,18.1 137.65,18.05 137.85,17.96C138.08,17.88 138.25,17.74 138.42,17.57C138.56,17.4 138.7,17.2 138.78,16.98C138.87,16.75 138.9,16.47 138.9,16.19C138.9,15.91 138.84,15.65 138.76,15.4M133.43,13.93C133.57,13.93 133.71,13.99 133.79,14.07C133.9,14.13 133.99,14.21 134.04,14.33C134.1,14.44 134.13,14.55 134.13,14.72C134.13,15.06 134.02,15.28 133.79,15.4C133.57,15.51 133.23,15.57 132.83,15.57H132.41V13.93C132.55,13.93 132.75,13.93 132.95,13.93C133.14,13.93 133.26,13.93 133.43,13.96M132.21,13.17C131.96,13.17 131.73,13.23 131.54,13.25V17.99H132.41V16.3H132.83C133.17,16.3 133.51,16.27 133.76,16.22C134.04,16.16 134.27,16.07 134.47,15.93C134.67,15.82 134.81,15.65 134.89,15.45C135,15.26 135.03,15 135.03,14.72C135.03,14.18 134.84,13.79 134.47,13.54C134.1,13.28 133.57,13.14 132.86,13.14C132.16,13.14 132.44,13.14 132.18,13.14" id="path_0"/><path fill="#000000" d="M176.57,6.35C176.38,6.37 176.21,6.43 176.12,6.46L176.24,7.14C176.35,7.11 176.46,7.08 176.63,7.05C176.8,7.05 176.97,7.02 177.17,7.02C177.36,7.02 177.42,7.02 177.53,7.08C177.62,7.11 177.7,7.16 177.76,7.25C177.82,7.33 177.84,7.39 177.87,7.47C177.87,7.56 177.9,7.64 177.9,7.76V7.9C177.79,7.9 177.67,7.84 177.56,7.84C177.45,7.84 177.36,7.84 177.28,7.84C177.08,7.84 176.88,7.84 176.71,7.9C176.55,7.93 176.38,8.01 176.24,8.09C176.09,8.18 175.98,8.29 175.9,8.43C175.81,8.57 175.78,8.74 175.78,8.97C175.78,9.19 175.81,9.36 175.9,9.51C175.98,9.65 176.07,9.79 176.21,9.87C176.35,9.96 176.49,10.04 176.66,10.07C176.83,10.1 177.02,10.13 177.25,10.13C177.59,10.13 177.87,10.13 178.13,10.07C178.38,10.04 178.58,9.98 178.72,9.96V7.76C178.72,7.53 178.72,7.36 178.63,7.16C178.58,7 178.49,6.83 178.38,6.71C178.27,6.6 178.13,6.49 177.93,6.43C177.73,6.37 177.51,6.32 177.22,6.32C176.94,6.32 176.77,6.32 176.57,6.37M176.77,9.31C176.66,9.22 176.57,9.08 176.57,8.88C176.57,8.69 176.57,8.69 176.63,8.63C176.69,8.57 176.74,8.52 176.83,8.46C176.91,8.43 177,8.41 177.08,8.38C177.17,8.38 177.28,8.38 177.36,8.38C177.45,8.38 177.56,8.38 177.65,8.38C177.73,8.38 177.79,8.38 177.84,8.41V9.34C177.7,9.34 177.51,9.36 177.25,9.36C177,9.36 176.86,9.34 176.74,9.25M173.1,8.57C173.1,8.83 173.1,9.03 173.16,9.22C173.19,9.42 173.27,9.56 173.39,9.7C173.5,9.84 173.61,9.93 173.81,10.01C173.98,10.07 174.21,10.13 174.46,10.13C174.71,10.13 174.85,10.13 175.02,10.07C175.19,10.01 175.3,9.98 175.42,9.93L175.28,9.25C175.22,9.25 175.11,9.31 174.99,9.34C174.88,9.36 174.74,9.39 174.6,9.39C174.37,9.39 174.23,9.34 174.12,9.19C174.04,9.08 173.98,8.86 173.98,8.57V7.11H175.28V6.4H173.98V5.3L173.13,5.44V8.57H173.1ZM172.09,4.94C171.98,4.85 171.86,4.8 171.72,4.8C171.58,4.8 171.47,4.85 171.36,4.94C171.24,5.02 171.22,5.16 171.22,5.33C171.22,5.5 171.27,5.61 171.36,5.7C171.47,5.78 171.58,5.84 171.72,5.84C171.86,5.84 171.98,5.78 172.09,5.7C172.2,5.61 172.23,5.47 172.23,5.33C172.23,5.19 172.17,5.05 172.09,4.94ZM172.17,6.37H171.33V10.01H172.17V6.37ZM170.65,9.39C170.54,9.39 170.45,9.36 170.37,9.34C170.29,9.34 170.23,9.28 170.2,9.22C170.17,9.17 170.14,9.11 170.12,9.05C170.12,9 170.12,8.91 170.12,8.8V4.65L169.27,4.8V8.97C169.27,9.14 169.27,9.31 169.33,9.45C169.35,9.59 169.44,9.7 169.52,9.82C169.61,9.9 169.75,9.98 169.92,10.04C170.09,10.1 170.29,10.13 170.54,10.13L170.65,9.42V9.39ZM167.41,9.05C167.27,9.28 167.04,9.36 166.76,9.36C166.48,9.36 166.25,9.25 166.11,9.05C165.94,8.83 165.88,8.55 165.88,8.18C165.88,7.81 165.97,7.53 166.11,7.33C166.25,7.14 166.48,7.02 166.76,7.02C167.04,7.02 167.24,7.14 167.41,7.33C167.55,7.53 167.63,7.84 167.63,8.18C167.63,8.52 167.55,8.83 167.41,9.05ZM168.37,7.42C168.28,7.19 168.17,7 168,6.83C167.86,6.66 167.66,6.54 167.44,6.43C167.21,6.35 166.99,6.29 166.73,6.29C166.48,6.29 166.25,6.35 166.03,6.43C165.8,6.52 165.63,6.66 165.46,6.83C165.32,7 165.18,7.19 165.1,7.42C165.01,7.64 164.96,7.93 164.96,8.21C164.96,8.49 165.01,8.74 165.1,9C165.18,9.22 165.29,9.42 165.46,9.59C165.6,9.76 165.8,9.87 166,9.98C166.22,10.07 166.45,10.13 166.7,10.13C166.96,10.13 167.21,10.07 167.41,9.98C167.63,9.9 167.8,9.76 167.97,9.59C168.11,9.42 168.25,9.22 168.34,9C168.42,8.77 168.45,8.49 168.45,8.21C168.45,7.93 168.4,7.67 168.31,7.42M164.31,7.42C164.22,7.19 164.11,7 163.94,6.83C163.77,6.66 163.6,6.54 163.35,6.46C163.12,6.37 162.87,6.32 162.59,6.32C162.3,6.32 162.05,6.32 161.8,6.37C161.54,6.4 161.35,6.46 161.18,6.52V11.31H162.02V9.9C162.11,9.96 162.22,9.98 162.39,10.04C162.53,10.07 162.7,10.1 162.87,10.1C163.12,10.1 163.35,10.04 163.54,9.96C163.74,9.87 163.91,9.73 164.05,9.56C164.19,9.39 164.28,9.19 164.36,8.97C164.45,8.74 164.48,8.49 164.48,8.21C164.48,7.93 164.42,7.64 164.33,7.42M163.35,9.05C163.21,9.25 162.98,9.36 162.67,9.36C162.36,9.36 162.39,9.36 162.27,9.31C162.16,9.25 162.05,9.22 161.99,9.17V7.08C162.08,7.08 162.16,7.05 162.25,7.02C162.33,7.02 162.42,7.02 162.5,7.02C162.87,7.02 163.15,7.14 163.32,7.33C163.49,7.53 163.57,7.84 163.57,8.21C163.57,8.57 163.52,8.83 163.38,9.05M158.38,9.34C158.21,9.28 158.07,9.25 157.93,9.19L157.79,9.9C157.88,9.93 158.02,9.98 158.21,10.04C158.41,10.1 158.67,10.13 158.98,10.13C159.46,10.13 159.82,10.04 160.08,9.87C160.33,9.7 160.47,9.42 160.47,9.08C160.47,8.74 160.47,8.77 160.41,8.66C160.39,8.55 160.3,8.43 160.22,8.35C160.13,8.26 160.02,8.18 159.88,8.09C159.74,8.01 159.57,7.95 159.37,7.87C159.26,7.84 159.15,7.78 159.06,7.76C158.98,7.73 158.92,7.67 158.86,7.64C158.81,7.62 158.78,7.56 158.75,7.5C158.75,7.45 158.72,7.39 158.72,7.33C158.72,7.22 158.78,7.14 158.89,7.08C159,7.02 159.15,7 159.31,7C159.48,7 159.68,7 159.82,7.05C159.96,7.08 160.08,7.14 160.19,7.16L160.33,6.49C160.24,6.46 160.08,6.4 159.91,6.37C159.71,6.35 159.51,6.32 159.29,6.32C158.86,6.32 158.52,6.4 158.3,6.6C158.04,6.8 157.93,7.05 157.93,7.39C157.93,7.73 157.93,7.7 158.02,7.81C158.07,7.93 158.13,8.04 158.24,8.12C158.35,8.21 158.44,8.29 158.58,8.35C158.72,8.41 158.84,8.46 159,8.52C159.26,8.6 159.43,8.69 159.54,8.77C159.65,8.86 159.71,8.94 159.71,9.08C159.71,9.22 159.65,9.31 159.57,9.36C159.46,9.42 159.31,9.45 159.09,9.45C158.86,9.45 158.67,9.45 158.5,9.39M156.21,9.05C156.07,9.28 155.85,9.36 155.56,9.36C155.28,9.36 155.08,9.25 154.91,9.05C154.74,8.83 154.69,8.55 154.69,8.18C154.69,7.81 154.77,7.53 154.91,7.33C155.06,7.14 155.28,7.02 155.56,7.02C155.85,7.02 156.07,7.14 156.21,7.33C156.35,7.53 156.44,7.84 156.44,8.18C156.44,8.52 156.35,8.83 156.21,9.05ZM157.17,7.42C157.09,7.19 156.97,7 156.8,6.83C156.66,6.66 156.47,6.54 156.24,6.43C156.01,6.35 155.79,6.29 155.54,6.29C155.28,6.29 155.06,6.35 154.83,6.43C154.6,6.52 154.43,6.66 154.27,6.83C154.1,7 153.98,7.19 153.9,7.42C153.82,7.64 153.76,7.93 153.76,8.21C153.76,8.49 153.82,8.74 153.9,9C153.98,9.22 154.1,9.42 154.27,9.59C154.41,9.76 154.6,9.87 154.8,9.98C155.03,10.07 155.25,10.13 155.51,10.13C155.76,10.13 156.01,10.07 156.21,9.98C156.44,9.9 156.61,9.76 156.78,9.59C156.92,9.42 157.06,9.22 157.14,9C157.23,8.77 157.26,8.49 157.26,8.21C157.26,7.93 157.2,7.67 157.11,7.42M153.11,7.42C153.02,7.19 152.91,7 152.74,6.83C152.57,6.66 152.38,6.54 152.15,6.46C151.93,6.37 151.67,6.32 151.39,6.32C151.11,6.32 150.85,6.32 150.6,6.37C150.35,6.4 150.15,6.46 149.98,6.52V11.31H150.82V9.9C150.91,9.96 151.02,9.98 151.19,10.04C151.33,10.07 151.5,10.1 151.67,10.1C151.93,10.1 152.15,10.04 152.35,9.96C152.55,9.87 152.71,9.73 152.86,9.56C153,9.39 153.08,9.19 153.17,8.97C153.25,8.74 153.28,8.49 153.28,8.21C153.28,7.93 153.22,7.64 153.14,7.42M152.15,9.05C152.01,9.25 151.78,9.36 151.47,9.36C151.16,9.36 151.19,9.36 151.08,9.31C150.97,9.25 150.85,9.22 150.8,9.17V7.08C150.88,7.08 150.97,7.05 151.05,7.02C151.14,7.02 151.22,7.02 151.3,7.02C151.67,7.02 151.95,7.14 152.12,7.33C152.29,7.53 152.38,7.84 152.38,8.21C152.38,8.57 152.29,8.83 152.15,9.05ZM149.22,6.37H146.45V7.08H148.12C148.01,7.22 147.86,7.39 147.7,7.59C147.53,7.78 147.38,7.98 147.22,8.21C147.05,8.43 146.9,8.66 146.74,8.86C146.57,9.05 146.45,9.28 146.34,9.45V9.96H149.22V9.25H147.36C147.5,9.03 147.64,8.83 147.84,8.57C148.01,8.35 148.17,8.12 148.34,7.9C148.51,7.67 148.68,7.47 148.82,7.31C148.96,7.14 149.1,7 149.19,6.88V6.29L149.22,6.37ZM143.15,8.97C143.24,9.19 143.35,9.39 143.49,9.56C143.63,9.73 143.83,9.87 144.06,9.96C144.28,10.04 144.57,10.1 144.88,10.1C145.18,10.1 145.27,10.1 145.47,10.04C145.66,10.01 145.8,9.96 145.89,9.93L145.78,9.22C145.66,9.25 145.55,9.31 145.41,9.34C145.27,9.34 145.13,9.36 144.99,9.36C144.59,9.36 144.34,9.25 144.17,9.05C144,8.86 143.92,8.55 143.92,8.21C143.92,7.87 144,7.53 144.17,7.33C144.34,7.14 144.59,7.02 144.93,7.02C145.27,7.02 145.21,7.02 145.33,7.05C145.44,7.05 145.55,7.11 145.66,7.16L145.83,6.49C145.52,6.37 145.21,6.29 144.88,6.29C144.54,6.29 144.34,6.35 144.11,6.43C143.89,6.52 143.69,6.66 143.55,6.83C143.41,7 143.27,7.19 143.18,7.45C143.1,7.67 143.07,7.93 143.07,8.21C143.07,8.49 143.1,8.74 143.18,8.97M140.05,7.84C140.05,7.73 140.08,7.64 140.14,7.53C140.16,7.42 140.22,7.33 140.31,7.25C140.36,7.16 140.45,7.11 140.56,7.05C140.64,7 140.76,6.97 140.9,6.97C141.04,6.97 141.12,6.97 141.21,7.02C141.29,7.08 141.38,7.14 141.43,7.19C141.49,7.28 141.55,7.36 141.57,7.47C141.6,7.59 141.63,7.7 141.63,7.81H140.08L140.05,7.84ZM139.29,8.97C139.38,9.19 139.49,9.39 139.63,9.56C139.77,9.73 139.97,9.87 140.22,9.96C140.45,10.04 140.73,10.1 141.07,10.1C141.41,10.1 141.32,10.1 141.43,10.1C141.55,10.1 141.66,10.07 141.77,10.04C141.88,10.04 141.97,9.98 142.05,9.98C142.14,9.98 142.2,9.93 142.25,9.9L142.14,9.22C142.05,9.25 141.91,9.31 141.74,9.34C141.57,9.36 141.38,9.39 141.18,9.39C140.84,9.39 140.56,9.31 140.39,9.17C140.22,9 140.11,8.77 140.08,8.49H142.48C142.48,8.43 142.48,8.41 142.48,8.32C142.48,8.26 142.48,8.21 142.48,8.15C142.48,7.53 142.34,7.08 142.05,6.77C141.77,6.46 141.38,6.32 140.9,6.32C140.42,6.32 140.48,6.35 140.28,6.43C140.08,6.52 139.88,6.63 139.74,6.8C139.57,6.97 139.46,7.16 139.38,7.39C139.29,7.64 139.23,7.9 139.23,8.24C139.23,8.57 139.26,8.77 139.35,9M138.7,6.37H135.93V7.08H137.6C137.49,7.22 137.35,7.39 137.18,7.59C137.01,7.78 136.87,7.98 136.7,8.21C136.53,8.43 136.39,8.66 136.22,8.86C136.08,9.08 135.93,9.28 135.82,9.45V9.96H138.7V9.25H136.84C136.98,9.03 137.12,8.83 137.32,8.57C137.49,8.35 137.65,8.12 137.82,7.9C137.99,7.67 138.16,7.47 138.3,7.31C138.45,7.14 138.59,7 138.67,6.88V6.29L138.7,6.37ZM133.4,5.95C133.54,5.95 133.65,6.01 133.76,6.09C133.88,6.18 133.96,6.23 133.99,6.35C134.04,6.46 134.07,6.57 134.07,6.71C134.07,6.85 134.07,7 133.99,7.11C133.93,7.22 133.85,7.28 133.74,7.36C133.62,7.42 133.48,7.47 133.34,7.47C133.17,7.47 133,7.5 132.78,7.5H132.38V5.95C132.55,5.95 132.72,5.95 132.89,5.95C133.06,5.95 133.23,5.95 133.37,5.98M132.21,5.16C131.96,5.16 131.73,5.22 131.54,5.25V9.98H132.41V8.18H132.97C133.03,8.18 133.09,8.18 133.14,8.18C133.23,8.29 133.31,8.41 133.43,8.55C133.54,8.69 133.62,8.83 133.74,9C133.85,9.17 133.93,9.31 134.04,9.48C134.16,9.65 134.24,9.82 134.33,9.98H135.31C135.23,9.82 135.15,9.62 135.03,9.42C134.92,9.22 134.81,9.05 134.69,8.88C134.58,8.72 134.47,8.55 134.35,8.38C134.24,8.24 134.16,8.09 134.04,7.98C134.69,7.76 135,7.31 135,6.66C135,6.01 134.81,5.75 134.44,5.5C134.07,5.25 133.54,5.11 132.86,5.11C132.18,5.11 132.47,5.11 132.21,5.11" id="path_1"/><path fill="#ffffff" d="M125.47,0.06H89.6V12.04H125.47V0.06Z" id="path_2"/><path fill="#bb0a30" d="M125.47,12.01H89.6V23.94H125.47V12.01Z" id="path_3"/><path fill="#808285" d="M125.53,0H89.54V23.97H125.53V0ZM125.42,23.89H89.65V0.11H125.42V23.86V23.89Z" id="path_4"/><path fill="#003399" d="M296.63,0H260.64V23.97H296.63V0Z" id="path_5"/><path fill="#ffcc00" d="M278.61,2.88L278.92,3.78H279.88L279.09,4.34L279.4,5.25L278.61,4.68L277.85,5.25L278.16,4.34L277.37,3.78H278.33L278.61,2.88Z" id="path_6"/><path fill="#ffcc00" d="M278.61,18.7L278.92,19.6H279.88L279.09,20.16L279.4,21.07L278.61,20.5L277.85,21.07L278.16,20.16L277.37,19.6H278.33L278.61,18.7Z" id="path_7"/><path fill="#ffcc00" d="M270.77,10.74L271.05,11.65H272.01L271.25,12.21L271.53,13.11L270.77,12.55L270.01,13.11L270.29,12.21L269.53,11.65H270.49L270.77,10.74Z" id="path_8"/><path fill="#ffcc00" d="M286.48,10.74L286.76,11.65H287.72L286.96,12.21L287.24,13.11L286.48,12.55L285.72,13.11L286,12.21L285.24,11.65H286.17L286.48,10.74Z" id="path_9"/><path fill="#ffcc00" d="M282.53,3.95L282.81,4.85H283.77L283.01,5.42L283.29,6.32L282.53,5.75L281.77,6.32L282.05,5.42L281.29,4.85H282.25L282.53,3.95Z" id="path_10"/><path fill="#ffcc00" d="M274.72,3.95L275,4.85H275.96L275.2,5.42L275.48,6.32L274.72,5.75L273.95,6.32L274.24,5.42L273.48,4.85H274.41L274.72,3.95Z" id="path_11"/><path fill="#ffcc00" d="M282.53,17.54L282.81,18.44H283.77L283.01,19.01L283.29,19.91L282.53,19.35L281.77,19.91L282.05,19.01L281.29,18.44H282.25L282.53,17.54Z" id="path_12"/><path fill="#ffcc00" d="M274.72,17.54L275,18.44H275.96L275.2,19.01L275.48,19.91L274.72,19.35L273.95,19.91L274.24,19.01L273.48,18.44H274.41L274.72,17.54Z" id="path_13"/><path fill="#ffcc00" d="M285.4,6.8L285.69,7.7H286.65L285.88,8.26L286.17,9.17L285.4,8.6L284.64,9.17L284.93,8.26L284.16,7.7H285.12L285.4,6.8Z" id="path_14"/><path fill="#ffcc00" d="M271.84,6.8L272.12,7.7H273.08L272.32,8.26L272.6,9.17L271.84,8.6L271.08,9.17L271.36,8.26L270.6,7.7H271.53L271.84,6.8Z" id="path_15"/><path fill="#ffcc00" d="M285.4,14.67L285.69,15.57H286.65L285.88,16.1L286.17,17.01L285.4,16.47L284.64,17.01L284.93,16.1L284.16,15.57H285.12L285.4,14.67Z" id="path_16"/><path fill="#ffcc00" d="M271.84,14.67L272.12,15.57H273.08L272.32,16.1L272.6,17.01L271.84,16.47L271.08,17.01L271.36,16.1L270.6,15.57H271.53L271.84,14.67Z" id="path_17"/><path fill="#000000" d="M200.29,5.58C200.91,5.58 201.22,5.36 201.22,4.93C201.22,4.51 201.22,4.68 201.14,4.6C201.05,4.51 201,4.43 200.91,4.34C200.83,4.29 200.71,4.2 200.57,4.17C200.46,4.12 200.32,4.06 200.18,4.03C200.01,3.98 199.87,3.92 199.73,3.86C199.59,3.81 199.47,3.72 199.36,3.61C199.25,3.52 199.16,3.41 199.11,3.27C199.05,3.13 199.02,2.99 199.02,2.82C199.02,2.45 199.16,2.14 199.42,1.94C199.67,1.75 200.04,1.63 200.49,1.63C200.94,1.63 201,1.63 201.19,1.72C201.42,1.78 201.56,1.83 201.67,1.89L201.48,2.37C201.39,2.31 201.25,2.26 201.08,2.2C200.91,2.14 200.71,2.11 200.49,2.11C200.26,2.11 200.26,2.11 200.18,2.14C200.07,2.14 199.98,2.2 199.92,2.26C199.84,2.31 199.78,2.37 199.76,2.45C199.7,2.54 199.7,2.62 199.7,2.73C199.7,2.85 199.7,2.96 199.76,3.02C199.81,3.1 199.87,3.16 199.95,3.21C200.04,3.27 200.12,3.33 200.24,3.38C200.35,3.44 200.46,3.5 200.6,3.52C200.8,3.61 200.97,3.67 201.11,3.75C201.25,3.83 201.39,3.92 201.5,4C201.62,4.12 201.7,4.23 201.76,4.37C201.81,4.51 201.84,4.68 201.84,4.88C201.84,5.24 201.7,5.55 201.42,5.75C201.14,5.95 200.74,6.06 200.26,6.06C199.78,6.06 199.92,6.06 199.78,6.03C199.64,6.01 199.5,5.98 199.39,5.95C199.28,5.92 199.19,5.89 199.11,5.84C199.02,5.81 198.97,5.78 198.91,5.75L199.08,5.24C199.16,5.3 199.33,5.36 199.5,5.41C199.7,5.47 199.92,5.53 200.21,5.53L200.29,5.58Z" id="path_18"/><path fill="#000000" d="M203.9,1.18C204.07,1.18 204.21,1.18 204.35,1.21C204.49,1.24 204.55,1.27 204.61,1.27L204.49,1.78C204.44,1.78 204.38,1.72 204.3,1.69C204.21,1.69 204.1,1.66 203.96,1.66C203.68,1.66 203.51,1.75 203.39,1.89C203.28,2.03 203.22,2.23 203.22,2.48V2.76H204.46V3.24H203.22V5.98H202.66V2.45C202.66,2.03 202.77,1.72 202.97,1.49C203.17,1.27 203.48,1.16 203.93,1.16L203.9,1.18Z" id="path_19"/><path fill="#000000" d="M205.42,2.2C205.31,2.2 205.23,2.17 205.17,2.09C205.09,2.03 205.06,1.92 205.06,1.8C205.06,1.69 205.09,1.61 205.17,1.52C205.25,1.47 205.34,1.41 205.42,1.41C205.51,1.41 205.62,1.44 205.68,1.52C205.76,1.58 205.79,1.69 205.79,1.8C205.79,1.92 205.76,2 205.68,2.09C205.59,2.14 205.51,2.2 205.42,2.2ZM205.71,6.01H205.14V2.79H205.71V6.01Z" id="path_20"/><path fill="#000000" d="M206.69,2.88C206.83,2.85 207,2.82 207.23,2.76C207.45,2.74 207.71,2.71 207.99,2.71C208.27,2.71 208.47,2.74 208.64,2.82C208.81,2.9 208.95,2.99 209.03,3.13C209.15,3.27 209.2,3.41 209.26,3.61C209.29,3.78 209.32,4 209.32,4.2V6.01H208.75V4.31C208.75,4.12 208.75,3.95 208.72,3.81C208.72,3.67 208.64,3.55 208.58,3.47C208.53,3.38 208.44,3.33 208.33,3.27C208.21,3.24 208.1,3.21 207.93,3.21C207.76,3.21 207.82,3.21 207.74,3.21C207.68,3.21 207.6,3.21 207.54,3.21C207.48,3.21 207.43,3.21 207.37,3.21C207.31,3.21 207.29,3.21 207.26,3.21V5.95H206.69V2.82V2.88Z" id="path_21"/><path fill="#000000" d="M211.26,2.71C211.49,2.71 211.68,2.73 211.85,2.79C212.02,2.85 212.14,2.93 212.25,3.04C212.36,3.16 212.42,3.3 212.45,3.44C212.47,3.58 212.5,3.75 212.5,3.95V5.95C212.45,5.95 212.39,5.95 212.3,5.98C212.22,5.98 212.11,5.98 211.99,6.01C211.88,6.01 211.77,6.01 211.63,6.03C211.49,6.06 211.37,6.03 211.23,6.03C211.06,6.03 210.9,6.03 210.73,5.98C210.58,5.95 210.44,5.89 210.33,5.81C210.22,5.72 210.13,5.61 210.08,5.5C210.02,5.39 209.99,5.22 209.99,5.02C209.99,4.82 210.02,4.68 210.1,4.57C210.19,4.43 210.27,4.34 210.39,4.26C210.5,4.17 210.67,4.12 210.81,4.09C210.98,4.06 211.15,4.03 211.32,4.03C211.49,4.03 211.43,4.03 211.49,4.03C211.54,4.03 211.6,4.03 211.66,4.03C211.71,4.03 211.77,4.03 211.8,4.03C211.82,4.03 211.85,4.03 211.88,4.03V3.86C211.88,3.78 211.88,3.67 211.85,3.58C211.85,3.5 211.8,3.41 211.74,3.33C211.68,3.24 211.6,3.19 211.51,3.16C211.43,3.1 211.29,3.1 211.15,3.1C211.01,3.1 210.78,3.1 210.64,3.13C210.5,3.13 210.39,3.19 210.33,3.21L210.27,2.73C210.36,2.71 210.47,2.68 210.64,2.65C210.81,2.62 211.01,2.59 211.21,2.59L211.26,2.71ZM211.32,5.58C211.46,5.58 211.57,5.58 211.68,5.58C211.8,5.58 211.88,5.58 211.94,5.55V4.6C211.91,4.6 211.82,4.57 211.74,4.54C211.66,4.54 211.54,4.54 211.4,4.54C211.26,4.54 211.23,4.54 211.12,4.54C211.01,4.54 210.92,4.57 210.87,4.62C210.78,4.65 210.73,4.71 210.67,4.79C210.61,4.85 210.58,4.96 210.58,5.08C210.58,5.27 210.64,5.41 210.78,5.5C210.92,5.58 211.09,5.61 211.32,5.61V5.58Z" id="path_22"/><path fill="#000000" d="M213.46,2.88C213.6,2.85 213.77,2.82 214,2.76C214.22,2.74 214.48,2.71 214.76,2.71C215.04,2.71 215.24,2.74 215.41,2.82C215.58,2.9 215.72,2.99 215.8,3.13C215.91,3.27 215.97,3.41 216.03,3.61C216.06,3.78 216.08,4 216.08,4.2V6.01H215.52V4.31C215.52,4.12 215.52,3.95 215.49,3.81C215.49,3.67 215.41,3.55 215.35,3.47C215.29,3.38 215.21,3.33 215.1,3.27C214.98,3.24 214.87,3.21 214.7,3.21C214.53,3.21 214.59,3.21 214.5,3.21C214.45,3.21 214.36,3.21 214.31,3.21C214.25,3.21 214.19,3.21 214.14,3.21C214.08,3.21 214.05,3.21 214.02,3.21V5.95H213.46V2.82V2.88Z" id="path_23"/><path fill="#000000" d="M217.78,5.58C218,5.58 218.2,5.56 218.31,5.5C218.43,5.44 218.48,5.33 218.48,5.19C218.48,5.05 218.43,4.93 218.31,4.85C218.2,4.77 218.03,4.68 217.75,4.57C217.63,4.51 217.49,4.46 217.38,4.43C217.27,4.37 217.15,4.31 217.1,4.26C217.01,4.2 216.96,4.12 216.9,4C216.85,3.89 216.82,3.78 216.82,3.64C216.82,3.36 216.93,3.13 217.13,2.96C217.32,2.79 217.63,2.71 218,2.71C218.37,2.71 218.17,2.71 218.28,2.71C218.37,2.71 218.45,2.71 218.54,2.74C218.62,2.74 218.68,2.76 218.74,2.79C218.79,2.82 218.85,2.82 218.88,2.85L218.76,3.36C218.71,3.33 218.59,3.3 218.48,3.24C218.34,3.21 218.2,3.19 218,3.19C217.8,3.19 217.69,3.21 217.58,3.27C217.47,3.33 217.41,3.44 217.41,3.58C217.41,3.72 217.41,3.72 217.44,3.78C217.44,3.84 217.49,3.89 217.55,3.92C217.61,3.98 217.66,4 217.75,4.03C217.83,4.06 217.92,4.12 218.06,4.15C218.2,4.2 218.34,4.26 218.48,4.31C218.59,4.37 218.71,4.43 218.79,4.51C218.88,4.6 218.93,4.68 218.99,4.79C219.04,4.91 219.04,5.02 219.04,5.19C219.04,5.5 218.93,5.72 218.71,5.87C218.48,6.01 218.17,6.09 217.75,6.09C217.32,6.09 217.24,6.09 217.07,6.01C216.9,5.95 216.79,5.92 216.73,5.89L216.85,5.39C216.9,5.39 217.01,5.44 217.15,5.5C217.3,5.56 217.49,5.58 217.72,5.58H217.78Z" id="path_24"/><path fill="#000000" d="M222.63,4.4C222.63,4.65 222.6,4.88 222.51,5.1C222.43,5.33 222.35,5.5 222.2,5.64C222.06,5.78 221.92,5.89 221.72,5.98C221.53,6.06 221.33,6.09 221.1,6.09C220.88,6.09 220.68,6.06 220.48,5.98C220.29,5.89 220.15,5.78 220,5.64C219.86,5.5 219.78,5.3 219.69,5.1C219.61,4.91 219.58,4.65 219.58,4.4C219.58,4.15 219.61,3.92 219.69,3.69C219.78,3.5 219.86,3.3 220,3.16C220.15,3.02 220.29,2.9 220.48,2.82C220.68,2.74 220.88,2.71 221.1,2.71C221.33,2.71 221.53,2.74 221.72,2.82C221.92,2.9 222.06,3.02 222.2,3.16C222.35,3.3 222.43,3.5 222.51,3.69C222.6,3.89 222.63,4.15 222.63,4.4ZM222.04,4.4C222.04,4.03 221.95,3.75 221.78,3.52C221.61,3.3 221.39,3.21 221.1,3.21C220.82,3.21 220.6,3.33 220.43,3.52C220.26,3.75 220.17,4.03 220.17,4.4C220.17,4.77 220.26,5.05 220.43,5.27C220.6,5.5 220.82,5.58 221.1,5.58C221.39,5.58 221.61,5.47 221.78,5.27C221.95,5.08 222.04,4.77 222.04,4.4Z" id="path_25"/><path fill="#000000" d="M226.04,6.01C225.93,5.7 225.81,5.36 225.67,4.99C225.53,4.6 225.42,4.2 225.31,3.81C225.19,4.23 225.08,4.63 224.94,4.99C224.8,5.39 224.68,5.72 224.57,6.01H224.07C223.87,5.58 223.7,5.1 223.5,4.54C223.33,4 223.13,3.41 222.99,2.76H223.61C223.64,2.96 223.7,3.16 223.76,3.38C223.81,3.61 223.87,3.84 223.92,4.06C223.98,4.29 224.07,4.51 224.12,4.71C224.18,4.91 224.26,5.1 224.32,5.27C224.38,5.08 224.46,4.88 224.52,4.65C224.57,4.43 224.66,4.23 224.71,4C224.77,3.78 224.83,3.55 224.88,3.36C224.94,3.16 225,2.93 225.02,2.76H225.5C225.53,2.96 225.59,3.16 225.64,3.36C225.7,3.55 225.76,3.78 225.81,4C225.87,4.23 225.95,4.46 226.01,4.65C226.07,4.88 226.15,5.08 226.21,5.27C226.26,5.1 226.35,4.94 226.41,4.71C226.46,4.51 226.55,4.29 226.6,4.06C226.66,3.84 226.74,3.61 226.8,3.38C226.86,3.16 226.91,2.93 226.94,2.76H227.53C227.36,3.38 227.2,3.98 227.03,4.54C226.86,5.1 226.66,5.58 226.46,6.01H225.95H226.04Z" id="path_26"/><path fill="#000000" d="M229.23,2.71C229.45,2.71 229.65,2.73 229.82,2.79C229.99,2.85 230.1,2.93 230.21,3.04C230.33,3.16 230.38,3.3 230.41,3.44C230.44,3.58 230.47,3.75 230.47,3.95V5.95C230.41,5.95 230.35,5.95 230.27,5.98C230.18,5.98 230.07,5.98 229.96,6.01C229.85,6.01 229.73,6.01 229.59,6.03C229.45,6.06 229.34,6.03 229.2,6.03C229.03,6.03 228.86,6.03 228.69,5.98C228.55,5.95 228.41,5.89 228.29,5.81C228.18,5.72 228.1,5.61 228.04,5.5C227.99,5.39 227.96,5.22 227.96,5.02C227.96,4.82 227.99,4.68 228.07,4.57C228.15,4.43 228.24,4.34 228.35,4.26C228.46,4.17 228.63,4.12 228.77,4.09C228.94,4.06 229.11,4.03 229.28,4.03C229.45,4.03 229.4,4.03 229.45,4.03C229.51,4.03 229.57,4.03 229.62,4.03C229.68,4.03 229.73,4.03 229.76,4.03C229.79,4.03 229.82,4.03 229.85,4.03V3.86C229.85,3.78 229.85,3.67 229.82,3.58C229.82,3.5 229.76,3.41 229.71,3.33C229.65,3.24 229.57,3.19 229.48,3.16C229.4,3.1 229.25,3.1 229.11,3.1C228.97,3.1 228.75,3.1 228.61,3.13C228.46,3.13 228.35,3.19 228.29,3.21L228.24,2.73C228.32,2.71 228.44,2.68 228.61,2.65C228.77,2.62 228.97,2.59 229.17,2.59L229.23,2.71ZM229.25,5.58C229.4,5.58 229.51,5.58 229.62,5.58C229.73,5.58 229.82,5.58 229.88,5.55V4.6C229.85,4.6 229.76,4.57 229.68,4.54C229.59,4.54 229.48,4.54 229.34,4.54C229.2,4.54 229.17,4.54 229.06,4.54C228.94,4.54 228.86,4.57 228.8,4.62C228.72,4.65 228.66,4.71 228.61,4.79C228.55,4.85 228.52,4.96 228.52,5.08C228.52,5.27 228.58,5.41 228.72,5.5C228.86,5.58 229.03,5.61 229.25,5.61V5.58Z" id="path_27"/><path fill="#000000" d="M231.4,2.88C231.54,2.85 231.71,2.82 231.93,2.76C232.16,2.74 232.41,2.71 232.7,2.71C232.98,2.71 233.17,2.74 233.34,2.82C233.51,2.9 233.65,2.99 233.74,3.13C233.85,3.27 233.91,3.41 233.96,3.61C233.99,3.78 234.02,4 234.02,4.2V6.01H233.46V4.31C233.46,4.12 233.46,3.95 233.43,3.81C233.43,3.67 233.34,3.55 233.29,3.47C233.23,3.38 233.15,3.33 233.03,3.27C232.92,3.24 232.81,3.21 232.64,3.21C232.47,3.21 232.53,3.21 232.44,3.21C232.36,3.21 232.3,3.21 232.24,3.21C232.19,3.21 232.13,3.21 232.07,3.21C232.02,3.21 231.99,3.21 231.96,3.21V5.95H231.4V2.82V2.88Z" id="path_28"/><path fill="#000000" d="M234.78,4.4C234.78,4.12 234.81,3.86 234.9,3.64C234.98,3.41 235.09,3.24 235.23,3.1C235.37,2.96 235.51,2.85 235.71,2.79C235.88,2.74 236.08,2.68 236.25,2.68C236.67,2.68 237.01,2.82 237.24,3.07C237.46,3.36 237.57,3.75 237.57,4.32V4.4C237.57,4.43 237.57,4.48 237.57,4.51H235.37C235.37,4.85 235.49,5.11 235.66,5.27C235.83,5.44 236.08,5.53 236.45,5.53C236.81,5.53 236.81,5.53 236.95,5.47C237.1,5.44 237.21,5.42 237.26,5.36L237.35,5.84C237.29,5.87 237.15,5.92 236.98,5.95C236.81,5.98 236.62,6.01 236.39,6.01C236.16,6.01 235.85,5.95 235.66,5.87C235.46,5.78 235.29,5.67 235.15,5.53C235.01,5.39 234.92,5.19 234.87,4.99C234.81,4.79 234.78,4.57 234.78,4.32V4.4ZM237.01,4.09C237.01,3.84 236.95,3.61 236.81,3.44C236.67,3.27 236.5,3.19 236.25,3.19C235.99,3.19 235.99,3.19 235.91,3.27C235.8,3.33 235.71,3.38 235.66,3.47C235.6,3.55 235.54,3.64 235.49,3.75C235.46,3.86 235.43,3.98 235.4,4.09H237.01Z" id="path_29"/><path fill="#000000" d="M242.74,4.4C242.74,4.65 242.71,4.88 242.65,5.08C242.59,5.27 242.48,5.47 242.37,5.61C242.26,5.75 242.09,5.87 241.92,5.95C241.75,6.04 241.52,6.06 241.3,6.06C241.07,6.06 240.96,6.06 240.82,5.98C240.68,5.92 240.56,5.89 240.51,5.84V7.14H239.94V2.85C240.08,2.82 240.25,2.79 240.45,2.74C240.65,2.71 240.9,2.68 241.16,2.68C241.41,2.68 241.63,2.71 241.83,2.79C242.03,2.88 242.2,2.99 242.34,3.13C242.48,3.27 242.59,3.44 242.68,3.67C242.76,3.89 242.79,4.12 242.79,4.37L242.74,4.4ZM242.12,4.4C242.12,4.03 242.03,3.72 241.83,3.53C241.63,3.33 241.41,3.22 241.1,3.22C240.79,3.22 240.79,3.22 240.71,3.22C240.62,3.22 240.54,3.22 240.48,3.27V5.3C240.54,5.36 240.65,5.42 240.79,5.47C240.93,5.53 241.07,5.56 241.21,5.56C241.35,5.56 241.52,5.53 241.63,5.47C241.75,5.42 241.86,5.33 241.92,5.22C242,5.11 242.06,4.99 242.09,4.85C242.12,4.71 242.14,4.54 242.14,4.4H242.12Z" id="path_30"/><path fill="#000000" d="M244.77,2.71C244.82,2.71 244.88,2.71 244.93,2.71C244.99,2.71 245.08,2.71 245.13,2.71C245.19,2.71 245.24,2.71 245.3,2.73C245.36,2.73 245.39,2.73 245.41,2.73L245.3,3.24C245.24,3.24 245.19,3.21 245.08,3.19C244.96,3.16 244.82,3.16 244.68,3.16C244.54,3.16 244.46,3.16 244.37,3.19C244.29,3.21 244.2,3.21 244.17,3.24V5.95H243.61V2.85C243.75,2.79 243.92,2.76 244.12,2.71C244.31,2.65 244.54,2.65 244.79,2.65L244.77,2.71Z" id="path_31"/><path fill="#000000" d="M248.26,3.22C248.18,3.3 248.07,3.44 247.92,3.61C247.78,3.78 247.64,3.98 247.47,4.17C247.3,4.37 247.13,4.6 246.99,4.85C246.85,5.11 246.68,5.3 246.57,5.53H248.35V6.01H245.89V5.61C246.01,5.44 246.12,5.22 246.26,5.02C246.4,4.8 246.57,4.57 246.71,4.37C246.85,4.17 247.02,3.95 247.19,3.75C247.33,3.55 247.47,3.39 247.59,3.27H245.98V2.79H248.29V3.22H248.26Z" id="path_32"/><path fill="#000000" d="M248.83,4.4C248.83,4.12 248.85,3.86 248.94,3.64C249.02,3.41 249.14,3.24 249.28,3.1C249.42,2.96 249.56,2.85 249.76,2.79C249.93,2.74 250.12,2.68 250.29,2.68C250.72,2.68 251.05,2.82 251.28,3.07C251.51,3.36 251.62,3.75 251.62,4.32V4.4C251.62,4.43 251.62,4.48 251.62,4.51H249.42C249.42,4.85 249.53,5.11 249.7,5.27C249.87,5.44 250.12,5.53 250.49,5.53C250.86,5.53 250.86,5.53 251,5.47C251.14,5.44 251.25,5.42 251.31,5.36L251.39,5.84C251.34,5.87 251.2,5.92 251.03,5.95C250.86,5.98 250.66,6.01 250.43,6.01C250.21,6.01 249.9,5.95 249.7,5.87C249.5,5.78 249.34,5.67 249.19,5.53C249.05,5.39 248.97,5.19 248.91,4.99C248.85,4.79 248.83,4.57 248.83,4.32V4.4ZM251.03,4.09C251.03,3.84 250.97,3.61 250.83,3.44C250.69,3.27 250.52,3.19 250.26,3.19C250.01,3.19 250.01,3.19 249.93,3.27C249.81,3.33 249.73,3.38 249.67,3.47C249.62,3.55 249.56,3.64 249.5,3.75C249.48,3.86 249.45,3.98 249.42,4.09H251.03Z" id="path_33"/><path fill="#000000" d="M254.58,3.22C254.49,3.3 254.38,3.44 254.24,3.61C254.1,3.78 253.96,3.98 253.79,4.17C253.62,4.37 253.45,4.6 253.31,4.85C253.17,5.11 253,5.3 252.89,5.53H254.66V6.01H252.21V5.61C252.32,5.44 252.44,5.22 252.58,5.02C252.72,4.8 252.89,4.57 253.03,4.37C253.17,4.17 253.34,3.95 253.51,3.75C253.65,3.55 253.79,3.39 253.9,3.27H252.3V2.79H254.61V3.22H254.58Z" id="path_34"/><path fill="#000000" d="M211.49,14.1C211.21,14.1 210.95,14.04 210.75,13.96C210.56,13.88 210.39,13.76 210.25,13.59C210.1,13.45 210.02,13.26 209.96,13.06C209.91,12.86 209.88,12.63 209.88,12.38V9.67H210.47V12.3C210.47,12.72 210.56,13.03 210.75,13.23C210.95,13.42 211.21,13.51 211.49,13.51C211.77,13.51 211.77,13.51 211.91,13.42C212.02,13.37 212.14,13.31 212.25,13.2C212.33,13.09 212.42,12.97 212.45,12.8C212.5,12.66 212.53,12.47 212.53,12.24V9.62H213.12V12.32C213.12,12.58 213.1,12.78 213.04,13C212.98,13.23 212.87,13.4 212.73,13.54C212.59,13.68 212.42,13.82 212.22,13.9C212.02,13.99 211.77,14.04 211.49,14.04V14.1Z" id="path_35"/><path fill="#000000" d="M214.11,10.86C214.25,10.83 214.42,10.8 214.65,10.74C214.87,10.72 215.13,10.69 215.41,10.69C215.69,10.69 215.89,10.72 216.06,10.8C216.23,10.88 216.37,10.97 216.45,11.11C216.56,11.25 216.62,11.39 216.68,11.59C216.71,11.76 216.73,11.98 216.73,12.18V13.99H216.17V12.3C216.17,12.1 216.17,11.93 216.14,11.79C216.14,11.65 216.06,11.53 216,11.45C215.94,11.36 215.86,11.31 215.75,11.25C215.63,11.22 215.52,11.2 215.35,11.2C215.18,11.2 215.24,11.2 215.15,11.2C215.1,11.2 215.01,11.2 214.96,11.2C214.9,11.2 214.84,11.2 214.79,11.2C214.73,11.2 214.7,11.2 214.67,11.2V13.93H214.11V10.8V10.86Z" id="path_36"/><path fill="#000000" d="M217.92,10.18C217.8,10.18 217.72,10.15 217.66,10.07C217.58,10.01 217.55,9.9 217.55,9.79C217.55,9.67 217.58,9.59 217.66,9.5C217.75,9.45 217.83,9.39 217.92,9.39C218,9.39 218.12,9.42 218.17,9.5C218.26,9.56 218.28,9.67 218.28,9.79C218.28,9.9 218.26,9.98 218.17,10.07C218.09,10.12 218,10.18 217.92,10.18ZM218.2,14.02H217.63V10.8H218.2V14.02Z" id="path_37"/><path fill="#000000" d="M219.02,12.41C219.02,12.13 219.05,11.87 219.13,11.65C219.21,11.42 219.33,11.25 219.47,11.11C219.61,10.97 219.75,10.86 219.95,10.8C220.12,10.74 220.32,10.69 220.48,10.69C220.91,10.69 221.25,10.83 221.47,11.08C221.7,11.36 221.81,11.76 221.81,12.32V12.41C221.81,12.44 221.81,12.49 221.81,12.52H219.61C219.61,12.86 219.72,13.11 219.89,13.28C220.06,13.45 220.32,13.54 220.68,13.54C221.05,13.54 221.05,13.54 221.19,13.48C221.33,13.45 221.44,13.42 221.5,13.37L221.58,13.85C221.53,13.9 221.44,13.96 221.39,14.02C221.33,14.07 221.25,14.13 221.19,14.21C221.13,14.27 221.08,14.35 221.05,14.38C221.02,14.41 220.99,14.49 220.99,14.52C220.99,14.58 220.99,14.64 221.08,14.66C221.13,14.66 221.19,14.69 221.25,14.69C221.3,14.69 221.33,14.69 221.39,14.69C221.44,14.69 221.47,14.69 221.5,14.69L221.56,15.06C221.5,15.06 221.44,15.12 221.36,15.12C221.27,15.12 221.22,15.12 221.13,15.12C220.93,15.12 220.77,15.09 220.63,15C220.51,14.92 220.46,14.81 220.46,14.64C220.46,14.47 220.48,14.44 220.57,14.33C220.63,14.21 220.74,14.1 220.85,14.02C220.82,14.02 220.79,14.02 220.74,14.02C220.71,14.02 220.68,14.02 220.63,14.02C220.34,14.02 220.09,13.96 219.89,13.87C219.69,13.79 219.52,13.68 219.38,13.54C219.24,13.39 219.16,13.2 219.1,13C219.05,12.8 219.02,12.58 219.02,12.32V12.41ZM221.25,12.07C221.25,11.82 221.19,11.59 221.05,11.42C220.91,11.25 220.74,11.17 220.48,11.17C220.23,11.17 220.23,11.17 220.15,11.25C220.03,11.31 219.95,11.36 219.89,11.45C219.84,11.53 219.78,11.62 219.72,11.73C219.69,11.84 219.67,11.96 219.64,12.07H221.25Z" id="path_38"/><path fill="#000000" d="M224.46,14.02V9.73H227.08V10.24H225.05V11.51H226.86V12.01H225.05V13.51H227.23V14.02H224.43H224.46Z" id="path_39"/><path fill="#000000" d="M230.41,13.9C230.27,13.93 230.1,13.96 229.88,14.02C229.65,14.04 229.4,14.07 229.11,14.07C228.83,14.07 228.66,14.04 228.49,13.96C228.32,13.88 228.18,13.79 228.07,13.65C227.96,13.51 227.9,13.37 227.84,13.17C227.79,13 227.79,12.8 227.79,12.58V10.77H228.35V12.47C228.35,12.86 228.41,13.14 228.55,13.31C228.66,13.48 228.89,13.57 229.17,13.57C229.45,13.57 229.28,13.57 229.37,13.57C229.42,13.57 229.51,13.57 229.57,13.57C229.62,13.57 229.68,13.57 229.73,13.57C229.79,13.57 229.82,13.57 229.85,13.57V10.83H230.41V13.96V13.9Z" id="path_40"/><path fill="#000000" d="M232.61,10.72C232.67,10.72 232.72,10.72 232.78,10.72C232.84,10.72 232.92,10.72 232.98,10.72C233.03,10.72 233.09,10.72 233.15,10.74C233.2,10.74 233.23,10.74 233.26,10.74L233.15,11.25C233.09,11.25 233.03,11.22 232.92,11.2C232.81,11.17 232.67,11.17 232.53,11.17C232.39,11.17 232.3,11.17 232.22,11.2C232.13,11.22 232.05,11.22 232.02,11.25V13.96H231.46V10.86C231.6,10.8 231.76,10.77 231.96,10.72C232.16,10.66 232.39,10.66 232.64,10.66L232.61,10.72Z" id="path_41"/><path fill="#000000" d="M236.67,12.38C236.67,12.63 236.64,12.86 236.56,13.08C236.47,13.31 236.39,13.48 236.25,13.62C236.11,13.76 235.97,13.87 235.77,13.96C235.57,14.04 235.37,14.07 235.15,14.07C234.92,14.07 234.73,14.04 234.53,13.96C234.33,13.87 234.19,13.76 234.05,13.62C233.91,13.48 233.82,13.28 233.74,13.08C233.65,12.89 233.63,12.63 233.63,12.38C233.63,12.13 233.65,11.9 233.74,11.67C233.82,11.48 233.91,11.28 234.05,11.14C234.19,11 234.33,10.88 234.53,10.8C234.73,10.72 234.92,10.69 235.15,10.69C235.37,10.69 235.57,10.72 235.77,10.8C235.97,10.88 236.11,11 236.25,11.14C236.39,11.28 236.47,11.48 236.56,11.67C236.64,11.87 236.67,12.13 236.67,12.38ZM236.05,12.38C236.05,12.01 235.97,11.73 235.8,11.51C235.63,11.28 235.4,11.2 235.12,11.2C234.84,11.2 234.61,11.31 234.44,11.51C234.27,11.73 234.19,12.01 234.19,12.38C234.19,12.75 234.27,13.03 234.44,13.25C234.61,13.48 234.84,13.56 235.12,13.56C235.4,13.56 235.63,13.45 235.8,13.25C235.97,13.06 236.05,12.75 236.05,12.38Z" id="path_42"/><path fill="#000000" d="M240.34,12.41C240.34,12.66 240.31,12.89 240.25,13.08C240.2,13.28 240.08,13.48 239.97,13.62C239.86,13.76 239.69,13.87 239.52,13.96C239.35,14.04 239.13,14.07 238.9,14.07C238.67,14.07 238.56,14.07 238.42,13.99C238.28,13.93 238.17,13.9 238.11,13.85V15.14H237.55V10.86C237.69,10.83 237.86,10.8 238.05,10.74C238.25,10.72 238.51,10.69 238.76,10.69C239.01,10.69 239.24,10.72 239.43,10.8C239.63,10.88 239.8,11 239.94,11.14C240.08,11.28 240.2,11.45 240.28,11.67C240.37,11.9 240.39,12.13 240.39,12.38L240.34,12.41ZM239.75,12.41C239.75,12.04 239.66,11.73 239.46,11.53C239.27,11.34 239.04,11.22 238.73,11.22C238.42,11.22 238.42,11.22 238.34,11.22C238.25,11.22 238.17,11.22 238.11,11.28V13.31C238.17,13.37 238.28,13.42 238.42,13.48C238.56,13.54 238.7,13.56 238.84,13.56C238.98,13.56 239.15,13.54 239.27,13.48C239.38,13.42 239.49,13.34 239.55,13.23C239.63,13.11 239.69,13 239.72,12.86C239.75,12.72 239.77,12.55 239.77,12.41H239.75Z" id="path_43"/><path fill="#000000" d="M240.96,12.41C240.96,12.13 240.99,11.87 241.07,11.65C241.16,11.42 241.27,11.25 241.41,11.11C241.55,10.97 241.69,10.86 241.89,10.8C242.06,10.74 242.26,10.69 242.43,10.69C242.85,10.69 243.19,10.83 243.41,11.08C243.64,11.36 243.75,11.76 243.75,12.32V12.41C243.75,12.44 243.75,12.49 243.75,12.52H241.55C241.55,12.86 241.66,13.11 241.83,13.28C242,13.45 242.26,13.54 242.62,13.54C242.99,13.54 242.99,13.54 243.13,13.48C243.27,13.45 243.38,13.42 243.44,13.37L243.52,13.85C243.47,13.87 243.33,13.93 243.16,13.96C242.99,13.99 242.79,14.02 242.57,14.02C242.34,14.02 242.03,13.96 241.83,13.87C241.64,13.79 241.47,13.68 241.33,13.54C241.18,13.39 241.1,13.2 241.04,13C240.99,12.8 240.96,12.58 240.96,12.32V12.41ZM243.16,12.07C243.16,11.82 243.1,11.59 242.96,11.42C242.82,11.25 242.65,11.17 242.4,11.17C242.14,11.17 242.14,11.17 242.06,11.25C241.95,11.31 241.86,11.36 241.8,11.45C241.75,11.53 241.69,11.62 241.64,11.73C241.61,11.84 241.58,11.96 241.55,12.07H243.16Z" id="path_44"/><path fill="#000000" d="M244.09,15.17C244.03,15.17 243.98,15.17 243.89,15.17C243.81,15.17 243.75,15.14 243.69,15.12L243.78,14.64C243.81,14.64 243.86,14.64 243.92,14.66C243.98,14.66 244.03,14.66 244.06,14.66C244.26,14.66 244.4,14.61 244.48,14.5C244.57,14.38 244.63,14.19 244.63,13.96V10.8H245.19V13.96C245.19,14.38 245.1,14.69 244.91,14.89C244.71,15.09 244.46,15.2 244.09,15.2V15.17ZM244.91,10.18C244.79,10.18 244.71,10.15 244.65,10.07C244.57,10.01 244.54,9.9 244.54,9.79C244.54,9.67 244.57,9.59 244.65,9.5C244.74,9.45 244.82,9.39 244.91,9.39C244.99,9.39 245.1,9.42 245.16,9.5C245.24,9.56 245.27,9.67 245.27,9.79C245.27,9.9 245.24,9.98 245.16,10.07C245.08,10.12 244.99,10.18 244.91,10.18Z" id="path_45"/><path fill="#000000" d="M246.99,13.59C247.22,13.59 247.42,13.57 247.53,13.51C247.64,13.45 247.7,13.34 247.7,13.2C247.7,13.06 247.64,12.94 247.53,12.86C247.42,12.78 247.25,12.69 246.96,12.58C246.85,12.52 246.71,12.47 246.6,12.44C246.49,12.38 246.37,12.32 246.32,12.27C246.23,12.21 246.18,12.13 246.12,12.01C246.06,11.9 246.04,11.79 246.04,11.65C246.04,11.37 246.15,11.14 246.35,10.97C246.54,10.8 246.85,10.72 247.22,10.72C247.59,10.72 247.39,10.72 247.5,10.72C247.59,10.72 247.67,10.72 247.76,10.74C247.84,10.74 247.9,10.77 247.95,10.8C248.01,10.83 248.07,10.83 248.09,10.86L247.98,11.37C247.92,11.34 247.81,11.31 247.7,11.25C247.56,11.22 247.42,11.2 247.22,11.2C247.02,11.2 246.91,11.22 246.8,11.28C246.68,11.34 246.63,11.45 246.63,11.59C246.63,11.73 246.63,11.73 246.65,11.79C246.65,11.84 246.71,11.9 246.77,11.93C246.82,11.99 246.88,12.01 246.96,12.04C247.05,12.07 247.13,12.13 247.28,12.16C247.42,12.21 247.56,12.27 247.7,12.32C247.81,12.38 247.92,12.44 248.01,12.52C248.09,12.61 248.15,12.69 248.21,12.8C248.26,12.92 248.26,13.03 248.26,13.2C248.26,13.51 248.15,13.73 247.92,13.88C247.7,14.02 247.39,14.1 246.96,14.1C246.54,14.1 246.46,14.1 246.29,14.02C246.12,13.96 246.01,13.93 245.95,13.9L246.06,13.4C246.12,13.4 246.23,13.45 246.37,13.51C246.51,13.57 246.71,13.59 246.94,13.59H246.99Z" id="path_46"/><path fill="#000000" d="M250.21,12.24C250.32,12.32 250.46,12.47 250.6,12.61C250.74,12.75 250.89,12.89 251.03,13.06C251.17,13.23 251.28,13.4 251.42,13.57C251.54,13.73 251.65,13.88 251.73,14.05H251.05C250.97,13.9 250.86,13.76 250.74,13.59C250.63,13.45 250.52,13.31 250.38,13.17C250.27,13.03 250.13,12.92 250.01,12.78C249.87,12.66 249.76,12.55 249.65,12.49V14.05H249.08V9.34L249.65,9.22V12.16C249.76,12.04 249.84,11.96 249.98,11.82C250.1,11.7 250.21,11.56 250.35,11.45C250.46,11.34 250.58,11.2 250.69,11.08C250.8,10.97 250.89,10.86 250.94,10.77H251.62C251.54,10.89 251.42,11 251.31,11.11C251.2,11.23 251.08,11.37 250.97,11.48C250.86,11.59 250.72,11.73 250.6,11.85C250.49,11.96 250.38,12.1 250.27,12.21L250.21,12.24Z" id="path_47"/><path fill="#000000" d="M253.4,10.69C253.62,10.69 253.82,10.72 253.99,10.77C254.16,10.83 254.27,10.91 254.38,11.03C254.47,11.14 254.55,11.28 254.58,11.42C254.61,11.56 254.64,11.73 254.64,11.93V13.93C254.58,13.96 254.52,14.02 254.47,14.07C254.41,14.13 254.35,14.18 254.3,14.24C254.24,14.3 254.19,14.35 254.16,14.41C254.13,14.47 254.1,14.52 254.1,14.58C254.1,14.69 254.19,14.75 254.35,14.75C254.52,14.75 254.41,14.75 254.47,14.75C254.52,14.75 254.55,14.75 254.61,14.72L254.67,15.09C254.61,15.09 254.55,15.12 254.5,15.14C254.41,15.14 254.35,15.14 254.27,15.14C254.04,15.14 253.88,15.09 253.76,15C253.65,14.92 253.59,14.81 253.59,14.66C253.59,14.52 253.62,14.47 253.68,14.38C253.74,14.3 253.79,14.21 253.88,14.13C253.88,14.13 253.93,14.07 253.96,14.04C253.99,14.04 254.02,13.99 254.04,13.99C253.96,13.99 253.85,13.99 253.76,13.99C253.65,13.99 253.57,13.99 253.45,13.99C253.28,13.99 253.11,13.99 252.95,13.93C252.8,13.9 252.66,13.85 252.55,13.76C252.44,13.68 252.35,13.56 252.3,13.45C252.24,13.31 252.21,13.17 252.21,12.97C252.21,12.77 252.24,12.63 252.32,12.52C252.41,12.38 252.49,12.3 252.61,12.21C252.72,12.13 252.89,12.07 253.03,12.04C253.2,12.01 253.37,11.99 253.54,11.99C253.71,11.99 253.65,11.99 253.71,11.99C253.76,11.99 253.82,11.99 253.88,11.99C253.93,11.99 253.99,11.99 254.02,11.99C254.04,11.99 254.07,11.99 254.1,11.99V11.82C254.1,11.73 254.1,11.62 254.07,11.53C254.07,11.45 254.02,11.36 253.96,11.28C253.9,11.2 253.82,11.14 253.74,11.11C253.65,11.05 253.51,11.05 253.37,11.05C253.23,11.05 253,11.05 252.86,11.08C252.72,11.08 252.61,11.14 252.55,11.17L252.49,10.69C252.58,10.66 252.69,10.63 252.86,10.6C253.03,10.58 253.23,10.55 253.43,10.55L253.4,10.69ZM253.45,13.59C253.59,13.59 253.71,13.59 253.82,13.59C253.93,13.59 254.02,13.59 254.07,13.56V12.61C254.04,12.61 253.96,12.58 253.88,12.55C253.79,12.55 253.68,12.55 253.54,12.55C253.4,12.55 253.37,12.55 253.26,12.55C253.14,12.55 253.06,12.58 253,12.63C252.92,12.66 252.86,12.72 252.8,12.8C252.75,12.86 252.72,12.97 252.72,13.09C252.72,13.28 252.78,13.42 252.92,13.51C253.06,13.59 253.23,13.62 253.45,13.62V13.59Z" id="path_48"/><path fill="#000000" d="M197.92,22C197.75,21.74 197.58,21.46 197.39,21.15C197.19,20.84 196.99,20.53 196.79,20.25C196.6,19.94 196.37,19.66 196.17,19.35C195.95,19.06 195.75,18.81 195.55,18.56V22H194.68V17.2H195.38C195.58,17.4 195.78,17.63 195.98,17.88C196.2,18.13 196.4,18.42 196.63,18.7C196.85,18.98 197.05,19.26 197.24,19.57C197.44,19.85 197.61,20.14 197.78,20.39V17.2H198.65V22H197.92Z" id="path_49"/><path fill="#000000" d="M199.45,20.19C199.45,19.88 199.5,19.6 199.59,19.35C199.67,19.09 199.81,18.9 199.95,18.75C200.12,18.59 200.29,18.47 200.49,18.39C200.69,18.3 200.91,18.28 201.11,18.28C201.62,18.28 202.01,18.42 202.26,18.73C202.55,19.04 202.69,19.49 202.69,20.11C202.69,20.73 202.69,20.19 202.69,20.28C202.69,20.33 202.69,20.39 202.69,20.45H200.29C200.29,20.73 200.4,20.95 200.6,21.12C200.77,21.29 201.05,21.35 201.39,21.35C201.73,21.35 201.79,21.35 201.96,21.29C202.12,21.26 202.26,21.21 202.35,21.18L202.46,21.86C202.41,21.86 202.35,21.91 202.26,21.94C202.18,21.94 202.1,22 201.98,22C201.87,22 201.76,22.03 201.65,22.05C201.53,22.05 201.39,22.05 201.28,22.05C200.97,22.05 200.69,22 200.43,21.91C200.21,21.83 200.01,21.69 199.84,21.52C199.7,21.35 199.59,21.15 199.5,20.93C199.42,20.7 199.39,20.45 199.39,20.16L199.45,20.19ZM201.87,19.83C201.87,19.71 201.87,19.6 201.81,19.49C201.79,19.38 201.73,19.29 201.67,19.21C201.62,19.12 201.53,19.07 201.45,19.04C201.36,18.98 201.25,18.98 201.14,18.98C201.02,18.98 200.88,18.98 200.8,19.07C200.71,19.12 200.63,19.18 200.54,19.26C200.49,19.35 200.43,19.43 200.38,19.54C200.32,19.66 200.32,19.74 200.29,19.85H201.84L201.87,19.83Z" id="path_50"/><path fill="#000000" d="M204.86,19.49L205.62,18.39H206.49L205.28,20.14C205.54,20.45 205.79,20.78 206.02,21.09C206.24,21.4 206.44,21.71 206.58,22.02H205.68C205.62,21.94 205.59,21.86 205.51,21.74C205.45,21.63 205.37,21.55 205.28,21.43C205.2,21.32 205.14,21.21 205.06,21.09C204.97,20.98 204.89,20.9 204.8,20.78C204.63,20.98 204.49,21.18 204.32,21.4C204.15,21.63 204.04,21.83 203.93,22.02H203.08C203.14,21.88 203.22,21.74 203.34,21.57C203.45,21.43 203.53,21.26 203.65,21.09C203.76,20.92 203.87,20.78 204.01,20.61C204.13,20.45 204.27,20.3 204.38,20.16L203.14,18.39H204.07L204.83,19.49H204.86Z" id="path_51"/><path fill="#000000" d="M207.29,17.4L208.13,17.26V18.36H209.43V19.06H208.13V20.53C208.13,20.81 208.19,21.04 208.27,21.15C208.36,21.26 208.53,21.35 208.75,21.35C208.98,21.35 209.03,21.35 209.15,21.29C209.26,21.26 209.34,21.24 209.43,21.21L209.57,21.88C209.49,21.91 209.34,21.97 209.18,22.03C209.01,22.08 208.84,22.08 208.61,22.08C208.38,22.08 208.13,22.05 207.96,21.97C207.79,21.88 207.65,21.8 207.54,21.66C207.43,21.52 207.37,21.38 207.31,21.18C207.29,20.98 207.26,20.78 207.26,20.53V17.4H207.29Z" id="path_52"/><path fill="#000000" d="M212.62,17.85C212.11,17.85 211.74,17.99 211.49,18.3C211.23,18.61 211.09,19.04 211.09,19.57C211.09,20.11 211.12,20.08 211.18,20.28C211.23,20.5 211.32,20.67 211.46,20.84C211.57,20.98 211.74,21.12 211.91,21.21C212.08,21.29 212.3,21.35 212.56,21.35C212.81,21.35 212.84,21.35 212.95,21.35C213.07,21.35 213.15,21.35 213.21,21.29V19.57H214.08V21.88C213.97,21.94 213.77,21.97 213.46,22.03C213.18,22.08 212.84,22.11 212.48,22.11C212.11,22.11 211.8,22.05 211.52,21.94C211.23,21.83 210.98,21.66 210.78,21.46C210.59,21.24 210.42,20.98 210.3,20.67C210.19,20.36 210.13,19.99 210.13,19.6C210.13,19.2 210.19,18.84 210.33,18.53C210.44,18.22 210.61,17.96 210.84,17.74C211.06,17.51 211.29,17.37 211.6,17.26C211.91,17.15 212.19,17.09 212.5,17.09C212.81,17.09 212.93,17.09 213.1,17.15C213.26,17.17 213.4,17.2 213.55,17.26C213.66,17.29 213.77,17.34 213.86,17.37C213.94,17.4 214,17.46 214.03,17.46L213.77,18.16C213.63,18.08 213.46,18.02 213.26,17.94C213.07,17.85 212.84,17.85 212.62,17.85Z" id="path_53"/><path fill="#000000" d="M214.96,20.19C214.96,19.88 215.01,19.6 215.1,19.35C215.18,19.09 215.32,18.9 215.46,18.75C215.63,18.59 215.8,18.47 216,18.39C216.2,18.3 216.42,18.28 216.62,18.28C217.13,18.28 217.52,18.42 217.78,18.73C218.06,19.04 218.2,19.49 218.2,20.11C218.2,20.73 218.2,20.19 218.2,20.28C218.2,20.33 218.2,20.39 218.2,20.45H215.8C215.8,20.73 215.91,20.95 216.11,21.12C216.28,21.29 216.56,21.35 216.9,21.35C217.24,21.35 217.3,21.35 217.47,21.29C217.63,21.26 217.78,21.21 217.86,21.18L217.97,21.86C217.92,21.86 217.86,21.91 217.78,21.94C217.69,21.94 217.61,22 217.49,22C217.38,22 217.27,22.03 217.16,22.05C217.04,22.05 216.9,22.05 216.79,22.05C216.48,22.05 216.2,22 215.94,21.91C215.72,21.83 215.52,21.69 215.35,21.52C215.21,21.35 215.1,21.15 215.01,20.93C214.93,20.7 214.9,20.45 214.9,20.16L214.96,20.19ZM217.38,19.83C217.38,19.71 217.38,19.6 217.32,19.49C217.3,19.38 217.24,19.29 217.18,19.21C217.13,19.12 217.04,19.07 216.96,19.04C216.87,18.98 216.76,18.98 216.65,18.98C216.54,18.98 216.39,18.98 216.31,19.07C216.23,19.12 216.14,19.18 216.06,19.26C216,19.35 215.94,19.43 215.89,19.54C215.83,19.66 215.83,19.74 215.8,19.85H217.35L217.38,19.83Z" id="path_54"/><path fill="#000000" d="M219.1,18.5C219.27,18.44 219.47,18.42 219.72,18.36C219.98,18.33 220.26,18.3 220.6,18.3C220.93,18.3 221.13,18.33 221.33,18.42C221.53,18.5 221.7,18.61 221.81,18.75C221.92,18.9 222.01,19.06 222.06,19.29C222.12,19.49 222.15,19.71 222.15,19.97V22H221.3V20.08C221.3,19.88 221.3,19.71 221.27,19.57C221.27,19.43 221.22,19.32 221.16,19.23C221.1,19.15 221.02,19.09 220.93,19.04C220.82,19.01 220.71,18.98 220.57,18.98C220.43,18.98 220.34,18.98 220.23,18.98C220.12,18.98 220.03,18.98 219.98,19.01V21.94H219.13V18.44L219.1,18.5Z" id="path_55"/><path fill="#000000" d="M222.97,20.19C222.97,19.88 223.02,19.6 223.11,19.35C223.19,19.09 223.33,18.9 223.47,18.75C223.64,18.59 223.81,18.47 224.01,18.39C224.21,18.3 224.43,18.28 224.63,18.28C225.14,18.28 225.53,18.42 225.79,18.73C226.07,19.04 226.21,19.49 226.21,20.11C226.21,20.73 226.21,20.19 226.21,20.28C226.21,20.33 226.21,20.39 226.21,20.45H223.81C223.81,20.73 223.92,20.95 224.12,21.12C224.32,21.29 224.57,21.35 224.91,21.35C225.25,21.35 225.31,21.35 225.48,21.29C225.65,21.26 225.79,21.21 225.87,21.18L225.98,21.86C225.93,21.86 225.87,21.91 225.79,21.94C225.7,21.94 225.62,22 225.5,22C225.39,22 225.28,22.03 225.16,22.05C225.05,22.08 224.91,22.05 224.8,22.05C224.49,22.05 224.21,22 223.95,21.91C223.7,21.83 223.53,21.69 223.36,21.52C223.22,21.35 223.11,21.15 223.02,20.93C222.94,20.7 222.91,20.45 222.91,20.16L222.97,20.19ZM225.39,19.83C225.39,19.71 225.39,19.6 225.34,19.49C225.31,19.38 225.25,19.29 225.19,19.21C225.14,19.12 225.05,19.07 224.97,19.04C224.88,18.98 224.77,18.98 224.66,18.98C224.54,18.98 224.4,18.98 224.32,19.07C224.24,19.12 224.15,19.18 224.07,19.26C223.98,19.35 223.95,19.43 223.9,19.54C223.84,19.66 223.84,19.74 223.81,19.85H225.36L225.39,19.83Z" id="path_56"/><path fill="#000000" d="M229.17,19.12C229.11,19.12 229,19.06 228.89,19.04C228.77,19.04 228.63,19.01 228.46,19.01C228.3,19.01 228.27,19.01 228.18,19.01C228.1,19.01 228.01,19.04 227.96,19.06V21.97H227.11V18.5C227.28,18.44 227.48,18.39 227.73,18.33C227.99,18.27 228.24,18.25 228.55,18.25C228.86,18.25 228.66,18.25 228.75,18.25C228.83,18.25 228.89,18.25 228.97,18.25C229.06,18.25 229.11,18.25 229.2,18.27C229.26,18.27 229.31,18.3 229.37,18.33L229.23,19.04L229.17,19.12Z" id="path_57"/><path fill="#000000" d="M231.12,18.27C231.4,18.27 231.62,18.3 231.82,18.39C232.02,18.44 232.16,18.56 232.27,18.67C232.38,18.78 232.47,18.95 232.53,19.12C232.58,19.29 232.61,19.49 232.61,19.71V21.91C232.47,21.91 232.27,21.97 232.02,22.03C231.76,22.05 231.45,22.08 231.14,22.08C230.83,22.08 230.72,22.08 230.55,22.03C230.38,22 230.21,21.91 230.1,21.83C229.99,21.74 229.88,21.6 229.79,21.46C229.71,21.32 229.68,21.12 229.68,20.93C229.68,20.73 229.71,20.53 229.79,20.39C229.88,20.25 229.99,20.14 230.13,20.05C230.27,19.97 230.44,19.91 230.61,19.85C230.78,19.83 230.98,19.8 231.17,19.8C231.37,19.8 231.37,19.8 231.45,19.8C231.54,19.8 231.65,19.83 231.79,19.85V19.71C231.79,19.63 231.79,19.52 231.76,19.43C231.76,19.35 231.71,19.26 231.65,19.2C231.6,19.15 231.51,19.09 231.43,19.04C231.34,18.98 231.2,18.98 231.06,18.98C230.92,18.98 230.69,18.98 230.52,19.01C230.35,19.01 230.24,19.06 230.13,19.09L230.02,18.42C230.13,18.39 230.27,18.33 230.47,18.3C230.66,18.27 230.89,18.25 231.12,18.25V18.27ZM231.2,21.4C231.45,21.4 231.65,21.4 231.79,21.38V20.45C231.74,20.45 231.68,20.45 231.6,20.42C231.51,20.42 231.4,20.42 231.31,20.42C231.23,20.42 231.12,20.42 231.03,20.42C230.95,20.42 230.86,20.45 230.78,20.5C230.69,20.53 230.64,20.59 230.58,20.67C230.52,20.76 230.52,20.81 230.52,20.93C230.52,21.12 230.58,21.26 230.72,21.35C230.83,21.43 231,21.46 231.23,21.46L231.2,21.4Z" id="path_58"/><path fill="#000000" d="M233.6,17.4L234.44,17.26V18.36H235.74V19.06H234.44V20.53C234.44,20.81 234.5,21.04 234.59,21.15C234.67,21.26 234.84,21.35 235.06,21.35C235.29,21.35 235.35,21.35 235.46,21.29C235.57,21.26 235.66,21.24 235.74,21.21L235.88,21.88C235.8,21.91 235.66,21.97 235.49,22.03C235.32,22.08 235.15,22.08 234.92,22.08C234.7,22.08 234.44,22.05 234.27,21.97C234.1,21.88 233.96,21.8 233.85,21.66C233.74,21.52 233.68,21.38 233.63,21.18C233.6,20.98 233.57,20.78 233.57,20.53V17.4H233.6Z" id="path_59"/><path fill="#000000" d="M237.49,17.32C237.49,17.48 237.43,17.6 237.35,17.68C237.24,17.77 237.12,17.82 236.98,17.82C236.84,17.82 236.73,17.77 236.62,17.68C236.5,17.6 236.48,17.46 236.48,17.32C236.48,17.17 236.53,17.03 236.62,16.92C236.73,16.84 236.84,16.78 236.98,16.78C237.12,16.78 237.24,16.84 237.35,16.92C237.46,17 237.49,17.15 237.49,17.32ZM237.38,22H236.53V18.36H237.38V22Z" id="path_60"/><path fill="#000000" d="M241.75,20.19C241.75,20.48 241.72,20.73 241.63,20.98C241.55,21.21 241.44,21.41 241.27,21.58C241.13,21.74 240.93,21.86 240.71,21.97C240.48,22.05 240.25,22.11 240,22.11C239.75,22.11 239.49,22.05 239.29,21.97C239.07,21.89 238.9,21.74 238.76,21.58C238.62,21.41 238.48,21.21 238.39,20.98C238.31,20.76 238.25,20.48 238.25,20.19C238.25,19.91 238.31,19.66 238.39,19.4C238.48,19.18 238.59,18.98 238.76,18.81C238.93,18.64 239.1,18.53 239.32,18.42C239.55,18.33 239.77,18.28 240.03,18.28C240.28,18.28 240.51,18.33 240.73,18.42C240.96,18.5 241.13,18.64 241.3,18.81C241.44,18.98 241.58,19.18 241.66,19.4C241.75,19.63 241.8,19.91 241.8,20.19H241.75ZM240.87,20.19C240.87,19.83 240.79,19.54 240.65,19.35C240.51,19.15 240.28,19.04 240,19.04C239.72,19.04 239.49,19.15 239.35,19.35C239.21,19.54 239.13,19.85 239.13,20.19C239.13,20.53 239.21,20.84 239.35,21.07C239.49,21.29 239.72,21.38 240,21.38C240.28,21.38 240.48,21.26 240.65,21.07C240.82,20.84 240.87,20.56 240.87,20.19Z" id="path_61"/><path fill="#000000" d="M242.62,18.5C242.79,18.44 242.99,18.42 243.24,18.36C243.5,18.3 243.78,18.3 244.12,18.3C244.46,18.3 244.65,18.33 244.85,18.42C245.05,18.5 245.22,18.61 245.33,18.75C245.44,18.9 245.53,19.06 245.58,19.29C245.64,19.49 245.67,19.71 245.67,19.97V22H244.82V20.08C244.82,19.88 244.82,19.71 244.79,19.57C244.79,19.43 244.74,19.32 244.68,19.23C244.62,19.15 244.54,19.09 244.46,19.04C244.34,19.01 244.23,18.98 244.09,18.98C243.95,18.98 243.86,18.98 243.75,18.98C243.64,18.98 243.55,18.98 243.5,19.01V21.94H242.65V18.44L242.62,18.5Z" id="path_62"/><path fill="#000000" d="M246.74,22V17.2H249.81V17.94H247.61V19.12H249.59V19.85H247.61V21.26H249.98V22H246.74Z" id="path_63"/><path fill="#000000" d="M252.72,22.11C252.38,22.11 252.1,22.05 251.87,21.97C251.65,21.88 251.45,21.74 251.28,21.57C251.14,21.41 251,21.21 250.94,20.98C250.86,20.76 250.83,20.5 250.83,20.22V17.2H251.7V20.14C251.7,20.36 251.7,20.53 251.79,20.7C251.84,20.84 251.9,20.98 251.99,21.07C252.07,21.15 252.18,21.24 252.3,21.29C252.41,21.35 252.55,21.35 252.72,21.35C252.89,21.35 253,21.35 253.14,21.29C253.25,21.24 253.37,21.18 253.45,21.07C253.54,20.98 253.62,20.84 253.65,20.7C253.71,20.56 253.73,20.36 253.73,20.14V17.2H254.61V20.22C254.61,20.5 254.58,20.76 254.49,20.98C254.41,21.21 254.3,21.41 254.16,21.57C254.02,21.74 253.82,21.88 253.57,21.97C253.31,22.05 253.03,22.11 252.72,22.11Z" id="path_64"/><path fill="#263779" d="M28.29,2.88H28.51C28.6,2.88 28.68,2.88 28.74,2.85C28.79,2.85 28.85,2.79 28.91,2.74L30.4,0.85C30.46,0.76 30.54,0.7 30.6,0.68C30.66,0.65 30.74,0.62 30.85,0.62H31.73L29.89,2.88C29.78,3.02 29.67,3.1 29.56,3.16C29.64,3.19 29.73,3.24 29.78,3.27C29.84,3.33 29.92,3.38 29.98,3.47L31.87,6.01H30.99C30.88,6.01 30.8,6.01 30.74,5.95C30.68,5.92 30.63,5.87 30.6,5.81L29.08,3.81C29.02,3.75 28.96,3.69 28.91,3.67C28.85,3.67 28.77,3.64 28.63,3.64H28.32V6.01H27.3V0.59H28.32V2.85L28.29,2.88Z" id="path_65"/><path fill="#263779" d="M36.63,6.01H35.73C35.56,6.01 35.42,5.95 35.37,5.81L34.24,4.09C34.18,4.03 34.15,3.98 34.1,3.95C34.04,3.95 33.98,3.92 33.87,3.92H33.45V6.04H32.43V0.62H34.07C34.44,0.62 34.75,0.65 35,0.73C35.25,0.82 35.48,0.9 35.65,1.04C35.82,1.19 35.93,1.35 36.01,1.52C36.1,1.72 36.13,1.92 36.13,2.14C36.13,2.37 36.13,2.51 36.04,2.65C35.99,2.82 35.9,2.96 35.82,3.1C35.73,3.24 35.59,3.36 35.45,3.44C35.31,3.55 35.14,3.61 34.94,3.67C35,3.7 35.06,3.75 35.11,3.81C35.17,3.86 35.22,3.92 35.25,3.98L36.61,5.98L36.63,6.01ZM34.04,3.19C34.24,3.19 34.41,3.19 34.55,3.1C34.69,3.05 34.8,2.99 34.89,2.91C34.97,2.82 35.06,2.74 35.08,2.6C35.14,2.48 35.14,2.34 35.14,2.23C35.14,1.95 35.06,1.75 34.86,1.61C34.69,1.47 34.41,1.38 34.04,1.38H33.39V3.19H34.01H34.04Z" id="path_66"/><path fill="#263779" d="M41.85,6.01H41.06C40.98,6.01 40.89,6.01 40.84,5.95C40.78,5.89 40.75,5.87 40.72,5.78L40.33,4.68H38.1L37.71,5.78C37.71,5.84 37.65,5.89 37.59,5.95C37.54,6.01 37.45,6.04 37.37,6.04H36.58L38.69,0.62H39.71L41.82,6.04L41.85,6.01ZM40.08,3.98L39.43,2.17C39.4,2.09 39.37,2 39.31,1.89C39.29,1.78 39.26,1.66 39.2,1.52C39.17,1.66 39.14,1.78 39.09,1.89C39.06,2 39.03,2.09 38.98,2.17L38.33,3.95H40.05L40.08,3.98Z" id="path_67"/><path fill="#263779" d="M44.45,4.09C44.45,4.4 44.42,4.65 44.33,4.91C44.25,5.16 44.14,5.36 43.99,5.53C43.85,5.7 43.66,5.84 43.43,5.92C43.21,6.01 42.95,6.06 42.67,6.06C42.39,6.06 42.42,6.06 42.27,6.06C42.13,6.06 42.02,6.04 41.88,5.98C41.88,5.87 41.88,5.78 41.88,5.67C41.88,5.56 41.88,5.47 41.88,5.36C41.88,5.3 41.91,5.25 41.94,5.22C41.96,5.19 42.02,5.16 42.11,5.16C42.19,5.16 42.19,5.16 42.27,5.16C42.33,5.16 42.44,5.16 42.53,5.16C42.61,5.16 42.78,5.16 42.9,5.1C43.01,5.08 43.09,4.99 43.18,4.91C43.26,4.82 43.32,4.71 43.35,4.57C43.37,4.43 43.4,4.26 43.4,4.06V0.56H44.42V4.03L44.45,4.09Z" id="path_68"/><path fill="#263779" d="M50.76,3.3C50.76,3.69 50.71,4.06 50.57,4.4C50.43,4.74 50.26,5.02 50,5.27C49.78,5.53 49.47,5.73 49.13,5.84C48.79,5.98 48.42,6.04 48,6.04C47.58,6.04 47.21,5.98 46.87,5.84C46.53,5.7 46.25,5.5 46,5.27C45.74,5.02 45.57,4.74 45.43,4.4C45.29,4.06 45.24,3.69 45.24,3.3C45.24,2.91 45.29,2.54 45.43,2.2C45.57,1.86 45.74,1.58 46,1.33C46.25,1.07 46.53,0.87 46.87,0.76C47.21,0.62 47.58,0.56 48,0.56C48.42,0.56 48.54,0.59 48.76,0.65C49.02,0.71 49.21,0.79 49.44,0.93C49.64,1.04 49.83,1.18 49.97,1.35C50.14,1.52 50.28,1.69 50.4,1.92C50.51,2.12 50.59,2.34 50.65,2.6C50.71,2.82 50.74,3.07 50.74,3.36L50.76,3.3ZM49.72,3.3C49.72,2.99 49.69,2.74 49.61,2.51C49.52,2.28 49.41,2.09 49.27,1.92C49.13,1.75 48.93,1.64 48.73,1.55C48.54,1.47 48.28,1.41 48.03,1.41C47.77,1.41 47.52,1.47 47.32,1.55C47.13,1.64 46.93,1.78 46.79,1.92C46.65,2.09 46.53,2.28 46.45,2.51C46.36,2.74 46.34,3.02 46.34,3.3C46.34,3.58 46.36,3.86 46.45,4.09C46.53,4.32 46.65,4.51 46.79,4.68C46.93,4.85 47.13,4.96 47.32,5.05C47.52,5.13 47.77,5.19 48.03,5.19C48.28,5.19 48.54,5.13 48.73,5.05C48.93,4.96 49.13,4.82 49.27,4.68C49.41,4.51 49.52,4.32 49.61,4.09C49.69,3.86 49.72,3.58 49.72,3.3Z" id="path_69"/><path fill="#263779" d="M58.72,0.59L57.05,6.01H56.15L54.97,2.31C54.94,2.23 54.91,2.11 54.88,1.97C54.88,2.03 54.85,2.09 54.82,2.14C54.82,2.2 54.8,2.26 54.77,2.28L53.58,5.98H52.68L51.02,0.56H51.86C51.95,0.56 52.03,0.56 52.09,0.62C52.15,0.65 52.17,0.7 52.2,0.79L53.13,4.03C53.13,4.12 53.16,4.2 53.19,4.29C53.19,4.37 53.22,4.48 53.25,4.57C53.25,4.46 53.27,4.37 53.3,4.29C53.3,4.2 53.36,4.12 53.39,4.03L54.46,0.79C54.46,0.73 54.51,0.68 54.57,0.62C54.63,0.56 54.71,0.54 54.8,0.54H55.08C55.16,0.54 55.25,0.54 55.3,0.59C55.36,0.65 55.39,0.68 55.42,0.76L56.46,4C56.52,4.15 56.57,4.34 56.6,4.54C56.63,4.34 56.66,4.17 56.71,4L57.65,0.76C57.65,0.7 57.7,0.65 57.76,0.59C57.81,0.54 57.9,0.54 57.98,0.54H58.77L58.72,0.59Z" id="path_70"/><path fill="#263779" d="M61.71,3.92V6.01H60.69V3.92L58.72,0.62H59.59C59.68,0.62 59.76,0.62 59.79,0.68C59.84,0.73 59.87,0.76 59.93,0.85L60.92,2.65C60.97,2.76 61.03,2.85 61.06,2.96C61.11,3.05 61.14,3.16 61.17,3.24C61.2,3.16 61.23,3.05 61.28,2.96C61.34,2.88 61.37,2.76 61.42,2.65L62.41,0.85C62.41,0.79 62.47,0.73 62.52,0.71C62.58,0.65 62.64,0.62 62.72,0.62H63.62L61.65,3.92H61.71Z" id="path_71"/><path fill="#263779" d="M29.05,8.6C29.41,8.6 29.73,8.66 29.98,8.74C30.23,8.83 30.46,8.94 30.63,9.11C30.8,9.25 30.94,9.45 31.02,9.65C31.11,9.87 31.14,10.1 31.14,10.35C31.14,10.6 31.08,10.86 30.99,11.08C30.91,11.31 30.77,11.48 30.6,11.65C30.43,11.82 30.2,11.93 29.95,12.01C29.7,12.1 29.39,12.15 29.02,12.15H28.26V14.04H27.24V8.63H28.99L29.05,8.6ZM29.05,11.31C29.25,11.31 29.39,11.31 29.53,11.25C29.67,11.2 29.78,11.14 29.87,11.06C29.95,10.97 30.04,10.86 30.06,10.74C30.12,10.63 30.12,10.49 30.12,10.32C30.12,10.15 30.12,10.04 30.06,9.93C30.01,9.81 29.95,9.7 29.87,9.62C29.78,9.53 29.67,9.48 29.53,9.42C29.39,9.36 29.22,9.36 29.05,9.36H28.29V11.31H29.05Z" id="path_72"/><path fill="#263779" d="M35.08,13.17V13.99H31.92V8.57H32.94V13.14H35.11L35.08,13.17Z" id="path_73"/><path fill="#263779" d="M40.41,14.02H39.62C39.54,14.02 39.45,14.02 39.4,13.96C39.34,13.9 39.31,13.87 39.29,13.79L38.89,12.69H36.66L36.27,13.79C36.27,13.85 36.21,13.9 36.15,13.96C36.1,14.02 36.01,14.04 35.93,14.04H35.14L37.25,8.63H38.27L40.39,14.04L40.41,14.02ZM38.64,11.96L37.99,10.15C37.96,10.07 37.93,9.98 37.88,9.87C37.85,9.76 37.82,9.64 37.76,9.5C37.73,9.64 37.71,9.76 37.65,9.87C37.62,9.98 37.59,10.07 37.54,10.15L36.89,11.93H38.61L38.64,11.96Z" id="path_74"/><path fill="#263779" d="M45.55,8.6V14.02H45.04C44.95,14.02 44.9,14.02 44.84,13.99C44.78,13.99 44.73,13.93 44.7,13.85L41.88,10.24C41.88,10.41 41.88,10.55 41.88,10.69V14.02H41.01V8.6H41.54C41.57,8.6 41.63,8.6 41.65,8.6C41.68,8.6 41.71,8.6 41.74,8.6C41.74,8.6 41.8,8.6 41.8,8.66C41.8,8.66 41.85,8.71 41.88,8.74L44.7,12.35C44.7,12.27 44.7,12.18 44.7,12.1C44.7,12.01 44.7,11.93 44.7,11.87V8.6H45.57H45.55Z" id="path_75"/><path fill="#263779" d="M32.77,19.29C32.77,19.69 32.71,20.05 32.57,20.39C32.43,20.73 32.26,21.01 32.01,21.26C31.78,21.52 31.47,21.72 31.14,21.83C30.8,21.97 30.43,22.03 30.01,22.03C29.58,22.03 29.22,21.97 28.88,21.83C28.54,21.69 28.26,21.49 28,21.26C27.75,21.01 27.58,20.73 27.44,20.39C27.3,20.05 27.24,19.69 27.24,19.29C27.24,18.9 27.3,18.53 27.44,18.19C27.58,17.85 27.75,17.57 28,17.32C28.26,17.06 28.54,16.86 28.88,16.75C29.22,16.61 29.58,16.55 30.01,16.55C30.43,16.55 30.54,16.58 30.77,16.64C31.02,16.7 31.22,16.78 31.45,16.92C31.64,17.03 31.84,17.18 31.98,17.34C32.15,17.51 32.29,17.68 32.4,17.91C32.52,18.11 32.6,18.33 32.66,18.59C32.71,18.81 32.74,19.06 32.74,19.35L32.77,19.29ZM31.76,19.29C31.76,18.98 31.73,18.73 31.64,18.5C31.56,18.27 31.45,18.08 31.3,17.91C31.16,17.74 30.97,17.63 30.77,17.54C30.57,17.46 30.32,17.4 30.06,17.4C29.81,17.4 29.56,17.46 29.36,17.54C29.16,17.63 28.96,17.77 28.82,17.91C28.68,18.08 28.57,18.27 28.48,18.5C28.4,18.73 28.37,19.01 28.37,19.29C28.37,19.57 28.4,19.85 28.48,20.08C28.57,20.31 28.68,20.5 28.82,20.67C28.96,20.84 29.16,20.95 29.36,21.04C29.56,21.12 29.81,21.18 30.06,21.18C30.32,21.18 30.57,21.12 30.77,21.04C30.97,20.95 31.16,20.81 31.3,20.67C31.45,20.5 31.56,20.31 31.64,20.08C31.73,19.85 31.76,19.57 31.76,19.29Z" id="path_76"/><path fill="#263779" d="M38.47,19.29C38.47,19.68 38.41,20.05 38.27,20.39C38.13,20.73 37.96,21.01 37.71,21.24C37.48,21.46 37.17,21.66 36.83,21.8C36.49,21.94 36.13,22 35.7,22H33.65V16.58H35.7C36.13,16.58 36.49,16.64 36.83,16.78C37.17,16.92 37.45,17.09 37.71,17.34C37.93,17.57 38.13,17.88 38.27,18.19C38.41,18.53 38.47,18.89 38.47,19.29ZM37.42,19.29C37.42,18.98 37.4,18.73 37.31,18.5C37.23,18.27 37.11,18.08 36.97,17.91C36.83,17.74 36.63,17.63 36.44,17.54C36.24,17.46 35.99,17.4 35.73,17.4H34.69V21.21H35.73C35.99,21.21 36.24,21.15 36.44,21.07C36.63,20.98 36.83,20.84 36.97,20.7C37.11,20.53 37.23,20.33 37.31,20.11C37.4,19.88 37.42,19.6 37.42,19.32V19.29Z" id="path_77"/><path fill="#263779" d="M41.2,16.58C41.57,16.58 41.85,16.61 42.11,16.69C42.36,16.75 42.56,16.86 42.73,16.98C42.9,17.09 43.01,17.26 43.09,17.43C43.18,17.6 43.21,17.79 43.21,18.02C43.21,18.25 43.21,18.27 43.15,18.39C43.12,18.5 43.06,18.61 42.98,18.73C42.9,18.84 42.81,18.92 42.67,19.01C42.56,19.09 42.42,19.15 42.25,19.2C42.98,19.37 43.35,19.77 43.35,20.42C43.35,21.07 43.29,20.87 43.21,21.07C43.12,21.26 42.98,21.43 42.81,21.57C42.64,21.71 42.44,21.83 42.19,21.91C41.94,22 41.65,22.02 41.34,22.02H39.31V16.61H41.17L41.2,16.58ZM40.36,17.37V18.92H41.15C41.49,18.92 41.74,18.87 41.94,18.73C42.11,18.61 42.19,18.42 42.19,18.13C42.19,17.85 42.11,17.65 41.96,17.54C41.8,17.43 41.57,17.37 41.2,17.37H40.36ZM41.37,21.21C41.57,21.21 41.71,21.21 41.85,21.15C41.99,21.09 42.08,21.04 42.16,20.98C42.25,20.9 42.3,20.81 42.33,20.73C42.36,20.61 42.39,20.53 42.39,20.42C42.39,20.3 42.39,20.19 42.33,20.11C42.3,20.02 42.25,19.94 42.16,19.88C42.08,19.83 41.99,19.77 41.85,19.74C41.74,19.71 41.57,19.68 41.4,19.68H40.39V21.26H41.4L41.37,21.21Z" id="path_78"/><path fill="#263779" d="M46.45,21.18C46.65,21.18 46.82,21.15 46.96,21.09C47.1,21.04 47.24,20.93 47.35,20.81C47.46,20.7 47.55,20.56 47.6,20.39C47.66,20.22 47.69,20.02 47.69,19.83V16.58H48.7V19.83C48.7,20.14 48.65,20.45 48.54,20.73C48.42,21.01 48.28,21.24 48.08,21.43C47.89,21.63 47.66,21.77 47.38,21.88C47.1,22 46.79,22.05 46.45,22.05C46.11,22.05 45.8,22 45.52,21.88C45.24,21.77 45.01,21.63 44.81,21.43C44.62,21.24 44.47,21.01 44.36,20.73C44.25,20.45 44.19,20.16 44.19,19.83V16.58H45.21V19.83C45.21,20.02 45.21,20.22 45.29,20.39C45.35,20.56 45.43,20.7 45.55,20.81C45.66,20.93 45.77,21.01 45.94,21.09C46.08,21.15 46.28,21.18 46.45,21.18Z" id="path_79"/><path fill="#263779" d="M54.6,19.29C54.6,19.68 54.54,20.05 54.4,20.39C54.26,20.73 54.09,21.01 53.84,21.24C53.61,21.46 53.3,21.66 52.96,21.8C52.62,21.94 52.26,22 51.84,22H49.78V16.58H51.84C52.26,16.58 52.62,16.64 52.96,16.78C53.3,16.92 53.58,17.09 53.84,17.34C54.06,17.57 54.26,17.88 54.4,18.19C54.54,18.53 54.6,18.89 54.6,19.29ZM53.58,19.29C53.58,18.98 53.56,18.73 53.47,18.5C53.39,18.27 53.27,18.08 53.13,17.91C52.99,17.74 52.79,17.63 52.6,17.54C52.4,17.46 52.15,17.4 51.89,17.4H50.85V21.21H51.89C52.15,21.21 52.4,21.15 52.6,21.07C52.79,20.98 52.99,20.84 53.13,20.7C53.27,20.53 53.39,20.33 53.47,20.11C53.56,19.88 53.58,19.6 53.58,19.32V19.29Z" id="path_80"/><path fill="#263779" d="M60.66,19.29C60.66,19.69 60.61,20.05 60.47,20.39C60.32,20.73 60.15,21.01 59.9,21.26C59.68,21.52 59.37,21.72 59.03,21.83C58.69,21.97 58.32,22.03 57.9,22.03C57.48,22.03 57.11,21.97 56.77,21.83C56.43,21.69 56.15,21.49 55.9,21.26C55.64,21.01 55.47,20.73 55.33,20.39C55.19,20.05 55.13,19.69 55.13,19.29C55.13,18.9 55.19,18.53 55.33,18.19C55.47,17.85 55.64,17.57 55.9,17.32C56.15,17.06 56.43,16.86 56.77,16.75C57.11,16.61 57.48,16.55 57.9,16.55C58.32,16.55 58.43,16.58 58.66,16.64C58.91,16.7 59.11,16.78 59.34,16.92C59.53,17.03 59.73,17.18 59.87,17.34C60.04,17.51 60.18,17.68 60.3,17.91C60.41,18.11 60.49,18.33 60.55,18.59C60.61,18.81 60.63,19.06 60.63,19.35L60.66,19.29ZM59.62,19.29C59.62,18.98 59.59,18.73 59.51,18.5C59.42,18.27 59.31,18.08 59.17,17.91C59.03,17.74 58.83,17.63 58.63,17.54C58.43,17.46 58.18,17.4 57.93,17.4C57.67,17.4 57.42,17.46 57.22,17.54C57.02,17.63 56.83,17.77 56.69,17.91C56.54,18.08 56.43,18.27 56.35,18.5C56.26,18.73 56.23,19.01 56.23,19.29C56.23,19.57 56.26,19.85 56.35,20.08C56.43,20.31 56.54,20.5 56.69,20.67C56.83,20.84 57.02,20.95 57.22,21.04C57.42,21.12 57.67,21.18 57.93,21.18C58.18,21.18 58.43,21.12 58.63,21.04C58.83,20.95 59.03,20.81 59.17,20.67C59.31,20.5 59.42,20.31 59.51,20.08C59.59,19.85 59.62,19.57 59.62,19.29Z" id="path_81"/><path fill="#263779" d="M68.62,16.58L66.95,22H66.05L64.87,18.3C64.84,18.22 64.81,18.1 64.78,17.96C64.78,18.02 64.75,18.08 64.72,18.13C64.72,18.19 64.7,18.25 64.67,18.27L63.48,21.97H62.58L60.92,16.55H61.76C61.85,16.55 61.93,16.55 61.99,16.61C62.05,16.64 62.07,16.69 62.1,16.78L63.03,20.02C63.03,20.11 63.06,20.19 63.09,20.28C63.09,20.36 63.12,20.47 63.15,20.56C63.15,20.45 63.17,20.36 63.2,20.28C63.23,20.19 63.26,20.11 63.29,20.02L64.36,16.78C64.36,16.72 64.41,16.67 64.47,16.61C64.53,16.55 64.61,16.53 64.7,16.53H64.98C65.06,16.53 65.15,16.53 65.2,16.58C65.26,16.64 65.29,16.67 65.32,16.75L66.36,19.99C66.42,20.14 66.47,20.33 66.5,20.53C66.53,20.33 66.56,20.16 66.61,19.99L67.54,16.75C67.54,16.69 67.6,16.64 67.66,16.58C67.71,16.53 67.8,16.53 67.88,16.53H68.67L68.62,16.58Z" id="path_82"/><path fill="#263779" d="M71.61,19.91V22H70.59V19.91L68.62,16.61H69.49C69.58,16.61 69.66,16.61 69.69,16.67C69.74,16.72 69.77,16.75 69.83,16.84L70.82,18.64C70.87,18.75 70.93,18.84 70.96,18.95C71.01,19.04 71.04,19.15 71.07,19.23C71.1,19.15 71.13,19.04 71.18,18.95C71.21,18.87 71.27,18.75 71.32,18.64L72.31,16.84C72.31,16.78 72.37,16.72 72.42,16.7C72.48,16.64 72.54,16.61 72.62,16.61H73.52L71.55,19.91H71.61Z" id="path_83"/><path fill="#c01422" d="M12.58,5.95L0,9.73V12.41L12.58,9.7V11.93L21.29,13.65V12.16L12.58,9.48V5.95Z" id="path_84"/><path fill="#c01422" d="M12.58,12.07L0,13.76V16.55L12.58,15.82V18.02L21.29,17.49V15.99L12.58,15.71V12.07Z" id="path_85"/><path fill="#c01422" d="M12.58,18.27L0,17.91V20.19L12.58,22.03V24L21.29,20.98V19.54L12.58,21.69V18.27Z" id="path_86"/><path fill="#c01422" d="M12.58,3.41V0L0,5.39V8.4L12.58,3.78V5.7L21.29,9.5V8.04L12.58,3.41Z" id="path_87"/></svg>