<svg id="vector" xmlns="http://www.w3.org/2000/svg" width="192.0d" height="24.0d" viewBox="0 0 192.0 24.0"><path fill="#ffffff" d="M190.6,0.97V23.04H156.53V0.97H190.6ZM191.56,0.01H155.57V24H191.56V0.01Z" id="path_0"/><path fill="#ffffff" d="M173.57,2.87L173.86,3.77H174.81L174.04,4.33L174.33,5.23L173.57,4.67L172.8,5.23L173.09,4.33L172.32,3.77H173.27L173.57,2.87Z" id="path_1"/><path fill="#ffffff" d="M173.57,18.7L173.86,19.6H174.81L174.04,20.16L174.33,21.06L173.57,20.5L172.8,21.06L173.09,20.16L172.32,19.6H173.27L173.57,18.7Z" id="path_2"/><path fill="#ffffff" d="M165.71,10.74L166,11.65H166.95L166.18,12.21L166.48,13.11L165.71,12.55L164.94,13.11L165.24,12.21L164.47,11.65H165.42L165.71,10.74Z" id="path_3"/><path fill="#ffffff" d="M181.42,10.74L181.71,11.65H182.66L181.89,12.21L182.19,13.11L181.42,12.55L180.65,13.11L180.94,12.21L180.18,11.65H181.12L181.42,10.74Z" id="path_4"/><path fill="#ffffff" d="M177.48,3.95L177.77,4.86H178.72L177.95,5.41L178.24,6.32L177.48,5.76L176.71,6.32L177,5.41L176.23,4.86H177.18L177.48,3.95Z" id="path_5"/><path fill="#ffffff" d="M169.65,3.95L169.95,4.86H170.9L170.13,5.41L170.42,6.32L169.65,5.76L168.88,6.32L169.18,5.41L168.41,4.86H169.36L169.65,3.95Z" id="path_6"/><path fill="#ffffff" d="M177.48,17.54L177.77,18.44H178.72L177.95,19L178.24,19.91L177.48,19.35L176.71,19.91L177,19L176.23,18.44H177.18L177.48,17.54Z" id="path_7"/><path fill="#ffffff" d="M169.65,17.54L169.95,18.44H170.9L170.13,19L170.42,19.91L169.65,19.35L168.88,19.91L169.18,19L168.41,18.44H169.36L169.65,17.54Z" id="path_8"/><path fill="#ffffff" d="M180.36,6.79L180.65,7.69H181.6L180.83,8.25L181.12,9.16L180.36,8.6L179.59,9.16L179.88,8.25L179.11,7.69H180.06L180.36,6.79Z" id="path_9"/><path fill="#ffffff" d="M166.77,6.79L167.07,7.69H168.02L167.25,8.25L167.54,9.16L166.77,8.6L166.01,9.16L166.3,8.25L165.53,7.69H166.48L166.77,6.79Z" id="path_10"/><path fill="#ffffff" d="M180.36,14.65L180.65,15.56H181.6L180.83,16.12L181.12,17.02L180.36,16.46L179.59,17.02L179.88,16.12L179.11,15.56H180.06L180.36,14.65Z" id="path_11"/><path fill="#ffffff" d="M166.77,14.65L167.07,15.56H168.02L167.25,16.12L167.54,17.02L166.77,16.46L166.01,17.02L166.3,16.12L165.53,15.56H166.48L166.77,14.65Z" id="path_12"/><path fill="#ffffff" d="M95.2,5.58C95.83,5.58 96.14,5.36 96.14,4.93C96.14,4.8 96.12,4.68 96.06,4.59C96,4.5 95.93,4.42 95.83,4.35C95.74,4.28 95.63,4.22 95.51,4.17C95.39,4.12 95.26,4.07 95.12,4.02C94.96,3.97 94.81,3.9 94.67,3.84C94.53,3.77 94.41,3.69 94.31,3.59C94.2,3.5 94.12,3.39 94.06,3.26C94,3.13 93.97,2.98 93.97,2.8C93.97,2.42 94.1,2.12 94.36,1.92C94.61,1.7 94.97,1.6 95.42,1.6C95.68,1.6 95.91,1.63 96.13,1.68C96.34,1.74 96.5,1.8 96.6,1.87L96.4,2.36C96.32,2.31 96.19,2.25 96.02,2.2C95.85,2.15 95.65,2.12 95.42,2.12C95.3,2.12 95.2,2.14 95.1,2.16C95,2.19 94.91,2.22 94.84,2.27C94.76,2.32 94.71,2.39 94.66,2.46C94.62,2.54 94.6,2.63 94.6,2.73C94.6,2.85 94.62,2.95 94.66,3.02C94.71,3.1 94.77,3.17 94.86,3.23C94.94,3.29 95.03,3.35 95.14,3.4C95.25,3.45 95.37,3.5 95.51,3.55C95.69,3.62 95.86,3.7 96.02,3.77C96.17,3.84 96.31,3.93 96.42,4.04C96.53,4.14 96.62,4.26 96.69,4.41C96.75,4.55 96.78,4.72 96.78,4.93C96.78,5.3 96.64,5.59 96.37,5.8C96.09,6 95.7,6.1 95.21,6.1C95.04,6.1 94.88,6.09 94.74,6.07C94.6,6.04 94.47,6.02 94.36,5.98C94.24,5.95 94.15,5.92 94.07,5.89C93.99,5.85 93.92,5.82 93.88,5.8L94.06,5.3C94.16,5.35 94.3,5.41 94.49,5.48C94.69,5.54 94.93,5.58 95.21,5.58L95.2,5.58Z" id="path_13"/><path fill="#ffffff" d="M98.81,1.19C98.97,1.19 99.12,1.2 99.24,1.22C99.36,1.25 99.45,1.27 99.5,1.29L99.39,1.79C99.34,1.76 99.27,1.74 99.18,1.72C99.09,1.7 98.98,1.68 98.85,1.68C98.58,1.68 98.39,1.76 98.28,1.9C98.18,2.05 98.12,2.25 98.12,2.5V2.78H99.36V3.26H98.12V6H97.54V2.49C97.54,2.07 97.65,1.75 97.85,1.53C98.05,1.3 98.37,1.19 98.81,1.19Z" id="path_14"/><path fill="#ffffff" d="M100.33,2.19C100.22,2.19 100.14,2.16 100.07,2.09C99.99,2.02 99.96,1.93 99.96,1.81C99.96,1.7 100,1.6 100.07,1.54C100.14,1.47 100.23,1.44 100.33,1.44C100.43,1.44 100.52,1.47 100.59,1.54C100.67,1.6 100.7,1.7 100.7,1.81C100.7,1.93 100.66,2.02 100.59,2.09C100.52,2.16 100.43,2.19 100.33,2.19ZM100.62,6H100.04V2.78H100.62V6Z" id="path_15"/><path fill="#ffffff" d="M101.59,2.87C101.72,2.84 101.9,2.8 102.12,2.77C102.34,2.73 102.59,2.71 102.88,2.71C103.13,2.71 103.35,2.75 103.52,2.82C103.69,2.89 103.82,2.99 103.92,3.12C104.03,3.25 104.1,3.41 104.14,3.59C104.18,3.78 104.2,3.98 104.2,4.19V6H103.62V4.32C103.62,4.12 103.61,3.95 103.58,3.81C103.55,3.67 103.51,3.56 103.45,3.47C103.39,3.38 103.31,3.32 103.2,3.28C103.1,3.24 102.97,3.22 102.82,3.22C102.75,3.22 102.69,3.22 102.63,3.23C102.56,3.23 102.5,3.23 102.44,3.24C102.38,3.25 102.32,3.26 102.28,3.26C102.23,3.27 102.19,3.28 102.17,3.28V6.01H101.6V2.88L101.59,2.87Z" id="path_16"/><path fill="#ffffff" d="M106.18,2.7C106.42,2.7 106.61,2.73 106.77,2.79C106.93,2.85 107.06,2.93 107.15,3.04C107.25,3.15 107.32,3.28 107.36,3.43C107.4,3.59 107.43,3.75 107.43,3.93V5.95C107.37,5.96 107.31,5.97 107.22,5.98C107.13,6 107.03,6.01 106.91,6.02C106.8,6.04 106.68,6.05 106.55,6.06C106.42,6.07 106.29,6.07 106.16,6.07C105.98,6.07 105.81,6.05 105.66,6.02C105.51,5.98 105.38,5.92 105.26,5.84C105.15,5.76 105.07,5.65 105,5.52C104.94,5.39 104.91,5.23 104.91,5.04C104.91,4.86 104.95,4.71 105.02,4.58C105.09,4.46 105.19,4.35 105.31,4.27C105.44,4.2 105.58,4.14 105.75,4.1C105.91,4.06 106.08,4.04 106.27,4.04C106.33,4.04 106.39,4.05 106.45,4.05C106.51,4.06 106.57,4.07 106.63,4.08C106.68,4.09 106.73,4.1 106.77,4.11C106.82,4.11 106.84,4.12 106.86,4.12V3.96C106.86,3.87 106.85,3.78 106.83,3.68C106.81,3.59 106.77,3.51 106.72,3.43C106.66,3.36 106.59,3.3 106.5,3.26C106.4,3.22 106.28,3.19 106.13,3.19C105.94,3.19 105.78,3.21 105.63,3.23C105.49,3.26 105.39,3.29 105.32,3.32L105.25,2.84C105.32,2.81 105.44,2.78 105.62,2.75C105.79,2.71 105.98,2.7 106.18,2.7ZM106.23,5.59C106.37,5.59 106.49,5.59 106.6,5.58C106.71,5.58 106.79,5.56 106.86,5.55V4.58C106.82,4.57 106.76,4.55 106.66,4.53C106.57,4.52 106.46,4.51 106.32,4.51C106.24,4.51 106.15,4.51 106.05,4.53C105.95,4.54 105.86,4.57 105.78,4.6C105.7,4.64 105.63,4.7 105.58,4.77C105.52,4.83 105.5,4.92 105.5,5.04C105.5,5.24 105.56,5.39 105.69,5.47C105.82,5.55 106.01,5.59 106.23,5.59H106.23Z" id="path_17"/><path fill="#ffffff" d="M108.38,2.87C108.51,2.84 108.69,2.8 108.91,2.77C109.13,2.73 109.38,2.71 109.66,2.71C109.92,2.71 110.13,2.75 110.3,2.82C110.47,2.89 110.61,2.99 110.71,3.12C110.81,3.25 110.88,3.41 110.92,3.59C110.97,3.78 110.99,3.98 110.99,4.19V6H110.41V4.32C110.41,4.12 110.39,3.95 110.37,3.81C110.34,3.67 110.3,3.56 110.24,3.47C110.17,3.38 110.09,3.32 109.99,3.28C109.88,3.24 109.76,3.22 109.6,3.22C109.54,3.22 109.48,3.22 109.41,3.23C109.34,3.23 109.28,3.23 109.22,3.24C109.16,3.25 109.11,3.26 109.06,3.26C109.01,3.27 108.98,3.28 108.96,3.28V6.01H108.38V2.88L108.38,2.87Z" id="path_18"/><path fill="#ffffff" d="M112.68,5.59C112.92,5.59 113.1,5.56 113.21,5.5C113.32,5.43 113.38,5.33 113.38,5.2C113.38,5.06 113.32,4.94 113.21,4.86C113.1,4.78 112.92,4.69 112.66,4.58C112.54,4.53 112.42,4.48 112.3,4.43C112.19,4.38 112.09,4.32 112.01,4.25C111.93,4.17 111.86,4.09 111.81,3.99C111.76,3.89 111.74,3.77 111.74,3.62C111.74,3.34 111.84,3.11 112.06,2.94C112.27,2.78 112.56,2.69 112.92,2.69C113.01,2.69 113.1,2.7 113.19,2.71C113.28,2.72 113.37,2.73 113.45,2.75C113.53,2.76 113.59,2.78 113.65,2.79C113.72,2.81 113.76,2.83 113.8,2.84L113.69,3.33C113.63,3.3 113.53,3.27 113.4,3.23C113.27,3.2 113.11,3.18 112.92,3.18C112.76,3.18 112.62,3.21 112.5,3.27C112.38,3.34 112.32,3.44 112.32,3.58C112.32,3.65 112.33,3.71 112.36,3.76C112.39,3.82 112.43,3.86 112.48,3.91C112.54,3.95 112.61,3.99 112.69,4.03C112.78,4.07 112.88,4.11 112.99,4.15C113.14,4.21 113.28,4.26 113.4,4.32C113.52,4.38 113.62,4.44 113.71,4.51C113.79,4.59 113.86,4.68 113.9,4.78C113.95,4.89 113.97,5.02 113.97,5.17C113.97,5.47 113.86,5.7 113.64,5.85C113.42,6 113.1,6.08 112.69,6.08C112.41,6.08 112.18,6.05 112.02,6.01C111.86,5.96 111.75,5.92 111.69,5.9L111.8,5.4C111.86,5.42 111.97,5.46 112.11,5.51C112.26,5.56 112.45,5.59 112.69,5.59L112.68,5.59Z" id="path_19"/><path fill="#ffffff" d="M117.56,4.39C117.56,4.65 117.52,4.88 117.44,5.08C117.37,5.29 117.27,5.47 117.13,5.62C117,5.77 116.84,5.88 116.65,5.96C116.46,6.04 116.26,6.08 116.04,6.08C115.82,6.08 115.62,6.04 115.43,5.96C115.24,5.88 115.08,5.77 114.95,5.62C114.81,5.47 114.71,5.29 114.63,5.08C114.56,4.88 114.52,4.65 114.52,4.39C114.52,4.13 114.56,3.91 114.63,3.7C114.71,3.49 114.81,3.31 114.95,3.16C115.08,3.01 115.24,2.9 115.43,2.82C115.62,2.74 115.82,2.7 116.04,2.7C116.26,2.7 116.46,2.74 116.65,2.82C116.83,2.9 117,3.01 117.13,3.16C117.27,3.31 117.37,3.49 117.44,3.7C117.52,3.91 117.56,4.14 117.56,4.39ZM116.96,4.39C116.96,4.03 116.88,3.74 116.71,3.52C116.55,3.31 116.32,3.21 116.04,3.21C115.77,3.21 115.54,3.31 115.38,3.52C115.21,3.74 115.13,4.03 115.13,4.39C115.13,4.75 115.21,5.04 115.38,5.26C115.54,5.47 115.76,5.58 116.04,5.58C116.33,5.58 116.55,5.47 116.71,5.26C116.87,5.04 116.96,4.75 116.96,4.39Z" id="path_20"/><path fill="#ffffff" d="M120.95,6C120.84,5.7 120.71,5.37 120.58,4.98C120.46,4.6 120.34,4.2 120.23,3.79C120.12,4.2 120,4.6 119.88,4.98C119.75,5.37 119.63,5.7 119.51,6H119.01C118.82,5.58 118.63,5.09 118.45,4.54C118.27,4 118.1,3.41 117.93,2.78H118.55C118.6,2.97 118.64,3.18 118.7,3.41C118.76,3.63 118.82,3.86 118.89,4.09C118.95,4.32 119.02,4.54 119.09,4.75C119.16,4.96 119.22,5.14 119.28,5.3C119.36,5.11 119.43,4.9 119.49,4.68C119.56,4.47 119.63,4.25 119.69,4.03C119.75,3.81 119.81,3.59 119.86,3.37C119.92,3.16 119.97,2.96 120.01,2.78H120.49C120.53,2.96 120.57,3.16 120.62,3.37C120.68,3.59 120.74,3.81 120.8,4.03C120.86,4.25 120.93,4.47 120.99,4.68C121.06,4.9 121.13,5.11 121.2,5.3C121.26,5.14 121.33,4.96 121.4,4.75C121.46,4.54 121.53,4.32 121.6,4.09C121.66,3.86 121.72,3.64 121.78,3.41C121.84,3.18 121.89,2.97 121.93,2.78H122.53C122.37,3.41 122.2,4 122.01,4.54C121.83,5.09 121.64,5.58 121.45,6H120.95H120.95Z" id="path_21"/><path fill="#ffffff" d="M124.14,2.7C124.37,2.7 124.56,2.73 124.72,2.79C124.88,2.85 125.01,2.93 125.11,3.04C125.2,3.15 125.27,3.28 125.32,3.43C125.36,3.59 125.38,3.75 125.38,3.93V5.95C125.33,5.96 125.26,5.97 125.17,5.98C125.08,6 124.98,6.01 124.87,6.02C124.75,6.04 124.64,6.05 124.5,6.06C124.37,6.07 124.24,6.07 124.12,6.07C123.93,6.07 123.77,6.05 123.61,6.02C123.46,5.98 123.33,5.92 123.22,5.84C123.1,5.76 123.02,5.65 122.96,5.52C122.89,5.39 122.86,5.23 122.86,5.04C122.86,4.86 122.9,4.71 122.97,4.58C123.04,4.46 123.14,4.35 123.26,4.27C123.39,4.2 123.53,4.14 123.7,4.1C123.87,4.06 124.04,4.04 124.22,4.04C124.28,4.04 124.34,4.05 124.4,4.05C124.46,4.06 124.52,4.07 124.58,4.08C124.64,4.09 124.68,4.1 124.73,4.11C124.77,4.11 124.8,4.12 124.81,4.12V3.96C124.81,3.87 124.8,3.78 124.78,3.68C124.76,3.59 124.72,3.51 124.67,3.43C124.62,3.36 124.54,3.3 124.45,3.26C124.36,3.22 124.24,3.19 124.09,3.19C123.9,3.19 123.73,3.21 123.59,3.23C123.44,3.26 123.34,3.29 123.27,3.32L123.2,2.84C123.27,2.81 123.4,2.78 123.57,2.75C123.75,2.71 123.93,2.7 124.14,2.7ZM124.19,5.59C124.32,5.59 124.44,5.59 124.55,5.58C124.66,5.58 124.75,5.56 124.82,5.55V4.58C124.77,4.57 124.71,4.55 124.62,4.53C124.52,4.52 124.41,4.51 124.28,4.51C124.19,4.51 124.1,4.51 124,4.53C123.9,4.54 123.82,4.57 123.73,4.6C123.65,4.64 123.58,4.7 123.53,4.77C123.48,4.83 123.45,4.92 123.45,5.04C123.45,5.24 123.51,5.39 123.65,5.47C123.78,5.55 123.96,5.59 124.18,5.59H124.19Z" id="path_22"/><path fill="#ffffff" d="M126.33,2.87C126.46,2.84 126.63,2.8 126.85,2.77C127.07,2.73 127.32,2.71 127.61,2.71C127.87,2.71 128.08,2.75 128.25,2.82C128.42,2.89 128.55,2.99 128.66,3.12C128.76,3.25 128.83,3.41 128.87,3.59C128.91,3.78 128.93,3.98 128.93,4.19V6H128.35V4.32C128.35,4.12 128.34,3.95 128.32,3.81C128.29,3.67 128.24,3.56 128.18,3.47C128.12,3.38 128.04,3.32 127.93,3.28C127.83,3.24 127.7,3.22 127.55,3.22C127.49,3.22 127.42,3.22 127.36,3.23C127.29,3.23 127.23,3.23 127.17,3.24C127.11,3.25 127.06,3.26 127.01,3.26C126.96,3.27 126.93,3.28 126.91,3.28V6.01H126.33V2.88L126.33,2.87Z" id="path_23"/><path fill="#ffffff" d="M129.71,4.4C129.71,4.11 129.75,3.86 129.83,3.65C129.91,3.44 130.02,3.26 130.16,3.12C130.3,2.98 130.46,2.87 130.63,2.8C130.81,2.73 130.99,2.7 131.18,2.7C131.61,2.7 131.95,2.83 132.18,3.1C132.41,3.37 132.53,3.79 132.53,4.34V4.44C132.53,4.48 132.53,4.51 132.52,4.55H130.31C130.34,4.88 130.43,5.14 130.6,5.31C130.77,5.49 131.04,5.57 131.4,5.57C131.6,5.57 131.77,5.56 131.91,5.52C132.05,5.48 132.15,5.45 132.22,5.42L132.3,5.9C132.23,5.94 132.11,5.98 131.93,6.02C131.76,6.06 131.56,6.08 131.34,6.08C131.05,6.08 130.81,6.04 130.61,5.96C130.4,5.87 130.24,5.76 130.1,5.61C129.97,5.46 129.87,5.28 129.81,5.08C129.75,4.87 129.71,4.65 129.71,4.4L129.71,4.4ZM131.92,4.08C131.93,3.82 131.86,3.61 131.73,3.44C131.59,3.27 131.41,3.19 131.17,3.19C131.04,3.19 130.92,3.21 130.82,3.26C130.72,3.31 130.63,3.38 130.57,3.46C130.49,3.54 130.44,3.64 130.4,3.75C130.36,3.85 130.34,3.96 130.32,4.08H131.92V4.08Z" id="path_24"/><path fill="#ffffff" d="M137.65,4.4C137.65,4.64 137.62,4.87 137.56,5.07C137.49,5.28 137.4,5.46 137.27,5.61C137.15,5.76 137,5.87 136.82,5.95C136.64,6.03 136.43,6.08 136.2,6.08C136.01,6.08 135.85,6.05 135.71,6C135.56,5.95 135.46,5.91 135.39,5.86V7.15H134.81V2.87C134.94,2.84 135.12,2.8 135.32,2.76C135.53,2.72 135.76,2.71 136.03,2.71C136.28,2.71 136.5,2.74 136.7,2.82C136.9,2.9 137.07,3.01 137.21,3.16C137.35,3.3 137.46,3.48 137.54,3.69C137.61,3.9 137.65,4.13 137.65,4.4ZM137.05,4.4C137.05,4.02 136.96,3.73 136.77,3.53C136.58,3.32 136.33,3.22 136.02,3.22C135.85,3.22 135.71,3.23 135.62,3.24C135.52,3.26 135.44,3.27 135.38,3.28V5.32C135.45,5.38 135.55,5.43 135.69,5.49C135.82,5.54 135.96,5.57 136.12,5.57C136.29,5.57 136.43,5.54 136.55,5.48C136.67,5.42 136.76,5.33 136.84,5.23C136.91,5.13 136.96,5 137,4.86C137.03,4.71 137.05,4.56 137.05,4.4Z" id="path_25"/><path fill="#ffffff" d="M139.68,2.71C139.74,2.71 139.79,2.71 139.85,2.72C139.91,2.72 139.98,2.73 140.04,2.74C140.1,2.75 140.16,2.76 140.21,2.77C140.26,2.78 140.3,2.79 140.33,2.8L140.23,3.3C140.19,3.29 140.11,3.27 140.01,3.24C139.9,3.22 139.77,3.21 139.6,3.21C139.49,3.21 139.38,3.22 139.28,3.24C139.18,3.27 139.1,3.28 139.07,3.29V6H138.49V2.91C138.63,2.86 138.8,2.82 139,2.77C139.2,2.73 139.43,2.71 139.68,2.71V2.71Z" id="path_26"/><path fill="#ffffff" d="M143.2,3.21C143.11,3.31 143,3.44 142.85,3.61C142.71,3.79 142.56,3.98 142.39,4.19C142.23,4.4 142.07,4.62 141.9,4.85C141.74,5.09 141.59,5.31 141.47,5.52H143.24V6H140.78V5.62C140.88,5.44 141,5.24 141.15,5.02C141.29,4.8 141.44,4.58 141.6,4.36C141.77,4.15 141.92,3.94 142.07,3.75C142.22,3.56 142.35,3.39 142.47,3.26H140.87V2.78H143.2V3.21H143.2Z" id="path_27"/><path fill="#ffffff" d="M143.76,4.4C143.76,4.11 143.8,3.86 143.88,3.65C143.96,3.44 144.07,3.26 144.21,3.12C144.35,2.98 144.5,2.87 144.68,2.8C144.86,2.73 145.04,2.7 145.23,2.7C145.66,2.7 146,2.83 146.23,3.1C146.46,3.37 146.57,3.79 146.57,4.34V4.44C146.57,4.48 146.57,4.51 146.57,4.55H144.36C144.38,4.88 144.48,5.14 144.65,5.31C144.82,5.49 145.09,5.57 145.45,5.57C145.65,5.57 145.82,5.56 145.96,5.52C146.1,5.48 146.2,5.45 146.27,5.42L146.35,5.9C146.28,5.94 146.16,5.98 145.98,6.02C145.81,6.06 145.61,6.08 145.38,6.08C145.1,6.08 144.86,6.04 144.66,5.96C144.45,5.87 144.28,5.76 144.15,5.61C144.02,5.46 143.92,5.28 143.86,5.08C143.79,4.87 143.76,4.65 143.76,4.4L143.76,4.4ZM145.97,4.08C145.98,3.82 145.91,3.61 145.78,3.44C145.64,3.27 145.46,3.19 145.22,3.19C145.09,3.19 144.98,3.21 144.87,3.26C144.77,3.31 144.69,3.38 144.62,3.46C144.55,3.54 144.49,3.64 144.45,3.75C144.41,3.85 144.39,3.96 144.37,4.08H145.98L145.97,4.08Z" id="path_28"/><path fill="#ffffff" d="M149.52,3.21C149.43,3.31 149.32,3.44 149.18,3.61C149.03,3.79 148.88,3.98 148.72,4.19C148.55,4.4 148.39,4.62 148.23,4.85C148.06,5.09 147.92,5.31 147.79,5.52H149.57V6H147.1V5.62C147.2,5.44 147.32,5.24 147.47,5.02C147.62,4.8 147.77,4.58 147.93,4.36C148.09,4.15 148.24,3.94 148.39,3.75C148.55,3.56 148.68,3.39 148.79,3.26H147.2V2.78H149.52V3.21H149.52Z" id="path_29"/><path fill="#ffffff" d="M106.39,14.1C106.11,14.1 105.86,14.05 105.65,13.97C105.45,13.88 105.28,13.76 105.14,13.61C105.01,13.46 104.91,13.28 104.85,13.07C104.79,12.87 104.76,12.64 104.76,12.4V9.7H105.36V12.33C105.36,12.77 105.45,13.08 105.64,13.27C105.83,13.47 106.08,13.56 106.39,13.56C106.54,13.56 106.68,13.54 106.81,13.49C106.93,13.44 107.04,13.37 107.13,13.27C107.22,13.17 107.29,13.04 107.35,12.89C107.4,12.73 107.42,12.55 107.42,12.33V9.7H108.02V12.4C108.02,12.64 107.99,12.86 107.92,13.07C107.86,13.28 107.76,13.46 107.63,13.61C107.49,13.76 107.32,13.88 107.12,13.97C106.91,14.05 106.67,14.1 106.39,14.1H106.39Z" id="path_30"/><path fill="#ffffff" d="M109.01,10.87C109.14,10.84 109.32,10.8 109.54,10.77C109.76,10.73 110.01,10.71 110.29,10.71C110.55,10.71 110.77,10.75 110.93,10.82C111.1,10.89 111.24,10.99 111.34,11.12C111.44,11.25 111.51,11.41 111.56,11.59C111.6,11.78 111.62,11.98 111.62,12.19V14H111.04V12.32C111.04,12.12 111.03,11.95 111,11.81C110.97,11.67 110.93,11.56 110.87,11.47C110.81,11.38 110.72,11.32 110.62,11.28C110.51,11.24 110.39,11.22 110.24,11.22C110.17,11.22 110.11,11.22 110.04,11.23C109.98,11.23 109.91,11.23 109.85,11.24C109.79,11.25 109.74,11.26 109.69,11.26C109.65,11.27 109.61,11.28 109.59,11.28V14.01H109.01V10.88L109.01,10.87Z" id="path_31"/><path fill="#ffffff" d="M112.83,10.19C112.72,10.19 112.63,10.16 112.56,10.09C112.49,10.02 112.46,9.93 112.46,9.81C112.46,9.7 112.49,9.6 112.56,9.54C112.64,9.47 112.72,9.44 112.83,9.44C112.93,9.44 113.02,9.47 113.09,9.54C113.16,9.6 113.2,9.7 113.2,9.81C113.2,9.93 113.16,10.02 113.09,10.09C113.02,10.16 112.93,10.19 112.83,10.19ZM113.12,14H112.54V10.78H113.12V14Z" id="path_32"/><path fill="#ffffff" d="M113.94,12.4C113.94,12.11 113.99,11.86 114.07,11.65C114.15,11.44 114.26,11.26 114.4,11.12C114.53,10.98 114.69,10.87 114.87,10.8C115.05,10.73 115.23,10.7 115.42,10.7C115.85,10.7 116.18,10.83 116.41,11.1C116.64,11.37 116.76,11.79 116.76,12.34V12.44C116.76,12.48 116.76,12.51 116.75,12.55H114.55C114.57,12.88 114.67,13.14 114.84,13.31C115.01,13.49 115.27,13.57 115.63,13.57C115.84,13.57 116,13.56 116.15,13.52C116.28,13.48 116.39,13.45 116.46,13.42L116.54,13.9C116.47,13.96 116.4,14.01 116.33,14.06C116.26,14.12 116.19,14.18 116.12,14.25C116.05,14.32 116,14.38 115.97,14.43C115.94,14.48 115.92,14.53 115.92,14.59C115.92,14.66 115.95,14.7 115.99,14.73C116.04,14.75 116.1,14.77 116.17,14.77C116.22,14.77 116.27,14.76 116.32,14.75C116.36,14.74 116.4,14.73 116.43,14.72L116.47,15.1C116.42,15.12 116.36,15.14 116.28,15.15C116.2,15.16 116.13,15.17 116.06,15.17C115.85,15.17 115.68,15.13 115.56,15.05C115.44,14.98 115.38,14.86 115.38,14.69C115.38,14.6 115.41,14.5 115.48,14.39C115.55,14.28 115.65,14.17 115.77,14.07C115.74,14.07 115.71,14.07 115.67,14.07C115.64,14.07 115.6,14.08 115.57,14.08C115.29,14.08 115.05,14.04 114.84,13.95C114.64,13.87 114.47,13.75 114.34,13.6C114.21,13.45 114.11,13.28 114.04,13.07C113.98,12.86 113.95,12.64 113.95,12.4H113.94ZM116.16,12.08C116.16,11.82 116.1,11.61 115.96,11.44C115.83,11.27 115.64,11.19 115.41,11.19C115.27,11.19 115.16,11.21 115.06,11.26C114.96,11.31 114.87,11.38 114.8,11.46C114.73,11.54 114.68,11.64 114.64,11.75C114.6,11.85 114.57,11.96 114.56,12.08H116.16L116.16,12.08Z" id="path_33"/><path fill="#ffffff" d="M119.38,14V9.7H122.01V10.22H119.98V11.5H121.78V12H119.98V13.49H122.16V14H119.38Z" id="path_34"/><path fill="#ffffff" d="M125.35,13.91C125.21,13.94 125.04,13.98 124.82,14.01C124.6,14.05 124.35,14.07 124.07,14.07C123.82,14.07 123.61,14.03 123.44,13.96C123.27,13.89 123.14,13.79 123.03,13.65C122.93,13.52 122.85,13.37 122.81,13.18C122.76,13 122.74,12.8 122.74,12.59V10.78H123.32V12.46C123.32,12.85 123.38,13.14 123.5,13.31C123.63,13.48 123.84,13.56 124.13,13.56C124.19,13.56 124.26,13.56 124.32,13.55C124.39,13.55 124.45,13.55 124.51,13.54C124.57,13.53 124.62,13.53 124.67,13.52C124.71,13.51 124.75,13.5 124.77,13.5V10.77H125.35V13.9L125.35,13.91Z" id="path_35"/><path fill="#ffffff" d="M127.54,10.71C127.6,10.71 127.65,10.71 127.72,10.72C127.78,10.72 127.84,10.73 127.91,10.74C127.97,10.75 128.02,10.76 128.08,10.77C128.13,10.78 128.17,10.79 128.19,10.8L128.1,11.3C128.05,11.29 127.97,11.27 127.87,11.24C127.76,11.22 127.63,11.21 127.46,11.21C127.36,11.21 127.25,11.22 127.14,11.24C127.04,11.27 126.97,11.28 126.94,11.29V14H126.36V10.91C126.49,10.86 126.66,10.82 126.86,10.77C127.07,10.73 127.3,10.71 127.55,10.71L127.54,10.71Z" id="path_36"/><path fill="#ffffff" d="M131.59,12.39C131.59,12.65 131.55,12.88 131.47,13.08C131.4,13.29 131.29,13.47 131.16,13.62C131.02,13.77 130.87,13.88 130.68,13.96C130.49,14.04 130.29,14.08 130.07,14.08C129.85,14.08 129.65,14.04 129.46,13.96C129.27,13.88 129.11,13.77 128.98,13.62C128.84,13.47 128.74,13.29 128.66,13.08C128.59,12.88 128.55,12.65 128.55,12.39C128.55,12.13 128.59,11.91 128.66,11.7C128.74,11.49 128.84,11.31 128.98,11.16C129.11,11.01 129.27,10.9 129.46,10.82C129.65,10.74 129.85,10.7 130.07,10.7C130.29,10.7 130.49,10.74 130.68,10.82C130.86,10.9 131.02,11.01 131.16,11.16C131.29,11.31 131.4,11.49 131.47,11.7C131.55,11.91 131.59,12.14 131.59,12.39ZM130.99,12.39C130.99,12.03 130.9,11.74 130.74,11.52C130.58,11.31 130.35,11.21 130.07,11.21C129.79,11.21 129.57,11.31 129.4,11.52C129.24,11.74 129.16,12.03 129.16,12.39C129.16,12.75 129.24,13.04 129.4,13.26C129.57,13.47 129.79,13.58 130.07,13.58C130.36,13.58 130.58,13.47 130.74,13.26C130.9,13.04 130.99,12.75 130.99,12.39Z" id="path_37"/><path fill="#ffffff" d="M135.27,12.4C135.27,12.64 135.24,12.87 135.18,13.07C135.11,13.28 135.02,13.46 134.89,13.61C134.77,13.76 134.62,13.87 134.44,13.95C134.26,14.03 134.05,14.08 133.82,14.08C133.63,14.08 133.47,14.05 133.32,14C133.18,13.95 133.08,13.91 133.01,13.86V15.15H132.43V10.87C132.56,10.84 132.73,10.8 132.94,10.76C133.15,10.72 133.38,10.71 133.65,10.71C133.9,10.71 134.12,10.74 134.32,10.82C134.52,10.9 134.69,11.01 134.83,11.16C134.97,11.3 135.08,11.48 135.15,11.69C135.23,11.9 135.27,12.13 135.27,12.4ZM134.67,12.4C134.67,12.02 134.57,11.73 134.39,11.53C134.2,11.32 133.95,11.22 133.64,11.22C133.47,11.22 133.33,11.23 133.24,11.24C133.14,11.26 133.06,11.27 133,11.28V13.32C133.07,13.38 133.17,13.43 133.31,13.49C133.44,13.54 133.58,13.57 133.74,13.57C133.91,13.57 134.05,13.54 134.17,13.48C134.29,13.42 134.38,13.33 134.46,13.23C134.53,13.13 134.58,13 134.62,12.86C134.65,12.71 134.67,12.56 134.67,12.4Z" id="path_38"/><path fill="#ffffff" d="M135.88,12.4C135.88,12.11 135.92,11.86 136,11.65C136.08,11.44 136.19,11.26 136.33,11.12C136.47,10.98 136.63,10.87 136.8,10.8C136.98,10.73 137.16,10.7 137.35,10.7C137.78,10.7 138.12,10.83 138.35,11.1C138.58,11.37 138.7,11.79 138.7,12.34V12.44C138.7,12.48 138.7,12.51 138.69,12.55H136.48C136.51,12.88 136.6,13.14 136.77,13.31C136.94,13.49 137.21,13.57 137.57,13.57C137.77,13.57 137.94,13.56 138.08,13.52C138.22,13.48 138.32,13.45 138.39,13.42L138.47,13.9C138.4,13.94 138.28,13.98 138.1,14.02C137.93,14.06 137.73,14.08 137.51,14.08C137.22,14.08 136.98,14.04 136.78,13.96C136.57,13.87 136.4,13.76 136.27,13.61C136.14,13.46 136.04,13.28 135.98,13.08C135.91,12.87 135.88,12.65 135.88,12.4L135.88,12.4ZM138.09,12.08C138.1,11.82 138.03,11.61 137.9,11.44C137.76,11.27 137.58,11.19 137.34,11.19C137.21,11.19 137.09,11.21 136.99,11.26C136.89,11.31 136.8,11.38 136.74,11.46C136.66,11.54 136.61,11.64 136.57,11.75C136.53,11.85 136.51,11.96 136.49,12.08H138.1L138.09,12.08Z" id="path_39"/><path fill="#ffffff" d="M139.02,15.16C138.97,15.16 138.91,15.16 138.83,15.14C138.75,15.13 138.69,15.12 138.63,15.09L138.71,14.62C138.75,14.63 138.8,14.64 138.85,14.65C138.9,14.66 138.96,14.66 139,14.66C139.2,14.66 139.34,14.6 139.43,14.48C139.51,14.36 139.55,14.18 139.55,13.94V10.77H140.13V13.94C140.13,14.35 140.04,14.66 139.85,14.86C139.66,15.06 139.39,15.16 139.03,15.16H139.02ZM139.84,10.19C139.73,10.19 139.65,10.16 139.57,10.09C139.5,10.02 139.47,9.93 139.47,9.81C139.47,9.7 139.5,9.6 139.57,9.54C139.65,9.47 139.73,9.44 139.84,9.44C139.94,9.44 140.03,9.47 140.1,9.54C140.17,9.6 140.21,9.7 140.21,9.81C140.21,9.93 140.17,10.02 140.1,10.09C140.03,10.16 139.94,10.19 139.84,10.19Z" id="path_40"/><path fill="#ffffff" d="M141.92,13.59C142.16,13.59 142.33,13.56 142.45,13.5C142.56,13.43 142.62,13.33 142.62,13.2C142.62,13.06 142.56,12.94 142.45,12.86C142.34,12.78 142.15,12.69 141.9,12.58C141.77,12.53 141.65,12.48 141.54,12.43C141.43,12.38 141.33,12.32 141.25,12.25C141.16,12.17 141.1,12.09 141.05,11.99C141,11.89 140.98,11.77 140.98,11.62C140.98,11.34 141.08,11.11 141.29,10.94C141.5,10.78 141.79,10.69 142.15,10.69C142.24,10.69 142.34,10.7 142.43,10.71C142.52,10.72 142.6,10.73 142.68,10.75C142.76,10.76 142.83,10.78 142.89,10.79C142.95,10.81 143,10.83 143.03,10.84L142.93,11.33C142.87,11.3 142.77,11.27 142.64,11.23C142.51,11.2 142.35,11.18 142.16,11.18C142,11.18 141.86,11.21 141.74,11.27C141.62,11.34 141.56,11.44 141.56,11.58C141.56,11.65 141.57,11.71 141.6,11.76C141.62,11.82 141.66,11.86 141.72,11.91C141.78,11.95 141.85,11.99 141.93,12.03C142.01,12.07 142.11,12.11 142.23,12.15C142.38,12.21 142.52,12.27 142.64,12.32C142.76,12.38 142.86,12.44 142.95,12.51C143.03,12.59 143.1,12.68 143.14,12.78C143.18,12.89 143.21,13.02 143.21,13.17C143.21,13.47 143.1,13.7 142.87,13.85C142.65,14 142.34,14.08 141.93,14.08C141.64,14.08 141.42,14.05 141.26,14.01C141.09,13.96 140.98,13.92 140.93,13.9L141.03,13.4C141.09,13.42 141.2,13.46 141.35,13.51C141.49,13.56 141.68,13.59 141.92,13.59L141.92,13.59Z" id="path_41"/><path fill="#ffffff" d="M145.15,12.23C145.28,12.32 145.41,12.44 145.55,12.58C145.69,12.72 145.83,12.87 145.96,13.04C146.09,13.2 146.22,13.37 146.34,13.53C146.46,13.7 146.56,13.86 146.64,14H145.97C145.88,13.86 145.78,13.71 145.66,13.56C145.55,13.41 145.43,13.26 145.31,13.13C145.18,12.99 145.06,12.86 144.93,12.74C144.8,12.63 144.68,12.53 144.57,12.45V14.01H143.99V9.29L144.57,9.19V12.13C144.66,12.03 144.77,11.92 144.9,11.8C145.02,11.68 145.13,11.56 145.25,11.44C145.36,11.31 145.47,11.19 145.58,11.08C145.68,10.96 145.77,10.86 145.85,10.78H146.52C146.43,10.88 146.32,10.99 146.21,11.12C146.1,11.24 145.98,11.36 145.87,11.49C145.74,11.62 145.63,11.74 145.5,11.87C145.38,12 145.26,12.12 145.16,12.23H145.15Z" id="path_42"/><path fill="#ffffff" d="M148.33,10.69C148.56,10.69 148.76,10.72 148.92,10.78C149.07,10.84 149.2,10.93 149.3,11.04C149.4,11.15 149.47,11.28 149.51,11.43C149.55,11.58 149.57,11.75 149.57,11.93V13.95C149.52,13.98 149.47,14.03 149.41,14.07C149.35,14.12 149.29,14.18 149.22,14.24C149.16,14.31 149.12,14.37 149.08,14.42C149.04,14.47 149.02,14.52 149.02,14.58C149.02,14.7 149.1,14.76 149.27,14.76C149.3,14.76 149.34,14.76 149.39,14.75C149.43,14.75 149.48,14.73 149.53,14.72L149.57,15.1C149.53,15.11 149.47,15.13 149.39,15.15C149.32,15.16 149.24,15.17 149.16,15.17C148.93,15.17 148.76,15.12 148.65,15.04C148.53,14.95 148.48,14.84 148.48,14.69C148.48,14.6 148.51,14.51 148.57,14.42C148.63,14.33 148.69,14.25 148.76,14.17C148.78,14.15 148.8,14.12 148.83,14.1C148.86,14.08 148.88,14.06 148.9,14.04C148.81,14.05 148.71,14.05 148.61,14.06C148.51,14.07 148.41,14.07 148.31,14.07C148.13,14.07 147.96,14.05 147.81,14.02C147.65,13.98 147.52,13.92 147.41,13.84C147.3,13.76 147.21,13.65 147.15,13.52C147.09,13.39 147.06,13.23 147.06,13.04C147.06,12.86 147.09,12.71 147.16,12.58C147.24,12.46 147.33,12.35 147.46,12.27C147.58,12.19 147.73,12.14 147.89,12.1C148.06,12.06 148.23,12.04 148.41,12.04C148.47,12.04 148.53,12.04 148.59,12.05C148.66,12.06 148.72,12.06 148.77,12.08C148.83,12.09 148.88,12.1 148.92,12.1C148.96,12.11 148.99,12.12 149.01,12.12V11.96C149.01,11.87 148.99,11.77 148.98,11.68C148.96,11.59 148.92,11.51 148.86,11.43C148.81,11.36 148.74,11.3 148.64,11.26C148.55,11.22 148.43,11.19 148.28,11.19C148.09,11.19 147.92,11.21 147.78,11.23C147.63,11.26 147.53,11.29 147.46,11.32L147.39,10.84C147.47,10.81 147.59,10.78 147.76,10.74C147.94,10.71 148.13,10.7 148.33,10.7V10.69ZM148.38,13.59C148.51,13.59 148.64,13.59 148.74,13.58C148.85,13.57 148.94,13.56 149.01,13.55V12.58C148.96,12.56 148.9,12.54 148.81,12.53C148.71,12.52 148.6,12.51 148.47,12.51C148.38,12.51 148.29,12.51 148.19,12.53C148.09,12.54 148.01,12.57 147.92,12.6C147.84,12.64 147.78,12.7 147.72,12.76C147.67,12.83 147.64,12.92 147.64,13.04C147.64,13.24 147.71,13.39 147.84,13.47C147.97,13.55 148.15,13.59 148.38,13.59H148.38Z" id="path_43"/><path fill="#ffffff" d="M92.83,22C92.67,21.74 92.49,21.45 92.3,21.15C92.1,20.85 91.9,20.54 91.69,20.24C91.49,19.93 91.27,19.63 91.06,19.34C90.85,19.05 90.64,18.79 90.44,18.56V22H89.58V17.19H90.3C90.48,17.39 90.68,17.61 90.9,17.88C91.11,18.15 91.32,18.42 91.54,18.71C91.75,19 91.96,19.29 92.16,19.58C92.36,19.86 92.54,20.13 92.7,20.39V17.19H93.57V22H92.83H92.83Z" id="path_44"/><path fill="#ffffff" d="M94.34,20.21C94.34,19.89 94.39,19.61 94.48,19.36C94.58,19.12 94.7,18.92 94.86,18.76C95.02,18.6 95.2,18.48 95.4,18.4C95.61,18.32 95.81,18.28 96.03,18.28C96.53,18.28 96.92,18.44 97.2,18.75C97.48,19.06 97.62,19.52 97.62,20.14C97.62,20.18 97.62,20.23 97.61,20.29C97.61,20.35 97.61,20.4 97.6,20.45H95.21C95.23,20.74 95.33,20.96 95.52,21.12C95.7,21.28 95.97,21.36 96.31,21.36C96.52,21.36 96.7,21.34 96.87,21.31C97.04,21.27 97.17,21.23 97.27,21.19L97.38,21.88C97.33,21.9 97.27,21.92 97.19,21.95C97.11,21.97 97.01,22 96.91,22.02C96.81,22.04 96.69,22.06 96.58,22.07C96.46,22.08 96.33,22.09 96.21,22.09C95.89,22.09 95.61,22.04 95.38,21.95C95.14,21.85 94.95,21.72 94.79,21.55C94.64,21.39 94.53,21.19 94.45,20.96C94.38,20.73 94.34,20.48 94.34,20.2V20.21ZM96.78,19.83C96.78,19.71 96.76,19.6 96.73,19.5C96.7,19.4 96.65,19.31 96.59,19.23C96.53,19.15 96.45,19.09 96.36,19.05C96.27,19 96.16,18.98 96.04,18.98C95.91,18.98 95.79,19.01 95.7,19.06C95.6,19.11 95.52,19.17 95.45,19.25C95.38,19.33 95.33,19.42 95.3,19.52C95.26,19.62 95.23,19.73 95.22,19.83H96.78V19.83Z" id="path_45"/><path fill="#ffffff" d="M99.76,19.48L100.53,18.37H101.41L100.19,20.11C100.44,20.43 100.69,20.75 100.92,21.08C101.16,21.41 101.35,21.72 101.5,22H100.58C100.54,21.92 100.49,21.83 100.42,21.73C100.35,21.62 100.28,21.52 100.21,21.41C100.13,21.3 100.05,21.19 99.97,21.08C99.89,20.97 99.8,20.87 99.73,20.77C99.56,20.96 99.4,21.17 99.25,21.4C99.09,21.63 98.96,21.83 98.86,22.01H98.01C98.07,21.87 98.16,21.72 98.26,21.57C98.36,21.41 98.47,21.26 98.58,21.09C98.7,20.93 98.81,20.77 98.94,20.61C99.06,20.45 99.18,20.3 99.3,20.15L98.06,18.38H98.99L99.76,19.49V19.48Z" id="path_46"/><path fill="#ffffff" d="M102.2,17.42L103.04,17.28V18.37H104.33V19.07H103.04V20.55C103.04,20.84 103.08,21.05 103.18,21.18C103.27,21.3 103.42,21.36 103.65,21.36C103.8,21.36 103.93,21.35 104.05,21.32C104.17,21.28 104.26,21.25 104.33,21.22L104.47,21.89C104.38,21.93 104.25,21.98 104.09,22.02C103.93,22.07 103.75,22.09 103.54,22.09C103.28,22.09 103.06,22.05 102.89,21.98C102.71,21.91 102.58,21.81 102.48,21.68C102.37,21.55 102.3,21.39 102.26,21.2C102.22,21.01 102.2,20.8 102.2,20.56V17.41L102.2,17.42Z" id="path_47"/><path fill="#ffffff" d="M107.54,17.85C107.04,17.85 106.66,18.01 106.4,18.32C106.14,18.62 106.01,19.05 106.01,19.6C106.01,19.86 106.04,20.09 106.11,20.31C106.17,20.52 106.26,20.71 106.38,20.86C106.5,21.01 106.66,21.13 106.84,21.22C107.02,21.3 107.24,21.35 107.48,21.35C107.63,21.35 107.77,21.34 107.88,21.33C107.99,21.32 108.08,21.31 108.14,21.29V19.56H109.01V21.87C108.89,21.92 108.69,21.97 108.4,22.02C108.12,22.08 107.79,22.1 107.41,22.1C107.06,22.1 106.75,22.05 106.46,21.94C106.17,21.83 105.93,21.66 105.73,21.45C105.53,21.24 105.37,20.98 105.26,20.67C105.15,20.36 105.09,20 105.09,19.6C105.09,19.2 105.15,18.84 105.28,18.53C105.4,18.22 105.57,17.96 105.78,17.74C105.99,17.53 106.24,17.36 106.53,17.25C106.82,17.14 107.12,17.09 107.44,17.09C107.67,17.09 107.86,17.1 108.04,17.13C108.21,17.16 108.36,17.2 108.49,17.23C108.61,17.27 108.71,17.31 108.8,17.35C108.88,17.4 108.93,17.42 108.97,17.44L108.7,18.16C108.56,18.07 108.39,18 108.18,17.95C107.98,17.89 107.76,17.86 107.54,17.86L107.54,17.85Z" id="path_48"/><path fill="#ffffff" d="M109.86,20.21C109.86,19.89 109.91,19.61 110,19.36C110.1,19.12 110.22,18.92 110.38,18.76C110.54,18.6 110.72,18.48 110.92,18.4C111.12,18.32 111.33,18.28 111.54,18.28C112.04,18.28 112.43,18.44 112.72,18.75C113,19.06 113.14,19.52 113.14,20.14C113.14,20.18 113.14,20.23 113.13,20.29C113.13,20.35 113.13,20.4 113.12,20.45H110.73C110.75,20.74 110.85,20.96 111.04,21.12C111.22,21.28 111.49,21.36 111.83,21.36C112.04,21.36 112.22,21.34 112.39,21.31C112.56,21.27 112.69,21.23 112.79,21.19L112.9,21.88C112.85,21.9 112.79,21.92 112.71,21.95C112.63,21.97 112.53,22 112.43,22.02C112.33,22.04 112.21,22.06 112.1,22.07C111.97,22.08 111.85,22.09 111.73,22.09C111.41,22.09 111.13,22.04 110.9,21.95C110.66,21.85 110.46,21.72 110.31,21.55C110.16,21.39 110.05,21.19 109.97,20.96C109.9,20.73 109.86,20.48 109.86,20.2V20.21ZM112.29,19.83C112.29,19.71 112.28,19.6 112.25,19.5C112.21,19.4 112.17,19.31 112.1,19.23C112.04,19.15 111.96,19.09 111.88,19.05C111.79,19 111.68,18.98 111.55,18.98C111.43,18.98 111.31,19.01 111.21,19.06C111.12,19.11 111.03,19.17 110.97,19.25C110.9,19.33 110.85,19.42 110.81,19.52C110.78,19.62 110.75,19.73 110.74,19.83H112.29V19.83Z" id="path_49"/><path fill="#ffffff" d="M114.01,18.49C114.17,18.44 114.39,18.4 114.65,18.36C114.9,18.31 115.19,18.29 115.51,18.29C115.8,18.29 116.05,18.33 116.25,18.42C116.45,18.5 116.61,18.61 116.72,18.76C116.84,18.9 116.93,19.08 116.97,19.29C117.02,19.49 117.05,19.72 117.05,19.96V22H116.21V20.1C116.21,19.9 116.19,19.74 116.17,19.6C116.14,19.46 116.1,19.35 116.04,19.27C115.98,19.18 115.91,19.12 115.81,19.08C115.71,19.04 115.58,19.02 115.44,19.02C115.33,19.02 115.22,19.03 115.11,19.04C114.99,19.05 114.91,19.07 114.85,19.07V22H114.01V18.49H114.01Z" id="path_50"/><path fill="#ffffff" d="M117.88,20.21C117.88,19.89 117.92,19.61 118.02,19.36C118.12,19.12 118.24,18.92 118.4,18.76C118.56,18.6 118.74,18.48 118.94,18.4C119.14,18.32 119.35,18.28 119.56,18.28C120.06,18.28 120.45,18.44 120.73,18.75C121.01,19.06 121.15,19.52 121.15,20.14C121.15,20.18 121.15,20.23 121.15,20.29C121.15,20.35 121.14,20.4 121.14,20.45H118.74C118.76,20.74 118.87,20.96 119.05,21.12C119.23,21.28 119.5,21.36 119.85,21.36C120.05,21.36 120.24,21.34 120.4,21.31C120.57,21.27 120.71,21.23 120.8,21.19L120.91,21.88C120.87,21.9 120.8,21.92 120.72,21.95C120.64,21.97 120.54,22 120.44,22.02C120.34,22.04 120.23,22.06 120.11,22.07C119.99,22.08 119.86,22.09 119.74,22.09C119.42,22.09 119.14,22.04 118.91,21.95C118.67,21.86 118.48,21.72 118.32,21.55C118.17,21.39 118.06,21.19 117.98,20.96C117.91,20.73 117.87,20.48 117.87,20.2L117.88,20.21ZM120.31,19.83C120.31,19.71 120.29,19.6 120.26,19.5C120.23,19.4 120.18,19.31 120.12,19.23C120.06,19.15 119.98,19.09 119.89,19.05C119.8,19 119.7,18.98 119.57,18.98C119.45,18.98 119.33,19.01 119.23,19.06C119.13,19.11 119.05,19.17 118.99,19.25C118.92,19.33 118.87,19.42 118.83,19.52C118.79,19.62 118.77,19.73 118.75,19.83H120.31L120.31,19.83Z" id="path_51"/><path fill="#ffffff" d="M124.1,19.13C124.03,19.11 123.93,19.08 123.81,19.06C123.69,19.03 123.54,19.02 123.38,19.02C123.29,19.02 123.19,19.02 123.09,19.04C122.98,19.06 122.91,19.08 122.87,19.09V22H122.03V18.55C122.19,18.49 122.39,18.43 122.64,18.38C122.88,18.32 123.15,18.3 123.45,18.3C123.5,18.3 123.57,18.3 123.64,18.31C123.71,18.31 123.79,18.33 123.86,18.34C123.94,18.35 124.01,18.36 124.08,18.38C124.15,18.4 124.2,18.41 124.24,18.42L124.1,19.13V19.13Z" id="path_52"/><path fill="#ffffff" d="M126.05,18.28C126.33,18.28 126.56,18.32 126.75,18.39C126.94,18.46 127.09,18.55 127.21,18.68C127.32,18.8 127.4,18.95 127.45,19.13C127.5,19.31 127.52,19.5 127.52,19.72V21.92C127.39,21.95 127.2,21.98 126.94,22.02C126.67,22.06 126.38,22.08 126.05,22.08C125.83,22.08 125.63,22.06 125.45,22.02C125.27,21.98 125.12,21.91 124.99,21.82C124.86,21.73 124.77,21.61 124.69,21.46C124.62,21.31 124.59,21.13 124.59,20.91C124.59,20.69 124.63,20.53 124.71,20.38C124.79,20.24 124.9,20.12 125.04,20.03C125.18,19.94 125.34,19.88 125.52,19.84C125.7,19.8 125.89,19.78 126.09,19.78C126.19,19.78 126.28,19.78 126.38,19.8C126.49,19.81 126.6,19.83 126.71,19.85V19.72C126.71,19.62 126.7,19.53 126.68,19.44C126.65,19.35 126.61,19.27 126.56,19.21C126.5,19.14 126.42,19.09 126.33,19.05C126.23,19.02 126.11,19 125.97,19C125.77,19 125.6,19.01 125.43,19.04C125.27,19.07 125.14,19.1 125.04,19.14L124.94,18.46C125.04,18.42 125.2,18.38 125.4,18.35C125.61,18.31 125.82,18.29 126.05,18.29V18.28ZM126.12,21.41C126.38,21.41 126.58,21.4 126.71,21.37V20.44C126.67,20.42 126.6,20.41 126.51,20.4C126.42,20.38 126.32,20.38 126.22,20.38C126.13,20.38 126.03,20.38 125.94,20.4C125.84,20.41 125.76,20.44 125.68,20.47C125.61,20.51 125.54,20.56 125.5,20.63C125.45,20.69 125.43,20.78 125.43,20.88C125.43,21.08 125.49,21.22 125.61,21.29C125.74,21.37 125.91,21.41 126.12,21.41V21.41Z" id="path_53"/><path fill="#ffffff" d="M128.51,17.42L129.35,17.28V18.37H130.64V19.07H129.35V20.55C129.35,20.84 129.4,21.05 129.49,21.18C129.58,21.3 129.74,21.36 129.96,21.36C130.11,21.36 130.25,21.35 130.37,21.32C130.49,21.28 130.58,21.25 130.65,21.22L130.79,21.89C130.69,21.93 130.56,21.98 130.41,22.02C130.25,22.07 130.07,22.09 129.85,22.09C129.59,22.09 129.38,22.05 129.2,21.98C129.03,21.91 128.89,21.81 128.79,21.68C128.69,21.55 128.62,21.39 128.58,21.2C128.53,21.01 128.51,20.8 128.51,20.56V17.41L128.51,17.42Z" id="path_54"/><path fill="#ffffff" d="M132.41,17.31C132.41,17.47 132.36,17.59 132.25,17.69C132.15,17.78 132.03,17.82 131.89,17.82C131.76,17.82 131.63,17.78 131.53,17.69C131.43,17.59 131.37,17.47 131.37,17.31C131.37,17.15 131.43,17.02 131.53,16.93C131.63,16.84 131.75,16.79 131.89,16.79C132.03,16.79 132.15,16.84 132.25,16.93C132.36,17.02 132.41,17.15 132.41,17.31ZM132.32,22H131.48V18.37H132.32V22Z" id="path_55"/><path fill="#ffffff" d="M136.66,20.19C136.66,20.47 136.62,20.73 136.54,20.97C136.46,21.21 136.34,21.41 136.18,21.57C136.03,21.74 135.85,21.87 135.63,21.96C135.42,22.06 135.18,22.1 134.92,22.1C134.66,22.1 134.43,22.06 134.21,21.96C134,21.87 133.82,21.74 133.67,21.57C133.51,21.41 133.4,21.21 133.31,20.97C133.23,20.73 133.18,20.47 133.18,20.19C133.18,19.9 133.22,19.64 133.31,19.4C133.39,19.17 133.51,18.97 133.67,18.8C133.83,18.64 134.01,18.51 134.22,18.42C134.43,18.33 134.67,18.28 134.92,18.28C135.18,18.28 135.41,18.33 135.63,18.42C135.84,18.51 136.03,18.63 136.18,18.8C136.33,18.97 136.45,19.17 136.54,19.4C136.62,19.64 136.67,19.9 136.67,20.19H136.66ZM135.8,20.19C135.8,19.82 135.73,19.54 135.57,19.33C135.41,19.12 135.2,19.01 134.92,19.01C134.64,19.01 134.43,19.12 134.27,19.33C134.12,19.54 134.04,19.82 134.04,20.19C134.04,20.55 134.12,20.84 134.27,21.05C134.43,21.27 134.64,21.37 134.92,21.37C135.2,21.37 135.41,21.27 135.57,21.05C135.73,20.84 135.8,20.55 135.8,20.19Z" id="path_56"/><path fill="#ffffff" d="M137.54,18.49C137.7,18.44 137.91,18.4 138.17,18.36C138.43,18.31 138.72,18.29 139.03,18.29C139.33,18.29 139.57,18.33 139.77,18.42C139.97,18.5 140.13,18.61 140.25,18.76C140.37,18.9 140.45,19.08 140.5,19.29C140.54,19.49 140.57,19.72 140.57,19.96V22H139.73V20.1C139.73,19.9 139.72,19.74 139.69,19.6C139.67,19.46 139.63,19.35 139.57,19.27C139.51,19.18 139.43,19.12 139.33,19.08C139.23,19.04 139.11,19.02 138.97,19.02C138.86,19.02 138.75,19.03 138.63,19.04C138.52,19.05 138.43,19.07 138.38,19.07V22H137.54V18.49Z" id="path_57"/><path fill="#ffffff" d="M141.68,22V17.19H144.77V17.93H142.55V19.12H144.53V19.85H142.55V21.26H144.93V22H141.68V22Z" id="path_58"/><path fill="#ffffff" d="M147.66,22.11C147.33,22.11 147.05,22.06 146.81,21.97C146.58,21.87 146.38,21.74 146.23,21.57C146.07,21.4 145.96,21.2 145.88,20.96C145.81,20.73 145.77,20.48 145.77,20.2V17.2H146.65V20.12C146.65,20.34 146.68,20.52 146.73,20.68C146.77,20.83 146.85,20.96 146.93,21.06C147.02,21.15 147.13,21.22 147.25,21.27C147.38,21.31 147.51,21.34 147.67,21.34C147.82,21.34 147.96,21.32 148.08,21.27C148.21,21.22 148.31,21.15 148.4,21.06C148.49,20.96 148.56,20.83 148.61,20.68C148.66,20.52 148.68,20.34 148.68,20.12V17.2H149.57V20.2C149.57,20.48 149.52,20.73 149.45,20.96C149.37,21.2 149.26,21.4 149.1,21.57C148.95,21.74 148.75,21.87 148.51,21.97C148.27,22.06 147.99,22.11 147.65,22.11H147.66Z" id="path_59"/><path fill="#ffffff" d="M28.29,2.85H28.52C28.62,2.85 28.69,2.84 28.75,2.81C28.82,2.79 28.87,2.75 28.91,2.69L30.41,0.8C30.47,0.72 30.53,0.67 30.6,0.64C30.67,0.61 30.76,0.59 30.86,0.59H31.73L29.91,2.83C29.8,2.97 29.69,3.07 29.58,3.13C29.66,3.16 29.73,3.2 29.8,3.25C29.87,3.3 29.93,3.37 29.99,3.46L31.87,5.99H30.98C30.86,5.99 30.77,5.98 30.71,5.94C30.65,5.91 30.6,5.86 30.57,5.79L29.04,3.8C28.99,3.73 28.93,3.68 28.87,3.66C28.81,3.63 28.72,3.61 28.6,3.61H28.29V5.99H27.28V0.59H28.29V2.85V2.85Z" id="path_60"/><path fill="#ffffff" d="M36.63,6H35.72C35.55,6 35.42,5.93 35.35,5.79L34.21,4.06C34.17,4 34.12,3.95 34.07,3.92C34.02,3.9 33.94,3.88 33.84,3.88H33.41V6H32.41V0.59H34.06C34.42,0.59 34.74,0.63 35,0.7C35.26,0.78 35.48,0.89 35.65,1.02C35.82,1.16 35.94,1.32 36.02,1.51C36.1,1.7 36.14,1.91 36.14,2.14C36.14,2.33 36.11,2.49 36.06,2.66C36.01,2.82 35.93,2.97 35.83,3.1C35.73,3.23 35.6,3.35 35.45,3.45C35.3,3.54 35.14,3.62 34.94,3.68C35.01,3.72 35.07,3.76 35.13,3.81C35.18,3.87 35.23,3.93 35.27,4L36.63,5.99L36.63,6ZM34.04,3.16C34.23,3.16 34.39,3.14 34.54,3.09C34.68,3.04 34.79,2.98 34.88,2.9C34.97,2.81 35.04,2.71 35.09,2.6C35.13,2.48 35.15,2.36 35.15,2.22C35.15,1.95 35.06,1.74 34.88,1.59C34.7,1.44 34.43,1.37 34.06,1.37H33.41V3.16H34.04H34.04Z" id="path_61"/><path fill="#ffffff" d="M41.84,6H41.06C40.98,6 40.91,5.97 40.85,5.93C40.8,5.89 40.75,5.83 40.73,5.77L40.32,4.66H38.08L37.68,5.77C37.66,5.82 37.62,5.88 37.56,5.93C37.51,5.97 37.43,6 37.35,6H36.56L38.69,0.59H39.72L41.84,6H41.84ZM40.07,3.96L39.41,2.16C39.38,2.08 39.35,1.98 39.31,1.87C39.28,1.76 39.24,1.65 39.21,1.52C39.17,1.65 39.14,1.76 39.1,1.87C39.07,1.98 39.04,2.08 39,2.16L38.35,3.96H40.07Z" id="path_62"/><path fill="#ffffff" d="M44.46,4.08C44.46,4.38 44.43,4.65 44.35,4.9C44.28,5.14 44.17,5.35 44.02,5.52C43.87,5.69 43.68,5.82 43.46,5.91C43.24,6.01 42.98,6.05 42.69,6.05C42.55,6.05 42.42,6.04 42.29,6.03C42.16,6.01 42.03,5.99 41.89,5.95C41.89,5.85 41.9,5.75 41.91,5.65C41.92,5.55 41.93,5.45 41.94,5.35C41.94,5.3 41.96,5.25 42,5.22C42.04,5.19 42.09,5.17 42.16,5.17C42.2,5.17 42.26,5.18 42.32,5.2C42.39,5.21 42.48,5.22 42.58,5.22C42.72,5.22 42.85,5.2 42.96,5.16C43.07,5.12 43.16,5.05 43.23,4.96C43.31,4.87 43.36,4.76 43.4,4.61C43.44,4.47 43.46,4.3 43.46,4.09V0.58H44.46V4.07L44.46,4.08Z" id="path_63"/><path fill="#ffffff" d="M50.77,3.3C50.77,3.69 50.71,4.06 50.57,4.4C50.44,4.74 50.26,5.03 50.02,5.27C49.78,5.52 49.49,5.71 49.15,5.85C48.82,5.99 48.44,6.06 48.03,6.06C47.62,6.06 47.25,5.99 46.91,5.85C46.58,5.71 46.29,5.52 46.05,5.27C45.81,5.03 45.62,4.74 45.49,4.4C45.36,4.06 45.29,3.69 45.29,3.3C45.29,2.9 45.36,2.53 45.49,2.2C45.62,1.86 45.81,1.57 46.05,1.32C46.29,1.07 46.57,0.88 46.91,0.74C47.25,0.6 47.62,0.53 48.03,0.53C48.3,0.53 48.56,0.56 48.8,0.63C49.05,0.69 49.27,0.78 49.47,0.9C49.67,1.01 49.85,1.15 50.01,1.32C50.18,1.48 50.31,1.67 50.42,1.87C50.54,2.08 50.62,2.3 50.68,2.54C50.74,2.78 50.77,3.03 50.77,3.3H50.77ZM49.74,3.3C49.74,3 49.7,2.73 49.62,2.5C49.55,2.26 49.43,2.06 49.28,1.9C49.14,1.73 48.96,1.61 48.75,1.52C48.54,1.43 48.3,1.39 48.04,1.39C47.77,1.39 47.53,1.43 47.33,1.52C47.11,1.61 46.94,1.73 46.79,1.9C46.64,2.06 46.52,2.26 46.44,2.5C46.37,2.73 46.33,3 46.33,3.3C46.33,3.59 46.37,3.86 46.44,4.09C46.52,4.33 46.64,4.53 46.79,4.69C46.94,4.86 47.11,4.98 47.33,5.07C47.54,5.16 47.77,5.2 48.04,5.2C48.3,5.2 48.54,5.16 48.75,5.07C48.96,4.98 49.14,4.86 49.28,4.69C49.43,4.53 49.54,4.33 49.62,4.09C49.7,3.86 49.74,3.59 49.74,3.3Z" id="path_64"/><path fill="#ffffff" d="M58.74,0.59L57.06,6H56.15L54.97,2.31C54.94,2.22 54.91,2.11 54.88,1.98C54.86,2.04 54.85,2.1 54.83,2.15C54.82,2.2 54.8,2.26 54.79,2.3L53.59,6H52.68L51,0.59H51.85C51.93,0.59 52.01,0.61 52.07,0.65C52.13,0.69 52.16,0.75 52.18,0.82L53.1,4.05C53.12,4.13 53.14,4.22 53.16,4.31C53.18,4.4 53.2,4.5 53.22,4.6C53.24,4.5 53.26,4.4 53.28,4.31C53.31,4.22 53.33,4.13 53.36,4.05L54.42,0.82C54.44,0.76 54.48,0.71 54.54,0.66C54.6,0.61 54.67,0.59 54.75,0.59H55.05C55.14,0.59 55.21,0.61 55.27,0.65C55.32,0.7 55.36,0.75 55.39,0.82L56.45,4.05C56.5,4.21 56.55,4.38 56.59,4.59C56.62,4.39 56.66,4.21 56.7,4.05L57.62,0.82C57.63,0.76 57.67,0.7 57.73,0.66C57.79,0.61 57.86,0.59 57.95,0.59H58.74L58.74,0.59Z" id="path_65"/><path fill="#ffffff" d="M61.72,3.9V6H60.72V3.9L58.75,0.59H59.64C59.73,0.59 59.79,0.61 59.84,0.66C59.9,0.7 59.94,0.75 59.97,0.82L60.96,2.62C61.02,2.73 61.07,2.83 61.11,2.93C61.16,3.02 61.2,3.11 61.23,3.21C61.27,3.11 61.3,3.02 61.35,2.93C61.39,2.83 61.44,2.73 61.49,2.62L62.47,0.82C62.5,0.76 62.54,0.71 62.6,0.67C62.65,0.62 62.72,0.59 62.81,0.59H63.7L61.73,3.91L61.72,3.9Z" id="path_66"/><path fill="#ffffff" d="M29.04,8.59C29.4,8.59 29.71,8.63 29.98,8.72C30.24,8.8 30.46,8.92 30.63,9.07C30.8,9.23 30.93,9.41 31.01,9.62C31.1,9.83 31.14,10.06 31.14,10.31C31.14,10.56 31.1,10.81 31.01,11.03C30.92,11.25 30.79,11.44 30.62,11.59C30.44,11.75 30.22,11.87 29.96,11.96C29.7,12.05 29.39,12.09 29.04,12.09H28.29V13.99H27.28V8.59H29.04L29.04,8.59ZM29.04,11.31C29.22,11.31 29.38,11.29 29.52,11.24C29.66,11.19 29.77,11.13 29.86,11.04C29.95,10.96 30.02,10.85 30.06,10.73C30.11,10.6 30.13,10.47 30.13,10.32C30.13,10.17 30.11,10.04 30.06,9.92C30.02,9.81 29.95,9.71 29.86,9.62C29.77,9.54 29.66,9.48 29.52,9.44C29.38,9.39 29.22,9.37 29.03,9.37H28.28V11.31H29.03L29.04,11.31Z" id="path_67"/><path fill="#ffffff" d="M35.08,13.17V14H31.91V8.59H32.91V13.17H35.08Z" id="path_68"/><path fill="#ffffff" d="M40.42,14H39.65C39.56,14 39.49,13.98 39.43,13.93C39.38,13.89 39.34,13.83 39.31,13.77L38.9,12.67H36.66L36.26,13.77C36.24,13.83 36.2,13.88 36.14,13.93C36.09,13.98 36.02,14 35.93,14H35.15L37.27,8.59H38.3L40.42,14H40.42ZM38.65,11.96L37.99,10.16C37.96,10.08 37.93,9.98 37.89,9.87C37.86,9.76 37.82,9.64 37.79,9.52C37.75,9.64 37.72,9.76 37.68,9.87C37.65,9.98 37.62,10.08 37.58,10.16L36.93,11.96H38.65H38.65Z" id="path_69"/><path fill="#ffffff" d="M45.54,8.59V14H45.03C44.95,14 44.88,13.98 44.83,13.96C44.77,13.93 44.72,13.89 44.67,13.83L41.85,10.22C41.86,10.39 41.87,10.54 41.87,10.68V14H40.99V8.59H41.51C41.56,8.59 41.59,8.59 41.62,8.6C41.65,8.6 41.68,8.61 41.7,8.62C41.73,8.63 41.75,8.65 41.78,8.67C41.8,8.69 41.82,8.72 41.85,8.76L44.68,12.38C44.67,12.29 44.67,12.2 44.66,12.12C44.66,12.03 44.65,11.96 44.65,11.88V8.59H45.54L45.54,8.59Z" id="path_70"/><path fill="#ffffff" d="M32.78,19.29C32.78,19.69 32.71,20.05 32.58,20.39C32.45,20.73 32.26,21.02 32.02,21.27C31.79,21.51 31.5,21.71 31.16,21.85C30.83,21.99 30.45,22.06 30.04,22.06C29.63,22.06 29.26,21.99 28.92,21.85C28.59,21.71 28.3,21.52 28.06,21.27C27.82,21.02 27.63,20.73 27.5,20.39C27.36,20.05 27.3,19.69 27.3,19.29C27.3,18.9 27.36,18.53 27.5,18.19C27.63,17.85 27.82,17.56 28.06,17.31C28.29,17.07 28.58,16.87 28.92,16.73C29.26,16.6 29.63,16.53 30.04,16.53C30.31,16.53 30.57,16.56 30.81,16.62C31.05,16.69 31.27,16.77 31.48,16.89C31.68,17.01 31.86,17.15 32.02,17.31C32.18,17.48 32.32,17.66 32.43,17.87C32.54,18.07 32.63,18.29 32.69,18.53C32.75,18.77 32.78,19.03 32.78,19.29H32.78ZM31.75,19.29C31.75,18.99 31.71,18.73 31.63,18.49C31.55,18.26 31.44,18.06 31.29,17.89C31.14,17.73 30.96,17.6 30.75,17.51C30.54,17.43 30.3,17.38 30.04,17.38C29.78,17.38 29.54,17.43 29.33,17.51C29.12,17.6 28.94,17.73 28.79,17.89C28.64,18.05 28.53,18.25 28.45,18.49C28.37,18.73 28.33,18.99 28.33,19.29C28.33,19.59 28.37,19.85 28.45,20.09C28.53,20.33 28.64,20.52 28.79,20.69C28.94,20.85 29.12,20.98 29.33,21.06C29.54,21.15 29.78,21.19 30.04,21.19C30.3,21.19 30.54,21.15 30.75,21.06C30.96,20.98 31.14,20.85 31.29,20.69C31.44,20.52 31.55,20.32 31.63,20.09C31.71,19.85 31.75,19.59 31.75,19.29Z" id="path_71"/><path fill="#ffffff" d="M38.46,19.29C38.46,19.69 38.4,20.05 38.27,20.38C38.13,20.72 37.95,21 37.71,21.24C37.47,21.48 37.18,21.66 36.85,21.79C36.51,21.93 36.14,21.99 35.73,21.99H33.67V16.59H35.73C36.14,16.59 36.51,16.65 36.85,16.79C37.18,16.92 37.47,17.11 37.71,17.34C37.95,17.58 38.14,17.86 38.27,18.2C38.4,18.53 38.46,18.89 38.46,19.29V19.29ZM37.43,19.29C37.43,19 37.39,18.73 37.31,18.49C37.23,18.26 37.12,18.06 36.97,17.9C36.82,17.73 36.64,17.61 36.43,17.52C36.22,17.43 35.98,17.39 35.72,17.39H34.67V21.2H35.72C35.99,21.2 36.22,21.15 36.43,21.07C36.64,20.98 36.82,20.85 36.97,20.69C37.12,20.53 37.23,20.33 37.31,20.09C37.39,19.86 37.43,19.59 37.43,19.29V19.29Z" id="path_72"/><path fill="#ffffff" d="M41.21,16.59C41.56,16.59 41.87,16.62 42.12,16.69C42.37,16.76 42.58,16.85 42.74,16.98C42.9,17.1 43.02,17.25 43.09,17.43C43.16,17.61 43.2,17.8 43.2,18.03C43.2,18.15 43.18,18.27 43.15,18.39C43.11,18.51 43.05,18.61 42.97,18.72C42.89,18.82 42.79,18.91 42.67,18.99C42.55,19.07 42.41,19.14 42.24,19.2C42.98,19.36 43.36,19.76 43.36,20.4C43.36,20.63 43.31,20.84 43.23,21.04C43.14,21.23 43.01,21.4 42.85,21.54C42.68,21.68 42.47,21.79 42.23,21.87C41.98,21.95 41.7,21.99 41.39,21.99H39.35V16.58H41.21V16.59ZM40.35,17.37V18.93H41.15C41.5,18.93 41.76,18.87 41.93,18.74C42.11,18.62 42.19,18.42 42.19,18.15C42.19,17.87 42.11,17.67 41.95,17.55C41.79,17.43 41.54,17.37 41.21,17.37H40.35H40.35ZM41.37,21.21C41.56,21.21 41.72,21.19 41.84,21.14C41.97,21.1 42.07,21.04 42.15,20.96C42.22,20.88 42.28,20.8 42.31,20.7C42.35,20.6 42.36,20.49 42.36,20.38C42.36,20.27 42.34,20.16 42.31,20.06C42.27,19.97 42.21,19.89 42.13,19.82C42.05,19.76 41.95,19.71 41.82,19.67C41.7,19.64 41.55,19.62 41.37,19.62H40.36V21.2H41.37V21.21Z" id="path_73"/><path fill="#ffffff" d="M46.45,21.18C46.64,21.18 46.82,21.15 46.97,21.09C47.12,21.02 47.25,20.93 47.36,20.81C47.46,20.7 47.54,20.55 47.6,20.39C47.66,20.22 47.68,20.03 47.68,19.82V16.59H48.69V19.82C48.69,20.15 48.64,20.44 48.53,20.72C48.43,20.99 48.28,21.22 48.09,21.42C47.9,21.62 47.66,21.77 47.38,21.88C47.11,21.99 46.8,22.05 46.45,22.05C46.1,22.05 45.78,21.99 45.51,21.88C45.23,21.77 45,21.62 44.8,21.42C44.61,21.22 44.46,20.99 44.36,20.72C44.25,20.44 44.2,20.15 44.2,19.82V16.59H45.21V19.82C45.21,20.03 45.23,20.22 45.29,20.38C45.35,20.55 45.43,20.69 45.53,20.81C45.64,20.93 45.77,21.02 45.92,21.09C46.08,21.15 46.25,21.18 46.45,21.18H46.45Z" id="path_74"/><path fill="#ffffff" d="M54.62,19.29C54.62,19.69 54.56,20.05 54.43,20.38C54.29,20.71 54.11,21 53.87,21.24C53.63,21.48 53.34,21.66 53.01,21.79C52.67,21.93 52.3,21.99 51.89,21.99H49.83V16.59H51.89C52.3,16.59 52.67,16.65 53.01,16.79C53.34,16.92 53.63,17.11 53.87,17.34C54.11,17.58 54.3,17.86 54.43,18.2C54.56,18.53 54.62,18.89 54.62,19.29V19.29ZM53.59,19.29C53.59,19 53.55,18.73 53.47,18.49C53.39,18.26 53.28,18.06 53.13,17.9C52.98,17.73 52.8,17.61 52.59,17.52C52.38,17.43 52.14,17.39 51.88,17.39H50.83V21.2H51.88C52.15,21.2 52.38,21.15 52.59,21.07C52.8,20.98 52.98,20.85 53.13,20.69C53.28,20.53 53.39,20.33 53.47,20.09C53.55,19.86 53.59,19.59 53.59,19.29V19.29Z" id="path_75"/><path fill="#ffffff" d="M60.67,19.29C60.67,19.69 60.6,20.05 60.47,20.39C60.34,20.73 60.15,21.02 59.91,21.27C59.67,21.51 59.39,21.71 59.05,21.85C58.71,21.99 58.34,22.06 57.93,22.06C57.52,22.06 57.15,21.99 56.81,21.85C56.48,21.71 56.19,21.52 55.95,21.27C55.71,21.02 55.52,20.73 55.39,20.39C55.25,20.05 55.19,19.69 55.19,19.29C55.19,18.9 55.25,18.53 55.39,18.19C55.52,17.85 55.71,17.56 55.95,17.31C56.19,17.07 56.47,16.87 56.81,16.73C57.15,16.6 57.52,16.53 57.93,16.53C58.2,16.53 58.46,16.56 58.7,16.62C58.94,16.69 59.17,16.77 59.37,16.89C59.57,17.01 59.75,17.15 59.91,17.31C60.07,17.48 60.21,17.66 60.32,17.87C60.43,18.07 60.52,18.29 60.58,18.53C60.64,18.77 60.67,19.03 60.67,19.29ZM59.64,19.29C59.64,18.99 59.6,18.73 59.52,18.49C59.44,18.26 59.33,18.06 59.18,17.89C59.03,17.73 58.85,17.6 58.64,17.51C58.43,17.43 58.19,17.38 57.93,17.38C57.67,17.38 57.43,17.43 57.22,17.51C57.01,17.6 56.83,17.73 56.68,17.89C56.53,18.05 56.42,18.25 56.34,18.49C56.26,18.73 56.22,18.99 56.22,19.29C56.22,19.59 56.26,19.85 56.34,20.09C56.42,20.33 56.53,20.52 56.68,20.69C56.83,20.85 57.01,20.98 57.22,21.06C57.43,21.15 57.67,21.19 57.93,21.19C58.19,21.19 58.43,21.15 58.64,21.06C58.85,20.98 59.03,20.85 59.18,20.69C59.32,20.52 59.44,20.32 59.52,20.09C59.6,19.85 59.64,19.59 59.64,19.29Z" id="path_76"/><path fill="#ffffff" d="M68.63,16.59L66.95,21.99H66.04L64.86,18.3C64.83,18.21 64.8,18.1 64.77,17.97C64.76,18.03 64.74,18.09 64.73,18.15C64.71,18.2 64.7,18.25 64.68,18.3L63.48,21.99H62.57L60.9,16.58H61.74C61.83,16.58 61.9,16.6 61.96,16.65C62.01,16.69 62.05,16.74 62.07,16.81L62.99,20.05C63.01,20.13 63.03,20.21 63.05,20.31C63.07,20.4 63.09,20.5 63.11,20.6C63.13,20.5 63.15,20.4 63.17,20.3C63.2,20.21 63.22,20.13 63.25,20.05L64.31,16.81C64.33,16.76 64.37,16.7 64.43,16.66C64.49,16.61 64.56,16.58 64.64,16.58H64.94C65.03,16.58 65.1,16.6 65.16,16.65C65.21,16.69 65.25,16.74 65.28,16.81L66.34,20.04C66.39,20.2 66.44,20.38 66.48,20.58C66.51,20.38 66.55,20.2 66.59,20.04L67.51,16.81C67.52,16.75 67.56,16.69 67.62,16.65C67.68,16.6 67.75,16.58 67.84,16.58H68.63L68.63,16.59Z" id="path_77"/><path fill="#ffffff" d="M71.62,19.9V21.99H70.62V19.9L68.65,16.59H69.53C69.62,16.59 69.69,16.61 69.74,16.65C69.79,16.69 69.84,16.75 69.87,16.81L70.86,18.62C70.92,18.72 70.97,18.83 71.01,18.92C71.06,19.01 71.09,19.11 71.13,19.2C71.17,19.11 71.2,19.01 71.24,18.92C71.29,18.82 71.33,18.72 71.39,18.62L72.38,16.81C72.4,16.76 72.44,16.7 72.5,16.66C72.55,16.61 72.62,16.59 72.71,16.59H73.6L71.63,19.9H71.62Z" id="path_78"/><path fill="#ffffff" d="M12.57,5.94L0,9.73V12.39L12.57,9.7V11.93L21.29,13.64V12.15L12.57,9.46V5.94Z" id="path_79"/><path fill="#ffffff" d="M12.57,12.05L0,13.77V16.55L12.57,15.82V18.03L21.29,17.47V15.99L12.57,15.69V12.05Z" id="path_80"/><path fill="#ffffff" d="M12.57,18.27L0,17.9V20.2L12.57,22.03V23.99L21.29,20.98V19.53L12.57,21.69V18.27Z" id="path_81"/><path fill="#ffffff" d="M12.57,3.39V0L0,5.38V8.41L12.57,3.76V5.7L21.29,9.49V8.04L12.57,3.39Z" id="path_82"/></svg>