<svg id="vector" xmlns="http://www.w3.org/2000/svg" width="62.0d" height="37.0d" viewBox="0 -6 62.0 37.0"><path fill="#ffffff" d="M39.042,12C39.042,11.32 38.966,6.617 38.815,6.002C38.773,5.827 38.615,5.689 38.414,5.652C37.707,5.52 36.955,5.453 36.177,5.453C35.399,5.453 34.646,5.519 33.94,5.652C33.738,5.689 33.581,5.826 33.539,6.002C33.389,6.618 33.313,11.32 33.313,12C33.313,12.679 33.389,17.381 33.539,17.997C33.581,18.173 33.738,18.31 33.94,18.348C34.646,18.479 35.399,18.546 36.177,18.546C36.955,18.546 37.707,18.479 38.414,18.348C38.615,18.31 38.771,18.173 38.815,17.997C38.966,17.382 39.042,12.679 39.042,12ZM45.322,12C45.322,14.241 45.057,16.508 44.558,18.555C44.353,19.392 43.689,20.045 42.838,20.247C40.73,20.746 38.488,20.999 36.177,20.999C33.866,20.999 31.595,20.74 29.515,20.247C28.665,20.045 28.002,19.392 27.797,18.555C27.296,16.508 27.033,14.241 27.033,12C27.033,9.758 27.298,7.491 27.797,5.444C28.002,4.607 28.666,3.954 29.517,3.752C31.625,3.253 33.867,3 36.178,3C38.49,3 40.76,3.261 42.84,3.752C43.69,3.954 44.355,4.607 44.559,5.444C45.066,7.521 45.324,9.725 45.324,12M52.633,20.7H52.682H52.735C53.349,20.695 54.441,20.69 55.048,20.651C55.584,20.617 56,20.177 56,19.65V12.085V4.35C56,3.818 55.579,3.379 55.04,3.348C54.405,3.312 53.291,3.294 52.643,3.294C51.995,3.294 51.327,3.312 50.651,3.351C50.112,3.38 49.69,3.82 49.69,4.353V11.996V19.653C49.69,20.182 50.106,20.62 50.642,20.654C51.279,20.694 51.944,20.697 52.595,20.7H52.633ZM23.195,14.314C23.079,15.776 22.853,17.214 22.526,18.556C22.322,19.393 21.657,20.047 20.806,20.248C18.698,20.747 16.456,21 14.145,21C11.834,21 9.564,20.741 7.484,20.248C6.633,20.047 5.969,19.393 5.764,18.556C5.265,16.509 5,14.242 5,12.001C5,9.759 5.265,7.492 5.764,5.446C5.969,4.609 6.633,3.955 7.484,3.754C9.594,3.253 11.835,3 14.145,3C16.455,3 18.727,3.261 20.806,3.752C21.657,3.953 22.322,4.607 22.526,5.444C22.856,6.795 23.079,8.203 23.195,9.647V9.758C23.195,10.072 22.96,10.35 22.627,10.35H17.575C17.242,10.35 16.998,10.072 16.986,9.758L16.95,8.846C16.912,7.553 16.856,6.299 16.783,6.001C16.741,5.825 16.584,5.688 16.382,5.651C15.675,5.52 14.923,5.453 14.145,5.453C13.367,5.453 12.615,5.52 11.908,5.651C11.707,5.688 11.549,5.825 11.507,6.001C11.357,6.618 11.28,11.32 11.28,11.999C11.28,12.678 11.356,17.382 11.507,17.997C11.549,18.173 11.707,18.31 11.908,18.347C12.615,18.478 13.367,18.545 14.145,18.545C14.923,18.545 15.675,18.48 16.382,18.347C16.584,18.31 16.74,18.173 16.783,17.997C16.861,17.684 16.918,16.311 16.956,14.948L16.988,14.178C17,13.864 17.243,13.584 17.576,13.584H19.024H21.182H22.629C22.962,13.584 23.197,13.864 23.197,14.178V14.312L23.195,14.314Z" id="path_0"/><path fill="#ffffff" d="M39.042,12C39.042,11.32 38.966,6.617 38.815,6.002C38.773,5.827 38.615,5.689 38.414,5.652C37.707,5.52 36.955,5.453 36.177,5.453C35.399,5.453 34.646,5.519 33.94,5.652C33.738,5.689 33.581,5.826 33.539,6.002C33.389,6.618 33.313,11.32 33.313,12C33.313,12.679 33.389,17.381 33.539,17.997C33.581,18.173 33.738,18.31 33.94,18.348C34.646,18.479 35.399,18.546 36.177,18.546C36.955,18.546 37.707,18.479 38.414,18.348C38.615,18.31 38.771,18.173 38.815,17.997C38.966,17.382 39.042,12.679 39.042,12ZM45.322,12C45.322,14.241 45.057,16.508 44.558,18.555C44.353,19.392 43.689,20.045 42.838,20.247C40.73,20.746 38.488,20.999 36.177,20.999C33.866,20.999 31.595,20.74 29.515,20.247C28.665,20.045 28.002,19.392 27.797,18.555C27.296,16.508 27.033,14.241 27.033,12C27.033,9.758 27.298,7.491 27.797,5.444C28.002,4.607 28.666,3.954 29.517,3.752C31.625,3.253 33.867,3 36.178,3C38.49,3 40.76,3.261 42.84,3.752C43.69,3.954 44.355,4.607 44.559,5.444C45.066,7.521 45.324,9.725 45.324,12M52.633,20.7H52.682H52.735C53.349,20.695 54.441,20.69 55.048,20.651C55.584,20.617 56,20.177 56,19.65V12.085V4.35C56,3.818 55.579,3.379 55.04,3.348C54.405,3.312 53.291,3.294 52.643,3.294C51.995,3.294 51.327,3.312 50.651,3.351C50.112,3.38 49.69,3.82 49.69,4.353V11.996V19.653C49.69,20.182 50.106,20.62 50.642,20.654C51.279,20.694 51.944,20.697 52.595,20.7H52.633ZM23.195,14.314C23.079,15.776 22.853,17.214 22.526,18.556C22.322,19.393 21.657,20.047 20.806,20.248C18.698,20.747 16.456,21 14.145,21C11.834,21 9.564,20.741 7.484,20.248C6.633,20.047 5.969,19.393 5.764,18.556C5.265,16.509 5,14.242 5,12.001C5,9.759 5.265,7.492 5.764,5.446C5.969,4.609 6.633,3.955 7.484,3.754C9.594,3.253 11.835,3 14.145,3C16.455,3 18.727,3.261 20.806,3.752C21.657,3.953 22.322,4.607 22.526,5.444C22.856,6.795 23.079,8.203 23.195,9.647V9.758C23.195,10.072 22.96,10.35 22.627,10.35H17.575C17.242,10.35 16.998,10.072 16.986,9.758L16.95,8.846C16.912,7.553 16.856,6.299 16.783,6.001C16.741,5.825 16.584,5.688 16.382,5.651C15.675,5.52 14.923,5.453 14.145,5.453C13.367,5.453 12.615,5.52 11.908,5.651C11.707,5.688 11.549,5.825 11.507,6.001C11.357,6.618 11.28,11.32 11.28,11.999C11.28,12.678 11.356,17.382 11.507,17.997C11.549,18.173 11.707,18.31 11.908,18.347C12.615,18.478 13.367,18.545 14.145,18.545C14.923,18.545 15.675,18.48 16.382,18.347C16.584,18.31 16.74,18.173 16.783,17.997C16.861,17.684 16.918,16.311 16.956,14.948L16.988,14.178C17,13.864 17.243,13.584 17.576,13.584H19.024H21.182H22.629C22.962,13.584 23.197,13.864 23.197,14.178V14.312L23.195,14.314Z" id="path_1"/></svg>