<svg id="vector" xmlns="http://www.w3.org/2000/svg" width="24" height="24" viewBox="0 0 24 24"><defs><clipPath id="clip_path_0"><path d="M0,0h24v24h-24z"/></clipPath><linearGradient gradientUnits="userSpaceOnUse" x1="0.0" y1="1.0" x2="21.422" y2="24.866" id="gradient_1"><stop stop-color="#84e5e8" offset="0.0"/><stop stop-color="#1ca0be" offset="1.0"/></linearGradient><linearGradient gradientUnits="userSpaceOnUse" x1="14.268" y1="9.3" x2="18.483" y2="17.784" id="gradient_2"><stop stop-color="#84e5e8" offset="0.0"/><stop stop-color="#1ca0be" offset="1.0"/></linearGradient></defs><g id="g_0"><path fill="url(#gradient_1)" d="M0,4C0,2.343 1.343,1 3,1H19C20.657,1 22,2.343 22,4V7C22,7.552 21.552,8 21,8H17C14.791,8 13,9.791 13,12C13,14.209 14.791,16 17,16H21C21.552,16 22,16.448 22,17V20C22,21.657 20.657,23 19,23H3C1.343,23 0,21.657 0,20V4Z" clip-path="url(#clip_path_0)"/><path fill="url(#gradient_2)" d="M23.126,9.3C23.623,9.3 24.025,9.703 24.025,10.2V13.8C24.025,14.297 23.623,14.7 23.126,14.7H16.968C15.477,14.7 14.268,13.491 14.268,12C14.268,10.509 15.477,9.3 16.968,9.3H23.126ZM17.501,10.517C16.672,10.517 16,11.188 16,12.017C16,12.845 16.672,13.518 17.501,13.518C18.329,13.517 19.001,12.845 19.001,12.017C19.001,11.188 18.329,10.517 17.501,10.517Z"/></g></svg>