<svg id="vector" xmlns="http://www.w3.org/2000/svg" width="24" height="24" viewBox="0 0 24 24"><defs><clipPath id="clip_path_0"><path d="M0,0h24v24h-24z"/></clipPath><linearGradient gradientUnits="userSpaceOnUse" x1="11.0" y1="2.0" x2="11.0" y2="19.09" id="gradient_1"><stop stop-color="#a1bad7" offset="0.0"/><stop stop-color="#8baace" offset="1.0"/></linearGradient></defs><g id="g_0"><path fill="#85a3c7" d="M21,2.488V1C21,0.448 20.552,0 20,0L13,0C12.448,-0 12,0.448 12,1V7C12,7.552 12.448,8 13,8H19.989C20.541,8 20.989,7.552 20.989,7V5.501L23.277,6.64C23.61,6.806 24,6.564 24,6.192V1.806C24,1.435 23.61,1.193 23.278,1.358L21,2.488Z" clip-path="url(#clip_path_0)"/><path fill="#d0d9e4" d="M15,19H7V21C7,21.552 6.552,22 6,22C5.448,22 5,22.448 5,23C5,23.552 5.448,24 6,24H16C16.552,24 17,23.552 17,23C17,22.448 16.552,22 16,22C15.448,22 15,21.552 15,21V19Z"/><path fill="url(#gradient_1)" d="M21,19.09C21.552,19.09 22,18.643 22,18.09V11.124C22,10.487 21.444,10 20.807,10C17.872,10 14.936,10 12,10C10.895,10 10,9.105 10,8C10,6.386 10,4.772 10,3.158C10,2.521 9.479,2 8.842,2H1C0.448,2 0,2.448 0,3V18.09C0,18.643 0.448,19.09 1,19.09C7.667,19.09 14.333,19.09 21,19.09Z"/></g></svg>