<svg id="vector" xmlns="http://www.w3.org/2000/svg" width="24" height="24" viewBox="0 0 24 24"><defs><clipPath id="clip_path_0"><path d="M0,0h24v24h-24z"/></clipPath><linearGradient gradientUnits="userSpaceOnUse" x1="12.0" y1="4.03" x2="12.0" y2="23.217" id="gradient_1"><stop stop-color="#805e3d" offset="0.0"/><stop stop-color="#ae7c51" offset="1.0"/></linearGradient></defs><g id="g_0"><path fill="url(#gradient_1)" d="M22.387,15.18C22.63,15.14 22.852,15.327 22.852,15.574V21.172C22.852,22.301 21.969,23.217 20.879,23.217H3.121C2.032,23.217 1.147,22.301 1.147,21.172L1.155,15.612C1.156,15.366 1.376,15.179 1.619,15.218L12.008,16.897L22.387,15.18ZM22,4.03C23.105,4.03 24,4.926 24,6.03V11.892C24,12.869 23.293,13.703 22.329,13.864L12.164,15.559C12.055,15.577 11.945,15.577 11.836,15.559L1.671,13.864C0.707,13.703 0,12.869 0,11.892V6.03C0,4.926 0.895,4.03 2,4.03H22Z" clip-path="url(#clip_path_0)"/><path fill="#805e3d" d="M8,1.684C8,1.131 8.448,0.684 9,0.684H15C15.552,0.684 16,1.131 16,1.684C16,2.236 15.552,2.684 15,2.684H9C8.448,2.684 8,2.236 8,1.684Z"/><path fill="#eac466" d="M14,13.945C14.552,13.945 15,14.392 15,14.945V17.315C15,17.867 14.552,18.315 14,18.315H10C9.448,18.315 9,17.867 9,17.315L9,14.945C9,14.392 9.448,13.945 10,13.945L14,13.945Z"/></g></svg>