<svg id="vector" xmlns="http://www.w3.org/2000/svg" width="24d" height="24d" viewBox="0 0 96 96"><path fill="#52575f" stroke="#52575f" stroke-width="2.5" stroke-linecap="round" stroke-linejoin="round" d="M28.8,85H36H37H37.5C38.328,85 39,85.672 39,86.5C39,87.328 38.328,88 37.5,88H37H36H28.8C24.32,88 22.079,88 20.368,87.128C18.863,86.361 17.639,85.137 16.872,83.632C16,81.921 16,79.68 16,75.2L16,20.8C16,16.32 16,14.079 16.872,12.368C17.639,10.863 18.863,9.639 20.368,8.872C22.079,8 24.32,8 28.8,8H50.698C52.655,8 53.633,8 54.554,8.221C55.37,8.417 56.151,8.74 56.866,9.179C57.674,9.674 58.365,10.365 59.749,11.749L76.251,28.251C77.635,29.635 78.326,30.326 78.821,31.134C79.26,31.85 79.583,32.63 79.779,33.446C79.988,34.318 79.999,35.242 80,37L80,38.5C80,39.328 79.328,40 78.5,40C77.672,40 77,39.328 77,38.5V37L77,37C76.998,35.147 76.975,34.617 76.862,34.146C76.849,34.093 76.835,34.04 76.821,33.987C75.684,34 74.419,34 73,34C66.468,34 63.202,34 60.693,32.762C58.323,31.594 56.406,29.676 55.237,27.307C54,24.798 54,21.531 54,15C54,13.58 54,12.316 54.013,11.179C53.96,11.165 53.907,11.151 53.854,11.138C53.358,11.019 52.798,11 50.698,11L28.8,11C26.51,11 24.973,11.002 23.79,11.099C22.641,11.193 22.092,11.36 21.73,11.545C20.789,12.024 20.024,12.789 19.545,13.73C19.36,14.092 19.193,14.641 19.099,15.79C19.002,16.973 19,18.51 19,20.8L19,75.2C19,77.49 19.002,79.027 19.099,80.21C19.193,81.359 19.36,81.908 19.545,82.27C20.024,83.211 20.789,83.976 21.73,84.455C22.092,84.64 22.641,84.807 23.79,84.901C24.973,84.998 26.51,85 28.8,85ZM74.13,30.372C74.364,30.606 74.57,30.813 74.753,30.998C74.202,30.999 73.618,31 73,31C69.686,31 67.376,30.997 65.576,30.854C63.809,30.714 62.791,30.452 62.019,30.071C60.243,29.195 58.804,27.757 57.928,25.98C57.548,25.208 57.286,24.191 57.145,22.424C57.002,20.624 57,18.313 57,15C57,14.381 57,13.798 57.001,13.246C57.186,13.429 57.394,13.636 57.628,13.87L74.13,30.372ZM77,72V75.2C77,77.49 76.998,79.027 76.901,80.21C76.807,81.359 76.64,81.908 76.455,82.27C75.976,83.211 75.211,83.976 74.27,84.455C73.908,84.84 73.359,84.807 72.21,84.901C71.027,84.998 69.49,85 67.2,85H65H63.5C62.672,85 62,85.672 62,86.5C62,87.328 62.672,88 63.5,88H65H67.2C71.68,88 73.921,88 75.632,87.128C77.137,86.361 78.361,85.137 79.128,83.632C80,81.921 80,79.68 80,75.2V72L80,70.5C80,69.672 79.328,69 78.5,69C77.672,69 77,69.672 77,70.5L77,72ZM85.391,54.517L84.684,55.224L77.613,48.153L78.32,47.446C79.772,45.994 80.1,45.703 80.355,45.555C81.284,45.019 82.427,45.019 83.355,45.555C83.611,45.703 83.939,45.994 85.391,47.446C86.843,48.898 87.134,49.226 87.282,49.482C87.818,50.41 87.818,51.554 87.282,52.482C87.135,52.735 86.848,53.06 85.427,54.481C85.415,54.493 85.403,54.505 85.391,54.517ZM88.218,55.93C89.077,55.062 89.563,54.53 89.88,53.982C90.952,52.125 90.952,49.838 89.88,47.982C89.485,47.298 88.827,46.64 87.512,45.325L87.512,45.325L87.512,45.325L87.512,45.325L87.512,45.325C86.197,44.009 85.539,43.352 84.855,42.957C82.999,41.885 80.712,41.885 78.855,42.957C78.307,43.274 77.775,43.76 76.907,44.619L76.906,44.618L76.199,45.325L75.492,46.032L73.37,48.153L51.11,70.413C50.973,70.551 50.904,70.619 50.843,70.694C50.788,70.76 50.738,70.83 50.692,70.903C50.641,70.985 50.597,71.071 50.511,71.245L43.722,84.822L43.722,84.822C42.415,87.437 41.761,88.745 41.982,89.5C42.174,90.152 42.685,90.663 43.337,90.855C44.092,91.077 45.4,90.423 48.016,89.115L61.592,82.327C61.766,82.24 61.853,82.196 61.934,82.145C62.007,82.099 62.077,82.049 62.143,81.995C62.218,81.933 62.286,81.865 62.424,81.727L62.424,81.727L84.684,59.467L86.805,57.346L87.512,56.639L87.512,56.639L88.219,55.931L88.218,55.93ZM82.563,57.346L60.302,79.606L60.279,79.629L60.25,79.643L55.658,81.939L50.898,77.179L53.194,72.587L53.208,72.558L53.231,72.535L75.492,50.275L82.563,57.346ZM49.484,80.007L46.406,86.163C46.312,86.352 46.222,86.53 46.138,86.699C46.307,86.615 46.486,86.526 46.674,86.432L52.83,83.354L49.484,80.007Z" fill-rule="evenodd"/></svg>