<svg id="vector" xmlns="http://www.w3.org/2000/svg" width="24.0d" height="24.0d" viewBox="0 0 24.0 24.0"><path fill="#52575f" d="M4.9,15.3l-2.3,-1.9C2.2,13 2,12.5 2,12c0,-0.5 0.2,-1 0.6,-1.4l3,-2.5c2.2,-1.9 5.2,-2.7 8,-2.2c0.4,0.1 0.7,0.5 0.6,0.9c-0.1,0.4 -0.5,0.7 -0.9,0.6C10.9,7 8.4,7.7 6.5,9.3l-3,2.5c-0.1,0.1 -0.1,0.2 -0.1,0.2s0,0.1 0.1,0.2l2.3,1.9c0.3,0.3 0.4,0.7 0.1,1.1c-0.1,0.2 -0.4,0.3 -0.6,0.3C5.2,15.5 5,15.4 4.9,15.3zM22,12c0,0.5 -0.2,1 -0.6,1.4l-3,2.5c-1.8,1.6 -4.1,2.4 -6.4,2.4c-1.4,0 -2.9,-0.3 -4.3,-1l-3.7,3.7c-0.1,0.1 -0.3,0.2 -0.5,0.2S3.2,21.1 3,20.9c-0.3,-0.3 -0.3,-0.8 0,-1.1L19.9,3c0.3,-0.3 0.8,-0.3 1.1,0s0.3,0.8 0,1.1l-3.4,3.4c0.3,0.2 0.6,0.4 0.9,0.6l3,2.5C21.8,11 22,11.5 22,12zM13.6,11.4l-2.2,2.2c0.2,0.1 0.4,0.1 0.6,0.1c1,0 1.8,-0.8 1.8,-1.8C13.8,11.8 13.7,11.6 13.6,11.4zM20.5,12c0,-0.1 0,-0.1 -0.1,-0.2l-3,-2.5c-0.3,-0.3 -0.6,-0.5 -1,-0.7l-1.7,1.7c0.3,0.5 0.5,1.1 0.5,1.7c0,1.8 -1.5,3.2 -3.2,3.2c-0.6,0 -1.2,-0.2 -1.7,-0.5l-1.4,1.4c2.9,1.2 6.2,0.7 8.6,-1.4l3,-2.5C20.5,12.2 20.5,12.1 20.5,12zM8.9,10.9c-0.1,0.4 0.1,0.8 0.4,1c0.1,0 0.2,0 0.3,0c0.3,0 0.6,-0.2 0.7,-0.5c0.2,-0.6 0.7,-1 1.3,-1.1c0.4,-0.1 0.7,-0.5 0.6,-0.9s-0.5,-0.7 -0.9,-0.6C10.3,9 9.3,9.8 8.9,10.9z" id="path_0"/></svg>
