<svg id="vector" xmlns="http://www.w3.org/2000/svg" width="24" height="24" viewBox="0 0 24 24"><defs><linearGradient gradientUnits="userSpaceOnUse" x1="12.0" y1="2.0" x2="12.0" y2="19.0" id="gradient_0"><stop stop-color="#1768d4" offset="0.0"/><stop stop-color="#007aff" offset="1.0"/></linearGradient></defs><path fill="#1c1c1e" d="M1.009,21.167L1.01,16.583H6.509V21.167C6.509,21.673 6.004,22.083 5.381,22.083H2.137C1.514,22.083 1.009,21.673 1.009,21.167Z" id="path_0"/><path fill="#1c1c1e" d="M17.509,21.167L17.51,16.583H23.009V21.167C23.009,21.673 22.504,22.083 21.881,22.083H18.638C18.014,22.083 17.509,21.673 17.509,21.167Z" id="path_1"/><path fill="url(#gradient_0)" d="M17.659,2C18.513,2 19.291,2.469 19.661,3.206L22,7.862L23.22,9.898C23.403,10.205 23.5,10.553 23.5,10.907V16.122C23.5,17.711 22.157,19 20.5,19H3.5C1.843,19 0.5,17.711 0.5,16.122V10.921C0.5,10.558 0.601,10.202 0.794,9.89L2.111,7.756L4.191,3.266C4.548,2.496 5.344,2 6.222,2H17.659ZM3.799,11.009C3.366,10.94 3.01,11.302 3.01,11.74C3.01,12.179 3.369,12.525 3.796,12.625C4.42,12.771 4.997,13.089 5.457,13.55C5.64,13.733 5.801,13.935 5.937,14.15C5.996,14.245 5.926,14.365 5.813,14.365H3.826C3.375,14.365 3.01,14.731 3.01,15.183C3.01,15.634 3.375,16 3.826,16H7.314C7.724,16 8.062,15.666 8.002,15.26C7.972,15.058 7.931,14.858 7.877,14.662C7.647,13.824 7.203,13.052 6.578,12.427C5.82,11.667 4.845,11.175 3.799,11.009ZM20.22,11.009C19.174,11.175 18.199,11.667 17.44,12.427C16.816,13.052 16.371,13.824 16.142,14.662C16.088,14.858 16.046,15.058 16.017,15.26C15.957,15.666 16.294,16 16.704,16H20.192C20.643,16 21.01,15.634 21.01,15.183C21.01,14.731 20.643,14.365 20.192,14.365H18.205C18.093,14.365 18.022,14.245 18.082,14.15C18.218,13.935 18.378,13.733 18.562,13.55C19.022,13.089 19.599,12.771 20.223,12.625C20.649,12.525 21.01,12.179 21.01,11.74C21.01,11.302 20.652,10.94 20.22,11.009ZM10,11.953C9.509,11.953 9.111,12.351 9.111,12.842C9.111,13.336 9.514,13.735 10.008,13.731L14.026,13.693C14.504,13.689 14.889,13.301 14.889,12.823C14.889,12.343 14.499,11.953 14.019,11.953H10ZM7.9,3.848C6.88,3.848 5.955,4.435 5.54,5.346C5.066,6.387 5.848,7.561 7.016,7.561H16.824C18.007,7.561 18.791,6.364 18.295,5.316C17.871,4.421 16.953,3.848 15.942,3.848H7.9Z" id="path_2"/></svg>