<svg id="vector" xmlns="http://www.w3.org/2000/svg" width="24" height="24" viewBox="0 0 24 24"><defs><clipPath id="clip_path_0"><path d="M0,0h24v24h-24z"/></clipPath><linearGradient gradientUnits="userSpaceOnUse" x1="10" y1="0" x2="10" y2="24" id="gradient_1"><stop stop-color="#a1bad7" offset="0.0"/><stop stop-color="#8baace" offset="1.0"/></linearGradient></defs><g id="g_0"><path fill="url(#gradient_1)" d="M12.63,0C12.869,0 13.1,0.086 13.281,0.241L19.65,5.7C19.872,5.89 20,6.168 20,6.46V21.616C19.999,22.721 16.491,24 15.387,24H2C0.895,24 0,23.105 0,22V2C0,0.895 0.895,0 2,0H12.63ZM7.263,9.6C5.94,9.6 5.209,10.627 4.864,11.32C4.387,12.278 4.117,13.246 4.087,14.347C4.078,14.681 4.076,15.062 4.136,15.463C4.014,15.576 3.89,15.688 3.747,15.807C3.385,16.107 3.074,16.29 2.777,16.363C2.277,16.486 1.971,16.992 2.094,17.492C2.217,17.993 2.722,18.299 3.223,18.176C3.884,18.013 4.432,17.654 4.872,17.298C5.184,17.797 5.62,18.314 6.25,18.624C7.498,19.238 8.745,18.8 9.57,18.479C10.045,18.293 10.508,18.078 10.938,17.807C11.112,17.919 11.301,18.015 11.502,18.095C12.921,18.659 14.44,18.666 15.848,18.271C15.873,18.264 15.899,18.257 15.928,18.249C16.351,18.132 17.123,17.92 17.654,17.397C18.022,17.036 18.027,16.445 17.665,16.077C17.304,15.71 16.713,15.705 16.346,16.066C16.191,16.218 15.889,16.321 15.345,16.474C14.342,16.754 13.319,16.755 12.383,16.432C12.515,16.236 12.638,16.025 12.747,15.795C12.881,15.514 13.026,15.103 13.058,14.665C13.089,14.237 13.019,13.596 12.482,13.134C11.959,12.684 11.358,12.835 11.059,12.981C10.761,13.125 10.508,13.364 10.354,13.609C10.104,14.012 9.944,14.467 9.853,14.873C9.814,15.043 9.764,15.294 9.745,15.561C9.731,15.757 9.728,16.031 9.802,16.313C9.536,16.467 9.234,16.606 8.893,16.739C8.041,17.071 7.52,17.167 7.074,16.948C6.783,16.805 6.539,16.489 6.287,16.01C6.875,15.471 7.409,14.918 7.926,14.283C8.642,13.403 9.029,12.205 8.793,11.005C8.737,10.719 8.597,10.413 8.391,10.162C8.188,9.917 7.809,9.6 7.263,9.6ZM6.988,11.557C7.034,12.086 6.849,12.649 6.478,13.106C6.331,13.285 6.183,13.458 6.031,13.626C6.122,13.125 6.289,12.648 6.535,12.153C6.657,11.908 6.792,11.723 6.924,11.607C6.946,11.588 6.967,11.571 6.988,11.557Z" clip-path="url(#clip_path_0)"/><path fill="#6a83a0" d="M12.811,0.319C12.811,0.047 13.135,-0.1 13.345,0.077L19.697,5.439C19.925,5.632 19.787,6 19.487,6H13.89C13.294,6 12.811,5.524 12.811,4.938V0.319Z"/><path fill="#6a83a0" d="M17.75,17.75m-6.25,0a6.25,6.25 0,1 1,12.5 0a6.25,6.25 0,1 1,-12.5 0"/><path fill="#ffffff" d="M16.921,15.563C16.813,15.703 16.75,15.943 16.75,16.345C16.75,16.634 16.526,16.868 16.25,16.868C15.974,16.868 15.75,16.634 15.75,16.345C15.75,15.88 15.812,15.334 16.142,14.906C16.49,14.453 17.039,14.25 17.75,14.25C18.461,14.25 19.01,14.453 19.358,14.906C19.688,15.334 19.75,15.88 19.75,16.345C19.75,16.634 19.526,16.868 19.25,16.868C18.974,16.868 18.75,16.634 18.75,16.345C18.75,15.943 18.687,15.703 18.579,15.563C18.49,15.447 18.289,15.297 17.75,15.297C17.211,15.297 17.01,15.447 16.921,15.563ZM14.75,18.632C14.75,18.053 15.198,17.584 15.75,17.584H19.75C20.302,17.584 20.75,18.053 20.75,18.632V20.203C20.75,20.781 20.302,21.25 19.75,21.25H15.75C15.198,21.25 14.75,20.781 14.75,20.203V18.632Z" fill-rule="evenodd"/></g></svg>