<svg id="vector" xmlns="http://www.w3.org/2000/svg" width="197.0d" height="197.0d" viewBox="0 0 197.0 197.0"><path fill="#ffffff" d="M11.376,64.832a2.377,2.377 0,0 1,-2.376 -2.376v-22.4a34.1,34.1 0,0 1,34.057 -34.057h22.4a2.375,2.375 0,0 1,2.376 2.376,2.376 2.376,0 0,1 -2.376,2.376h-22.4a29.337,29.337 0,0 0,-29.305 29.305v22.4A2.376,2.376 0,0 1,11.376 64.832Z" id="path_0"/><path fill="#ffffff" d="M65.456,185.002h-22.4a34.1,34.1 0,0 1,-34.057 -34.057v-22.4a2.376,2.376 0,0 1,2.376 -2.376,2.375 2.375,0 0,1 2.376,2.376v22.4a29.338,29.338 0,0 0,29.305 29.305h22.4a2.375,2.375 0,0 1,2.376 2.376A2.375,2.375 0,0 1,65.456 185.002Z" id="path_1"/><path fill="#ffffff" d="M185.626,64.832a2.377,2.377 0,0 1,-2.376 -2.376v-22.4a29.337,29.337 0,0 0,-29.305 -29.305h-22.4a2.376,2.376 0,0 1,-2.376 -2.376,2.375 2.375,0 0,1 2.376,-2.376h22.4a34.1,34.1 0,0 1,34.057 34.057v22.4A2.376,2.376 0,0 1,185.626 64.832Z" id="path_2"/><path fill="#ffffff" d="M153.945,185.002h-22.4a2.375,2.375 0,0 1,-2.376 -2.376,2.375 2.375,0 0,1 2.376,-2.376h22.4a29.338,29.338 0,0 0,29.305 -29.305v-22.4a2.376,2.376 0,0 1,2.376 -2.376,2.375 2.375,0 0,1 2.376,2.376v22.4A34.1,34.1 0,0 1,153.945 185.002Z" id="path_3"/></svg>