<svg id="vector" xmlns="http://www.w3.org/2000/svg" width="24.0d" height="24.0d" viewBox="0 0 24.0 24.0"><path fill="#52575f" d="M7,3C6.448,3 6,3.448 6,4V4.25H18V4C18,3.448 17.552,3 17,3H7Z" id="path_0"/><path fill="#52575f" d="M4,6.5C4,5.948 4.448,5.5 5,5.5H19C19.552,5.5 20,5.948 20,6.5V6.75H4V6.5Z" id="path_1"/><path fill="#52575f" d="M2.272,9.365C2,9.9 2,10.6 2,12V18C2,19.4 2,20.1 2.272,20.635C2.512,21.105 2.895,21.488 3.365,21.728C3.9,22 4.6,22 6,22H18C19.4,22 20.1,22 20.635,21.728C21.105,21.488 21.488,21.105 21.728,20.635C22,20.1 22,19.4 22,18V12C22,10.6 22,9.9 21.728,9.365C21.488,8.895 21.105,8.512 20.635,8.272C20.1,8 19.4,8 18,8H6C4.6,8 3.9,8 3.365,8.272C2.895,8.512 2.512,8.895 2.272,9.365ZM18,9.25H6C5.279,9.25 4.814,9.251 4.46,9.28C4.12,9.308 3.994,9.355 3.933,9.386C3.697,9.506 3.506,9.697 3.386,9.933C3.355,9.994 3.308,10.12 3.28,10.46C3.251,10.814 3.25,11.279 3.25,12V18C3.25,18.721 3.251,19.186 3.28,19.54C3.308,19.88 3.355,20.006 3.386,20.067C3.506,20.303 3.697,20.494 3.933,20.614C3.994,20.645 4.12,20.692 4.46,20.72C4.814,20.749 5.279,20.75 6,20.75H18C18.721,20.75 19.186,20.749 19.54,20.72C19.88,20.692 20.006,20.645 20.067,20.614C20.303,20.494 20.494,20.303 20.614,20.067C20.645,20.006 20.692,19.88 20.72,19.54C20.749,19.186 20.75,18.721 20.75,18V12C20.75,11.279 20.749,10.814 20.72,10.46C20.692,10.12 20.645,9.994 20.614,9.933C20.494,9.697 20.303,9.506 20.067,9.386C20.006,9.355 19.88,9.308 19.54,9.28C19.186,9.251 18.721,9.25 18,9.25Z" fill-rule="evenodd" id="path_2"/></svg>