<svg id="vector" xmlns="http://www.w3.org/2000/svg" width="24.0d" height="24.0d" viewBox="0 0 24.0 24.0"><path fill="#52575f" d="M3.25,6V7.625C3.25,7.97 2.97,8.25 2.625,8.25C2.28,8.25 2,7.97 2,7.625V7C2,6.586 2,6.264 2.007,6C2.015,5.672 2.034,5.434 2.077,5.22C2.392,3.633 3.633,2.392 5.22,2.077C5.434,2.034 5.672,2.015 6,2.007C6.264,2 6.586,2 7,2H7.625C7.97,2 8.25,2.28 8.25,2.625C8.25,2.97 7.97,3.25 7.625,3.25H6C4.481,3.25 3.25,4.481 3.25,6Z" id="path_0"/><path fill="#52575f" d="M3.25,18V16.375C3.25,16.03 2.97,15.75 2.625,15.75C2.28,15.75 2,16.03 2,16.375V17C2,17.414 2,17.736 2.007,18C2.015,18.328 2.034,18.566 2.077,18.78C2.392,20.367 3.633,21.608 5.22,21.923C5.434,21.966 5.672,21.985 6,21.993C6.264,22 6.586,22 7,22H7.625C7.97,22 8.25,21.72 8.25,21.375C8.25,21.03 7.97,20.75 7.625,20.75H6C4.481,20.75 3.25,19.519 3.25,18Z" id="path_1"/><path fill="#52575f" d="M21.993,6C22,6.264 22,6.586 22,7V7.625C22,7.97 21.72,8.25 21.375,8.25C21.03,8.25 20.75,7.97 20.75,7.625V6C20.75,4.481 19.519,3.25 18,3.25H16.375C16.03,3.25 15.75,2.97 15.75,2.625C15.75,2.28 16.03,2 16.375,2H17C17.414,2 17.736,2 18,2.007C18.328,2.015 18.566,2.034 18.78,2.077C20.367,2.392 21.608,3.633 21.923,5.22C21.966,5.434 21.985,5.672 21.993,6Z" id="path_2"/><path fill="#52575f" d="M20.75,18V16.375C20.75,16.03 21.03,15.75 21.375,15.75C21.72,15.75 22,16.03 22,16.375V17C22,17.414 22,17.736 21.993,18C21.985,18.328 21.966,18.566 21.923,18.78C21.608,20.367 20.367,21.608 18.78,21.923C18.566,21.966 18.328,21.985 18,21.993C17.736,22 17.414,22 17,22H16.375C16.03,22 15.75,21.72 15.75,21.375C15.75,21.03 16.03,20.75 16.375,20.75H18C19.519,20.75 20.75,19.519 20.75,18Z" id="path_3"/><path fill="#52575f" d="M12.625,8C12.625,7.655 12.345,7.375 12,7.375C11.655,7.375 11.375,7.655 11.375,8V16C11.375,16.345 11.655,16.625 12,16.625C12.345,16.625 12.625,16.345 12.625,16V8Z" id="path_4"/><path fill="#52575f" d="M9.125,10C9.125,9.655 8.845,9.375 8.5,9.375C8.155,9.375 7.875,9.655 7.875,10V14C7.875,14.345 8.155,14.625 8.5,14.625C8.845,14.625 9.125,14.345 9.125,14V10Z" id="path_5"/><path fill="#52575f" d="M16.125,10C16.125,9.655 15.845,9.375 15.5,9.375C15.155,9.375 14.875,9.655 14.875,10V14C14.875,14.345 15.155,14.625 15.5,14.625C15.845,14.625 16.125,14.345 16.125,14V10Z" id="path_6"/></svg>