<svg id="vector" xmlns="http://www.w3.org/2000/svg" width="24.0d" height="24.0d" viewBox="0 0 24.0 24.0"><path fill="#4ba5ff" d="M22,11.482C22,11.482 22,11.483 22,11.482C21.996,10.418 21.964,9.829 21.728,9.365C21.488,8.895 21.105,8.512 20.635,8.272C20.1,8 19.4,8 18,8H6C4.6,8 3.9,8 3.365,8.272C3.326,8.292 3.288,8.313 3.25,8.335V7C3.25,6.279 3.251,5.814 3.28,5.46C3.308,5.12 3.355,4.994 3.386,4.933C3.506,4.697 3.697,4.506 3.933,4.386C3.994,4.355 4.12,4.308 4.46,4.28C4.814,4.251 5.279,4.25 5.999,4.25H7C7.564,4.25 7.928,4.365 8.191,4.501C8.47,4.645 8.705,4.847 8.991,5.134C9.041,5.184 9.096,5.241 9.155,5.303C9.673,5.844 10.54,6.75 12,6.75H20V6.5C20,5.948 19.552,5.5 19,5.5H12C11.101,5.5 10.606,4.995 10.061,4.439C9.394,3.758 8.652,3 7,3H5.999C4.6,3 3.9,3 3.365,3.272C2.895,3.512 2.512,3.895 2.272,4.365C2,4.9 2,5.6 2,7V18C2,19.4 2,20.1 2.272,20.635C2.512,21.105 2.895,21.488 3.365,21.728C3.9,22 4.6,22 6,22H18C19.4,22 20.1,22 20.635,21.728C21.105,21.488 21.488,21.105 21.728,20.635C22,20.1 22,19.4 22,18V11.482Z" id="path_0"/></svg>

