<svg id="vector" xmlns="http://www.w3.org/2000/svg" width="24.0d" height="24.0d" viewBox="0 0 24.0 24.0"><path fill="#52575f" d="M22,12V18C22,19.4 22,20.1 21.728,20.635C21.488,21.105 21.105,21.488 20.635,21.728C20.1,22 19.4,22 18,22H6C4.6,22 3.9,22 3.365,21.728C2.895,21.488 2.512,21.105 2.272,20.635C2,20.1 2,19.4 2,18V7C2,5.6 2,4.9 2.272,4.365C2.512,3.895 2.895,3.512 3.365,3.272C3.9,3 4.6,3 5.999,3H7C8.652,3 9.394,3.758 10.061,4.439C10.606,4.995 11.101,5.5 12,5.5H19C19.552,5.5 20,5.948 20,6.5V6.75H12C10.54,6.75 9.673,5.844 9.155,5.303C9.096,5.241 9.041,5.184 8.991,5.134C8.705,4.847 8.47,4.645 8.191,4.501C7.928,4.365 7.564,4.25 7,4.25H5.999C5.279,4.25 4.814,4.251 4.46,4.28C4.12,4.308 3.994,4.355 3.933,4.386C3.697,4.506 3.506,4.697 3.386,4.933C3.355,4.994 3.308,5.12 3.28,5.46C3.251,5.814 3.25,6.279 3.25,7V8.335C3.288,8.313 3.326,8.292 3.365,8.272C3.9,8 4.6,8 6,8H18C19.4,8 20.1,8 20.635,8.272C21.105,8.512 21.488,8.895 21.728,9.365C21.964,9.829 21.995,10.419 21.999,11.483C22,11.483 21.999,11.483 21.999,11.483L22,12ZM20.72,19.54C20.749,19.186 20.75,18.721 20.75,18V12C20.75,11.279 20.749,10.814 20.72,10.46C20.692,10.12 20.645,9.994 20.614,9.933C20.494,9.697 20.303,9.506 20.067,9.386C20.006,9.355 19.88,9.308 19.54,9.28C19.186,9.251 18.721,9.25 18,9.25H6C5.279,9.25 4.814,9.251 4.46,9.28C4.12,9.308 3.994,9.355 3.933,9.386C3.697,9.506 3.506,9.697 3.386,9.933C3.355,9.994 3.308,10.12 3.28,10.46C3.251,10.814 3.25,11.279 3.25,12V18C3.25,18.721 3.251,19.186 3.28,19.54C3.308,19.88 3.355,20.006 3.386,20.067C3.394,20.082 3.401,20.097 3.41,20.111C3.53,20.326 3.712,20.501 3.933,20.614C3.994,20.645 4.12,20.692 4.46,20.72C4.814,20.749 5.279,20.75 6,20.75H18C18.721,20.75 19.186,20.749 19.54,20.72C19.88,20.692 20.006,20.645 20.067,20.614C20.303,20.494 20.494,20.303 20.614,20.067C20.614,20.067 20.614,20.067 20.614,20.067C20.645,20.006 20.692,19.88 20.72,19.54Z" fill-rule="evenodd" id="path_0"/></svg>