<svg id="vector" xmlns="http://www.w3.org/2000/svg" width="24.0d" height="24.0d" viewBox="0 0 24.0 24.0"><path fill="#4ba5ff" d="M7,3C6.448,3 6,3.448 6,4V4.25H18V4C18,3.448 17.552,3 17,3H7Z" id="path_0"/><path fill="#4ba5ff" d="M4,6.5C4,5.948 4.448,5.5 5,5.5H19C19.552,5.5 20,5.948 20,6.5V6.75H4V6.5Z" id="path_1"/><path fill="#4ba5ff" d="M2,12C2,10.6 2,9.9 2.272,9.365C2.512,8.895 2.895,8.512 3.365,8.272C3.9,8 4.6,8 6,8H18C19.4,8 20.1,8 20.635,8.272C21.105,8.512 21.488,8.895 21.728,9.365C22,9.9 22,10.6 22,12V18C22,19.4 22,20.1 21.728,20.635C21.488,21.105 21.105,21.488 20.635,21.728C20.1,22 19.4,22 18,22H6C4.6,22 3.9,22 3.365,21.728C2.895,21.488 2.512,21.105 2.272,20.635C2,20.1 2,19.4 2,18V12Z" id="path_2"/></svg>

