<svg id="vector" xmlns="http://www.w3.org/2000/svg" width="24.0d" height="24.0d" viewBox="0 0 24.0 24.0"><path fill="#52575f" d="M17.5,2C15.015,2 13,4.015 13,6.5C13,8.985 15.015,11 17.5,11C19.985,11 22,8.985 22,6.5C22,4.015 19.985,2 17.5,2ZM17.5,9.75C15.705,9.75 14.25,8.295 14.25,6.5C14.25,4.705 15.705,3.25 17.5,3.25C19.295,3.25 20.75,4.705 20.75,6.5C20.75,8.295 19.295,9.75 17.5,9.75Z" fill-rule="evenodd" id="path_0"/><path fill="#52575f" d="M6.5,13C4.015,13 2,15.015 2,17.5C2,19.985 4.015,22 6.5,22C8.985,22 11,19.985 11,17.5C11,15.015 8.985,13 6.5,13ZM6.5,20.75C4.705,20.75 3.25,19.295 3.25,17.5C3.25,15.705 4.705,14.25 6.5,14.25C8.295,14.25 9.75,15.705 9.75,17.5C9.75,19.295 8.295,20.75 6.5,20.75Z" fill-rule="evenodd" id="path_1"/><path fill="#52575f" d="M13,17.5C13,16.102 13,15.403 13.228,14.852C13.533,14.117 14.117,13.533 14.852,13.228C15.403,13 16.102,13 17.5,13C18.898,13 19.597,13 20.148,13.228C20.883,13.533 21.467,14.117 21.772,14.852C22,15.403 22,16.102 22,17.5C22,18.898 22,19.597 21.772,20.148C21.467,20.883 20.883,21.467 20.148,21.772C19.597,22 18.898,22 17.5,22C16.102,22 15.403,22 14.852,21.772C14.117,21.467 13.533,20.883 13.228,20.148C13,19.597 13,18.898 13,17.5ZM17.5,20.75C16.784,20.75 16.31,20.749 15.944,20.724C15.589,20.7 15.428,20.657 15.33,20.617C14.901,20.439 14.561,20.098 14.383,19.67C14.343,19.572 14.3,19.411 14.276,19.056C14.251,18.69 14.25,18.216 14.25,17.5C14.25,16.784 14.251,16.31 14.276,15.944C14.3,15.589 14.343,15.428 14.383,15.33C14.561,14.901 14.901,14.561 15.33,14.383C15.428,14.343 15.589,14.3 15.944,14.276C16.31,14.251 16.784,14.25 17.5,14.25C18.216,14.25 18.69,14.251 19.056,14.276C19.411,14.3 19.572,14.343 19.67,14.383C20.098,14.561 20.439,14.901 20.617,15.33C20.657,15.428 20.7,15.589 20.724,15.944C20.749,16.31 20.75,16.784 20.75,17.5C20.75,18.216 20.749,18.69 20.724,19.056C20.7,19.411 20.657,19.572 20.617,19.67C20.439,20.098 20.098,20.439 19.67,20.617C19.572,20.657 19.411,20.7 19.056,20.724C18.69,20.749 18.216,20.75 17.5,20.75Z" fill-rule="evenodd" id="path_2"/><path fill="#52575f" d="M7.316,10.7C7.536,10.532 8.265,9.962 9.011,9.214C9.712,8.511 10.615,7.471 10.948,6.359C11.44,4.717 10.949,3.111 9.539,2.449C8.545,1.982 7.427,2.152 6.499,2.784C5.572,2.152 4.454,1.982 3.46,2.449C2.05,3.112 1.561,4.719 2.053,6.359C2.387,7.47 3.289,8.51 3.99,9.214C4.735,9.961 5.464,10.532 5.683,10.7C6.166,11.068 6.833,11.069 7.316,10.7ZM9.751,6C10.487,3.545 8.089,2.537 6.582,4.394C6.54,4.446 6.458,4.446 6.416,4.394C4.909,2.537 2.514,3.545 3.251,6C3.724,7.578 6.045,9.403 6.442,9.706C6.477,9.733 6.523,9.733 6.558,9.706C6.955,9.403 9.277,7.578 9.751,6Z" fill-rule="evenodd" id="path_3"/></svg>