<svg id="vector" xmlns="http://www.w3.org/2000/svg" width="24.0d" height="24.0d" viewBox="0 0 24.0 24.0"><path fill="#165ef8" d="M13,6.5C13,4.015 15.015,2 17.5,2C19.985,2 22,4.015 22,6.5C22,8.985 19.985,11 17.5,11C15.015,11 13,8.985 13,6.5Z" id="path_0"/><path fill="#165ef8" d="M2,17.5C2,15.015 4.015,13 6.5,13C8.985,13 11,15.015 11,17.5C11,19.985 8.985,22 6.5,22C4.015,22 2,19.985 2,17.5Z" id="path_1"/><path fill="#165ef8" d="M13.228,14.852C13,15.403 13,16.102 13,17.5C13,18.898 13,19.597 13.228,20.148C13.533,20.883 14.117,21.467 14.852,21.772C15.403,22 16.102,22 17.5,22C18.898,22 19.597,22 20.148,21.772C20.883,21.467 21.467,20.883 21.772,20.148C22,19.597 22,18.898 22,17.5C22,16.102 22,15.403 21.772,14.852C21.467,14.117 20.883,13.533 20.148,13.228C19.597,13 18.898,13 17.5,13C16.102,13 15.403,13 14.852,13.228C14.117,13.533 13.533,14.117 13.228,14.852Z" id="path_2"/><path fill="#165ef8" d="M9.751,6C10.487,3.545 8.089,2.537 6.582,4.394C6.54,4.446 6.458,4.446 6.416,4.394C4.909,2.537 2.514,3.545 3.251,6C3.724,7.578 6.045,9.403 6.442,9.706C6.477,9.733 6.523,9.733 6.558,9.706C6.955,9.403 9.277,7.578 9.751,6Z" id="path_3"/><path fill="#165ef8" d="M7.316,10.7C6.833,11.069 6.166,11.068 5.683,10.7C5.464,10.532 4.735,9.961 3.99,9.214C3.289,8.51 2.387,7.47 2.053,6.359C1.561,4.719 2.05,3.112 3.46,2.449C4.454,1.982 5.572,2.152 6.499,2.784C7.427,2.152 8.545,1.982 9.539,2.449C10.949,3.111 11.44,4.717 10.948,6.359C10.615,7.471 9.712,8.511 9.011,9.214C8.265,9.962 7.536,10.532 7.316,10.7ZM6.582,4.394C8.089,2.537 10.487,3.545 9.751,6C9.277,7.578 6.955,9.403 6.558,9.706C6.523,9.733 6.477,9.733 6.442,9.706C6.045,9.403 3.724,7.578 3.251,6C2.514,3.545 4.909,2.537 6.416,4.394C6.458,4.446 6.54,4.446 6.582,4.394Z" fill-rule="evenodd" id="path_4"/></svg>

