<svg id="vector" xmlns="http://www.w3.org/2000/svg" width="24" height="24" viewBox="0 0 24 24"><defs><linearGradient gradientUnits="userSpaceOnUse" x1="9.933" y1="0.867" x2="9.933" y2="8.534" id="gradient_0"><stop stop-color="#00b55d" offset="0.0"/><stop stop-color="#00db89" offset="1.0"/></linearGradient><linearGradient gradientUnits="userSpaceOnUse" x1="12.783" y1="10.526" x2="12.783" y2="21.192" id="gradient_1"><stop stop-color="#00b55d" offset="0.0"/><stop stop-color="#00db89" offset="1.0"/></linearGradient><linearGradient gradientUnits="userSpaceOnUse" x1="5.833" y1="15.2" x2="5.833" y2="22.867" id="gradient_2"><stop stop-color="#00b55d" offset="0.0"/><stop stop-color="#00db89" offset="1.0"/></linearGradient></defs><path fill="url(#gradient_0)" d="M8.491,3.012C9.114,1.744 10.42,0.867 11.933,0.867C14.05,0.867 15.767,2.584 15.767,4.701C15.767,6.817 14.05,8.534 11.933,8.534H5.433C4.697,8.534 4.1,7.937 4.1,7.201C4.1,6.464 4.697,5.867 5.433,5.867H11.933C12.578,5.867 13.1,5.345 13.1,4.701C13.1,4.056 12.578,3.534 11.933,3.534C11.475,3.534 11.076,3.798 10.885,4.188C10.56,4.849 9.761,5.121 9.1,4.797C8.439,4.472 8.167,3.673 8.491,3.012Z" id="path_0"/><path fill="url(#gradient_1)" d="M1.7,11.859C1.7,11.123 2.297,10.526 3.033,10.526H18.533C21.479,10.526 23.867,12.914 23.867,15.859C23.867,18.805 21.479,21.192 18.533,21.192C16.428,21.192 14.61,19.973 13.744,18.207C13.419,17.546 13.692,16.747 14.353,16.423C15.014,16.098 15.813,16.371 16.138,17.032C16.573,17.92 17.483,18.526 18.533,18.526C20.006,18.526 21.2,17.332 21.2,15.859C21.2,14.387 20.006,13.193 18.533,13.193H3.033C2.297,13.193 1.7,12.596 1.7,11.859Z" id="path_1"/><path fill="url(#gradient_2)" d="M0,16.534C0,15.797 0.597,15.2 1.333,15.2H7.833C9.95,15.2 11.667,16.917 11.667,19.034C11.667,21.15 9.95,22.867 7.833,22.867C6.32,22.867 5.014,21.99 4.391,20.722C4.066,20.061 4.339,19.262 5,18.937C5.661,18.613 6.46,18.885 6.785,19.546C6.976,19.936 7.375,20.2 7.833,20.2C8.477,20.2 9,19.678 9,19.034C9,18.389 8.477,17.867 7.833,17.867H1.333C0.597,17.867 0,17.27 0,16.534Z" id="path_2"/></svg>