<svg id="vector" xmlns="http://www.w3.org/2000/svg" width="24" height="24" viewBox="0 0 24 24"><defs><clipPath id="clip_path_0"><path d="M0,0h24v24h-24z"/></clipPath><linearGradient gradientUnits="userSpaceOnUse" x1="12.0" y1="0.0" x2="12.0" y2="24.0" id="gradient_1"><stop stop-color="#ffc232" offset="0.0"/><stop stop-color="#feb60c" offset="1.0"/></linearGradient></defs><g id="g_0"><path fill="url(#gradient_1)" d="M21,8.993C21,12.636 16.159,19.69 13.578,23.193C12.785,24.269 11.215,24.269 10.422,23.193C7.841,19.69 3,12.636 3,8.993C3,4.026 7.029,0 12,0C16.971,0 21,4.026 21,8.993ZM12,12C13.657,12 15,10.657 15,9C15,7.343 13.657,6 12,6C10.343,6 9,7.343 9,9C9,10.657 10.343,12 12,12Z" fill-rule="evenodd" clip-path="url(#clip_path_0)"/></g></svg>