<svg id="vector" xmlns="http://www.w3.org/2000/svg" width="24.0d" height="24.0d" viewBox="0 0 24.0 24.0"><path fill="#165ef8" d="M18.7,2.9C14.2,2 9.7,2 5.4,2.9C4.5,3 3.9,3.8 3.9,4.7v8.8c0,1.5 0.5,2.9 1.5,3.9c1.5,1.7 3.3,3.1 5.3,4.3c0.4,0.2 0.8,0.4 1.3,0.4c0.4,0 0.8,-0.1 1.2,-0.3c2,-1.1 3.8,-2.6 5.4,-4.4c0.9,-1 1.4,-2.3 1.4,-3.7v-0.1V4.7C20.1,3.8 19.5,3 18.7,2.9zM18.6,13.5c0,1.1 -0.4,2.1 -1.1,2.9c-1.5,1.7 -3.2,3 -5,4.1c-0.3,0.2 -0.7,0.2 -1,0c-1.9,-1.1 -3.6,-2.5 -5,-4.1c-0.7,-0.8 -1.1,-1.8 -1.1,-2.9V4.7c0,-0.1 0.1,-0.3 0.2,-0.3C7.7,3.9 9.8,3.7 12,3.7c2.1,0 4.3,0.2 6.4,0.7c0.1,0 0.3,0.2 0.3,0.3L18.6,13.5zM14.5,11.1L14.5,11.1V9.5c0,-1.4 -1.2,-2.6 -2.6,-2.6S9.3,8 9.3,9.4c0,0.4 0.3,0.8 0.8,0.8s0.8,-0.3 0.8,-0.8c0,-0.6 0.5,-1.1 1.1,-1.1s1,0.5 1,1.1V11H9.6c-0.7,0 -1.3,0.6 -1.3,1.4v2.3c0,0.7 0.6,1.4 1.3,1.4h4.9c0.7,0 1.3,-0.6 1.3,-1.4v-2.3C15.8,11.7 15.2,11.1 14.5,11.1zM14.3,14.5H9.7v-2h4.6C14.3,12.5 14.3,14.5 14.3,14.5z" id="path_0"/></svg>