<svg id="vector" xmlns="http://www.w3.org/2000/svg" width="32.0d" height="32.0d" viewBox="0 0 32.0 32.0"><defs><linearGradient gradientUnits="userSpaceOnUse" x1="11.385" y1="12.58" x2="13.707" y2="14.404" id="gradient_0"><stop stop-color="#c3bdc9" offset="0.0"/><stop stop-color="#c3bdc9" stop-opacity="0" offset="1.0"/></linearGradient><linearGradient gradientUnits="userSpaceOnUse" x1="18.324" y1="16.761" x2="11.303" y2="13.147" id="gradient_1"><stop stop-color="#c3bdc9" offset="0.0"/><stop stop-color="#c3bdc9" stop-opacity="0" offset="1.0"/></linearGradient><linearGradient gradientUnits="userSpaceOnUse" x1="22.072" y1="11.855" x2="17.863" y2="15.054" id="gradient_2"><stop stop-color="#c3bdc9" offset="0.0"/><stop stop-color="#c3bdc9" stop-opacity="0" offset="1.0"/></linearGradient></defs><path fill="#dddddd" d="M1,16C1,31 1,31 16,31C31,31 31,31 31,16C31,1 31,1 16,1C1,1 1,1 1,16Z" fill-opacity="0.3" id="path_0"/><path fill="#ffffff" d="M14.351,5.198C14.704,5.813 14.841,6.403 15.037,6.96C15.359,6.918 15.728,7.002 16.092,7.029C16.509,7.109 16.837,7.146 17.148,7.098C17.338,6.217 17.502,5.777 17.882,5.161C17.713,5.278 17.36,5.32 17.217,5.533C17.006,5.347 16.842,5.464 16.737,5.66C16.774,5.501 16.726,5.368 16.521,5.352C16.642,5.124 16.452,5.007 16.257,5.108C16.251,4.907 16.093,4.907 16.083,4.8C16.056,4.922 15.914,4.863 15.935,5.161C15.777,5.034 15.618,5.119 15.682,5.341C15.486,5.341 15.434,5.5 15.455,5.702C15.323,5.394 15.075,5.485 14.985,5.596C14.832,5.288 14.711,5.485 14.357,5.198L14.351,5.198Z" fill-rule="evenodd" id="path_1"/><path fill="#ffffff" d="M17.455,6.769C17.233,7.156 17.133,7.183 16.151,7.029C15.375,6.949 14.672,6.732 14.641,7.438C14.9,7.47 15.274,7.496 15.432,8.048L14.957,8.457C14.619,8.51 14.091,8.961 13.743,8.542C13.648,8.935 14.007,9.046 14.387,9.03C14.651,9.003 14.736,8.929 15.226,8.834L15.359,8.977C16.103,9.041 16.488,10.108 15.279,10.739C15.231,10.883 15.311,11.058 15.422,11.079C15.073,11.578 14.493,12.199 14.287,11.79C14.239,11.839 14.102,12.178 14.366,12.364C14.166,12.613 14.092,12.905 14.102,13.24C13.305,13.112 12.783,12.979 12.962,12.231C13.807,12.268 14.039,11.243 13.913,10.723C13.422,8.642 10.751,6.97 8.808,6.917C8.914,7.486 9.262,7.894 9.658,8.271C9.141,8.017 8.545,7.772 7.916,7.905C7.99,8.351 8.228,8.871 9.246,9.715C8.512,9.28 7.842,8.85 7.605,8.505C7.499,8.649 7.441,9.232 8.064,9.657C7.863,9.577 6.886,9.583 6.591,9.801C6.77,10.209 7.589,10.926 8.259,11.149C7.62,11.053 7.024,10.798 6.48,10.332C6.401,10.406 6.48,11.165 7.161,11.462C6.94,11.478 6.19,11.69 6,11.929C6.391,12.454 7.393,12.917 7.889,12.917C7.214,13.007 6.47,12.868 6.163,12.773C6.169,12.948 6.026,13.649 7.879,13.532C7.219,13.845 6.216,14.503 6.058,15.077C6.702,15.364 7.852,15.125 8.449,14.939C6.686,16.022 6.411,16.133 6.084,16.058C6.512,16.966 7.541,16.35 8.428,15.846C7.336,17.317 7.156,18.065 7.182,19.111C8.064,19.005 9.336,17.736 10.017,16.653C9.231,18.282 8.761,19.588 7.906,19.976C8.882,20.363 9.721,19.132 10.312,17.821C10.085,18.648 9.995,20.406 10.281,20.835C11.162,20.235 11.833,18.898 12.281,17.364C12.128,18.118 12.018,18.877 11.738,19.63C12.308,19.736 12.598,18.712 12.788,18.112C12.804,18.144 12.825,18.17 12.883,18.223C13.601,17.698 13.828,16.483 13.88,16.01C14.535,16.196 14.825,15.957 14.989,15.835C15.132,16.037 15.142,16.345 15.184,16.387C14.472,15.803 13.712,16.387 13.68,17.358C13.601,17.762 13.39,18.229 12.851,18.59C12.883,18.632 12.962,18.653 13.057,18.648C12.962,18.813 12.878,18.951 12.719,19.099C12.761,19.126 12.809,19.126 12.862,19.137C12.74,19.338 12.545,19.524 12.344,19.625C12.392,19.673 12.418,19.689 12.566,19.726C12.434,19.902 12.217,20.066 12.012,20.151C12.403,20.384 12.698,20.411 12.941,20.39C12.788,20.698 12.54,20.852 12.297,20.99C12.371,21.059 12.466,21.075 12.54,21.054C12.318,21.282 12.086,21.462 11.88,21.532C11.917,21.558 11.943,21.601 12.08,21.59C11.933,21.776 11.748,21.956 11.426,22.041C11.489,22.163 11.621,22.147 11.732,22.147C11.642,22.338 11.368,22.402 11.088,22.46C11.299,22.519 11.442,22.636 11.315,22.604C11.231,22.705 11.147,22.758 10.967,22.79C10.782,22.817 10.111,22.578 9.843,22.667C9.769,22.513 9.584,22.407 9.389,22.407C9.141,22.407 8.898,22.566 8.882,22.79C8.845,22.763 8.682,22.742 8.708,22.933C8.766,23.045 8.771,23.14 9.124,23.278C9.183,23.305 9.251,23.316 9.341,23.316C9.467,23.31 9.61,23.246 9.716,23.151C9.895,23.188 10.09,23.22 10.196,23.263C9.916,23.284 9.815,23.443 9.657,23.555C9.588,23.555 9.536,23.533 9.472,23.523C9.435,23.517 9.399,23.512 9.361,23.512C9.161,23.523 8.955,23.751 8.934,24.011C8.934,24.064 8.944,24.112 8.966,24.16V24.202C8.902,24.276 8.928,24.335 8.987,24.377C9.235,24.473 9.377,24.415 9.467,24.399C9.688,24.372 9.879,24.187 9.879,23.979C10.142,23.931 10.401,23.857 10.549,23.751C10.555,23.767 10.56,23.783 10.56,23.804C10.47,23.857 10.317,23.948 10.238,24.213C10.211,24.213 10.19,24.213 10.169,24.213C9.868,24.213 9.794,24.42 9.799,24.595C9.799,24.76 9.863,24.871 9.952,24.935C9.936,25.041 9.947,25.126 10.053,25.158C10.412,25.216 10.502,25.025 10.57,25.03C10.57,24.982 10.576,24.951 10.591,24.919C10.703,24.866 10.776,24.823 10.787,24.616C10.797,24.489 10.776,24.409 10.734,24.356H10.745C11.072,24.075 11.283,23.852 11.426,23.661C11.552,23.692 11.838,23.682 11.975,23.634V23.687C11.838,23.814 11.927,24.117 12.101,24.106C12.096,24.133 12.096,24.159 12.101,24.191C12.212,24.26 12.423,24.212 12.581,24.249C12.666,24.239 12.703,24.186 12.682,24.074C12.808,23.994 12.898,23.856 12.877,23.687C12.877,23.448 12.692,23.257 12.46,23.241C12.212,23.214 11.98,23.389 12.028,23.007C12.703,22.206 13.622,20.99 13.875,20.847C13.854,20.82 13.843,20.789 13.827,20.752C13.927,21.017 14.302,21.298 14.703,21.272C14.63,21.134 14.55,21.012 14.524,20.646C14.583,20.731 14.682,20.773 14.81,20.8C14.625,19.945 14.9,19.239 15.47,18.597C15.422,19.425 15.322,20.258 14.82,21.097C15.079,21.177 15.411,20.917 15.459,20.758C15.512,21.5 14.81,22.462 14.261,22C13.918,22.764 14.736,23.13 15.248,22.689C15.158,23.151 14.804,23.422 14.414,23.528C14.023,23.634 13.617,23.469 13.875,22.838C13.823,22.806 13.036,22.785 13.015,23.644C13.036,24.138 13.374,24.329 13.4,24.334C12.281,25.183 13.411,26.134 14.33,25.953C15.058,25.841 15.475,25.242 15.739,24.811C15.659,25.125 15.327,26.117 16.172,27.2C17.006,25.889 16.652,25.008 16.631,24.869C17.285,25.883 17.935,25.957 18.314,25.936C18.969,25.947 19.892,24.917 18.716,24.254C19.317,23.967 19.36,22.767 18.51,22.709C18.684,23.181 18.314,23.468 17.908,23.431C17.502,23.393 17.127,23.16 16.984,22.629C17.787,23.017 18.156,22.253 17.882,21.844C17.201,22.412 16.874,21.499 16.784,20.958C16.958,21.09 17.112,21.138 17.402,21.095C16.848,20.379 16.716,19.413 16.668,18.51C17.048,19.115 17.417,19.854 17.407,20.581C17.497,20.538 17.576,20.528 17.729,20.209C17.745,20.75 17.681,20.825 17.497,21.053C17.798,21.18 18.188,20.936 18.373,20.613C18.954,21.398 19.582,22.21 20.189,22.836C20.321,22.974 20.368,23.112 20.12,23.16C19.339,22.868 19.254,23.691 19.582,23.803C19.555,23.877 19.55,23.957 19.571,24.036C19.724,24.084 20.041,23.956 20.125,23.951C20.162,23.914 20.162,23.839 20.162,23.765C20.242,23.765 20.295,23.717 20.331,23.653C20.484,23.685 20.632,23.702 20.827,23.542L21.408,24.126C21.44,24.142 21.376,24.206 21.461,24.216C21.397,24.604 21.545,24.646 21.671,24.747C21.645,25.119 22.199,24.906 22.252,24.927C22.31,24.89 22.315,24.853 22.305,24.811C22.368,24.741 22.336,24.709 22.315,24.662C22.59,24.237 22.199,23.914 21.983,23.951C21.751,23.697 21.587,23.59 21.402,23.437C21.782,23.58 22.368,23.745 22.537,23.866C22.601,24.302 22.981,24.121 23.261,24.137C23.345,24.015 23.303,23.978 23.261,23.935C23.625,23.458 22.854,23.07 22.527,23.352C22.331,23.171 22.163,23.14 21.989,23.065C22.062,22.99 22.215,22.932 22.569,22.911C22.727,23.017 22.881,23.054 23.039,22.938C23.108,23.086 23.239,23.049 23.287,23.022C23.403,22.889 23.403,22.688 23.434,22.502C23.403,22.433 23.355,22.39 23.266,22.396C23.028,21.987 22.569,22.237 22.542,22.417C22.147,22.449 21.793,22.502 21.375,22.667C21.239,22.709 21.106,22.561 20.99,22.47C21.096,22.428 21.191,22.38 21.186,22.29C21.017,22.274 20.853,22.29 20.658,22.083L20.711,21.945C20.557,21.897 20.399,21.786 20.199,21.473C20.241,21.446 20.278,21.404 20.315,21.335C20.088,21.282 19.903,21.16 19.755,20.985C19.808,20.958 19.861,20.91 19.909,20.836C19.698,20.709 19.497,20.597 19.09,20.066V20.061C19.518,20.13 19.961,20.092 20.22,19.896C20.009,19.837 19.644,19.716 19.476,19.397C19.555,19.391 19.602,19.376 19.655,19.359C19.338,19.147 19.253,19.036 19.169,18.86C19.238,18.866 19.333,18.833 19.365,18.791C19.159,18.696 19.069,18.568 18.995,18.43C19.079,18.43 19.169,18.446 19.237,18.398C18.425,18.032 18.541,16.121 17.664,16.116C17.273,16.147 17.205,16.232 17.004,16.333C17.063,16.169 17.162,16.015 17.268,15.866C17.743,16.089 18.123,15.962 18.25,15.85C18.313,16.62 18.561,17.442 19.089,17.851C19.179,17.798 19.289,17.734 19.353,17.66C19.447,18.371 19.712,19.311 20.308,19.232C20.034,18.546 20.039,17.857 20.007,17.167C20.255,19.178 20.873,20.352 21.379,20.707C21.611,20.394 21.785,18.929 21.675,18.043C22.176,18.95 22.731,19.794 23.195,19.789C23.406,19.789 23.639,19.614 23.782,19.572C23.053,19.274 22.557,17.926 22.114,17.088C22.953,18.409 23.95,19.004 24.421,19.094C24.437,18.686 24.526,17.544 23.481,15.957C25.349,16.95 25.746,16.308 25.856,15.968C25.012,16.265 23.876,15.172 23.117,14.826L23.106,14.795C24.219,15.304 25.313,15.479 25.994,15.049C25.413,14.146 24.848,13.818 24.236,13.584C25.445,13.717 25.84,13.308 25.866,12.851C25.423,13 25.017,13.027 24.489,12.942C25.645,12.709 25.856,12.215 25.845,12.167C25.549,11.934 24.99,11.674 24.484,11.626C25.877,11.122 25.434,10.644 25.381,10.495C24.948,10.904 24.194,11.196 24.056,11.185C24.706,10.845 25.27,9.948 25.234,9.848C24.906,9.678 24.236,9.689 23.962,9.768C24.231,9.471 24.59,8.956 24.262,8.531C23.945,8.982 23.645,9.216 23.349,9.455C23.623,9.11 23.935,8.712 24.046,7.9C23.64,7.953 23.27,7.916 22.742,8.266C23.043,7.884 23.233,7.513 23.27,7.056C21.449,7.183 19.316,8.144 18.287,10.544C17.986,11.25 18.224,12.444 19.158,12.306C19.306,12.911 18.91,13.277 18.044,13.251C18.028,13.049 18.087,12.646 17.844,12.439C18.055,12.422 18.097,12.316 18.14,12.227C17.575,12.094 17.665,11.908 17.77,10.9C17.844,10.932 17.928,10.91 17.992,10.852C17.76,10.634 17.834,10.236 17.955,8.978C17.976,8.432 17.865,8.155 17.744,8.06C17.817,8.022 17.865,7.964 17.828,7.826C18.087,7.778 17.976,7.46 17.87,7.354C17.817,7.498 17.596,7.551 17.384,7.392C17.643,7.275 17.643,6.983 17.448,6.781L17.455,6.769ZM18.51,20.299C18.51,20.299 18.527,20.321 18.537,20.331C18.527,20.321 18.521,20.315 18.51,20.305V20.299ZM13.179,20.336C13.152,20.432 13.2,20.692 13.206,20.861C13.29,20.904 13.443,20.861 13.618,20.792C13.607,20.792 13.596,20.803 13.591,20.803C13.459,20.851 13.3,20.904 13.206,20.861L13.174,20.474C13.168,20.432 13.168,20.384 13.18,20.331L13.179,20.336ZM13.116,20.353C13.116,20.353 13.084,20.363 13.073,20.363C13.09,20.363 13.105,20.358 13.116,20.353ZM18.621,20.4C18.816,20.543 19.054,20.543 19.138,20.522C19.138,20.512 19.149,20.501 19.154,20.49C19.154,20.501 19.149,20.517 19.144,20.528C18.964,20.554 18.785,20.527 18.621,20.4ZM16.921,23.85C17.1,24.041 17.803,24.561 18.61,24.312C18.679,24.773 18.288,24.944 17.982,24.885C17.681,24.821 17.233,24.582 16.921,23.855V23.85ZM15.311,23.967C15.048,24.471 14.615,24.895 14.224,24.997C13.839,25.098 13.475,24.906 13.617,24.396C14.456,24.678 15.137,24.179 15.311,23.961V23.967Z" fill-rule="evenodd" id="path_2"/><path fill="url(#gradient_0)" d="M11.511,12.364C10.909,14.1 13.506,14.37 14.197,14.418L14.113,13.982C12.857,13.924 11.685,13.648 11.859,12.698C11.632,12.554 11.585,12.491 11.511,12.358V12.364Z" fill-rule="evenodd" id="path_3"/><path fill="url(#gradient_1)" d="M11.511,12.359C11.374,12.428 11.173,12.46 10.978,12.486C10.477,14.593 13.723,14.758 14.346,14.838C14.251,14.641 14.224,14.54 14.198,14.413C12.551,14.306 11.031,13.686 11.511,12.359Z" fill-rule="evenodd" id="path_4"/><path fill="#c3bdc9" d="M20.093,10.198C20.273,10.575 20.468,11.021 20.605,11.441C20.684,11.324 20.758,11.207 20.917,11.074C20.832,10.676 20.631,10.257 20.088,10.193L20.093,10.198Z" fill-rule="evenodd" id="path_5"/><path fill="#ffffff" d="M20.093,10.193C20.278,10.581 20.489,11.042 20.611,11.441L20.167,11.377C19.904,11.09 19.84,10.517 20.093,10.193Z" fill-rule="evenodd" id="path_6"/><path fill="#c3bdc9" d="M19.413,11.132C19.529,11 19.772,10.957 19.967,10.995C20.009,11.106 20.083,11.26 20.162,11.377L19.407,11.133H19.413V11.132Z" fill-rule="evenodd" id="path_7"/><path fill="#c3bdc9" d="M21.366,10.676L20.917,11.08L21.213,11.234C21.451,11.033 21.382,10.671 21.371,10.677H21.366V10.676Z" fill-rule="evenodd" id="path_8"/><path fill="#c3bdc9" d="M20.917,11.074C20.844,11.09 20.595,11.44 20.611,11.435L21.735,12.014C21.736,11.817 21.561,11.334 20.917,11.074Z" fill-rule="evenodd" id="path_9"/><path fill="#c3bdc9" d="M20.606,11.435L19.793,12.491C20.311,12.47 20.521,12.237 20.701,11.95L20.601,11.44L20.606,11.435Z" fill-rule="evenodd" id="path_10"/><path fill="#ffffff" d="M21.366,10.676C21.191,10.617 20.959,10.638 20.801,10.724C20.853,10.836 20.89,10.979 20.917,11.08L21.366,10.676Z" fill-rule="evenodd" id="path_11"/><path fill="#ffffff" d="M20.606,11.435L21.741,12.015C21.535,12.185 20.881,12.025 20.701,11.951L20.606,11.435Z" fill-rule="evenodd" id="path_12"/><path fill="#ffffff" d="M20.606,11.435L20.162,11.372C19.672,11.579 19.756,12.423 19.793,12.486L20.606,11.435Z" fill-rule="evenodd" id="path_13"/><path fill="#ffffff" d="M20.157,11.377L19.413,11.133C19.45,11.313 19.672,11.521 19.835,11.59C19.872,11.558 20.036,11.404 20.157,11.377Z" fill-rule="evenodd" id="path_14"/><path fill="url(#gradient_2)" d="M20.717,11.95C20.58,12.157 20.538,12.21 20.385,12.311C20.648,13.532 18.906,13.834 17.898,13.978C17.888,14.147 17.835,14.286 17.787,14.418C17.966,14.407 21.54,14.339 20.717,11.95Z" fill-rule="evenodd" id="path_15"/><path fill="#c3bdc9" d="M20.738,11.966C21.218,13.739 19.646,14.244 17.793,14.413C17.745,14.525 17.703,14.642 17.661,14.769C20.178,14.594 21.493,13.776 21.15,12.067C20.986,12.04 20.859,12.003 20.738,11.966Z" fill-rule="evenodd" id="path_16"/><path fill="#ffffff" d="M8.982,24.387C9.183,24.482 9.437,24.418 9.569,24.376C9.642,24.445 9.548,24.721 9.758,24.918C9.637,24.971 8.967,24.764 8.978,24.387H8.982Z" fill-rule="evenodd" id="path_17"/><path fill="#ffffff" d="M8.698,22.927C8.782,23.198 9.02,23.225 9.115,23.283C9.115,23.384 8.851,23.378 8.845,23.75C8.666,23.734 8.412,23.31 8.698,22.933V22.927Z" fill-rule="evenodd" id="path_18"/><path fill="#ffffff" d="M10.044,25.156C10.372,25.21 10.488,25.034 10.561,25.023C10.599,25.13 10.746,25.273 10.889,25.348C10.82,25.592 10.028,25.539 10.044,25.156Z" fill-rule="evenodd" id="path_19"/><path fill="#ffffff" d="M12.572,24.254C12.551,24.212 12.177,24.254 12.108,24.195C12.06,24.254 12.044,24.445 11.907,24.52C11.997,24.684 12.625,24.631 12.572,24.248V24.254Z" fill-rule="evenodd" id="path_20"/><path fill="#dfdde2" d="M13.284,20.888C13.342,20.883 13.395,20.872 13.442,20.861C13.221,21.126 12.851,21.594 12.481,21.987C12.112,22.38 11.774,22.767 11.901,23.123C11.642,22.868 11.874,22.613 12.218,22.199C12.598,21.749 13.021,21.233 13.284,20.888ZM12.82,23.739C12.82,23.919 12.667,24.09 12.303,24.073C12.715,23.622 11.88,23.59 12.082,23.405C12.63,23.054 12.863,23.596 12.82,23.739ZM12.429,24.137C12.551,24.164 12.625,24.015 12.651,24.089C12.704,24.237 12.434,24.264 12.429,24.137ZM9.647,22.566C9.563,22.566 9.589,22.906 9.088,22.889C9.077,22.889 9.029,22.889 9.003,22.937C8.945,23.049 9.146,23.282 9.331,23.272C9.495,23.261 9.627,23.166 9.711,23.049C9.749,23.028 10.012,22.879 9.991,22.943C9.68,23.097 9.759,23.193 10.25,23.23C10.561,23.182 10.825,22.911 10.936,22.858C10.619,22.911 9.943,22.699 9.79,22.699C9.769,22.64 9.722,22.593 9.647,22.566ZM9.093,24.307C9.083,24.333 9.067,24.355 9.046,24.37C9.136,24.429 9.368,24.413 9.394,24.391C9.368,24.391 9.173,24.381 9.088,24.307H9.093Z" fill-rule="evenodd" id="path_21"/><path fill="#ffffff" d="M19.592,24.025C19.792,24.073 20.036,23.945 20.152,23.94C20.204,24.047 20.226,24.163 20.448,24.238C20.3,24.403 19.751,24.456 19.592,24.02V24.025Z" fill-rule="evenodd" id="path_22"/><path fill="#ffffff" d="M21.815,24.934C21.741,25.008 21.662,25.082 21.519,25.167C21.767,25.396 22.274,25.14 22.253,24.917C22.205,24.832 22.063,25.018 21.809,24.934H21.815Z" fill-rule="evenodd" id="path_23"/><path fill="#ffffff" d="M22.786,24.137C22.786,24.435 22.754,24.514 22.717,24.616C22.859,24.711 23.223,24.483 23.266,24.132C23.229,24.047 23.071,24.195 22.786,24.137Z" fill-rule="evenodd" id="path_24"/><path fill="#ffffff" d="M23.456,22.496C23.351,22.523 23.414,22.883 23.292,22.995C23.393,23.048 23.461,23.181 23.53,23.303C23.762,23.128 23.751,22.624 23.456,22.496Z" fill-rule="evenodd" id="path_25"/><path fill="#dfdde2" d="M19.846,23.994C19.957,23.962 20.078,23.903 20.12,23.92C20.189,23.681 20.03,23.819 19.846,23.994ZM19.687,23.803C19.904,23.803 20.209,23.84 20.289,23.549C20.627,23.713 20.98,23.4 20.901,23.108C20.901,23.108 20.79,23.607 20.093,23.294C19.951,23.273 19.761,23.363 19.771,23.459C19.782,23.581 20.02,23.687 19.687,23.809V23.803ZM21.54,23.559C21.719,23.739 21.83,23.909 21.793,24.041C21.904,23.882 21.915,23.978 21.936,24.041C22.068,24.142 22.163,24.45 21.835,24.652C21.989,24.694 22.004,24.832 21.835,24.88C21.841,25.024 22.231,24.843 22.263,24.902C22.294,24.891 22.305,24.843 22.31,24.8C22.342,24.758 22.348,24.705 22.31,24.641C22.559,24.222 22.252,23.994 21.983,23.946C21.819,23.776 21.676,23.675 21.534,23.559H21.54ZM21.551,23.108C21.814,23.277 22.179,23.41 22.522,23.633C22.865,23.288 23.119,23.855 22.627,23.893C22.754,24.121 23.277,24.105 23.261,23.925C23.588,23.303 22.701,23.15 22.527,23.373C22.258,23.219 22.015,23.049 21.629,22.98C22.389,23.309 22.521,23.409 22.389,23.431C22.268,23.448 21.841,23.203 21.551,23.108ZM21.782,22.63C21.993,22.539 22.448,22.55 22.569,22.439C22.769,22.073 23.139,22.168 23.261,22.407C23.345,22.407 23.408,22.423 23.419,22.492C23.34,22.667 23.392,23.092 23.171,22.985C23.213,22.953 23.192,22.922 23.171,22.89C23.076,22.985 23.076,22.879 23.076,22.831C22.933,22.996 22.865,22.969 22.764,22.943C22.791,22.932 22.802,22.905 22.796,22.858C23.208,22.699 22.849,22.215 22.516,22.667C22.405,22.699 21.957,22.598 21.788,22.619L21.782,22.63ZM18.5,20.31L18.484,20.359C18.653,20.513 20.115,22.131 20.548,22.821C20.484,22.673 20.51,22.614 20.252,22.301C20.912,22.673 21.239,22.343 21.196,22.269C21.144,22.275 21.106,22.285 21.08,22.269C20.468,22.582 20.014,22.062 19.745,21.717C20.088,21.993 20.31,22.041 20.668,22.062C20.706,21.999 20.711,21.967 20.716,21.935C20.685,21.929 20.653,21.919 20.632,21.903C20.215,22.062 19.719,21.744 19.328,21.213C19.698,21.484 19.967,21.457 20.22,21.457C20.257,21.409 20.315,21.372 20.32,21.314C20.283,21.314 20.257,21.303 20.226,21.292C19.967,21.383 19.323,21.351 19.017,20.815C19.227,20.958 19.465,21.043 19.766,20.969C19.824,20.921 19.892,20.878 19.903,20.825C19.528,20.921 19.164,20.921 18.832,20.624C18.927,20.624 19.027,20.592 19.128,20.544C18.932,20.56 18.726,20.544 18.494,20.31H18.5Z" fill-rule="evenodd" id="path_26"/><path fill="#c3bdc9" d="M13.971,8.782C14.699,9.175 15.534,8.282 16.119,8.765C16.182,8.765 16.193,8.723 16.182,8.68C15.501,8.064 14.773,8.974 13.971,8.782Z" fill-rule="evenodd" id="path_27"/><path fill="#c3bdc9" d="M13.707,19.997L13.648,20.055C13.58,20.374 13.411,20.634 13.215,20.878C13.395,20.905 13.611,20.809 13.817,20.713C13.685,20.469 13.659,20.305 13.701,19.992L13.707,19.997Z" fill-rule="evenodd" id="path_28"/><path fill="#dfdde2" d="M13.913,19.566C14.013,19.768 14.209,19.439 14.298,19.349C14.176,19.784 13.934,20.224 14.462,20.633C14.193,20.66 14.119,20.777 14.367,21.047C13.875,20.803 13.601,20.405 13.913,19.566Z" fill-rule="evenodd" id="path_29"/><path fill="#cecad5" d="M14.319,19.327C14.15,20.188 14.43,20.527 14.71,20.607C14.604,19.678 14.974,19.01 15.486,18.505C15.454,17.64 15.333,17.247 15.238,16.626C15.243,16.918 15.449,17.709 15.312,18.261C15.169,18.84 14.758,19.397 14.325,19.333L14.319,19.327Z" fill-rule="evenodd" id="path_30"/><path fill="#c3bdc9" d="M12.614,20.221C13.1,20.253 13.496,20.098 13.818,19.769C13.643,20.199 13.242,20.407 12.646,20.343C12.863,20.306 12.867,20.268 12.614,20.221Z" fill-rule="evenodd" id="path_31"/><path fill="#c3bdc9" d="M12.556,19.721C12.508,19.795 12.472,19.827 12.434,19.864C13.2,19.965 13.627,19.599 13.918,19.275C14.34,19.301 14.635,19.02 14.889,18.739C14.604,18.967 14.308,19.153 13.976,19.111C13.648,19.588 13.184,19.811 12.556,19.716V19.721Z" fill-rule="evenodd" id="path_32"/><path fill="#c3bdc9" d="M12.857,19.137C12.799,19.259 12.783,19.253 12.752,19.296C13.01,19.349 13.369,19.248 13.976,18.739C14.578,18.722 14.826,18.33 15,18.155C14.683,18.431 14.356,18.58 14.029,18.584C13.712,18.914 13.364,19.179 12.862,19.137H12.857Z" fill-rule="evenodd" id="path_33"/><path fill="#c3bdc9" d="M13.052,18.654L12.941,18.824C13.152,18.813 13.427,18.824 14.012,18.277C14.461,18.182 14.868,17.842 15.222,17.248C14.926,17.614 14.656,18.001 14.065,18.054C13.912,18.405 13.511,18.548 13.052,18.649V18.654H13.052Z" fill-rule="evenodd" id="path_34"/><path fill="#c3bdc9" d="M17.993,19.37C17.951,19.683 17.882,19.965 17.745,20.182C17.761,20.283 17.756,20.389 17.751,20.49C17.962,20.273 18.114,19.662 17.993,19.37Z" fill-rule="evenodd" id="path_35"/><path fill="#c3bdc9" d="M18.299,19.52C18.526,20.109 18.32,20.894 17.602,21.032C17.824,21.128 18.494,20.82 18.589,19.907L19.138,20.528C19.17,20.385 19.186,20.241 19.085,20.029C18.652,19.939 18.51,19.764 18.305,19.52H18.299Z" fill-rule="evenodd" id="path_36"/><path fill="#c5bdcb" d="M18.653,19.71C18.948,19.837 19.465,20.034 19.982,19.806C20.062,19.837 20.136,19.864 20.214,19.875C20.04,20.061 19.544,20.104 19.09,20.045C19.714,19.96 18.769,19.89 18.653,19.71Z" fill-rule="evenodd" id="path_37"/><path fill="#c4bdcb" d="M17.623,18.659C17.84,18.813 18.077,18.903 18.352,18.903C18.558,19.29 19.149,19.402 19.481,19.38C19.497,19.433 19.534,19.482 19.576,19.524C19.296,19.524 18.937,19.433 18.388,19.083C18.241,19.031 17.718,18.786 17.623,18.659Z" fill-rule="evenodd" id="path_38"/><path fill="#c3bdc9" d="M17.512,18.075C17.729,18.255 17.961,18.346 18.215,18.378C18.473,18.653 18.78,18.797 19.18,18.85L19.265,18.998C19.138,19.009 18.531,18.738 18.309,18.531C17.935,18.436 17.655,18.25 17.518,18.08L17.512,18.075Z" fill-rule="evenodd" id="path_39"/><path fill="#c3bdc9" d="M17.56,17.607C17.808,17.851 18.088,17.952 18.315,17.952C18.484,18.133 18.643,18.319 19.001,18.414C19.017,18.462 19.038,18.504 19.064,18.536C18.795,18.536 18.42,18.154 18.378,18.096C18.014,18.043 17.602,17.857 17.555,17.613L17.56,17.607Z" fill-rule="evenodd" id="path_40"/><path fill="#dfdde2" d="M15.401,16.504C15.481,16.472 15.517,16.43 15.555,16.387C15.618,16.478 15.713,16.499 15.803,16.52C15.628,16.514 15.607,16.594 15.692,16.743C15.729,16.801 15.787,17.667 15.803,18.187C15.803,18.67 15.872,18.983 15.967,19.195C15.586,18.872 15.798,16.929 15.401,16.51V16.504Z" fill-rule="evenodd" id="path_41"/><path fill="#cecad5" d="M16.035,16.541C16.246,16.52 16.457,16.51 16.71,16.355L16.8,16.462C16.621,16.86 16.515,17.794 16.404,18.632C16.436,18.096 16.447,17.619 16.421,17.486C16.362,17.183 16.373,17.003 16.378,16.95C16.494,16.531 16.178,16.631 16.035,16.536L16.035,16.541Z" fill-rule="evenodd" id="path_42"/><path fill="#c3bdc9" d="M16.885,16.51L16.911,16.537C16.552,17.322 16.911,19.122 16.141,20.029L16.125,19.679C16.71,19.291 16.563,17.306 16.885,16.51Z" fill-rule="evenodd" id="path_43"/><path fill="#c3bdc9" d="M15.591,18.447C15.591,19.731 15.797,19.976 14.926,21.048C15.333,20.708 15.787,19.668 15.728,20.263C15.829,20.072 15.929,19.88 15.955,19.716C15.618,19.137 15.633,18.802 15.591,18.447Z" fill-rule="evenodd" id="path_44"/><path fill="#c3bdc9" d="M16.298,19.864L16.135,20.061L16.182,21.759C16.203,21.053 16.241,20.406 16.298,19.864Z" fill-rule="evenodd" id="path_45"/><path fill="#dfdde2" d="M16.684,18.627C16.641,18.892 16.61,19.206 16.541,19.381C16.657,20.739 17.027,20.872 17.332,20.994C16.821,20.267 16.721,19.291 16.684,18.627Z" fill-rule="evenodd" id="path_46"/><path fill="#e0dee2" d="M15.702,20.411C15.544,20.772 15.597,21.462 15.153,21.908C15.523,21.717 15.665,21.255 15.676,20.894L15.713,21.277C15.591,22.057 15.238,22.269 14.995,22.311C15.033,22.301 15.418,22.381 15.776,21.595C15.787,21.882 15.586,22.2 15.328,22.306C15.555,22.311 15.782,22.104 15.898,21.94C15.713,21.383 15.708,20.894 15.713,20.406L15.702,20.411Z" fill-rule="evenodd" id="path_47"/><path fill="#c3bdc9" d="M15.876,21.578C15.913,21.764 15.971,22.034 16.177,22.299L16.193,22.629C16.288,22.502 16.657,21.451 16.662,21.106C16.679,20.994 16.684,20.867 16.763,20.951C16.774,20.957 16.784,20.957 16.795,20.951C16.684,20.872 16.563,20.495 16.478,20.368C16.546,20.776 16.594,21.36 16.177,22.231C16.05,22.083 15.96,21.838 15.876,21.588V21.578Z" fill-rule="evenodd" id="path_48"/><path fill="#dfdde2" d="M17.661,22.247C17.212,22.48 16.827,21.917 16.636,21.572L16.721,21.1C16.721,21.1 16.758,21.073 16.769,21.095C16.842,21.615 17.17,22.225 17.656,22.252L17.661,22.247Z" fill-rule="evenodd" id="path_49"/><path fill="#dfdde1" d="M16.557,21.753L16.509,21.897C16.684,22.284 16.89,22.417 17.153,22.518C16.631,22.257 16.594,22.009 16.557,21.753Z" fill-rule="evenodd" id="path_50"/><path fill="#dfdde2" d="M16.056,22.417L16.193,22.656L16.298,22.423C16.277,23.055 16.24,23.813 16.219,24.515C16.161,23.808 16.082,23.076 16.056,22.417Z" fill-rule="evenodd" id="path_51"/><path fill="#c3bdc9" d="M16.462,22.024C16.452,22.062 16.435,22.094 16.425,22.115C16.889,23.845 16.34,24.763 16.219,24.901C15.897,24.328 15.902,23.765 15.828,23.283C15.87,23.718 15.823,24.281 16.198,24.981V25.268C16.657,24.7 16.937,23.904 16.583,22.19C16.53,22.147 16.504,22.084 16.461,22.031L16.462,22.024Z" fill-rule="evenodd" id="path_52"/><path fill="#dfdde2" d="M16.05,25.108C16.087,25.172 16.124,25.235 16.203,25.288C16.304,25.182 16.325,25.129 16.367,25.06C16.283,25.517 16.246,25.968 16.182,26.419C16.14,25.973 16.108,25.484 16.05,25.103V25.108Z" fill-rule="evenodd" id="path_53"/><path fill="#c3bdc9" d="M16.864,25.182C16.763,24.96 16.647,24.774 16.721,24.529C16.705,24.455 16.673,24.444 16.641,24.428C16.62,24.561 16.573,24.651 16.536,24.741C16.71,25.792 16.462,26.355 16.177,26.833C15.707,26.196 15.792,25.511 15.786,24.922C15.649,26.117 15.934,26.637 16.171,26.907V27.199C16.842,26.212 16.778,25.288 16.63,24.853C16.704,24.965 16.773,25.086 16.868,25.187L16.864,25.182Z" fill-rule="evenodd" id="path_54"/><path fill="#c4bec9" d="M14.325,22.168C14.415,23.033 15.507,22.773 15.95,22.115L15.908,21.998C15.496,22.534 14.615,23.017 14.325,22.168Z" fill-rule="evenodd" id="path_55"/><path fill="#dfdde2" d="M15.85,22.485C15.448,23.324 14.963,23.919 14.298,23.977C14.752,24.014 15.238,23.642 15.39,23.483C15.501,23.293 15.638,23.223 15.501,23.483C15.448,23.574 15.396,23.638 15.311,23.722C15.417,23.68 15.639,23.335 15.686,23.303C15.707,22.942 15.787,22.74 15.85,22.491V22.485Z" fill-rule="evenodd" id="path_56"/><path fill="#c3beca" d="M15.686,23.325C15.681,23.42 15.67,23.516 15.67,23.595C15.037,24.249 14.493,24.456 13.912,24.317C14.393,24.328 14.947,24.381 15.686,23.325Z" fill-rule="evenodd" id="path_57"/><path fill="#dfdde2" d="M13.639,23.702C13.501,23.357 13.554,23.075 13.797,22.863C13.3,22.853 12.762,23.782 13.681,24.249C13.221,23.978 13.2,23.415 13.347,23.229C13.448,23.07 13.596,23.022 13.49,23.203C13.421,23.495 13.549,23.638 13.633,23.696L13.639,23.702Z" fill-rule="evenodd" id="path_58"/><path fill="#dfdde2" d="M16.61,22.236C16.705,22.385 16.821,22.518 16.969,22.608C16.927,23.457 17.856,24.015 18.484,23.776C18.125,24.041 16.937,23.977 16.61,22.231V22.236Z" fill-rule="evenodd" id="path_59"/><path fill="#c5c0ce" d="M16.748,23.304V23.405C17.181,24.132 17.914,24.158 18.136,24.132C17.455,24.121 17.027,23.803 16.748,23.304Z" fill-rule="evenodd" id="path_60"/><path fill="#e1dfe3" d="M18.642,22.773C19.218,23.177 19.059,23.803 18.442,24.063C18.917,23.75 19.154,23.34 18.642,22.773Z" fill-rule="evenodd" id="path_61"/><path fill="#c3bdc9" d="M17.966,24.237C18.515,24.338 19.439,23.903 18.943,22.942C19.445,23.532 18.885,24.583 17.966,24.237Z" fill-rule="evenodd" id="path_62"/><path fill="#e0dee3" d="M16.747,23.881C16.747,23.934 16.742,23.972 16.726,24.062C17.196,25.001 17.46,25.065 17.761,25.309C17.19,24.885 16.9,24.397 16.747,23.881Z" fill-rule="evenodd" id="path_63"/><path fill="#c5becc" d="M17.518,25.65C17.618,25.692 17.692,25.66 17.777,25.692C18.494,25.942 19.381,25.517 19.117,24.641C19.587,25.103 18.721,26.424 17.523,25.65H17.518Z" fill-rule="evenodd" id="path_64"/><path fill="#c3beca" d="M18.78,24.387C19.323,24.928 18.764,25.677 18.041,25.421C18.811,25.528 19.096,24.886 18.78,24.387Z" fill-rule="evenodd" id="path_65"/><path fill="#dfdde2" d="M13.501,24.381C12.756,24.874 13.168,25.479 13.511,25.623C13.379,25.527 13.242,25.187 13.648,25.373C13.781,25.432 13.901,25.437 14.018,25.426C13.258,25.177 13.427,24.768 13.501,24.375V24.381Z" fill-rule="evenodd" id="path_66"/><path fill="#dfdde2" d="M15.676,23.697C15.692,23.951 15.723,24.158 15.76,24.318C15.522,24.796 15.232,25.12 14.937,25.348C15.285,25.008 15.555,24.669 15.671,24.313C15.063,25.263 14.646,25.412 14.214,25.433C14.752,25.31 15.538,24.843 15.681,23.702L15.676,23.697Z" fill-rule="evenodd" id="path_67"/><path fill="#c3bec9" d="M15.766,24.355C15.782,24.429 15.803,24.509 15.845,24.567C15.08,26.048 14.061,26.006 13.712,25.883C14.372,25.952 14.145,25.83 13.929,25.793C14.71,25.82 15.401,25.283 15.766,24.359V24.355Z" fill-rule="evenodd" id="path_68"/><path fill="#c5becb" d="M15.137,16.212C15.238,16.143 15.285,16.063 15.337,15.983C15.359,16.026 15.396,16.058 15.449,16.095C15.306,16.143 15.253,16.356 15.175,16.356C15.164,16.308 15.158,16.254 15.137,16.207V16.212Z" fill-rule="evenodd" id="path_69"/><path fill="#c3bdc9" d="M15.459,16.101C15.675,16.181 15.897,16.17 16.166,15.979C16.193,16.005 16.225,16.032 16.256,16.063C15.998,16.25 15.57,16.201 15.454,16.101H15.459Z" fill-rule="evenodd" id="path_70"/><path fill="#c3bdc9" d="M16.383,16.096C16.536,16.122 16.689,16.159 16.884,16.047C16.911,16.085 16.942,16.117 16.968,16.143C16.905,16.207 16.573,16.202 16.377,16.095L16.383,16.096Z" fill-rule="evenodd" id="path_71"/><path fill="#c3bdc9" d="M17.017,15.687C17.065,15.719 17.154,15.809 17.238,15.857C17.175,15.947 17.112,16.048 17.049,16.165C16.763,15.915 16.963,15.655 17.017,15.687Z" fill-rule="evenodd" id="path_72"/><path fill="#c3bdc9" d="M14.942,15.756C14.984,15.815 15.011,15.852 15.037,15.894C15.211,15.772 15.269,15.639 15.327,15.511C15.3,15.495 15.279,15.474 15.258,15.437C15.121,15.681 15.037,15.713 14.941,15.761V15.756H14.942Z" fill-rule="evenodd" id="path_73"/><path fill="#c3bdc9" d="M15.338,15.517L15.317,15.554C15.66,15.751 16.22,15.9 16.927,15.538L16.858,15.394C16.399,15.756 15.882,15.82 15.338,15.517Z" fill-rule="evenodd" id="path_74"/><path fill="#c3bdc9" d="M16.985,15.512C17.185,15.474 17.117,15.22 17.306,15.145C17.613,15.607 18.14,15.49 18.352,15.135L18.383,15.395C18.183,15.522 17.914,15.75 17.465,15.538C17.427,15.613 17.422,15.729 17.417,15.862C17.222,15.799 17.064,15.692 16.985,15.512Z" fill-rule="evenodd" id="path_75"/><path fill="#c3bdc9" d="M17.608,14.652C17.687,14.8 17.608,15.146 17.618,15.263C17.471,15.242 17.386,15.12 17.307,15.019C17.323,15.019 17.334,15.014 17.339,14.998C17.354,14.902 17.533,14.858 17.608,14.652Z" fill-rule="evenodd" id="path_76"/><path fill="#c3beca" d="M16.262,15.076L16.246,15.097C16.483,15.182 16.969,15.225 17.317,14.991L17.254,14.879C17.011,15.087 16.7,15.188 16.262,15.076Z" fill-rule="evenodd" id="path_77"/><path fill="#c3bdc9" d="M16.124,14.997C16.166,15.028 16.208,15.06 16.246,15.071C15.924,15.369 15.454,15.289 14.984,15.039C14.984,15.023 14.984,15.012 14.984,14.997C15.528,15.294 15.908,15.209 16.124,14.997Z" fill-rule="evenodd" id="path_78"/><path fill="#c3bec9" d="M14.958,14.997C15.074,15.177 14.784,15.236 14.779,15.507L14.663,15.363C14.663,15.188 14.895,15.215 14.953,14.997H14.958Z" fill-rule="evenodd" id="path_79"/><path fill="#c3bec9" d="M14.641,15.304L14.42,14.964C14.188,14.656 14.958,14.598 14.873,14.025C14.921,14.062 14.974,14.115 15.021,14.142C14.994,14.603 14.588,14.592 14.583,14.906C14.531,14.884 14.504,14.836 14.493,14.773C14.472,14.789 14.467,14.789 14.446,14.81C14.351,14.932 14.493,15.001 14.635,15.299L14.641,15.304Z" fill-rule="evenodd" id="path_80"/><path fill="#c3bdc9" d="M14.852,14.684C15.08,14.715 15.301,14.684 15.512,14.482C15.55,14.519 15.576,14.556 15.628,14.588C15.359,14.752 14.994,14.774 14.852,14.684Z" fill-rule="evenodd" id="path_81"/><path fill="#c5becb" d="M15.639,14.593L15.612,14.614C15.987,14.832 16.51,14.827 16.79,14.636C16.748,14.614 16.716,14.583 16.684,14.556C16.346,14.806 15.845,14.726 15.639,14.598V14.593Z" fill-rule="evenodd" id="path_82"/><path fill="#c4bec9" d="M16.8,14.636L16.779,14.663C17.043,14.769 17.376,14.758 17.602,14.631C17.586,14.588 17.571,14.546 17.539,14.508C17.291,14.705 17.043,14.689 16.795,14.636H16.8Z" fill-rule="evenodd" id="path_83"/><path fill="#c4bec9" d="M15.063,14.169C15.454,14.37 15.882,14.238 16.114,14.031C16.156,14.084 16.193,14.111 16.235,14.137C15.945,14.392 15.196,14.361 15.063,14.169Z" fill-rule="evenodd" id="path_84"/><path fill="#c3bdc9" d="M16.246,14.143L16.225,14.159C16.578,14.403 17.117,14.255 17.259,14.159C17.243,14.1 17.222,14.053 17.207,14.01C16.958,14.223 16.589,14.292 16.246,14.138V14.143Z" fill-rule="evenodd" id="path_85"/><path fill="#c3bdc9" d="M14.071,13.643L14.124,13.67C14.176,13.59 14.224,13.575 14.245,13.607C14.266,13.638 14.224,13.691 14.283,13.744C14.462,13.601 14.884,13.501 14.932,13.288C15.011,13.505 15.27,13.51 15.481,13.882C15.433,13.601 15.143,13.521 15.022,13.33C14.906,13.139 14.974,12.901 15.07,12.592C14.874,12.857 15.028,13.24 14.706,13.409C14.5,13.515 14.115,13.494 14.072,13.638L14.071,13.643Z" fill-rule="evenodd" id="path_86"/><path fill="#c3bdc9" d="M15.76,12.294L15.771,12.549C15.438,12.682 15.697,13.52 15.565,13.706C15.512,12.989 15.216,12.729 15.76,12.299V12.294Z" fill-rule="evenodd" id="path_87"/><path fill="#c3bdc9" d="M16.029,12.905H16.071C16.114,13.373 16.604,13.42 16.689,13.882C16.584,13.563 16.309,13.468 16.156,13.298C16.072,13.66 15.639,13.766 15.534,13.967C15.501,13.802 16.13,13.569 16.029,12.905Z" fill-rule="evenodd" id="path_88"/><path fill="#c3bdc9" d="M16.774,12.454C16.515,12.863 17.027,13.123 16.753,13.802C16.895,12.915 16.277,12.985 16.668,12.342C16.805,12.475 17.27,12.607 17.312,12.831C17.154,12.608 16.916,12.592 16.774,12.448V12.454Z" fill-rule="evenodd" id="path_89"/><path fill="#c3bdc9" d="M17.307,12.894C17.355,13.054 17.397,13.112 17.439,13.218C17.296,13.68 16.743,13.84 16.711,14.009C16.615,13.792 17.312,13.675 17.307,12.894Z" fill-rule="evenodd" id="path_90"/><path fill="#c3bdc9" d="M17.834,12.422C17.744,12.401 17.666,12.422 17.565,12.321C17.581,12.47 17.555,12.56 17.538,12.651C17.718,12.757 17.839,13.738 17.913,13.781C17.876,13.362 17.892,12.804 17.639,12.502L17.649,12.448C17.729,12.475 17.787,12.47 17.834,12.422Z" fill-rule="evenodd" id="path_91"/><path fill="#c3bdc9" d="M14.43,13.186C14.604,12.926 14.757,12.618 14.979,12.459C15.2,12.3 15.343,12.364 15.792,11.992L15.96,11.546C15.58,12.103 15.131,12.491 14.488,12.358C14.525,12.379 14.546,12.432 14.815,12.448C14.678,12.581 14.562,12.873 14.43,13.186Z" fill-rule="evenodd" id="path_92"/><path fill="#dfdde2" d="M14.335,11.95C14.673,12.12 15.09,12.21 15.803,11.186C15.956,11.143 16.104,11.064 16.241,10.915C15.781,12.019 14.483,12.698 14.335,11.95Z" fill-rule="evenodd" id="path_93"/><path fill="#f1eef0" d="M15.85,12.586C16.393,10.526 18.04,9.295 16.615,8.202C17.65,10.001 16.003,10.766 15.85,12.586Z" fill-rule="evenodd" id="path_94"/><path fill="#dfdde2" d="M15.459,10.809C15.486,11.351 16.166,10.947 16.33,10.596C16.056,10.782 15.781,10.952 15.459,10.809Z" fill-rule="evenodd" id="path_95"/><path fill="#dfdde2" d="M16.478,9.97C16.542,9.879 16.552,9.964 16.658,9.986C16.41,10.506 15.987,10.65 15.76,10.66C16.071,10.495 16.357,10.31 16.478,9.965L16.478,9.97Z" fill-rule="evenodd" id="path_96"/><path fill="#c3bdc9" d="M16.315,9.094L16.367,9.147C16.441,9.147 16.515,9.147 16.594,9.073C16.594,9.136 16.573,9.168 16.536,9.184C16.578,9.561 16.536,9.784 16.483,9.954C16.546,9.885 16.599,9.981 16.663,9.981C16.757,9.832 16.916,9.312 16.663,8.866C16.668,8.993 16.53,9.126 16.319,9.095L16.315,9.094Z" fill-rule="evenodd" id="path_97"/><path fill="#c3bdc9" d="M15.427,8.929C15.839,8.759 16.077,9.056 16.261,9.083C16.557,9.519 16.251,9.895 16.055,10.128C16.187,9.906 16.377,8.998 15.432,8.929H15.427Z" fill-rule="evenodd" id="path_98"/><path fill="#cecad5" d="M15.797,12.831C16.246,13.043 16.457,12.528 16.668,12.332C16.563,12.088 16.594,11.886 16.584,11.674C16.193,11.886 16.204,12.661 15.797,12.831Z" fill-rule="evenodd" id="path_99"/><path fill="#cecad5" d="M17.328,9.195C17.291,9.211 17.286,9.36 17.238,9.354C17.207,10.394 16.267,10.968 16.045,12.47C16.183,12.311 16.283,11.674 16.632,11.095C17.001,10.49 17.36,10.145 17.323,9.195H17.328Z" fill-rule="evenodd" id="path_100"/><path fill="#dfdde2" d="M16.847,11.159C16.473,12.172 17.217,12.183 17.28,12.512C16.51,12.252 16.457,11.689 16.847,11.159Z" fill-rule="evenodd" id="path_101"/><path fill="#dfdde2" d="M16.984,8.25C18.23,9.062 17.159,10.702 16.694,11.148C16.879,10.735 17.998,9.593 16.984,8.25Z" fill-rule="evenodd" id="path_102"/><path fill="#cecad5" d="M17.407,7.799C17.533,8.032 17.739,8.404 17.438,8.33C17.966,9.508 17.386,10.119 17.096,10.777C16.483,12.385 17.497,11.748 17.381,12.868C17.724,12.465 17.275,11.876 17.296,11.669C17.27,11.371 17.455,10.74 17.518,10.353C17.592,10.565 17.703,10.693 17.84,10.778C17.602,9.939 18.347,8.294 17.413,7.8H17.407V7.799Z" fill-rule="evenodd" id="path_103"/><path fill="#cecad5" d="M17.529,10.57C17.587,10.655 17.629,10.75 17.729,10.809C17.777,11.138 17.323,12.173 18.009,12.253C17.449,12.534 17.143,11.728 17.529,10.575V10.57Z" fill-rule="evenodd" id="path_104"/><path fill="#c3bdc9" d="M17.228,7.475C17.344,7.486 17.623,7.682 17.888,7.475C18.067,7.719 17.735,7.927 17.381,7.746C17.291,7.687 17.581,7.661 17.228,7.481V7.475Z" fill-rule="evenodd" id="path_105"/><path fill="#dfdde2" d="M15.148,7.566C15.253,7.683 15.359,7.746 15.459,8.028C15.533,8.028 15.607,8.039 15.681,8.06C15.56,7.863 15.406,7.683 15.148,7.566Z" fill-rule="evenodd" id="path_106"/><path fill="#c3bdc9" d="M16.283,7.226C17.365,7.519 17.265,7.014 17.46,6.939C17.65,7.248 17.122,7.652 16.283,7.226Z" fill-rule="evenodd" id="path_107"/><path fill="#c3bec9" d="M14.958,7.438C14.895,7.417 14.842,7.422 14.805,7.428C14.9,6.646 15.76,7.14 16.225,7.433C15.638,7.152 14.905,6.79 14.958,7.433V7.438Z" fill-rule="evenodd" id="path_108"/><path fill="#f1eef0" d="M14.963,7.438C14.915,6.551 16.187,7.566 16.774,7.598C16.362,7.646 15.016,6.742 15.026,7.449L14.963,7.433V7.438Z" fill-rule="evenodd" id="path_109"/><path fill="#c3bdc9" d="M15.042,7.464L15.148,7.507C15.158,7.427 15.19,7.342 15.227,7.331C15.475,7.283 15.243,7.411 15.286,7.454C15.333,7.486 15.386,7.523 15.439,7.555C15.439,7.517 15.439,7.475 15.444,7.422C15.444,7.22 16.025,7.544 16.431,7.676C16.473,7.799 16.204,7.947 15.993,7.905C16.183,8.059 16.59,7.985 16.769,7.735C17.081,7.756 17.15,7.708 17.218,7.629C16.98,7.581 16.869,7.698 16.273,7.534C15.724,7.374 15.059,6.907 15.042,7.464Z" fill-rule="evenodd" id="path_110"/><path fill="#b6b1bf" d="M15.538,7.364C15.607,7.358 15.665,7.38 15.728,7.406C15.607,7.597 15.787,7.779 15.887,7.747C15.918,7.779 15.955,7.81 16.066,7.837C15.908,7.869 15.369,7.704 15.538,7.359L15.538,7.364Z" fill-rule="evenodd" id="path_111"/><path fill="#f1eef0" d="M14.119,8.457C13.517,7.294 15.254,7.088 15.433,8.053C15.433,8.053 15.866,8.069 16.246,8.276C16.985,8.817 16.536,9.125 16.388,9.103C16.045,9.109 15.976,8.774 15.475,8.902C15.354,8.95 15.349,9.008 15.296,9.008C14.995,8.934 15.544,8.323 16.14,8.764C16.193,8.802 16.309,8.727 16.209,8.61C15.813,8.206 15.122,8.43 14.974,8.467C14.784,8.153 14.356,8.223 14.13,8.467L14.119,8.457Z" fill-rule="evenodd" id="path_112"/><path fill="#aaa3b5" d="M15.844,7.507C15.918,7.566 16.303,7.629 16.314,7.666C16.193,7.958 15.792,7.869 15.844,7.507Z" fill-rule="evenodd" id="path_113"/><path fill="#c3bdc9" d="M18.41,15.385C18.41,15.385 18.399,15.395 18.41,15.406C18.5,15.454 18.616,15.48 18.748,15.491L19.065,17.354C19.038,16.871 19.007,16.366 18.996,15.905C18.959,15.814 18.933,15.65 18.912,15.486C18.954,15.486 18.991,15.475 19.033,15.465C19.234,16.643 19.719,16.876 19.814,16.972C19.556,16.701 19.207,16.319 19.097,15.438C19.271,15.343 19.35,15.226 19.403,15.205C19.419,15.157 19.409,15.035 19.387,14.982C19.213,15.147 19.059,15.344 18.706,15.317C18.685,15.317 18.706,15.349 18.706,15.349C18.843,15.529 18.569,15.418 18.42,15.386L18.41,15.385Z" fill-rule="evenodd" id="path_114"/><path fill="#cecad5" d="M19.081,17.55L19.097,17.831C19.271,17.719 19.435,17.683 19.667,17.146C19.762,18.102 19.772,19.031 20.327,19.222C20.041,18.563 20.041,17.847 20.02,17.151C19.989,17.194 19.951,17.225 19.92,17.257C19.693,17.124 19.624,17.018 19.503,16.896C19.429,17.135 19.387,17.384 19.086,17.549L19.081,17.55Z" fill-rule="evenodd" id="path_115"/><path fill="#dfdde2" d="M19.492,15.24C19.566,15.267 19.656,15.278 19.745,15.278L19.84,16.663L19.492,15.24Z" fill-rule="evenodd" id="path_116"/><path fill="#c3bdc9" d="M20.152,15.14L20.2,15.108C20.311,15.362 20.463,15.586 20.685,15.761L21.282,19.784L20.422,15.75C20.422,16.446 20.226,16.907 19.915,17.221L19.883,16.956C20.211,16.51 20.406,15.974 20.157,15.14L20.152,15.14Z" fill-rule="evenodd" id="path_117"/><path fill="#c4bec9" d="M21.06,16.069C21.15,16.122 21.255,16.17 21.371,16.202C21.73,17.418 21.868,19.811 21.392,20.677L21.35,20.347C20.521,19.71 20.311,17.932 20.147,16.934L20.174,16.886C20.332,17.793 20.522,19.545 21.335,20.256C21.482,19.789 21.799,18.446 21.229,16.211C21.187,16.165 21.118,16.117 21.06,16.069Z" fill-rule="evenodd" id="path_118"/><path fill="#dfdde2" d="M20.553,14.774C20.627,14.763 20.664,14.774 20.78,14.742L21.572,15.931L20.553,14.774Z" fill-rule="evenodd" id="path_119"/><path fill="#dfdde2" d="M21.403,16.212C21.519,16.249 21.662,16.286 21.809,16.318C21.809,16.355 22.965,19.338 23.772,19.567C22.743,19.774 22.226,17.958 21.556,16.886C21.508,16.658 21.455,16.435 21.402,16.218L21.403,16.212Z" fill-rule="evenodd" id="path_120"/><path fill="#c3bdc9" d="M21.266,14.418C21.266,14.418 21.245,14.45 21.229,14.46C21.698,15.193 21.709,15.639 21.646,16.037L21.835,16.286C21.93,15.729 21.83,15.315 21.693,14.922L24.031,18.335L21.967,15.012L22.405,15.076C22.041,14.955 21.672,14.912 21.266,14.418Z" fill-rule="evenodd" id="path_121"/><path fill="#c3bdc9" d="M22.675,15.082C22.765,15.082 22.844,15.082 22.907,15.061C23.372,15.82 24.565,17.194 24.422,19.073L24.274,18.786C23.166,18.532 22.396,17.13 22.005,16.563C22.654,17.423 23.387,18.542 24.248,18.718C24.316,17.316 23.271,15.947 22.675,15.082Z" fill-rule="evenodd" id="path_122"/><path fill="#dfdde2" d="M22.918,15.054L22.96,15.124C23.984,15.67 25.135,16.759 25.847,15.957C25.109,16.255 23.916,15.208 23.129,14.815L23.167,14.985C23.082,15.028 23.003,15.038 22.924,15.054H22.918Z" fill-rule="evenodd" id="path_123"/><path fill="#dfdde2" d="M21.466,13.771C21.466,13.802 21.466,13.824 21.461,13.845L22.733,14.641L21.572,13.707C21.546,13.739 21.503,13.749 21.466,13.771Z" fill-rule="evenodd" id="path_124"/><path fill="#c3bdc9" d="M23.055,14.519C23.076,14.604 23.103,14.689 23.118,14.779C24.643,15.49 25.556,15.315 26,15.034L25.762,14.949C25.093,15.395 23.467,14.795 23.055,14.519Z" fill-rule="evenodd" id="path_125"/><path fill="#c3bdc9" d="M21.841,13.309C21.841,13.309 21.83,13.351 21.825,13.373C22.474,13.718 22.923,14.354 22.906,14.796L23.128,14.976C23.044,14.244 22.779,13.967 22.516,13.696L25.614,14.917L22.606,13.5C23.007,13.41 23.424,13.383 23.772,12.964L24.48,12.937C25.087,12.842 25.773,12.491 25.841,12.163L25.614,12.189C25.324,12.837 24.178,12.816 23.582,12.837C23.308,13.357 22.431,13.394 21.834,13.315L21.841,13.309Z" fill-rule="evenodd" id="path_126"/><path fill="#dfdde2" d="M23.572,13.166C23.493,13.229 23.414,13.272 23.33,13.309C23.652,13.378 23.952,13.468 24.232,13.574C25.034,13.659 25.826,13.537 25.863,12.852C25.525,13.399 24.565,13.299 23.577,13.166H23.572Z" fill-rule="evenodd" id="path_127"/><path fill="#dfdde2" d="M21.83,12.687C21.851,12.756 21.862,12.814 21.872,12.878L23.514,12.836C22.955,12.788 22.379,12.746 21.83,12.687Z" fill-rule="evenodd" id="path_128"/><path fill="#c3bdc9" d="M22.622,12.024C22.954,12.178 23.261,12.348 23.503,12.545L23.287,12.343C23.989,12.284 24.702,12.226 25.493,12.184L22.997,12.168L22.622,12.024Z" fill-rule="evenodd" id="path_129"/><path fill="#c3bdc9" d="M22.094,12.083C22.089,12.12 22.068,12.152 22.052,12.189L22.601,12.03C23.424,11.435 23.462,11.143 23.567,10.819L24.818,10.034L23.393,10.745C22.622,10.751 22.421,10.862 22.189,10.925C22.844,10.782 23.277,10.761 23.514,10.835L23.361,10.931C23.166,11.589 22.427,11.971 22.089,12.088L22.094,12.083Z" fill-rule="evenodd" id="path_130"/><path fill="#dfdde2" d="M22.089,11.542C22.11,11.584 22.116,11.637 22.126,11.685C22.517,11.473 22.886,11.239 23.25,11C22.865,11.191 22.474,11.387 22.089,11.547V11.542Z" fill-rule="evenodd" id="path_131"/><path fill="#dfdde2" d="M23.145,11.626C23.588,11.588 24.032,11.578 24.496,11.615C24.601,11.556 25.72,11.228 25.451,10.633C25.129,11.286 23.936,11.509 23.841,11.562C23.652,11.583 23.192,11.6 23.145,11.631V11.626Z" fill-rule="evenodd" id="path_132"/><path fill="#dfdce1" d="M24.987,9.949L25.235,9.843C25.262,9.891 25.082,10.23 24.766,10.586C24.349,11.047 24.106,11.249 23.319,11.392C23.335,11.371 23.351,11.35 23.361,11.329C23.973,11.164 24.813,10.564 24.987,9.954V9.949Z" fill-rule="evenodd" id="path_133"/><path fill="#dfdde2" d="M22.363,10.602L22.289,10.714C22.992,10.204 23.551,9.891 23.973,9.758C24.395,9.312 24.49,8.866 24.316,8.611C24.343,9.439 23.033,10.06 22.358,10.602H22.363Z" fill-rule="evenodd" id="path_134"/><path fill="#c3bec9" d="M21.91,10.92L21.883,11.132C22.405,10.749 22.685,10.055 22.611,9.471L22.427,9.662L21.614,10.325C21.656,10.363 21.704,10.405 21.736,10.442L22.427,9.683C22.474,10.31 22.052,10.798 21.91,10.92Z" fill-rule="evenodd" id="path_135"/><path fill="#dfdde2" d="M22.617,9.938L22.569,10.113C22.907,9.901 23.139,9.677 23.35,9.449C23.931,8.77 24.004,8.18 24.057,7.894L23.809,8.095C23.851,8.961 22.885,9.788 22.627,9.932L22.617,9.938Z" fill-rule="evenodd" id="path_136"/><path fill="#c3bdc9" d="M22.331,9.449C22.426,9.449 22.527,9.443 22.622,9.449L23.762,8.133L22.331,9.449Z" fill-rule="evenodd" id="path_137"/><path fill="#c3bdc9" d="M21.492,8.707L21.35,8.871C21.408,9.195 21.408,9.63 20.933,10.161L20.949,10.188L20.98,10.177C21.361,9.705 21.757,9.583 22.152,9.466C21.92,9.525 21.688,9.562 21.429,9.7C21.608,9.158 21.529,8.883 21.492,8.712V8.707Z" fill-rule="evenodd" id="path_138"/><path fill="#dfdde2" d="M21.546,9.136V9.242C21.952,8.988 22.364,8.685 22.739,8.266C22.955,7.984 23.235,7.586 23.271,7.05L23.055,7.219C23.013,8.116 21.862,8.886 21.545,9.141L21.546,9.136Z" fill-rule="evenodd" id="path_139"/><path fill="#dfdde2" d="M20.621,9.02C20.954,8.876 21.276,8.738 21.498,8.696L22.934,7.353C22.549,7.634 21.741,8.335 21.361,8.622C21.229,8.723 21.097,8.717 20.617,9.02H20.621Z" fill-rule="evenodd" id="path_140"/><path fill="#f1eef0" d="M23.013,7.226C19.376,7.862 17.359,12.273 19.792,11.875L19.655,11.843C19.17,11.886 19.043,11.461 19.09,11.19C19.132,10.898 19.412,10.734 19.492,10.708C19.471,10.447 19.46,10.187 19.713,9.975C19.814,9.731 19.93,9.603 20.045,9.476C20.426,8.086 22.357,7.39 23.012,7.231L23.013,7.226Z" fill-rule="evenodd" id="path_141"/><path fill="#c3bdc9" d="M21.319,8.861C20.865,8.93 20.242,9.434 20.147,9.646C20.136,9.667 20.147,9.699 19.989,9.784V9.811C20.152,9.742 20.575,9.811 20.178,9.906C20.437,9.901 20.664,10.002 20.817,10.352C21.657,10.225 21.868,10.841 21.657,11.249C22.211,11.732 21.863,12.353 21.556,12.47C21.741,12.884 21.836,13.431 21.271,13.643C21.271,14.009 21.218,14.583 20.352,14.578C20.247,14.827 19.94,15.252 19.418,15.024C19.418,15.024 19.418,15.04 19.418,15.056C19.407,15.083 19.634,15.141 19.639,15.13C19.819,15.151 19.84,15.268 19.623,15.215C19.544,15.193 19.476,15.172 19.417,15.145C19.417,15.145 19.417,15.183 19.407,15.204C19.972,15.401 20.299,15.056 20.473,14.764C21.148,14.726 21.423,14.355 21.46,13.771C22.009,13.426 21.935,12.901 21.766,12.54C22.257,12.168 22.22,11.521 21.851,11.218C22.104,10.364 21.35,10.135 20.948,10.194C20.816,9.966 20.727,9.934 20.631,9.87L21.344,8.899L20.478,9.796C20.393,9.764 20.278,9.754 20.14,9.759C20.325,9.297 21.042,8.941 21.328,8.862H21.319V8.861Z" fill-rule="evenodd" id="path_142"/><path fill="#d0ccd5" d="M14.699,7.842C14.805,8.007 14.99,7.794 15.29,8.118L15.328,8.102C15.259,7.826 15.075,7.661 14.8,7.629C14.916,7.73 14.832,7.735 14.827,7.804C14.826,7.863 14.826,7.933 14.699,7.842Z" fill-rule="evenodd" id="path_143"/><path fill="#aaa3b5" d="M14.219,8.341C14.383,8.25 14.741,8.118 14.969,8.437C15.686,8.224 16.193,8.42 16.262,8.708C16.304,8.628 16.104,8.192 15.285,8.267C14.589,7.773 14.193,8.219 14.214,8.341H14.219Z" fill-rule="evenodd" id="path_144"/><path fill="#c3bdc9" d="M15.311,8.963C15.185,8.963 15.575,8.495 16.209,8.936C16.436,9.026 16.547,8.909 16.505,8.718C16.489,8.58 16.415,8.5 16.368,8.394C16.69,8.633 16.727,8.936 16.511,9.053C16.173,9.222 15.935,8.622 15.312,8.957L15.311,8.963Z" fill-rule="evenodd" id="path_145"/><path fill="#c3bdc9" d="M14.784,15.533L14.926,15.734L14.889,15.707C14.488,15.898 14.282,15.824 14.087,15.734L14.066,15.718C13.654,15.798 13.395,15.691 13.174,15.527C13.19,15.649 13.274,15.745 13.385,15.83L12.952,17.725L13.158,15.946C12.91,16.642 12.588,16.965 12.144,17.162L12.176,16.965C12.582,16.758 12.931,16.361 13.094,15.5C12.931,15.521 12.767,15.543 12.604,15.5L12.198,16.907L12.393,15.452C12.219,15.335 12.071,15.187 11.924,15.038V15.011C11.966,15.075 12.013,14.884 12.008,14.825C12.314,15.324 12.742,15.415 13.164,15.271C13.164,15.319 13.164,15.362 13.143,15.43H13.164C13.164,15.43 13.191,15.382 13.201,15.345C13.191,15.335 13.185,15.319 13.18,15.303V15.287C13.418,15.706 13.993,15.509 14.067,15.547C14.057,15.568 14.067,15.632 14.083,15.685L14.094,15.701C14.094,15.701 14.105,15.642 14.094,15.6L14.073,15.562L14.089,15.573C14.285,15.722 14.554,15.711 14.781,15.525L14.784,15.533Z" fill-rule="evenodd" id="path_146"/><path fill="#c1c1c9" d="M13.448,15.867C13.58,15.93 13.717,15.978 13.87,16.01C13.802,16.902 13.353,17.916 12.878,18.218L12.889,17.969C12.773,17.772 12.683,17.465 12.657,16.827L12.694,16.79C12.704,17.236 12.752,17.639 12.9,17.953C13.127,17.783 13.613,17.215 13.691,16.127C13.691,16.058 13.675,16.021 13.639,16C13.549,15.951 13.496,15.909 13.443,15.872L13.448,15.867Z" fill-rule="evenodd" id="path_147"/><path fill="#c3bdc9" d="M11.738,19.63C12.25,19.768 12.588,18.776 12.778,18.112C12.688,17.932 12.561,17.746 12.55,16.938L12.508,16.981C12.456,18.021 12.445,19.168 11.732,19.629L11.738,19.63Z" fill-rule="evenodd" id="path_148"/><path fill="#dfdde3" d="M11.981,15.108L12.013,15.14C11.976,15.336 11.712,16.047 12.039,16.743C11.855,16.472 11.707,16.042 11.987,15.108H11.981Z" fill-rule="evenodd" id="path_149"/><path fill="#c3bdc9" d="M11.706,15.543L11.606,15.702L10.524,20.129L11.675,16.446C11.733,16.658 11.801,16.881 12.102,17.231C11.679,18.733 11.01,20.076 10.44,20.431L10.492,20.251C10.25,19.508 10.444,17.942 10.862,16.366C10.593,17.231 10.044,19.115 10.392,20.49L10.281,20.83C11.417,20.05 12.087,18.091 12.34,17.093C12.277,17.141 12.208,17.167 12.14,17.194C11.781,16.87 11.612,16.356 11.707,15.549L11.706,15.543Z" fill-rule="evenodd" id="path_150"/><path fill="#c3bdc9" d="M11.025,14.306C11.052,14.444 11.21,14.604 11.289,14.742C11.331,14.811 11.379,14.843 11.436,14.758L11.484,14.678C11.6,14.811 11.764,14.885 12.002,14.843L11.716,15.506C11.384,16.154 10.946,16.292 10.507,16.446L10.644,16.191C11.214,16.138 11.62,15.57 11.832,15.05C11.689,15.018 11.552,14.959 11.394,14.859L10.724,16.032L11.167,14.843C11.258,14.657 11.02,14.508 11.025,14.306Z" fill-rule="evenodd" id="path_151"/><path fill="#cecad5" d="M10.751,16.366C10.672,16.398 10.587,16.43 10.498,16.451C9.764,18.102 9.358,19.573 8.049,20.034C9.231,20.262 10.028,18.352 10.319,17.779C10.53,17.258 10.657,16.775 10.752,16.361V16.366H10.751Z" fill-rule="evenodd" id="path_152"/><path fill="#e0dee4" d="M10.915,14.354C10.783,14.513 10.329,15.15 10.614,16.212L10.641,16.18C10.435,15.474 10.651,14.689 10.915,14.349V14.354Z" fill-rule="evenodd" id="path_153"/><path fill="#c3bdc9" d="M10.429,15.294C10.392,15.569 10.402,15.787 10.418,16.005C9.531,17.587 8.048,19.046 7.193,19.104C8.286,17.634 9.373,16.116 10.466,14.619C10.535,14.588 10.609,14.54 10.677,14.492C10.561,14.662 10.508,14.8 10.487,14.928L7.489,18.797C8.492,18.712 10.134,16.324 10.382,15.681C10.382,15.49 10.409,15.384 10.435,15.294H10.429Z" fill-rule="evenodd" id="path_154"/><path fill="#dfdce1" d="M7.373,18.85L7.442,18.765C7.357,17.273 9.036,15.501 9.49,14.943C9.416,15.102 7.273,16.997 7.374,18.855V18.85H7.373Z" fill-rule="evenodd" id="path_155"/><path fill="#dfdde2" d="M6.153,16.18C6.406,16.578 6.829,16.822 8.418,15.856C8.735,15.505 9.051,15.145 9.368,14.842H9.289C8.756,15.06 7.373,16.514 6.153,16.185V16.18Z" fill-rule="evenodd" id="path_156"/><path fill="#c3bdc9" d="M10.281,13.377C10.075,13.462 9.295,13.749 9.215,14.635L9.046,14.731C10.118,15.086 10.931,14.274 11.089,14.125C10.92,14.019 10.751,13.929 10.609,13.675L10.466,13.744C10.123,14.031 9.706,14.312 9.305,14.582L10.551,13.945C10.624,14.025 10.704,14.11 10.878,14.216C10.123,14.736 9.532,14.709 9.247,14.635C9.289,14.121 9.595,13.685 10.281,13.377Z" fill-rule="evenodd" id="path_157"/><path fill="#cecad5" d="M9.077,14.434C9.056,14.54 9.025,14.657 9.03,14.737C8.691,14.87 8.312,14.981 7.889,15.051C7.863,15.056 7.752,15.099 7.71,15.019C7.662,14.987 7.605,14.981 7.552,14.987C7.542,14.96 7.489,14.971 7.483,14.949C8.518,14.769 8.987,14.519 9.077,14.439V14.434Z" fill-rule="evenodd" id="path_158"/><path fill="#dfdde1" d="M7.922,13.669C7.648,13.802 6.512,14.407 6.317,14.991C6.871,15.161 7.283,15.012 7.537,14.991C7.526,14.975 7.478,14.981 7.473,14.954C7.061,15.012 6.565,15.044 6.428,14.959L6.529,14.906C6.56,14.413 7.732,13.797 7.917,13.669H7.922Z" fill-rule="evenodd" id="path_159"/><path fill="#c3bdc9" d="M6.597,14.885C8.444,14.196 9.342,13.643 10.329,13.309V13.341C10.249,13.389 9.6,13.542 9.347,13.914L6.597,14.885Z" fill-rule="evenodd" id="path_160"/><path fill="#c3bdc9" d="M10.012,13.409C9.886,13.462 9.759,13.505 9.627,13.579C9.025,13.488 8.925,13.34 8.666,13.213L8.719,13.191C8.814,13.261 8.935,13.314 9.046,13.372C9.226,13.43 9.268,13.361 9.089,13.297C8.878,13.228 8.746,13.138 8.63,13.048C8.836,12.644 9.326,12.448 9.389,12.416C9.12,12.591 8.803,12.75 8.725,13.021C9.147,12.958 9.595,12.883 10.144,12.761C10.187,12.835 10.224,12.909 10.303,13.01L10.286,13.027L10.202,12.926L8.729,13.037C9.136,13.319 9.574,13.345 10.007,13.393L10.012,13.409Z" fill-rule="evenodd" id="path_161"/><path fill="#dfdde2" d="M6.222,12.842C6.391,13.416 7.821,13.267 8.666,13.208L8.708,13.192C8.639,13.144 8.582,13.097 8.545,13.049C8.196,12.975 6.597,13.315 6.222,12.842Z" fill-rule="evenodd" id="path_162"/><path fill="#dfdde2" d="M8.914,12.528L8.93,12.545C8.83,12.629 8.73,12.704 8.63,12.826C7.31,12.826 6.476,12.301 6.238,11.993C6.566,11.727 6.977,11.631 7.416,11.589C7.041,11.7 6.603,11.764 6.402,12.003H6.306C6.919,12.693 8.555,13.001 8.909,12.534L8.914,12.528Z" fill-rule="evenodd" id="path_163"/><path fill="#c3bdc9" d="M6.486,12.024C7.362,12.146 8.223,12.257 9.125,12.401C9.247,12.295 9.468,12.221 9.806,12.2C9.69,12.2 9.595,12.183 9.411,12.21C8.407,12.226 7.457,12.099 6.486,12.024Z" fill-rule="evenodd" id="path_164"/><path fill="#c3bdc9" d="M10.249,11.886C10.165,11.97 10.123,12.098 10.091,12.236C9.125,11.917 8.967,11.312 8.935,11.249C9.515,10.845 9.864,10.994 10.344,10.984C9.32,10.936 9.051,11.206 9.008,11.259C9.394,11.365 9.663,11.461 10.487,11.599C10.407,11.658 10.36,11.705 10.323,11.759C10.006,11.626 9.415,11.445 8.998,11.281C9.067,11.562 9.494,11.981 9.858,12.093C9.959,12.12 10.069,12.173 10.111,12.04C10.127,11.987 10.206,11.902 10.243,11.886H10.249Z" fill-rule="evenodd" id="path_165"/><path fill="#dfdde2" d="M6.576,10.612C6.761,10.798 7.463,11.413 8.751,11.259C8.798,11.387 8.851,11.435 8.898,11.482C8.555,11.429 8.212,11.392 7.863,11.418C7.298,11.249 6.782,11.042 6.57,10.612H6.576Z" fill-rule="evenodd" id="path_166"/><path fill="#dfdde2" d="M9.205,10.877C9.205,10.877 9.242,10.904 9.268,10.909C9.057,10.994 8.893,11.085 8.767,11.18C8.117,10.978 7.199,10.495 6.867,9.89C7.268,9.71 7.948,9.794 8.345,9.89C7.907,9.89 7.379,9.794 7.12,9.97L6.92,9.901C7,10.161 8.382,11.371 9.2,10.877H9.205Z" fill-rule="evenodd" id="path_167"/><path fill="#c3bdc9" d="M7.188,10.007C8.011,10.299 8.798,10.586 9.453,10.861C9.659,10.813 9.859,10.824 10.06,10.861C10.012,10.813 9.965,10.777 9.928,10.713H9.912L9.996,10.83C8.877,10.447 8.054,10.235 7.194,10.012L7.188,10.007Z" fill-rule="evenodd" id="path_168"/><path fill="#dfdde2" d="M9.785,10.336C9.722,10.22 9.664,10.092 9.659,9.917C9.347,10.066 7.932,9.445 7.595,8.669C7.616,9.349 8.825,9.885 9.785,10.33V10.336Z" fill-rule="evenodd" id="path_169"/><path fill="#c3bdc9" d="M10.603,10.76C10.561,10.809 10.524,10.866 10.471,10.893C10.444,10.91 10.418,10.91 10.392,10.893C9.891,10.57 9.79,10.012 9.806,9.901C10.191,9.837 10.724,9.842 11.463,10.305C11.299,10.267 10.756,9.864 9.879,9.938C9.863,10.241 10.09,10.82 10.597,10.761L10.603,10.76Z" fill-rule="evenodd" id="path_170"/><path fill="#c3bdc9" d="M9.948,9.991L10.835,10.639C10.951,10.645 11.062,10.639 11.178,10.698C11.184,10.677 11.194,10.645 11.216,10.602C10.73,10.401 10.371,10.193 9.948,9.991Z" fill-rule="evenodd" id="path_171"/><path fill="#dfdde2" d="M7.953,7.916L8.191,8.059C8.159,8.595 9.11,9.646 10.165,9.726C9.991,9.742 9.801,9.736 9.664,9.8C9.163,9.487 8.831,9.157 8.551,8.866C8.493,8.876 8.445,8.728 8.351,8.775C8.081,8.424 7.976,8.154 7.96,7.92L7.953,7.916Z" fill-rule="evenodd" id="path_172"/><path fill="#c5becb" d="M9.495,8.335C9.141,8.197 8.819,8.037 8.207,8.064C9.162,8.76 9.68,9.194 10.382,9.741C10.704,9.789 11.01,9.932 11.322,10.054C11.28,9.97 11.248,9.885 11.232,9.794C11.232,9.869 11.232,9.938 11.28,10.012C10.863,9.89 9.153,8.669 8.313,8.123C8.629,8.022 9.077,8.208 9.495,8.335Z" fill-rule="evenodd" id="path_173"/><path fill="#dfdde2" d="M9.981,8.366C9.595,8.032 9.168,7.65 9.072,7.114C9.521,7.167 10.397,7.469 11.078,7.963C10.445,7.597 9.848,7.326 9.363,7.331C9.321,7.777 9.727,8.069 9.985,8.366H9.981V8.366Z" fill-rule="evenodd" id="path_174"/><path fill="#c3bdc9" d="M9.389,7.348L9.368,7.364C10.017,7.847 10.487,8.304 10.998,8.771C11.141,8.893 11.125,9.025 11.141,9.158C11.194,9.095 11.125,8.888 11.236,8.861C11.342,8.84 11.748,9.052 11.774,9.02C10.819,8.595 10.18,7.911 9.394,7.348H9.389Z" fill-rule="evenodd" id="path_175"/><path fill="#e0dee4" d="M11.426,9.923C11.337,9.774 11.194,9.317 11.284,9.009C12.514,9.274 12.725,10.251 12.746,10.448C12.567,9.742 11.896,9.1 11.431,9.185C11.711,9.445 12.06,9.98 12.271,10.209C12.17,10.209 12.065,10.219 12.001,10.246C11.827,10.225 11.748,10.262 11.658,10.289C11.564,10.177 11.526,10.092 11.469,10.002C11.595,10.177 11.775,10.15 11.959,10.097C11.769,9.752 11.579,9.503 11.389,9.205C11.294,9.274 11.389,9.645 11.416,9.922L11.426,9.923Z" fill-rule="evenodd" id="path_176"/><path fill="#dfdde2" d="M11.923,8.605C14.018,10.006 14.176,12.305 12.693,11.928C14.472,11.716 12.387,9.057 11.923,8.605Z" fill-rule="evenodd" id="path_177"/><path fill="#c3bdc9" d="M12.023,10.251C12.198,10.177 12.656,10.188 12.678,10.905L12.524,11.021C12.524,10.825 12.556,10.384 12.023,10.257V10.251Z" fill-rule="evenodd" id="path_178"/><path fill="#c3bdc9" d="M12.524,11.032L12.683,10.915C13.448,11.207 13.073,12.035 12.54,11.903C13.174,11.839 13.036,11.021 12.524,11.032Z" fill-rule="evenodd" id="path_179"/><path fill="#f1eef0" d="M14.984,5.655C15.089,5.835 14.799,6.382 15.295,6.302C15.464,6.408 15.612,6.35 15.691,6.35C16.019,6.234 16.008,6.005 16.029,5.947C15.744,5.543 16.066,5.464 16.098,5.443C16.272,5.464 16.367,5.793 16.13,5.894C16.151,5.91 16.178,5.904 16.214,5.888C16.214,6.413 16.584,6.451 16.837,6.366C17.344,6.504 17.096,5.915 17.338,5.479C17.069,5.962 17.243,6.398 16.847,6.34C16.948,6.09 16.679,5.899 16.816,5.629C16.61,5.804 16.953,6.133 16.816,6.303C16.679,6.425 16.542,6.324 16.536,6.271C16.478,6.091 16.885,5.878 16.642,5.549C16.726,5.725 16.694,5.804 16.652,5.921C16.61,6.033 16.435,6.133 16.515,6.362C16.336,6.324 16.246,6.118 16.294,5.947C16.341,5.783 16.426,5.507 16.114,5.417C15.724,5.533 15.925,5.846 15.972,5.899C16.066,6.005 15.892,6.318 15.671,6.318C15.771,6.164 15.65,6.133 15.502,5.883C15.491,6.016 15.798,6.191 15.624,6.297C15.534,6.371 15.407,6.329 15.354,6.276C15.254,6.164 15.491,6.032 15.449,5.809C15.386,6.128 15.291,6.111 15.307,6.26C15.191,6.292 15.069,6.334 15.033,6.111C15.032,5.809 15.032,5.623 14.984,5.655Z" fill-rule="evenodd" id="path_180"/><path fill="#dfdde2" d="M17.017,6.891V6.923C16.415,6.96 15.797,6.843 15.206,6.832V6.806C15.808,6.822 16.283,6.928 17.017,6.891Z" fill-rule="evenodd" id="path_181"/><path fill="#dfdde2" d="M16.082,6.993V7.02C16.431,7.073 16.778,7.131 17.069,7.1V7.072C16.721,7.114 16.404,7.046 16.082,6.993Z" fill-rule="evenodd" id="path_182"/><path fill="#c3bdc9" d="M15.253,6.493C15.158,6.525 15.2,6.668 15.253,6.663C15.364,6.668 15.475,6.684 15.586,6.663C15.649,6.631 15.67,6.519 15.596,6.477C15.48,6.46 15.364,6.46 15.253,6.487V6.493ZM15.232,6.472C15.422,6.434 15.596,6.461 15.697,6.477C15.787,6.499 15.787,6.658 15.697,6.69C15.596,6.7 15.38,6.695 15.232,6.684C15.137,6.604 15.185,6.503 15.232,6.472Z" fill-rule="evenodd" id="path_183"/><path fill="#c3bdc9" d="M15.919,6.647C16.167,6.678 16.378,6.7 16.325,6.503C16.256,6.504 15.771,6.397 15.919,6.647ZM15.913,6.673C15.882,6.636 15.834,6.562 15.924,6.466C16.061,6.455 16.204,6.466 16.351,6.487C16.483,6.54 16.473,6.663 16.362,6.71C16.13,6.711 16.003,6.695 15.913,6.673Z" fill-rule="evenodd" id="path_184"/><path fill="#c3bdc9" d="M16.594,6.68C16.842,6.733 17.048,6.781 17.011,6.579C16.942,6.579 16.473,6.419 16.594,6.68ZM16.584,6.706C16.552,6.668 16.515,6.589 16.611,6.499C16.964,6.515 16.906,6.52 17.033,6.552C17.159,6.615 17.138,6.738 17.027,6.775C16.721,6.78 16.668,6.732 16.584,6.7V6.706Z" fill-rule="evenodd" id="path_185"/><path fill="#c3bdc9" d="M12.102,10.585L11.711,11.748C11.822,11.748 11.911,11.754 12.102,11.716C12.282,11.35 12.318,10.83 12.102,10.585Z" fill-rule="evenodd" id="path_186"/><path fill="#ffffff" d="M12.419,12.852L11.712,11.748C11.712,11.748 11.533,12.205 11.512,12.353C11.601,12.597 12.018,12.847 12.419,12.852Z" fill-rule="evenodd" id="path_187"/><path fill="#c3bdc9" d="M12.303,12.003C12.551,11.913 12.599,11.764 12.604,11.673L12.103,11.716C12.171,11.807 12.245,11.897 12.303,12.003Z" fill-rule="evenodd" id="path_188"/><path fill="#c3bdc9" d="M11.474,11.164C11.374,11.095 11.047,11.073 10.978,11.132L11.395,11.52C11.411,11.408 11.437,11.276 11.474,11.164Z" fill-rule="evenodd" id="path_189"/><path fill="#c3bdc9" d="M10.535,12.359L11.701,11.754C11.728,11.743 11.559,12.215 11.506,12.359C11.369,12.433 10.788,12.571 10.53,12.359H10.535Z" fill-rule="evenodd" id="path_190"/></svg>