<svg id="vector" xmlns="http://www.w3.org/2000/svg" width="24" height="24" viewBox="0 0 24 24"><defs><clipPath id="clip_path_0"><path d="M0,0h24v24h-24z"/></clipPath><linearGradient gradientUnits="userSpaceOnUse" x1="1.0" y1="0.001" x2="24.5" y2="24.001" id="gradient_1"><stop stop-color="#84e5e8" offset="0.0"/><stop stop-color="#1ca0be" offset="1.0"/></linearGradient></defs><g id="g_0"><path fill="url(#gradient_1)" d="M21,0.001C22.104,0.001 23,0.894 23,1.996V22.001C23,23.693 21.022,24.617 19.72,23.534L18.091,22.18C17.437,21.637 16.511,21.566 15.782,22.002L13.029,23.65C12.396,24.029 11.604,24.029 10.971,23.65L8.218,22.002C7.489,21.566 6.563,21.637 5.909,22.18L4.28,23.534C2.978,24.617 1,23.693 1,22.001V1.996C1,0.894 1.896,0.001 3,0.001H21ZM6,14.16C5.448,14.16 5,14.608 5,15.16C5,15.712 5.448,16.16 6,16.16H18C18.552,16.16 19,15.712 19,15.16C19,14.608 18.552,14.16 18,14.16H6ZM17.36,9.344C16.836,9.344 16.41,9.77 16.41,10.294C16.41,10.818 16.836,11.243 17.36,11.243C17.885,11.243 18.31,10.818 18.31,10.294C18.31,9.77 17.885,9.344 17.36,9.344ZM6,9.16C5.448,9.16 5,9.608 5,10.16C5,10.712 5.448,11.16 6,11.16H11C11.552,11.16 12,10.712 12,10.16C12,9.608 11.552,9.16 11,9.16H6ZM17.35,4.144C16.63,4.144 16.07,4.77 16.149,5.485L16.406,7.799C16.46,8.28 16.866,8.643 17.35,8.644C17.833,8.644 18.24,8.28 18.294,7.799L18.551,5.485C18.63,4.77 18.07,4.144 17.35,4.144ZM6,4.16C5.448,4.16 5,4.608 5,5.16C5,5.712 5.448,6.16 6,6.16H11C11.552,6.16 12,5.712 12,5.16C12,4.608 11.552,4.16 11,4.16H6Z" clip-path="url(#clip_path_0)"/></g></svg>