<svg id="vector" xmlns="http://www.w3.org/2000/svg" width="40.0d" height="24.0d" viewBox="0 0 40.0 24.0"><defs><linearGradient gradientUnits="userSpaceOnUse" x1="3.5" y1="24.0" x2="40.543" y2="3.48" id="gradient_0"><stop stop-color="#165ef8" offset="0.0"/><stop stop-color="#54beff" offset="1.0"/></linearGradient><linearGradient gradientUnits="userSpaceOnUse" x1="4.135" y1="4.359" x2="4.57" y2="4.701" id="gradient_1"><stop stop-color="#c3bdc9" offset="0.0"/><stop stop-color="#c3bdc9" stop-opacity="0" offset="1.0"/></linearGradient><linearGradient gradientUnits="userSpaceOnUse" x1="5.436" y1="5.143" x2="4.119" y2="4.465" id="gradient_2"><stop stop-color="#c3bdc9" offset="0.0"/><stop stop-color="#c3bdc9" stop-opacity="0" offset="1.0"/></linearGradient><linearGradient gradientUnits="userSpaceOnUse" x1="6.138" y1="4.223" x2="5.349" y2="4.823" id="gradient_3"><stop stop-color="#c3bdc9" offset="0.0"/><stop stop-color="#c3bdc9" stop-opacity="0" offset="1.0"/></linearGradient></defs><path fill="url(#gradient_0)" d="M2,0L38,0A2,2 0,0 1,40 2L40,22A2,2 0,0 1,38 24L2,24A2,2 0,0 1,0 22L0,2A2,2 0,0 1,2 0z" id="path_0"/><path fill="#dddddd" d="M2.188,5C2.188,7.813 2.188,7.813 5,7.813C7.813,7.813 7.813,7.813 7.813,5C7.813,2.188 7.813,2.188 5,2.188C2.188,2.188 2.188,2.188 2.188,5Z" fill-opacity="0.3" id="path_1"/><path fill="#ffffff" d="M4.691,2.975C4.757,3.09 4.783,3.2 4.819,3.305C4.88,3.297 4.949,3.313 5.017,3.318C5.095,3.333 5.157,3.34 5.215,3.331C5.251,3.166 5.282,3.083 5.353,2.968C5.321,2.99 5.255,2.997 5.228,3.037C5.189,3.002 5.158,3.024 5.138,3.061C5.145,3.031 5.136,3.006 5.098,3.003C5.12,2.961 5.085,2.939 5.048,2.958C5.047,2.92 5.017,2.92 5.015,2.9C5.01,2.923 4.984,2.912 4.988,2.968C4.958,2.944 4.928,2.96 4.94,3.001C4.904,3.001 4.894,3.031 4.898,3.069C4.873,3.011 4.826,3.028 4.81,3.049C4.781,2.991 4.758,3.028 4.692,2.975L4.691,2.975Z" fill-rule="evenodd" id="path_2"/><path fill="#ffffff" d="M5.273,3.269C5.231,3.342 5.212,3.347 5.028,3.318C4.883,3.303 4.751,3.262 4.745,3.394C4.794,3.4 4.864,3.405 4.894,3.509L4.804,3.586C4.741,3.595 4.642,3.68 4.577,3.601C4.559,3.675 4.626,3.696 4.698,3.693C4.747,3.688 4.763,3.674 4.855,3.656L4.88,3.683C5.019,3.695 5.092,3.895 4.865,4.013C4.856,4.04 4.871,4.073 4.892,4.077C4.826,4.171 4.717,4.287 4.679,4.211C4.67,4.22 4.644,4.283 4.694,4.318C4.656,4.365 4.642,4.42 4.644,4.482C4.495,4.458 4.397,4.433 4.43,4.293C4.589,4.3 4.632,4.108 4.609,4.01C4.517,3.62 4.016,3.307 3.652,3.297C3.671,3.403 3.737,3.48 3.811,3.551C3.714,3.503 3.602,3.457 3.484,3.482C3.498,3.566 3.543,3.663 3.734,3.821C3.596,3.74 3.47,3.659 3.426,3.595C3.406,3.621 3.395,3.731 3.512,3.811C3.474,3.796 3.291,3.797 3.236,3.837C3.269,3.914 3.423,4.048 3.549,4.09C3.429,4.072 3.317,4.024 3.215,3.937C3.2,3.951 3.215,4.093 3.343,4.149C3.301,4.152 3.161,4.192 3.125,4.237C3.198,4.335 3.386,4.422 3.479,4.422C3.353,4.439 3.213,4.413 3.156,4.395C3.157,4.428 3.13,4.559 3.477,4.537C3.354,4.596 3.166,4.719 3.136,4.827C3.257,4.881 3.472,4.836 3.584,4.801C3.254,5.004 3.202,5.025 3.141,5.011C3.221,5.181 3.414,5.066 3.58,4.971C3.375,5.247 3.342,5.387 3.347,5.583C3.512,5.563 3.751,5.325 3.878,5.122C3.731,5.428 3.643,5.673 3.482,5.745C3.665,5.818 3.823,5.587 3.934,5.341C3.891,5.496 3.874,5.826 3.928,5.906C4.093,5.794 4.219,5.543 4.303,5.256C4.274,5.397 4.253,5.539 4.201,5.681C4.308,5.7 4.362,5.508 4.398,5.396C4.401,5.402 4.405,5.407 4.416,5.417C4.55,5.318 4.593,5.09 4.603,5.002C4.725,5.037 4.78,4.992 4.81,4.969C4.837,5.007 4.839,5.064 4.847,5.072C4.713,4.963 4.571,5.072 4.565,5.255C4.55,5.33 4.511,5.418 4.41,5.485C4.416,5.493 4.43,5.497 4.448,5.496C4.43,5.527 4.415,5.553 4.385,5.581C4.393,5.586 4.402,5.586 4.412,5.588C4.389,5.626 4.352,5.661 4.315,5.68C4.324,5.689 4.328,5.692 4.356,5.699C4.331,5.731 4.291,5.762 4.252,5.778C4.326,5.822 4.381,5.827 4.426,5.823C4.398,5.881 4.351,5.91 4.306,5.935C4.32,5.948 4.337,5.951 4.351,5.947C4.31,5.99 4.266,6.024 4.227,6.037C4.234,6.042 4.239,6.05 4.265,6.048C4.237,6.083 4.203,6.117 4.142,6.133C4.154,6.155 4.179,6.152 4.2,6.152C4.183,6.188 4.132,6.2 4.079,6.211C4.119,6.222 4.145,6.244 4.122,6.238C4.106,6.257 4.09,6.267 4.056,6.273C4.022,6.278 3.896,6.233 3.846,6.25C3.832,6.221 3.797,6.201 3.76,6.201C3.714,6.201 3.668,6.231 3.665,6.273C3.658,6.268 3.628,6.264 3.633,6.3C3.644,6.321 3.645,6.339 3.711,6.365C3.722,6.37 3.735,6.372 3.751,6.372C3.775,6.37 3.802,6.359 3.822,6.341C3.855,6.348 3.892,6.354 3.912,6.362C3.859,6.366 3.84,6.395 3.811,6.416C3.798,6.416 3.788,6.412 3.776,6.41C3.769,6.409 3.762,6.408 3.755,6.408C3.718,6.41 3.679,6.453 3.675,6.502C3.675,6.512 3.677,6.521 3.681,6.53V6.538C3.669,6.552 3.674,6.563 3.685,6.571C3.732,6.588 3.758,6.578 3.775,6.575C3.817,6.57 3.852,6.535 3.852,6.496C3.902,6.487 3.95,6.473 3.978,6.453C3.979,6.456 3.98,6.459 3.98,6.463C3.963,6.473 3.934,6.49 3.92,6.54C3.915,6.54 3.911,6.54 3.907,6.54C3.85,6.54 3.836,6.579 3.837,6.611C3.837,6.642 3.849,6.663 3.866,6.675C3.863,6.695 3.865,6.711 3.885,6.717C3.952,6.728 3.969,6.692 3.982,6.693C3.982,6.684 3.983,6.678 3.986,6.672C4.007,6.662 4.021,6.654 4.023,6.615C4.025,6.592 4.021,6.577 4.013,6.567H4.015C4.076,6.514 4.116,6.472 4.142,6.436C4.166,6.442 4.22,6.44 4.245,6.431V6.441C4.22,6.465 4.236,6.522 4.269,6.52C4.268,6.525 4.268,6.53 4.269,6.536C4.29,6.549 4.329,6.54 4.359,6.547C4.375,6.545 4.382,6.535 4.378,6.514C4.402,6.499 4.418,6.473 4.414,6.441C4.414,6.396 4.38,6.361 4.336,6.357C4.29,6.352 4.246,6.385 4.255,6.314C4.382,6.163 4.554,5.935 4.602,5.909C4.598,5.904 4.596,5.898 4.593,5.891C4.611,5.941 4.682,5.993 4.757,5.988C4.743,5.963 4.728,5.94 4.723,5.871C4.734,5.887 4.753,5.895 4.777,5.9C4.742,5.74 4.794,5.607 4.901,5.487C4.892,5.642 4.873,5.798 4.779,5.956C4.827,5.971 4.89,5.922 4.899,5.892C4.908,6.031 4.777,6.211 4.674,6.125C4.61,6.268 4.763,6.337 4.859,6.254C4.842,6.341 4.776,6.391 4.703,6.411C4.629,6.431 4.553,6.4 4.602,6.282C4.592,6.276 4.444,6.272 4.44,6.433C4.444,6.526 4.508,6.562 4.513,6.563C4.303,6.722 4.515,6.9 4.687,6.866C4.823,6.845 4.902,6.733 4.951,6.652C4.936,6.711 4.874,6.897 5.032,7.1C5.189,6.854 5.122,6.689 5.118,6.663C5.241,6.853 5.363,6.867 5.434,6.863C5.557,6.865 5.73,6.672 5.509,6.547C5.622,6.494 5.63,6.269 5.471,6.258C5.503,6.346 5.434,6.4 5.358,6.393C5.282,6.386 5.211,6.342 5.185,6.243C5.335,6.315 5.404,6.172 5.353,6.096C5.225,6.202 5.164,6.031 5.147,5.929C5.18,5.954 5.208,5.963 5.263,5.955C5.159,5.821 5.134,5.64 5.125,5.471C5.197,5.584 5.266,5.722 5.264,5.859C5.281,5.851 5.295,5.849 5.324,5.789C5.327,5.891 5.315,5.904 5.281,5.947C5.337,5.971 5.41,5.925 5.445,5.865C5.554,6.012 5.672,6.164 5.785,6.282C5.81,6.308 5.819,6.333 5.773,6.342C5.626,6.288 5.61,6.442 5.672,6.463C5.667,6.477 5.666,6.492 5.67,6.507C5.698,6.516 5.758,6.492 5.773,6.491C5.78,6.484 5.78,6.47 5.78,6.456C5.795,6.456 5.805,6.447 5.812,6.435C5.841,6.441 5.868,6.444 5.905,6.414L6.014,6.523C6.02,6.526 6.008,6.538 6.024,6.54C6.012,6.613 6.04,6.621 6.063,6.64C6.058,6.71 6.162,6.67 6.172,6.674C6.183,6.667 6.184,6.66 6.182,6.652C6.194,6.639 6.188,6.633 6.184,6.624C6.236,6.544 6.162,6.484 6.122,6.491C6.078,6.443 6.048,6.423 6.013,6.394C6.084,6.421 6.194,6.452 6.226,6.475C6.238,6.556 6.309,6.522 6.361,6.526C6.377,6.503 6.369,6.496 6.361,6.488C6.43,6.398 6.285,6.326 6.224,6.378C6.187,6.344 6.156,6.339 6.123,6.324C6.137,6.311 6.165,6.3 6.232,6.296C6.261,6.315 6.29,6.322 6.32,6.301C6.333,6.328 6.357,6.322 6.366,6.317C6.388,6.292 6.388,6.254 6.394,6.219C6.388,6.206 6.379,6.198 6.362,6.199C6.318,6.122 6.232,6.169 6.227,6.203C6.152,6.209 6.086,6.219 6.008,6.25C5.982,6.258 5.957,6.23 5.936,6.213C5.955,6.205 5.973,6.196 5.972,6.179C5.941,6.176 5.91,6.179 5.873,6.14L5.883,6.115C5.854,6.106 5.825,6.085 5.787,6.026C5.795,6.021 5.802,6.013 5.809,6C5.766,5.99 5.732,5.967 5.704,5.934C5.714,5.929 5.724,5.921 5.733,5.907C5.693,5.883 5.656,5.862 5.579,5.762V5.761C5.66,5.774 5.743,5.767 5.791,5.73C5.752,5.719 5.683,5.697 5.652,5.637C5.667,5.636 5.675,5.633 5.685,5.63C5.626,5.59 5.61,5.569 5.594,5.536C5.607,5.537 5.625,5.531 5.631,5.523C5.592,5.505 5.575,5.481 5.562,5.455C5.577,5.455 5.594,5.458 5.607,5.449C5.455,5.381 5.476,5.022 5.312,5.022C5.239,5.028 5.226,5.043 5.188,5.062C5.199,5.031 5.218,5.003 5.238,4.975C5.327,5.016 5.398,4.993 5.422,4.972C5.434,5.116 5.48,5.27 5.579,5.347C5.596,5.337 5.617,5.325 5.629,5.311C5.646,5.444 5.696,5.621 5.808,5.606C5.756,5.477 5.757,5.348 5.751,5.219C5.798,5.596 5.914,5.816 6.009,5.882C6.052,5.824 6.085,5.549 6.064,5.383C6.158,5.553 6.262,5.711 6.349,5.71C6.389,5.71 6.432,5.677 6.459,5.669C6.323,5.614 6.229,5.361 6.146,5.204C6.304,5.452 6.491,5.563 6.579,5.58C6.582,5.503 6.599,5.289 6.403,4.992C6.753,5.178 6.827,5.058 6.848,4.994C6.69,5.05 6.477,4.845 6.334,4.78L6.332,4.774C6.541,4.869 6.746,4.902 6.874,4.822C6.765,4.652 6.659,4.591 6.544,4.547C6.771,4.572 6.845,4.495 6.85,4.41C6.767,4.437 6.691,4.442 6.592,4.426C6.808,4.383 6.848,4.29 6.846,4.281C6.791,4.237 6.686,4.189 6.591,4.18C6.852,4.085 6.769,3.996 6.759,3.968C6.678,4.044 6.536,4.099 6.511,4.097C6.632,4.033 6.738,3.865 6.731,3.846C6.67,3.815 6.544,3.817 6.493,3.831C6.543,3.776 6.611,3.679 6.549,3.599C6.49,3.684 6.433,3.728 6.378,3.773C6.429,3.708 6.488,3.633 6.509,3.481C6.432,3.491 6.363,3.484 6.264,3.55C6.321,3.478 6.356,3.408 6.363,3.323C6.022,3.347 5.622,3.527 5.429,3.977C5.372,4.109 5.417,4.333 5.592,4.307C5.62,4.421 5.546,4.489 5.383,4.484C5.38,4.447 5.391,4.371 5.346,4.332C5.385,4.329 5.393,4.309 5.401,4.292C5.295,4.267 5.312,4.233 5.332,4.044C5.346,4.05 5.362,4.046 5.373,4.035C5.33,3.994 5.344,3.919 5.366,3.683C5.37,3.581 5.35,3.529 5.327,3.511C5.341,3.504 5.35,3.493 5.343,3.467C5.391,3.458 5.37,3.399 5.351,3.379C5.341,3.406 5.299,3.416 5.26,3.386C5.308,3.364 5.308,3.309 5.271,3.271L5.273,3.269ZM5.471,5.806C5.471,5.806 5.474,5.81 5.476,5.812C5.474,5.81 5.473,5.809 5.471,5.807V5.806ZM4.471,5.813C4.466,5.831 4.475,5.88 4.476,5.911C4.492,5.919 4.521,5.911 4.553,5.898C4.551,5.898 4.549,5.9 4.548,5.9C4.523,5.909 4.494,5.919 4.476,5.911L4.47,5.839C4.469,5.831 4.469,5.822 4.471,5.812L4.471,5.813ZM4.459,5.816C4.459,5.816 4.453,5.818 4.451,5.818C4.454,5.818 4.457,5.817 4.459,5.816ZM5.491,5.825C5.528,5.852 5.573,5.852 5.588,5.848C5.588,5.846 5.59,5.844 5.591,5.842C5.591,5.844 5.59,5.847 5.589,5.849C5.556,5.854 5.522,5.849 5.491,5.825ZM5.173,6.472C5.206,6.508 5.338,6.605 5.489,6.558C5.502,6.645 5.429,6.677 5.372,6.666C5.315,6.654 5.231,6.609 5.173,6.473V6.472ZM4.871,6.494C4.821,6.588 4.74,6.668 4.667,6.687C4.595,6.706 4.527,6.67 4.553,6.574C4.711,6.627 4.838,6.533 4.871,6.493V6.494Z" fill-rule="evenodd" id="path_3"/><path fill="#dfdde2" d="M4.146,4.746C4.093,4.683 4.101,4.644 4.103,4.621C4.044,4.576 4.059,4.559 4.049,4.541C4.07,4.577 4.09,4.601 4.111,4.604C4.149,4.64 4.188,4.652 4.227,4.674C3.99,4.544 4.055,4.385 4.058,4.339C4.022,4.34 3.994,4.333 3.974,4.318C3.981,4.253 4.015,4.202 4.086,4.166C4.077,4.169 4.068,4.173 4.059,4.175C4.051,4.173 4.031,4.12 4.056,4.085C4.071,4.076 4.111,4.072 4.151,4.088C4.175,4.039 4.206,3.997 4.27,3.98C4.286,3.997 4.313,4.045 4.294,4.131C4.321,4.141 4.346,4.153 4.367,4.185C4.36,4.212 4.354,4.22 4.347,4.226C4.451,4.228 4.461,4.081 4.345,4.066C4.364,3.929 4.189,3.847 4.113,4.017C3.972,3.979 3.935,4.088 3.988,4.175C3.971,4.188 3.832,4.29 3.964,4.437C3.964,4.51 3.982,4.581 4.08,4.643C4.108,4.726 4.126,4.726 4.147,4.744V4.746H4.146Z" fill-rule="evenodd" id="path_4"/><path fill="#dfdde2" d="M5.885,3.979L5.904,3.943C6.031,3.923 6.107,4.008 6.058,4.108C6.16,4.196 6.103,4.31 6.042,4.332C6.115,4.277 6.075,4.26 6.063,4.261C6.067,4.259 6.073,4.256 6.078,4.252C6.074,4.204 6.055,4.158 5.982,4.103C6.018,4.062 6.014,4.025 6.009,3.998C5.969,3.987 5.933,3.991 5.901,4.007L5.886,3.977L5.885,3.979Z" fill-rule="evenodd" id="path_5"/><path fill="#dfdde2" d="M5.71,4.227C5.716,4.207 5.721,4.175 5.757,4.145C5.746,4.153 5.733,4.163 5.719,4.175C5.674,4.156 5.644,4.114 5.637,4.088C5.665,4.052 5.732,4.058 5.741,4.06C5.721,3.986 5.747,3.931 5.765,3.91C5.825,3.916 5.857,3.947 5.881,3.975L5.899,3.942C5.882,3.89 5.832,3.852 5.773,3.864C5.723,3.869 5.666,3.912 5.688,4.015C5.538,4.075 5.602,4.221 5.709,4.226L5.71,4.227Z" fill-rule="evenodd" id="path_6"/><path fill="#f1eef0" d="M5.384,4.485C5.378,4.54 5.367,4.581 5.355,4.619C5.559,4.588 5.862,4.535 5.821,4.31C5.783,4.336 5.747,4.341 5.709,4.342C5.703,4.311 5.699,4.276 5.71,4.231C5.677,4.277 5.637,4.295 5.595,4.305C5.78,4.387 5.517,4.535 5.407,4.485H5.383L5.384,4.485Z" fill-rule="evenodd" id="path_7"/><path fill="#e8e6eb" d="M4.646,4.569C4.652,4.633 4.672,4.71 4.691,4.783C4.678,4.762 4.638,4.637 4.646,4.569Z" fill-rule="evenodd" id="path_8"/><path fill="#c3bdc9" d="M5.254,4.524C5.204,4.721 5.422,4.702 5.27,4.5C5.418,4.592 5.321,4.728 5.313,4.759C5.289,4.654 5.199,4.627 5.254,4.524Z" fill-rule="evenodd" id="path_9"/><path fill="#ffffff" d="M4.27,3.985L4.196,4.203C4.178,4.195 4.16,4.188 4.137,4.16C4.137,4.084 4.204,3.991 4.269,3.985H4.27Z" fill-rule="evenodd" id="path_10"/><path fill="#c3bdc9" d="M4.329,4.41L4.196,4.204C4.217,4.204 4.241,4.204 4.27,4.197C4.31,4.234 4.352,4.329 4.33,4.41H4.329Z" fill-rule="evenodd" id="path_11"/><path fill="#ffffff" d="M4.291,4.134C4.33,4.145 4.358,4.172 4.363,4.188L4.269,4.197C4.278,4.177 4.285,4.156 4.291,4.134Z" fill-rule="evenodd" id="path_12"/><path fill="#ffffff" d="M4.058,4.176C4.041,4.15 4.041,4.098 4.058,4.087L4.137,4.16C4.116,4.165 4.078,4.167 4.057,4.176H4.058Z" fill-rule="evenodd" id="path_13"/><path fill="#ffffff" d="M3.976,4.317L4.195,4.204C4.195,4.204 4.164,4.167 4.137,4.16C4.078,4.152 3.981,4.226 3.976,4.317Z" fill-rule="evenodd" id="path_14"/><path fill="url(#gradient_1)" d="M4.158,4.318C4.045,4.643 4.532,4.694 4.662,4.703L4.646,4.621C4.411,4.61 4.191,4.559 4.224,4.381C4.181,4.354 4.172,4.342 4.158,4.317V4.318Z" fill-rule="evenodd" id="path_15"/><path fill="url(#gradient_2)" d="M4.158,4.317C4.133,4.33 4.095,4.336 4.058,4.341C3.964,4.736 4.573,4.767 4.69,4.782C4.672,4.745 4.667,4.726 4.662,4.703C4.353,4.683 4.068,4.566 4.158,4.317Z" fill-rule="evenodd" id="path_16"/><path fill="#c3bdc9" d="M5.768,3.912C5.801,3.983 5.838,4.066 5.863,4.145C5.878,4.123 5.892,4.101 5.922,4.076C5.906,4.002 5.868,3.923 5.766,3.911L5.768,3.912Z" fill-rule="evenodd" id="path_17"/><path fill="#ffffff" d="M5.767,3.911C5.802,3.984 5.842,4.07 5.864,4.145L5.781,4.133C5.732,4.079 5.72,3.972 5.767,3.911Z" fill-rule="evenodd" id="path_18"/><path fill="#c3bdc9" d="M5.64,4.087C5.662,4.062 5.707,4.055 5.744,4.062C5.752,4.082 5.766,4.111 5.78,4.133L5.639,4.088H5.64V4.087Z" fill-rule="evenodd" id="path_19"/><path fill="#c3bdc9" d="M6.006,4.001L5.922,4.077L5.977,4.106C6.022,4.068 6.009,4.001 6.007,4.002H6.006V4.001Z" fill-rule="evenodd" id="path_20"/><path fill="#c3bdc9" d="M5.922,4.076C5.908,4.079 5.862,4.145 5.865,4.144L6.075,4.252C6.075,4.216 6.043,4.125 5.922,4.076Z" fill-rule="evenodd" id="path_21"/><path fill="#c3bdc9" d="M5.864,4.144L5.711,4.342C5.808,4.338 5.848,4.294 5.881,4.241L5.863,4.145L5.864,4.144Z" fill-rule="evenodd" id="path_22"/><path fill="#ffffff" d="M6.006,4.002C5.973,3.991 5.93,3.995 5.9,4.011C5.91,4.032 5.917,4.059 5.922,4.078L6.006,4.002Z" fill-rule="evenodd" id="path_23"/><path fill="#ffffff" d="M5.864,4.144L6.076,4.253C6.038,4.285 5.915,4.255 5.882,4.241L5.864,4.144Z" fill-rule="evenodd" id="path_24"/><path fill="#ffffff" d="M5.864,4.144L5.78,4.132C5.688,4.171 5.704,4.329 5.711,4.341L5.864,4.144Z" fill-rule="evenodd" id="path_25"/><path fill="#ffffff" d="M5.779,4.133L5.64,4.087C5.647,4.121 5.688,4.16 5.719,4.173C5.726,4.167 5.757,4.138 5.779,4.133Z" fill-rule="evenodd" id="path_26"/><path fill="#ffffff" d="M5.884,4.241C5.859,4.28 5.851,4.29 5.822,4.308C5.871,4.537 5.545,4.594 5.356,4.621C5.354,4.653 5.344,4.679 5.335,4.704C5.369,4.702 6.039,4.689 5.884,4.241Z" fill-rule="evenodd" id="path_27"/><path fill="url(#gradient_3)" d="M5.888,4.244C5.978,4.576 5.684,4.671 5.336,4.702C5.327,4.723 5.319,4.745 5.311,4.769C5.784,4.736 6.03,4.583 5.966,4.263C5.935,4.258 5.911,4.251 5.888,4.244Z" fill-rule="evenodd" id="path_28"/><path fill="#ffffff" d="M3.684,6.572C3.722,6.59 3.769,6.578 3.794,6.57C3.808,6.583 3.79,6.635 3.83,6.672C3.807,6.682 3.681,6.643 3.683,6.572H3.684Z" fill-rule="evenodd" id="path_29"/><path fill="#ffffff" d="M3.631,6.299C3.647,6.35 3.691,6.355 3.709,6.365C3.709,6.384 3.66,6.383 3.658,6.453C3.625,6.45 3.577,6.371 3.631,6.3V6.299Z" fill-rule="evenodd" id="path_30"/><path fill="#ffffff" d="M3.883,6.717C3.945,6.727 3.966,6.694 3.98,6.692C3.987,6.712 4.015,6.739 4.042,6.753C4.029,6.798 3.88,6.789 3.883,6.717Z" fill-rule="evenodd" id="path_31"/><path fill="#ffffff" d="M4.357,6.548C4.353,6.54 4.283,6.548 4.27,6.537C4.261,6.548 4.258,6.583 4.233,6.597C4.25,6.628 4.367,6.618 4.357,6.547V6.548Z" fill-rule="evenodd" id="path_32"/><path fill="#dfdde2" d="M4.491,5.917C4.502,5.915 4.512,5.913 4.52,5.911C4.479,5.961 4.41,6.049 4.34,6.122C4.271,6.196 4.208,6.269 4.231,6.335C4.183,6.288 4.226,6.24 4.291,6.162C4.362,6.078 4.441,5.981 4.491,5.917ZM4.404,6.451C4.404,6.485 4.375,6.517 4.307,6.514C4.384,6.429 4.228,6.423 4.265,6.388C4.368,6.323 4.412,6.424 4.404,6.451ZM4.331,6.526C4.353,6.531 4.367,6.503 4.372,6.517C4.382,6.544 4.331,6.549 4.331,6.526ZM3.809,6.231C3.793,6.231 3.798,6.295 3.704,6.292C3.702,6.292 3.693,6.292 3.688,6.301C3.677,6.322 3.715,6.365 3.75,6.363C3.78,6.361 3.805,6.344 3.821,6.322C3.828,6.318 3.877,6.29 3.873,6.302C3.815,6.331 3.83,6.349 3.922,6.356C3.98,6.347 4.03,6.296 4.05,6.286C3.991,6.296 3.864,6.256 3.836,6.256C3.832,6.245 3.823,6.236 3.809,6.231ZM3.705,6.557C3.703,6.562 3.7,6.566 3.696,6.569C3.713,6.58 3.756,6.577 3.761,6.573C3.756,6.573 3.72,6.571 3.704,6.557H3.705ZM4.14,6.293C4.06,6.332 4.006,6.472 3.81,6.453C3.805,6.47 3.794,6.474 3.784,6.479C3.744,6.479 3.696,6.488 3.697,6.514C3.697,6.545 3.746,6.564 3.777,6.561C3.81,6.557 3.844,6.526 3.844,6.495C3.844,6.495 3.847,6.49 3.849,6.49C4.066,6.443 4.1,6.331 4.14,6.292L4.14,6.293ZM4.174,6.297C4.165,6.35 3.994,6.508 3.986,6.559C3.977,6.552 3.964,6.548 3.937,6.548C3.952,6.628 3.887,6.652 3.869,6.638C3.869,6.674 3.921,6.689 3.954,6.682C3.994,6.674 4.027,6.613 4.004,6.576C4.009,6.511 4.095,6.492 4.13,6.407C4.162,6.407 4.167,6.357 4.206,6.348C4.198,6.322 4.165,6.356 4.173,6.295L4.174,6.297ZM3.669,6.297C3.674,6.328 3.688,6.342 3.712,6.361C3.693,6.353 3.675,6.349 3.655,6.331C3.673,6.337 3.66,6.292 3.669,6.297ZM4.079,6.212C4.116,6.22 4.163,6.224 4.227,6.22C4.134,6.253 4.091,6.242 4.079,6.212ZM4.198,6.152C4.198,6.157 4.19,6.167 4.183,6.173C4.229,6.173 4.273,6.163 4.305,6.127C4.275,6.141 4.241,6.152 4.198,6.152V6.152ZM4.262,6.048C4.259,6.054 4.247,6.067 4.239,6.076C4.276,6.08 4.35,6.063 4.383,6.026C4.353,6.04 4.306,6.047 4.262,6.047V6.048ZM4.349,5.947C4.342,5.954 4.321,5.976 4.313,5.983C4.35,5.987 4.435,5.957 4.467,5.921C4.437,5.935 4.393,5.947 4.35,5.947L4.349,5.947ZM4.47,5.836C4.468,5.879 4.453,5.907 4.437,5.926C4.45,5.922 4.463,5.919 4.476,5.913C4.475,5.889 4.473,5.861 4.469,5.837L4.47,5.836Z" fill-rule="evenodd" id="path_33"/><path fill="#ffffff" d="M5.674,6.505C5.711,6.514 5.757,6.49 5.778,6.489C5.788,6.509 5.792,6.531 5.834,6.545C5.806,6.576 5.703,6.586 5.674,6.504V6.505Z" fill-rule="evenodd" id="path_34"/><path fill="#ffffff" d="M6.09,6.675C6.076,6.689 6.062,6.703 6.035,6.719C6.081,6.761 6.176,6.714 6.172,6.672C6.163,6.656 6.137,6.691 6.089,6.675H6.09Z" fill-rule="evenodd" id="path_35"/><path fill="#ffffff" d="M6.272,6.526C6.272,6.581 6.266,6.596 6.259,6.615C6.286,6.633 6.354,6.59 6.362,6.525C6.355,6.509 6.326,6.536 6.272,6.526Z" fill-rule="evenodd" id="path_36"/><path fill="#ffffff" d="M6.398,6.218C6.378,6.223 6.39,6.29 6.367,6.311C6.386,6.321 6.399,6.346 6.412,6.369C6.455,6.336 6.453,6.242 6.398,6.218Z" fill-rule="evenodd" id="path_37"/><path fill="#dfdde2" d="M5.721,6.499C5.742,6.493 5.765,6.482 5.773,6.485C5.785,6.44 5.756,6.466 5.721,6.499ZM5.691,6.463C5.732,6.463 5.789,6.47 5.804,6.415C5.868,6.446 5.934,6.387 5.919,6.333C5.919,6.333 5.898,6.426 5.768,6.368C5.741,6.364 5.705,6.381 5.707,6.398C5.709,6.421 5.754,6.441 5.691,6.464V6.463ZM6.039,6.417C6.072,6.451 6.093,6.483 6.086,6.508C6.107,6.478 6.109,6.496 6.113,6.508C6.138,6.527 6.156,6.584 6.094,6.622C6.123,6.63 6.126,6.656 6.094,6.665C6.095,6.692 6.168,6.658 6.174,6.669C6.18,6.667 6.182,6.658 6.183,6.65C6.189,6.642 6.19,6.632 6.183,6.62C6.23,6.542 6.172,6.499 6.122,6.49C6.091,6.458 6.064,6.439 6.038,6.417H6.039ZM6.041,6.333C6.09,6.364 6.159,6.389 6.223,6.431C6.287,6.366 6.335,6.473 6.243,6.48C6.266,6.523 6.364,6.52 6.361,6.486C6.423,6.369 6.256,6.34 6.224,6.382C6.173,6.353 6.128,6.322 6.055,6.309C6.198,6.37 6.223,6.389 6.198,6.393C6.175,6.396 6.095,6.35 6.041,6.333ZM6.084,6.243C6.124,6.226 6.209,6.228 6.232,6.207C6.269,6.139 6.339,6.156 6.361,6.201C6.377,6.201 6.389,6.204 6.391,6.217C6.376,6.25 6.386,6.33 6.345,6.31C6.352,6.304 6.348,6.298 6.345,6.292C6.327,6.31 6.327,6.29 6.327,6.281C6.3,6.312 6.287,6.307 6.268,6.302C6.273,6.3 6.275,6.295 6.274,6.286C6.352,6.256 6.284,6.165 6.222,6.25C6.201,6.256 6.117,6.237 6.085,6.241L6.084,6.243ZM5.469,5.808L5.466,5.817C5.497,5.846 5.771,6.15 5.853,6.279C5.841,6.251 5.846,6.24 5.797,6.181C5.921,6.251 5.982,6.189 5.974,6.175C5.964,6.176 5.957,6.178 5.953,6.175C5.838,6.234 5.753,6.137 5.702,6.072C5.766,6.124 5.808,6.133 5.875,6.137C5.882,6.125 5.883,6.119 5.884,6.113C5.878,6.112 5.872,6.11 5.868,6.107C5.79,6.137 5.697,6.077 5.624,5.977C5.693,6.028 5.744,6.023 5.791,6.023C5.798,6.014 5.809,6.007 5.81,5.996C5.803,5.996 5.798,5.994 5.792,5.992C5.744,6.009 5.623,6.003 5.566,5.903C5.605,5.93 5.65,5.945 5.706,5.931C5.717,5.922 5.73,5.915 5.732,5.905C5.662,5.922 5.593,5.922 5.531,5.867C5.549,5.867 5.568,5.861 5.586,5.852C5.55,5.855 5.511,5.852 5.468,5.808H5.469Z" fill-rule="evenodd" id="path_38"/><path fill="#c3bdc9" d="M4.62,3.647C4.756,3.72 4.913,3.553 5.022,3.644C5.034,3.644 5.036,3.636 5.034,3.628C4.907,3.512 4.77,3.683 4.62,3.647Z" fill-rule="evenodd" id="path_39"/><path fill="#c3bdc9" d="M4.57,5.749L4.559,5.76C4.546,5.82 4.515,5.869 4.478,5.915C4.512,5.92 4.552,5.902 4.591,5.884C4.566,5.838 4.561,5.807 4.569,5.749L4.57,5.749Z" fill-rule="evenodd" id="path_40"/><path fill="#dfdde2" d="M4.609,5.669C4.627,5.707 4.664,5.645 4.681,5.628C4.658,5.71 4.613,5.792 4.712,5.869C4.661,5.874 4.647,5.896 4.694,5.946C4.602,5.901 4.55,5.826 4.609,5.669Z" fill-rule="evenodd" id="path_41"/><path fill="#cecad5" d="M4.685,5.624C4.653,5.785 4.706,5.849 4.758,5.864C4.738,5.689 4.808,5.564 4.904,5.469C4.898,5.307 4.875,5.234 4.857,5.117C4.858,5.172 4.897,5.32 4.871,5.424C4.844,5.532 4.767,5.637 4.686,5.625L4.685,5.624Z" fill-rule="evenodd" id="path_42"/></svg>