<svg id="vector" xmlns="http://www.w3.org/2000/svg" width="197.0d" height="45.0d" viewBox="0 0 197.0 45.0"><defs><linearGradient gradientUnits="userSpaceOnUse" x1="15.32" y1="17.2" x2="18.82" y2="19.96" id="gradient_0"><stop stop-color="#c3bdc9" offset="0.0"/><stop stop-color="#c3bdc9" stop-opacity="0" offset="1.0"/></linearGradient><linearGradient gradientUnits="userSpaceOnUse" x1="25.81" y1="23.5" x2="15.21" y2="18.02" id="gradient_1"><stop stop-color="#c3bdc9" offset="0.0"/><stop stop-color="#c3bdc9" stop-opacity="0" offset="1.0"/></linearGradient><linearGradient gradientUnits="userSpaceOnUse" x1="31.47" y1="16.1" x2="25.13" y2="20.94" id="gradient_2"><stop stop-color="#c3bdc9" offset="0.0"/><stop stop-color="#c3bdc9" stop-opacity="0" offset="1.0"/></linearGradient></defs><path fill="#dc143c" d="M0,22.35C0,44.7 0,44.7 22.3,44.7C44.59,44.7 44.59,44.7 44.59,22.35C44.59,0 44.59,0 22.3,0C0,0 0,0 0,22.35Z" id="path_0"/><path fill="#f6d155" d="M19.8,6.07C20.34,7 20.55,7.89 20.84,8.73C21.33,8.66 21.89,8.79 22.44,8.83C23.07,8.95 23.56,9.01 24.03,8.94C24.32,7.61 24.57,6.94 25.14,6.02C24.89,6.19 24.35,6.26 24.14,6.58C23.82,6.3 23.57,6.47 23.41,6.77C23.47,6.53 23.4,6.33 23.08,6.3C23.27,5.96 22.98,5.78 22.69,5.94C22.68,5.63 22.44,5.63 22.42,5.47C22.38,5.66 22.17,5.57 22.2,6.02C21.96,5.83 21.72,5.95 21.82,6.29C21.52,6.29 21.44,6.53 21.47,6.83C21.27,6.37 20.9,6.5 20.76,6.67C20.53,6.21 20.35,6.5 19.81,6.07H19.8V6.07Z" fill-rule="evenodd" id="path_1"/><path fill="#ffffff" d="M24.49,8.44C24.16,9.02 24.01,9.06 22.52,8.83C21.35,8.71 20.29,8.38 20.24,9.45C20.63,9.49 21.2,9.53 21.44,10.37L20.72,10.98C20.21,11.06 19.41,11.74 18.88,11.11C18.74,11.7 19.28,11.87 19.86,11.84C20.26,11.8 20.38,11.69 21.13,11.55L21.33,11.76C22.45,11.86 23.03,13.47 21.21,14.42C21.13,14.64 21.25,14.9 21.42,14.93C20.89,15.68 20.02,16.62 19.71,16C19.63,16.08 19.43,16.59 19.83,16.87C19.52,17.24 19.41,17.68 19.43,18.19C18.22,18 17.43,17.8 17.7,16.67C18.98,16.72 19.33,15.18 19.14,14.4C18.4,11.26 14.36,8.74 11.42,8.66C11.58,9.52 12.11,10.13 12.71,10.7C11.93,10.32 11.03,9.95 10.08,10.15C10.19,10.82 10.55,11.6 12.09,12.88C10.98,12.22 9.96,11.57 9.61,11.05C9.45,11.27 9.36,12.15 10.3,12.79C10,12.67 8.52,12.68 8.07,13.01C8.34,13.62 9.58,14.7 10.59,15.04C9.63,14.89 8.73,14.51 7.91,13.81C7.79,13.92 7.91,15.06 8.94,15.51C8.6,15.53 7.47,15.85 7.18,16.21C7.77,17 9.29,17.7 10.04,17.7C9.01,17.84 7.89,17.63 7.43,17.48C7.43,17.75 7.22,18.8 10.02,18.63C9.02,19.1 7.51,20.09 7.27,20.95C8.24,21.39 9.98,21.03 10.88,20.75C8.22,22.38 7.8,22.55 7.31,22.43C7.95,23.8 9.51,22.87 10.85,22.11C9.2,24.33 8.93,25.46 8.97,27.03C10.3,26.87 12.22,24.96 13.25,23.33C12.06,25.78 11.35,27.75 10.06,28.34C11.54,28.92 12.8,27.07 13.7,25.09C13.36,26.34 13.22,28.98 13.65,29.63C14.98,28.73 16,26.71 16.67,24.4C16.44,25.54 16.28,26.68 15.85,27.82C16.71,27.98 17.15,26.43 17.44,25.53C17.47,25.58 17.5,25.62 17.58,25.7C18.67,24.91 19.01,23.07 19.09,22.36C20.08,22.64 20.52,22.28 20.77,22.1C20.98,22.4 21,22.87 21.06,22.93C19.99,22.05 18.84,22.93 18.79,24.39C18.67,25 18.35,25.71 17.54,26.25C17.58,26.31 17.7,26.34 17.85,26.34C17.7,26.58 17.58,26.79 17.34,27.02C17.4,27.06 17.47,27.06 17.55,27.07C17.37,27.38 17.07,27.66 16.77,27.81C16.84,27.88 16.88,27.9 17.1,27.96C16.91,28.23 16.58,28.47 16.27,28.6C16.86,28.95 17.3,28.99 17.67,28.96C17.44,29.43 17.07,29.66 16.7,29.87C16.81,29.97 16.95,29.99 17.07,29.96C16.73,30.31 16.38,30.58 16.07,30.68C16.12,30.72 16.16,30.79 16.37,30.77C16.15,31.05 15.87,31.32 15.38,31.45C15.48,31.63 15.68,31.61 15.84,31.61C15.71,31.9 15.29,31.99 14.87,32.08C15.19,32.17 15.41,32.34 15.21,32.3C15.09,32.45 14.96,32.53 14.69,32.58C14.41,32.62 13.39,32.26 12.99,32.39C12.88,32.16 12.6,32 12.3,32C11.93,32 11.56,32.24 11.54,32.58C11.48,32.54 11.23,32.5 11.27,32.79C11.36,32.96 11.37,33.1 11.9,33.31C11.99,33.35 12.09,33.37 12.23,33.37C12.42,33.36 12.64,33.26 12.8,33.12C13.07,33.18 13.36,33.23 13.52,33.29C13.1,33.32 12.95,33.56 12.71,33.73C12.6,33.73 12.52,33.7 12.43,33.68C12.37,33.67 12.32,33.67 12.26,33.67C11.96,33.68 11.65,34.03 11.61,34.42C11.61,34.5 11.63,34.57 11.66,34.64V34.7C11.57,34.82 11.61,34.9 11.69,34.97C12.07,35.11 12.29,35.03 12.42,35C12.75,34.96 13.04,34.68 13.04,34.37C13.44,34.3 13.83,34.19 14.06,34.03C14.06,34.05 14.07,34.07 14.07,34.11C13.94,34.19 13.71,34.32 13.59,34.72C13.55,34.72 13.51,34.72 13.48,34.72C13.03,34.72 12.92,35.03 12.92,35.3C12.92,35.55 13.02,35.71 13.15,35.81C13.13,35.97 13.15,36.1 13.31,36.14C13.85,36.23 13.98,35.94 14.09,35.95C14.09,35.88 14.1,35.83 14.12,35.78C14.29,35.7 14.4,35.64 14.42,35.33C14.43,35.14 14.4,35.02 14.34,34.94H14.35C14.85,34.51 15.17,34.18 15.38,33.89C15.57,33.94 16,33.92 16.21,33.85V33.93C16,34.12 16.14,34.58 16.4,34.56C16.39,34.6 16.39,34.64 16.4,34.69C16.57,34.79 16.89,34.72 17.13,34.78C17.26,34.76 17.31,34.68 17.28,34.51C17.47,34.39 17.61,34.18 17.58,33.93C17.58,33.57 17.3,33.28 16.95,33.26C16.57,33.22 16.22,33.48 16.29,32.9C17.31,31.7 18.7,29.87 19.08,29.65C19.05,29.61 19.04,29.56 19.01,29.51C19.16,29.91 19.73,30.33 20.34,30.29C20.22,30.08 20.1,29.9 20.07,29.35C20.15,29.47 20.3,29.54 20.5,29.58C20.22,28.29 20.63,27.23 21.49,26.26C21.42,27.51 21.27,28.76 20.51,30.03C20.9,30.15 21.41,29.76 21.48,29.51C21.56,30.63 20.5,32.08 19.67,31.39C19.15,32.54 20.38,33.09 21.16,32.43C21.02,33.12 20.49,33.53 19.9,33.69C19.31,33.85 18.69,33.6 19.08,32.65C19,32.6 17.82,32.57 17.78,33.86C17.82,34.61 18.33,34.9 18.37,34.9C16.67,36.18 18.38,37.62 19.77,37.34C20.87,37.17 21.5,36.27 21.9,35.62C21.78,36.09 21.28,37.59 22.56,39.22C23.82,37.25 23.28,35.92 23.25,35.71C24.24,37.24 25.22,37.35 25.79,37.32C26.78,37.33 28.18,35.78 26.4,34.78C27.31,34.35 27.37,32.54 26.09,32.46C26.35,33.17 25.79,33.6 25.18,33.54C24.57,33.49 24,33.13 23.78,32.33C25,32.92 25.56,31.77 25.14,31.15C24.11,32.01 23.62,30.63 23.48,29.82C23.74,30.02 23.98,30.09 24.42,30.02C23.58,28.94 23.38,27.49 23.31,26.13C23.88,27.04 24.44,28.15 24.42,29.25C24.56,29.18 24.68,29.17 24.91,28.69C24.93,29.5 24.84,29.62 24.56,29.96C25.01,30.15 25.6,29.78 25.88,29.3C26.76,30.48 27.71,31.7 28.63,32.65C28.83,32.85 28.9,33.06 28.52,33.13C27.34,32.69 27.21,33.93 27.71,34.1C27.67,34.21 27.66,34.34 27.69,34.45C27.93,34.53 28.4,34.33 28.53,34.33C28.59,34.27 28.59,34.16 28.59,34.05C28.71,34.05 28.79,33.97 28.84,33.88C29.07,33.93 29.3,33.95 29.59,33.71L30.47,34.59C30.52,34.61 30.42,34.71 30.55,34.73C30.45,35.31 30.68,35.37 30.87,35.53C30.83,36.09 31.67,35.77 31.75,35.8C31.83,35.74 31.84,35.69 31.83,35.62C31.92,35.52 31.87,35.47 31.84,35.4C32.26,34.76 31.67,34.27 31.34,34.33C30.99,33.94 30.74,33.78 30.46,33.55C31.04,33.77 31.92,34.02 32.18,34.2C32.27,34.85 32.85,34.58 33.27,34.61C33.4,34.42 33.34,34.37 33.27,34.3C33.82,33.58 32.66,33 32.16,33.42C31.87,33.15 31.61,33.1 31.35,32.99C31.46,32.88 31.69,32.79 32.23,32.76C32.46,32.92 32.7,32.98 32.94,32.8C33.04,33.02 33.24,32.97 33.31,32.93C33.49,32.73 33.49,32.42 33.53,32.14C33.49,32.04 33.41,31.98 33.28,31.98C32.92,31.37 32.23,31.74 32.19,32.02C31.59,32.06 31.05,32.14 30.42,32.39C30.21,32.46 30.01,32.23 29.84,32.1C30,32.03 30.14,31.96 30.13,31.82C29.88,31.8 29.63,31.82 29.34,31.51L29.42,31.3C29.18,31.23 28.95,31.06 28.64,30.59C28.71,30.55 28.76,30.49 28.82,30.38C28.48,30.31 28.2,30.12 27.97,29.86C28.05,29.82 28.13,29.74 28.2,29.63C27.89,29.44 27.58,29.27 26.97,28.47V28.46C27.61,28.57 28.28,28.51 28.67,28.22C28.36,28.13 27.8,27.94 27.55,27.46C27.67,27.46 27.74,27.43 27.82,27.41C27.34,27.09 27.21,26.92 27.09,26.66C27.19,26.66 27.33,26.62 27.38,26.55C27.07,26.41 26.93,26.22 26.82,26.01C26.95,26.01 27.09,26.03 27.19,25.96C25.96,25.41 26.14,22.53 24.81,22.52C24.22,22.57 24.12,22.7 23.81,22.85C23.9,22.6 24.05,22.37 24.21,22.14C24.93,22.48 25.51,22.29 25.7,22.12C25.79,23.28 26.17,24.52 26.97,25.14C27.1,25.06 27.27,24.96 27.36,24.85C27.51,25.92 27.91,27.33 28.81,27.22C28.39,26.18 28.4,25.14 28.35,24.1C28.73,27.14 29.66,28.9 30.43,29.44C30.78,28.97 31.04,26.76 30.87,25.42C31.63,26.79 32.47,28.06 33.17,28.06C33.49,28.06 33.84,27.79 34.06,27.73C32.96,27.28 32.21,25.25 31.54,23.99C32.81,25.98 34.31,26.87 35.02,27.01C35.05,26.39 35.18,24.67 33.6,22.28C36.43,23.78 37.03,22.81 37.19,22.3C35.92,22.75 34.2,21.1 33.05,20.58L33.04,20.53C34.72,21.3 36.37,21.56 37.4,20.91C36.52,19.55 35.67,19.06 34.75,18.71C36.57,18.91 37.17,18.29 37.21,17.6C36.54,17.83 35.93,17.87 35.13,17.74C36.88,17.39 37.19,16.64 37.18,16.57C36.73,16.22 35.89,15.83 35.12,15.76C37.23,15 36.56,14.28 36.48,14.05C35.82,14.67 34.68,15.11 34.47,15.09C35.46,14.58 36.31,13.23 36.25,13.08C35.76,12.82 34.75,12.84 34.33,12.96C34.74,12.51 35.28,11.73 34.79,11.09C34.31,11.77 33.85,12.12 33.41,12.48C33.82,11.96 34.29,11.37 34.46,10.14C33.84,10.22 33.29,10.17 32.49,10.69C32.94,10.12 33.23,9.56 33.29,8.87C30.53,9.06 27.31,10.51 25.75,14.12C25.3,15.19 25.66,16.99 27.07,16.78C27.29,17.69 26.69,18.24 25.39,18.2C25.36,17.9 25.45,17.29 25.08,16.98C25.4,16.96 25.47,16.8 25.53,16.66C24.68,16.46 24.81,16.18 24.97,14.66C25.08,14.71 25.21,14.68 25.31,14.59C24.96,14.26 25.07,13.66 25.25,11.77C25.28,10.94 25.11,10.53 24.93,10.38C25.04,10.33 25.12,10.24 25.06,10.03C25.45,9.96 25.28,9.48 25.12,9.32C25.04,9.54 24.71,9.62 24.39,9.38C24.78,9.2 24.78,8.76 24.48,8.46L24.49,8.44ZM26.09,28.82C26.09,28.82 26.12,28.86 26.13,28.87C26.12,28.86 26.11,28.85 26.09,28.83V28.82ZM18.03,28.88C17.99,29.02 18.06,29.42 18.07,29.67C18.2,29.74 18.43,29.67 18.69,29.57C18.68,29.57 18.66,29.58 18.65,29.58C18.45,29.66 18.22,29.74 18.07,29.67L18.02,29.09C18.02,29.02 18.02,28.95 18.03,28.87L18.03,28.88ZM17.94,28.9C17.94,28.9 17.89,28.92 17.87,28.92C17.9,28.92 17.92,28.91 17.94,28.9ZM26.26,28.98C26.55,29.19 26.91,29.19 27.04,29.16C27.04,29.15 27.06,29.13 27.07,29.11C27.07,29.13 27.06,29.15 27.05,29.17C26.78,29.21 26.51,29.17 26.26,28.98ZM23.69,34.18C23.96,34.46 25.02,35.25 26.24,34.87C26.35,35.57 25.76,35.82 25.29,35.73C24.84,35.64 24.16,35.28 23.69,34.18V34.18ZM21.26,34.35C20.86,35.11 20.2,35.75 19.61,35.9C19.03,36.06 18.48,35.77 18.69,35C19.96,35.42 20.99,34.67 21.26,34.34V34.35Z" fill-rule="evenodd" id="path_2"/><path fill="#dfdde2" d="M15.41,20.31C14.98,19.8 15.05,19.48 15.06,19.3C14.59,18.94 14.71,18.8 14.63,18.66C14.8,18.95 14.96,19.14 15.13,19.16C15.44,19.45 15.75,19.55 16.06,19.73C14.15,18.68 14.68,17.4 14.7,17.03C14.41,17.04 14.19,16.99 14.03,16.87C14.08,16.35 14.35,15.93 14.93,15.64C14.86,15.67 14.79,15.7 14.71,15.71C14.65,15.7 14.48,15.27 14.69,14.99C14.81,14.92 15.13,14.89 15.45,15.02C15.65,14.63 15.89,14.28 16.41,14.15C16.54,14.28 16.76,14.67 16.6,15.36C16.82,15.44 17.03,15.54 17.19,15.79C17.14,16.01 17.09,16.07 17.03,16.13C17.87,16.14 17.95,14.96 17.02,14.84C17.17,13.74 15.76,13.08 15.14,14.44C14.01,14.14 13.71,15.02 14.14,15.71C14,15.82 12.88,16.64 13.95,17.83C13.95,18.41 14.09,18.98 14.88,19.47C15.1,20.14 15.25,20.14 15.42,20.29L15.41,20.31Z" fill-rule="evenodd" id="path_3"/><path fill="#dfdde2" d="M29.43,14.14L29.59,13.86C30.61,13.7 31.22,14.38 30.82,15.18C31.64,15.89 31.19,16.81 30.69,16.98C31.29,16.54 30.96,16.41 30.86,16.42C30.89,16.4 30.94,16.38 30.98,16.34C30.95,15.95 30.8,15.58 30.21,15.14C30.5,14.82 30.47,14.51 30.43,14.3C30.11,14.21 29.82,14.24 29.56,14.37L29.43,14.13V14.14H29.43Z" fill-rule="evenodd" id="path_4"/><path fill="#dfdde2" d="M28.02,16.13C28.07,15.97 28.11,15.72 28.4,15.48C28.31,15.54 28.2,15.62 28.09,15.72C27.73,15.57 27.49,15.23 27.43,15.02C27.65,14.73 28.2,14.77 28.27,14.79C28.11,14.2 28.32,13.76 28.46,13.59C28.95,13.64 29.2,13.89 29.4,14.11L29.54,13.85C29.41,13.43 29,13.12 28.52,13.21C28.12,13.26 27.66,13.61 27.85,14.43C26.63,14.92 27.15,16.08 28.01,16.13L28.02,16.13Z" fill-rule="evenodd" id="path_5"/><path fill="#f1eef0" d="M25.39,18.21C25.34,18.66 25.25,18.98 25.16,19.29C26.8,19.04 29.24,18.62 28.91,16.8C28.61,17.02 28.32,17.06 28.01,17.07C27.96,16.81 27.93,16.53 28.02,16.17C27.75,16.54 27.43,16.68 27.1,16.76C28.59,17.43 26.47,18.61 25.58,18.21H25.38L25.39,18.21Z" fill-rule="evenodd" id="path_6"/><path fill="#e8e6eb" d="M19.44,18.89C19.49,19.4 19.65,20.02 19.8,20.61C19.7,20.44 19.38,19.43 19.44,18.89Z" fill-rule="evenodd" id="path_7"/><path fill="#c3bdc9" d="M24.34,18.52C23.94,20.11 25.7,19.95 24.47,18.33C25.67,19.07 24.88,20.16 24.82,20.41C24.63,19.56 23.9,19.35 24.34,18.52Z" fill-rule="evenodd" id="path_8"/><path fill="#ffffff" d="M16.41,14.19L15.81,15.94C15.67,15.88 15.53,15.82 15.33,15.6C15.33,14.99 15.88,14.24 16.4,14.19H16.41Z" fill-rule="evenodd" id="path_9"/><path fill="#c3bdc9" d="M16.88,17.6L15.81,15.95C15.98,15.95 16.17,15.95 16.41,15.89C16.73,16.19 17.07,16.96 16.89,17.6H16.88Z" fill-rule="evenodd" id="path_10"/><path fill="#ffffff" d="M16.58,15.39C16.9,15.48 17.12,15.7 17.16,15.82L16.4,15.9C16.48,15.74 16.53,15.57 16.58,15.39Z" fill-rule="evenodd" id="path_11"/><path fill="#ffffff" d="M14.71,15.73C14.56,15.52 14.56,15.1 14.71,15.01L15.34,15.6C15.17,15.64 14.86,15.65 14.7,15.73H14.71Z" fill-rule="evenodd" id="path_12"/><path fill="#ffffff" d="M14.04,16.86L15.81,15.95C15.81,15.95 15.56,15.65 15.34,15.6C14.86,15.53 14.08,16.12 14.04,16.86Z" fill-rule="evenodd" id="path_13"/><path fill="url(#gradient_0)" d="M15.51,16.87C14.6,19.49 18.53,19.89 19.57,19.96L19.44,19.31C17.55,19.22 15.77,18.81 16.04,17.37C15.69,17.16 15.62,17.06 15.51,16.86V16.87Z" fill-rule="evenodd" id="path_14"/><path fill="url(#gradient_1)" d="M15.51,16.86C15.3,16.97 15,17.01 14.71,17.05C13.95,20.23 18.86,20.48 19.8,20.6C19.65,20.3 19.61,20.15 19.57,19.96C17.08,19.8 14.78,18.86 15.51,16.86Z" fill-rule="evenodd" id="path_15"/><path fill="#c3bdc9" d="M28.49,13.6C28.76,14.17 29.05,14.84 29.26,15.48C29.38,15.3 29.49,15.12 29.73,14.92C29.6,14.32 29.3,13.69 28.48,13.6L28.49,13.6Z" fill-rule="evenodd" id="path_16"/><path fill="#ffffff" d="M28.49,13.6C28.76,14.18 29.08,14.87 29.27,15.48L28.6,15.38C28.2,14.95 28.1,14.08 28.49,13.6Z" fill-rule="evenodd" id="path_17"/><path fill="#c3bdc9" d="M27.46,15.01C27.63,14.81 28,14.75 28.29,14.8C28.36,14.97 28.47,15.2 28.59,15.38L27.45,15.01L27.46,15.01Z" fill-rule="evenodd" id="path_18"/><path fill="#c3bdc9" d="M30.41,14.32L29.73,14.93L30.18,15.16C30.54,14.86 30.43,14.32 30.42,14.33L30.41,14.32Z" fill-rule="evenodd" id="path_19"/><path fill="#c3bdc9" d="M29.73,14.93C29.62,14.95 29.24,15.48 29.26,15.47L30.96,16.34C30.96,16.05 30.7,15.32 29.73,14.93Z" fill-rule="evenodd" id="path_20"/><path fill="#c3bdc9" d="M29.26,15.47L28.03,17.06C28.81,17.03 29.13,16.68 29.4,16.25L29.25,15.48L29.26,15.47Z" fill-rule="evenodd" id="path_21"/><path fill="#ffffff" d="M30.41,14.33C30.14,14.24 29.79,14.27 29.55,14.4C29.63,14.57 29.69,14.78 29.73,14.94L30.41,14.33Z" fill-rule="evenodd" id="path_22"/><path fill="#ffffff" d="M29.26,15.47L30.97,16.34C30.66,16.6 29.67,16.36 29.4,16.25L29.26,15.47Z" fill-rule="evenodd" id="path_23"/><path fill="#ffffff" d="M29.26,15.47L28.59,15.37C27.85,15.69 27.97,16.96 28.03,17.05L29.26,15.47Z" fill-rule="evenodd" id="path_24"/><path fill="#ffffff" d="M28.58,15.38L27.46,15.01C27.51,15.29 27.85,15.6 28.09,15.7C28.15,15.65 28.4,15.42 28.58,15.38Z" fill-rule="evenodd" id="path_25"/><path fill="#ffffff" d="M29.43,16.25C29.22,16.56 29.16,16.64 28.92,16.79C29.32,18.63 26.69,19.09 25.17,19.3C25.15,19.56 25.07,19.77 25,19.97C25.27,19.95 30.67,19.84 29.43,16.25Z" fill-rule="evenodd" id="path_26"/><path fill="url(#gradient_2)" d="M29.46,16.27C30.18,18.94 27.81,19.7 25.01,19.95C24.93,20.12 24.87,20.3 24.81,20.49C28.61,20.22 30.6,18.99 30.08,16.42C29.83,16.38 29.64,16.32 29.46,16.27Z" fill-rule="evenodd" id="path_27"/><path fill="#f6d155" d="M11.69,34.98C11.99,35.13 12.38,35.03 12.58,34.97C12.69,35.07 12.54,35.49 12.86,35.78C12.68,35.86 11.67,35.55 11.68,34.98H11.69Z" fill-rule="evenodd" id="path_28"/><path fill="#f6d155" d="M11.26,32.79C11.39,33.19 11.75,33.24 11.89,33.32C11.89,33.48 11.49,33.47 11.48,34.03C11.21,34 10.83,33.36 11.26,32.8V32.79Z" fill-rule="evenodd" id="path_29"/><path fill="#f6d155" d="M13.29,36.15C13.79,36.23 13.96,35.96 14.08,35.95C14.13,36.11 14.35,36.32 14.57,36.43C14.47,36.8 13.27,36.72 13.29,36.15Z" fill-rule="evenodd" id="path_30"/><path fill="#f6d155" d="M17.11,34.78C17.08,34.72 16.52,34.78 16.41,34.69C16.34,34.78 16.32,35.07 16.11,35.18C16.25,35.43 17.19,35.35 17.11,34.77V34.78Z" fill-rule="evenodd" id="path_31"/><path fill="#dfdde2" d="M18.19,29.71C18.28,29.71 18.36,29.69 18.43,29.67C18.1,30.07 17.54,30.78 16.98,31.37C16.42,31.96 15.91,32.54 16.1,33.08C15.71,32.7 16.06,32.31 16.58,31.69C17.15,31.01 17.79,30.23 18.19,29.71ZM17.49,34.01C17.49,34.28 17.26,34.54 16.71,34.51C17.33,33.83 16.07,33.79 16.37,33.51C17.2,32.98 17.55,33.79 17.49,34.01ZM16.9,34.61C17.08,34.65 17.19,34.42 17.23,34.54C17.31,34.76 16.91,34.8 16.9,34.61ZM12.69,32.24C12.57,32.24 12.61,32.75 11.85,32.73C11.83,32.73 11.76,32.73 11.72,32.8C11.63,32.97 11.94,33.32 12.22,33.31C12.46,33.29 12.66,33.15 12.79,32.97C12.85,32.94 13.25,32.71 13.21,32.81C12.74,33.04 12.86,33.19 13.61,33.24C14.08,33.17 14.48,32.76 14.64,32.68C14.16,32.76 13.14,32.44 12.91,32.44C12.88,32.35 12.81,32.28 12.69,32.24ZM11.86,34.86C11.84,34.9 11.82,34.94 11.78,34.96C11.92,35.05 12.27,35.02 12.31,34.99C12.27,34.99 11.98,34.98 11.85,34.86H11.86ZM15.36,32.74C14.72,33.05 14.28,34.18 12.7,34.03C12.66,34.16 12.57,34.19 12.49,34.23C12.17,34.23 11.78,34.31 11.79,34.51C11.79,34.76 12.18,34.92 12.44,34.89C12.7,34.86 12.97,34.61 12.97,34.36C12.97,34.36 13,34.32 13.02,34.32C14.77,33.94 15.04,33.04 15.37,32.73L15.36,32.74ZM15.64,32.77C15.57,33.19 14.19,34.47 14.12,34.88C14.05,34.82 13.95,34.78 13.72,34.79C13.85,35.43 13.33,35.62 13.18,35.51C13.18,35.8 13.6,35.92 13.87,35.86C14.19,35.8 14.45,35.31 14.27,35.02C14.31,34.49 15,34.34 15.29,33.66C15.54,33.66 15.58,33.26 15.89,33.18C15.83,32.98 15.57,33.25 15.63,32.75L15.64,32.77ZM11.57,32.77C11.61,33.02 11.72,33.13 11.91,33.28C11.76,33.23 11.62,33.19 11.45,33.04C11.6,33.09 11.49,32.73 11.57,32.77ZM14.87,32.09C15.17,32.15 15.55,32.19 16.07,32.15C15.31,32.42 14.97,32.33 14.87,32.09ZM15.83,31.61C15.83,31.65 15.77,31.73 15.71,31.78C16.08,31.78 16.44,31.7 16.69,31.4C16.45,31.51 16.18,31.6 15.83,31.6V31.61ZM16.35,30.77C16.32,30.82 16.23,30.92 16.16,30.99C16.46,31.03 17.06,30.89 17.32,30.59C17.08,30.71 16.7,30.76 16.35,30.76V30.77ZM17.05,29.96C16.99,30.02 16.82,30.19 16.76,30.25C17.06,30.28 17.74,30.04 18,29.75C17.76,29.87 17.4,29.96 17.06,29.96H17.05V29.96ZM18.02,29.07C18.01,29.41 17.89,29.63 17.76,29.79C17.86,29.75 17.97,29.73 18.07,29.68C18.06,29.49 18.05,29.27 18.02,29.07L18.02,29.07Z" fill-rule="evenodd" id="path_32"/><path fill="#f6d155" d="M27.73,34.44C28.03,34.51 28.4,34.32 28.57,34.31C28.65,34.47 28.68,34.65 29.02,34.76C28.8,35.01 27.97,35.09 27.73,34.43V34.44Z" fill-rule="evenodd" id="path_33"/><path fill="#f6d155" d="M31.09,35.81C30.97,35.92 30.85,36.03 30.64,36.16C31.01,36.5 31.78,36.12 31.75,35.78C31.68,35.66 31.46,35.94 31.08,35.81H31.09Z" fill-rule="evenodd" id="path_34"/><path fill="#f6d155" d="M32.55,34.61C32.55,35.06 32.51,35.18 32.45,35.33C32.66,35.47 33.22,35.13 33.28,34.6C33.22,34.47 32.98,34.7 32.55,34.61Z" fill-rule="evenodd" id="path_35"/><path fill="#f6d155" d="M33.57,32.13C33.41,32.18 33.5,32.72 33.32,32.89C33.47,32.97 33.57,33.17 33.68,33.35C34.03,33.09 34.01,32.33 33.57,32.13Z" fill-rule="evenodd" id="path_36"/><path fill="#dfdde2" d="M28.11,34.39C28.28,34.35 28.46,34.26 28.52,34.28C28.63,33.92 28.39,34.13 28.11,34.39ZM27.87,34.11C28.2,34.11 28.66,34.16 28.78,33.72C29.29,33.97 29.83,33.5 29.71,33.06C29.71,33.06 29.54,33.81 28.49,33.34C28.27,33.31 27.98,33.44 28,33.59C28.01,33.77 28.37,33.93 27.87,34.12V34.11ZM30.67,33.74C30.94,34.01 31.11,34.27 31.05,34.47C31.22,34.23 31.24,34.37 31.27,34.47C31.47,34.62 31.61,35.08 31.12,35.39C31.35,35.45 31.37,35.66 31.12,35.73C31.13,35.95 31.72,35.67 31.76,35.76C31.81,35.75 31.83,35.67 31.84,35.61C31.88,35.55 31.89,35.47 31.84,35.37C32.21,34.74 31.75,34.39 31.34,34.32C31.09,34.07 30.88,33.91 30.66,33.74H30.67ZM30.69,33.06C31.09,33.31 31.64,33.51 32.15,33.85C32.67,33.33 33.06,34.19 32.31,34.24C32.51,34.59 33.3,34.56 33.27,34.29C33.77,33.35 32.43,33.12 32.16,33.46C31.76,33.23 31.39,32.97 30.81,32.87C31.95,33.36 32.15,33.51 31.95,33.54C31.77,33.57 31.13,33.2 30.69,33.06ZM31.04,32.34C31.36,32.2 32.04,32.22 32.23,32.05C32.53,31.5 33.09,31.64 33.27,32C33.4,32 33.5,32.03 33.51,32.13C33.39,32.39 33.47,33.03 33.14,32.87C33.2,32.83 33.17,32.78 33.14,32.73C32.99,32.87 32.99,32.71 32.99,32.64C32.78,32.89 32.67,32.85 32.52,32.81C32.56,32.79 32.58,32.75 32.57,32.68C33.19,32.44 32.65,31.71 32.15,32.39C31.98,32.44 31.3,32.29 31.05,32.32L31.04,32.34ZM26.08,28.84L26.05,28.92C26.31,29.15 28.52,31.59 29.17,32.63C29.07,32.4 29.11,32.31 28.72,31.84C29.72,32.4 30.21,31.91 30.15,31.8C30.07,31.8 30.02,31.82 29.98,31.8C29.05,32.27 28.36,31.48 27.96,30.96C28.48,31.38 28.81,31.45 29.35,31.48C29.41,31.39 29.42,31.34 29.43,31.29C29.38,31.28 29.33,31.27 29.3,31.24C28.67,31.48 27.92,31 27.33,30.2C27.89,30.61 28.29,30.57 28.68,30.57C28.73,30.5 28.82,30.44 28.83,30.36C28.77,30.36 28.73,30.34 28.68,30.32C28.29,30.46 27.32,30.41 26.86,29.6C27.17,29.82 27.53,29.95 27.99,29.84C28.08,29.76 28.18,29.7 28.2,29.62C27.63,29.76 27.08,29.76 26.58,29.32C26.72,29.32 26.87,29.27 27.02,29.2C26.73,29.22 26.42,29.2 26.07,28.84H26.08Z" fill-rule="evenodd" id="path_37"/><path fill="#c3bdc9" d="M19.23,11.47C20.33,12.06 21.59,10.72 22.48,11.45C22.57,11.45 22.59,11.38 22.57,11.32C21.54,10.39 20.44,11.76 19.23,11.47Z" fill-rule="evenodd" id="path_38"/><path fill="#c3bdc9" d="M18.83,28.37L18.74,28.46C18.64,28.94 18.38,29.33 18.09,29.7C18.36,29.74 18.68,29.59 19,29.45C18.8,29.08 18.76,28.84 18.82,28.36L18.83,28.37Z" fill-rule="evenodd" id="path_39"/><path fill="#dfdde2" d="M19.14,27.72C19.29,28.03 19.59,27.53 19.72,27.39C19.54,28.05 19.17,28.71 19.97,29.33C19.56,29.37 19.45,29.55 19.83,29.95C19.09,29.59 18.67,28.99 19.14,27.72Z" fill-rule="evenodd" id="path_40"/><path fill="#cecad5" d="M19.75,27.37C19.5,28.66 19.92,29.17 20.35,29.29C20.19,27.89 20.74,26.89 21.52,26.13C21.47,24.82 21.29,24.23 21.14,23.29C21.15,23.73 21.46,24.93 21.26,25.76C21.04,26.63 20.42,27.47 19.76,27.37L19.75,27.37Z" fill-rule="evenodd" id="path_41"/><path fill="#c3bdc9" d="M17.18,28.7C17.91,28.75 18.51,28.52 19,28.03C18.73,28.67 18.13,28.99 17.23,28.89C17.55,28.83 17.56,28.78 17.18,28.7Z" fill-rule="evenodd" id="path_42"/><path fill="#c3bdc9" d="M17.09,27.95C17.02,28.06 16.96,28.11 16.91,28.17C18.06,28.32 18.71,27.77 19.15,27.28C19.79,27.32 20.23,26.9 20.62,26.47C20.19,26.82 19.74,27.1 19.24,27.03C18.74,27.75 18.04,28.09 17.09,27.94V27.95Z" fill-rule="evenodd" id="path_43"/><path fill="#c3bdc9" d="M17.54,27.07C17.46,27.26 17.43,27.25 17.38,27.31C17.78,27.39 18.32,27.24 19.24,26.47C20.15,26.45 20.52,25.86 20.78,25.59C20.3,26.01 19.81,26.23 19.32,26.24C18.84,26.74 18.31,27.14 17.55,27.07H17.54Z" fill-rule="evenodd" id="path_44"/><path fill="#c3bdc9" d="M17.84,26.35L17.67,26.61C17.99,26.59 18.41,26.61 19.29,25.78C19.97,25.64 20.58,25.13 21.12,24.23C20.67,24.78 20.26,25.37 19.37,25.45C19.14,25.97 18.53,26.19 17.84,26.34L17.84,26.35Z" fill-rule="evenodd" id="path_45"/><path fill="#c3bdc9" d="M25.31,27.43C25.24,27.9 25.14,28.32 24.93,28.65C24.96,28.8 24.95,28.96 24.94,29.12C25.26,28.79 25.49,27.87 25.31,27.43Z" fill-rule="evenodd" id="path_46"/><path fill="#c3bdc9" d="M25.77,27.65C26.11,28.54 25.8,29.72 24.72,29.93C25.05,30.08 26.07,29.61 26.21,28.24L27.04,29.17C27.09,28.96 27.11,28.74 26.96,28.42C26.31,28.28 26.09,28.02 25.78,27.65H25.77Z" fill-rule="evenodd" id="path_47"/><path fill="#c5bdcb" d="M26.31,27.94C26.75,28.13 27.53,28.43 28.32,28.08C28.44,28.13 28.55,28.17 28.67,28.19C28.4,28.47 27.65,28.53 26.97,28.44C27.91,28.32 26.48,28.21 26.31,27.94Z" fill-rule="evenodd" id="path_48"/><path fill="#c3bdca" d="M24.75,26.36C25.08,26.59 25.44,26.72 25.85,26.72C26.16,27.31 27.06,27.48 27.56,27.44C27.58,27.52 27.64,27.6 27.7,27.66C27.28,27.66 26.74,27.52 25.91,27C25.68,26.92 24.89,26.55 24.75,26.36Z" fill-rule="evenodd" id="path_49"/><path fill="#c3bdc9" d="M24.58,25.47C24.91,25.75 25.26,25.88 25.64,25.93C26.03,26.35 26.5,26.56 27.1,26.64L27.23,26.87C27.04,26.88 26.12,26.47 25.79,26.16C25.22,26.02 24.8,25.74 24.59,25.48L24.58,25.47Z" fill-rule="evenodd" id="path_50"/><path fill="#c3bdc9" d="M24.65,24.77C25.03,25.14 25.45,25.29 25.8,25.29C26.05,25.56 26.29,25.84 26.83,25.99C26.86,26.06 26.89,26.12 26.93,26.17C26.52,26.17 25.95,25.59 25.89,25.51C25.34,25.43 24.72,25.15 24.65,24.78L24.65,24.77Z" fill-rule="evenodd" id="path_51"/><path fill="#dfdde2" d="M21.39,23.11C21.51,23.06 21.57,23 21.62,22.93C21.72,23.07 21.86,23.1 22,23.13C21.73,23.12 21.7,23.24 21.83,23.47C21.89,23.56 21.97,24.86 22,25.64C22,26.37 22.1,26.84 22.24,27.16C21.67,26.68 21.99,23.75 21.39,23.12V23.11Z" fill-rule="evenodd" id="path_52"/><path fill="#cecad5" d="M22.35,23.17C22.67,23.13 22.99,23.12 23.37,22.89L23.5,23.05C23.23,23.65 23.07,25.05 22.91,26.32C22.95,25.51 22.97,24.79 22.93,24.59C22.84,24.13 22.86,23.86 22.87,23.78C23.04,23.15 22.56,23.3 22.35,23.16L22.35,23.17Z" fill-rule="evenodd" id="path_53"/><path fill="#c3bdc9" d="M23.63,23.12L23.67,23.16C23.13,24.34 23.67,27.05 22.51,28.42L22.48,27.89C23.37,27.31 23.15,24.32 23.63,23.12Z" fill-rule="evenodd" id="path_54"/><path fill="#c3bdc9" d="M21.68,26.04C21.68,27.97 21.99,28.34 20.67,29.95C21.29,29.44 21.97,27.88 21.88,28.77C22.04,28.48 22.19,28.2 22.23,27.95C21.72,27.07 21.74,26.57 21.68,26.04Z" fill-rule="evenodd" id="path_55"/><path fill="#c3bdc9" d="M22.75,28.17L22.5,28.47L22.57,31.03C22.6,29.96 22.66,28.99 22.75,28.17Z" fill-rule="evenodd" id="path_56"/><path fill="#dfdde2" d="M23.33,26.31C23.27,26.71 23.22,27.18 23.12,27.44C23.29,29.49 23.85,29.69 24.31,29.88C23.54,28.78 23.39,27.31 23.33,26.31Z" fill-rule="evenodd" id="path_57"/><path fill="#e0dee2" d="M21.85,28.99C21.61,29.54 21.69,30.58 21.02,31.25C21.58,30.96 21.79,30.27 21.81,29.72L21.86,30.3C21.68,31.47 21.14,31.79 20.78,31.86C20.83,31.84 21.42,31.96 21.96,30.78C21.97,31.21 21.67,31.69 21.28,31.85C21.62,31.86 21.97,31.55 22.14,31.3C21.86,30.46 21.85,29.72 21.86,28.99L21.85,28.99Z" fill-rule="evenodd" id="path_58"/><path fill="#c3bdc9" d="M22.11,30.75C22.17,31.03 22.25,31.44 22.56,31.84L22.59,32.34C22.73,32.15 23.29,30.56 23.3,30.04C23.32,29.87 23.33,29.68 23.45,29.81C23.47,29.82 23.48,29.82 23.5,29.81C23.33,29.69 23.15,29.12 23.02,28.93C23.12,29.55 23.19,30.42 22.56,31.74C22.37,31.51 22.24,31.15 22.11,30.77V30.75Z" fill-rule="evenodd" id="path_59"/><path fill="#dfdde2" d="M24.81,31.76C24.13,32.12 23.55,31.27 23.26,30.75L23.39,30.04C23.39,30.04 23.44,30 23.46,30.03C23.57,30.81 24.06,31.73 24.8,31.77L24.81,31.76Z" fill-rule="evenodd" id="path_60"/><path fill="#dfdde1" d="M23.14,31.01L23.07,31.23C23.33,31.81 23.64,32.01 24.04,32.17C23.25,31.77 23.19,31.4 23.14,31.01Z" fill-rule="evenodd" id="path_61"/><path fill="#dfdde2" d="M22.38,32.02L22.59,32.38L22.75,32.02C22.72,32.98 22.66,34.12 22.63,35.18C22.54,34.11 22.42,33.01 22.38,32.02Z" fill-rule="evenodd" id="path_62"/><path fill="#c3bdc9" d="M22.99,31.43C22.98,31.48 22.95,31.53 22.94,31.56C23.64,34.17 22.81,35.55 22.63,35.76C22.14,34.9 22.15,34.05 22.04,33.32C22.1,33.98 22.03,34.83 22.59,35.88V36.31C23.29,35.46 23.71,34.26 23.18,31.67C23.1,31.61 23.06,31.52 22.99,31.44L22.99,31.43Z" fill-rule="evenodd" id="path_63"/><path fill="#dfdde2" d="M22.37,36.07C22.43,36.17 22.48,36.26 22.6,36.34C22.76,36.18 22.79,36.1 22.85,36C22.72,36.69 22.67,37.37 22.57,38.05C22.51,37.38 22.46,36.64 22.37,36.06V36.07Z" fill-rule="evenodd" id="path_64"/><path fill="#c3bdc9" d="M23.6,36.19C23.45,35.85 23.27,35.57 23.39,35.2C23.36,35.09 23.31,35.07 23.27,35.05C23.23,35.25 23.16,35.38 23.11,35.52C23.37,37.1 22.99,37.95 22.56,38.67C21.85,37.71 21.98,36.68 21.97,35.79C21.76,37.59 22.2,38.38 22.55,38.78V39.22C23.57,37.74 23.47,36.35 23.25,35.69C23.36,35.86 23.46,36.04 23.61,36.19L23.6,36.19Z" fill-rule="evenodd" id="path_65"/><path fill="#c4bec9" d="M19.76,31.64C19.9,32.95 21.55,32.55 22.22,31.56L22.16,31.39C21.53,32.19 20.2,32.92 19.76,31.64Z" fill-rule="evenodd" id="path_66"/><path fill="#dfdde2" d="M22.07,32.12C21.46,33.39 20.73,34.28 19.72,34.37C20.41,34.43 21.14,33.87 21.37,33.63C21.54,33.34 21.75,33.24 21.54,33.63C21.46,33.76 21.38,33.86 21.25,33.99C21.41,33.92 21.75,33.4 21.82,33.36C21.85,32.81 21.97,32.51 22.07,32.13V32.12Z" fill-rule="evenodd" id="path_67"/><path fill="#c3beca" d="M21.82,33.38C21.81,33.53 21.8,33.67 21.8,33.79C20.84,34.78 20.02,35.09 19.14,34.88C19.87,34.9 20.71,34.98 21.82,33.38Z" fill-rule="evenodd" id="path_68"/><path fill="#dfdde2" d="M18.73,33.95C18.52,33.43 18.6,33.01 18.96,32.69C18.21,32.67 17.4,34.07 18.79,34.78C18.1,34.37 18.06,33.52 18.29,33.24C18.44,33 18.66,32.93 18.5,33.2C18.4,33.64 18.59,33.86 18.72,33.94L18.73,33.95Z" fill-rule="evenodd" id="path_69"/><path fill="#dfdde2" d="M23.22,31.75C23.36,31.97 23.54,32.17 23.76,32.31C23.7,33.59 25.1,34.43 26.05,34.07C25.51,34.46 23.71,34.37 23.22,31.74V31.75Z" fill-rule="evenodd" id="path_70"/><path fill="#c4c0cd" d="M23.43,33.35V33.51C24.08,34.6 25.19,34.64 25.52,34.6C24.49,34.59 23.85,34.11 23.43,33.35Z" fill-rule="evenodd" id="path_71"/><path fill="#e1dfe3" d="M26.29,32.56C27.16,33.16 26.92,34.11 25.99,34.5C26.71,34.03 27.06,33.41 26.29,32.56Z" fill-rule="evenodd" id="path_72"/><path fill="#c3bdc9" d="M25.27,34.76C26.1,34.92 27.49,34.26 26.74,32.81C27.5,33.7 26.66,35.28 25.27,34.76Z" fill-rule="evenodd" id="path_73"/><path fill="#e0dee3" d="M23.43,34.22C23.43,34.3 23.42,34.36 23.39,34.49C24.1,35.91 24.5,36 24.96,36.37C24.1,35.73 23.66,35 23.43,34.22Z" fill-rule="evenodd" id="path_74"/><path fill="#c4becb" d="M24.59,36.89C24.74,36.95 24.85,36.9 24.98,36.95C26.07,37.32 27.41,36.68 27.01,35.37C27.72,36.06 26.41,38.05 24.6,36.89H24.59Z" fill-rule="evenodd" id="path_75"/><path fill="#c3beca" d="M26.5,34.98C27.32,35.8 26.47,36.93 25.38,36.54C26.55,36.7 26.98,35.74 26.5,34.98Z" fill-rule="evenodd" id="path_76"/><path fill="#dfdde2" d="M18.52,34.98C17.39,35.72 18.02,36.63 18.53,36.85C18.34,36.7 18.13,36.19 18.74,36.47C18.94,36.56 19.12,36.57 19.3,36.55C18.15,36.17 18.41,35.56 18.52,34.97V34.98Z" fill-rule="evenodd" id="path_77"/><path fill="#dfdde2" d="M21.81,33.95C21.83,34.33 21.88,34.64 21.93,34.88C21.57,35.6 21.14,36.09 20.69,36.44C21.22,35.92 21.62,35.41 21.8,34.88C20.88,36.31 20.25,36.53 19.6,36.56C20.41,36.38 21.6,35.67 21.81,33.96L21.81,33.95Z" fill-rule="evenodd" id="path_78"/><path fill="#c3bec9" d="M21.94,34.94C21.97,35.05 22,35.17 22.06,35.26C20.9,37.49 19.36,37.42 18.84,37.24C19.84,37.34 19.49,37.16 19.17,37.1C20.35,37.14 21.39,36.33 21.94,34.94V34.94Z" fill-rule="evenodd" id="path_79"/><path fill="#c4beca" d="M20.99,22.67C21.14,22.56 21.22,22.44 21.3,22.32C21.33,22.39 21.38,22.44 21.46,22.49C21.25,22.56 21.17,22.88 21.05,22.88C21.03,22.81 21.02,22.73 20.99,22.66V22.67Z" fill-rule="evenodd" id="path_80"/><path fill="#c3bdc9" d="M21.48,22.5C21.81,22.62 22.14,22.6 22.55,22.32C22.59,22.36 22.64,22.4 22.68,22.44C22.29,22.72 21.65,22.65 21.47,22.5H21.48Z" fill-rule="evenodd" id="path_81"/><path fill="#c3bdc9" d="M22.88,22.49C23.11,22.53 23.34,22.59 23.63,22.42C23.67,22.48 23.72,22.52 23.76,22.56C23.67,22.66 23.16,22.65 22.87,22.49H22.88V22.49Z" fill-rule="evenodd" id="path_82"/><path fill="#c3bdc9" d="M23.83,21.88C23.9,21.92 24.04,22.06 24.17,22.13C24.07,22.27 23.98,22.42 23.88,22.6C23.45,22.22 23.75,21.83 23.83,21.88Z" fill-rule="evenodd" id="path_83"/><path fill="#c3bdc9" d="M20.7,21.98C20.76,22.07 20.8,22.12 20.84,22.19C21.1,22 21.19,21.8 21.28,21.61C21.24,21.59 21.21,21.56 21.17,21.5C20.97,21.87 20.84,21.92 20.7,21.99L20.7,21.98Z" fill-rule="evenodd" id="path_84"/><path fill="#c3bdc9" d="M21.3,21.62L21.26,21.68C21.78,21.97 22.63,22.2 23.7,21.65L23.59,21.44C22.9,21.98 22.12,22.08 21.3,21.62Z" fill-rule="evenodd" id="path_85"/><path fill="#c3bdc9" d="M23.79,21.61C24.09,21.56 23.98,21.17 24.27,21.06C24.74,21.76 25.53,21.58 25.85,21.04L25.9,21.44C25.6,21.63 25.19,21.97 24.51,21.65C24.45,21.76 24.45,21.94 24.44,22.14C24.14,22.05 23.9,21.89 23.79,21.61Z" fill-rule="evenodd" id="path_86"/><path fill="#c3bdc9" d="M24.73,20.32C24.85,20.54 24.73,21.06 24.74,21.24C24.52,21.21 24.39,21.02 24.27,20.87C24.3,20.87 24.31,20.86 24.32,20.84C24.34,20.69 24.61,20.63 24.73,20.32Z" fill-rule="evenodd" id="path_87"/><path fill="#c3beca" d="M22.69,20.96L22.67,20.99C23.03,21.12 23.76,21.18 24.29,20.83L24.19,20.66C23.83,20.97 23.35,21.12 22.69,20.96Z" fill-rule="evenodd" id="path_88"/><path fill="#c3bdc9" d="M22.49,20.84C22.55,20.88 22.61,20.93 22.67,20.95C22.18,21.4 21.47,21.28 20.76,20.9C20.76,20.88 20.76,20.86 20.76,20.84C21.58,21.28 22.16,21.16 22.49,20.84Z" fill-rule="evenodd" id="path_89"/><path fill="#c3bec9" d="M20.72,20.84C20.9,21.11 20.46,21.2 20.45,21.6L20.27,21.39C20.27,21.12 20.62,21.16 20.71,20.84H20.72Z" fill-rule="evenodd" id="path_90"/><path fill="#c3bec9" d="M20.24,21.3L19.91,20.79C19.56,20.32 20.72,20.23 20.59,19.37C20.67,19.43 20.75,19.51 20.82,19.55C20.78,20.24 20.16,20.23 20.16,20.7C20.08,20.67 20.04,20.59 20.02,20.5C19.99,20.52 19.98,20.52 19.95,20.55C19.8,20.74 20.02,20.84 20.23,21.29L20.24,21.3Z" fill-rule="evenodd" id="path_91"/><path fill="#c3bdc9" d="M20.56,20.36C20.9,20.41 21.24,20.36 21.56,20.06C21.61,20.12 21.65,20.17 21.73,20.22C21.33,20.47 20.78,20.5 20.56,20.36Z" fill-rule="evenodd" id="path_92"/><path fill="#c4beca" d="M21.75,20.23L21.71,20.26C22.28,20.59 23.07,20.58 23.49,20.29C23.43,20.26 23.38,20.21 23.33,20.17C22.82,20.55 22.06,20.43 21.75,20.24V20.23Z" fill-rule="evenodd" id="path_93"/><path fill="#c4bec9" d="M23.51,20.29L23.47,20.33C23.87,20.49 24.38,20.48 24.72,20.28C24.69,20.22 24.67,20.16 24.62,20.1C24.25,20.4 23.87,20.37 23.5,20.29H23.51Z" fill-rule="evenodd" id="path_94"/><path fill="#c4bec9" d="M20.88,19.59C21.47,19.89 22.12,19.69 22.47,19.38C22.53,19.46 22.59,19.5 22.65,19.54C22.21,19.93 21.08,19.88 20.88,19.59Z" fill-rule="evenodd" id="path_95"/><path fill="#c3bdc9" d="M22.67,19.55L22.63,19.58C23.17,19.94 23.98,19.72 24.2,19.58C24.17,19.49 24.14,19.42 24.12,19.35C23.74,19.67 23.19,19.78 22.67,19.54V19.55Z" fill-rule="evenodd" id="path_96"/><path fill="#c3bdc9" d="M19.38,18.8L19.46,18.84C19.54,18.72 19.61,18.69 19.64,18.74C19.68,18.79 19.61,18.87 19.7,18.95C19.97,18.73 20.61,18.58 20.68,18.26C20.8,18.59 21.19,18.6 21.51,19.16C21.44,18.73 21,18.61 20.82,18.32C20.64,18.04 20.75,17.68 20.89,17.21C20.6,17.61 20.83,18.19 20.34,18.44C20.03,18.6 19.45,18.57 19.38,18.79L19.38,18.8Z" fill-rule="evenodd" id="path_97"/><path fill="#c3bdc9" d="M21.93,16.77L21.95,17.15C21.45,17.35 21.84,18.61 21.64,18.89C21.56,17.81 21.11,17.42 21.93,16.77V16.77Z" fill-rule="evenodd" id="path_98"/><path fill="#c3bdc9" d="M22.34,17.68H22.4C22.47,18.39 23.21,18.46 23.34,19.16C23.18,18.68 22.76,18.53 22.53,18.28C22.41,18.82 21.75,18.98 21.59,19.28C21.54,19.04 22.49,18.68 22.34,17.68Z" fill-rule="evenodd" id="path_99"/><path fill="#c3bdc9" d="M23.47,17C23.07,17.62 23.85,18.01 23.43,19.04C23.65,17.7 22.72,17.8 23.31,16.84C23.51,17.04 24.22,17.24 24.28,17.57C24.04,17.24 23.68,17.21 23.47,17V17Z" fill-rule="evenodd" id="path_100"/><path fill="#c3bdc9" d="M24.27,17.67C24.34,17.91 24.41,17.99 24.47,18.15C24.26,18.85 23.42,19.09 23.37,19.35C23.23,19.02 24.28,18.84 24.27,17.67Z" fill-rule="evenodd" id="path_101"/><path fill="#c3bdc9" d="M25.07,16.96C24.93,16.92 24.82,16.96 24.66,16.8C24.69,17.03 24.65,17.16 24.62,17.3C24.89,17.46 25.08,18.94 25.19,19C25.13,18.37 25.16,17.53 24.77,17.08L24.79,17C24.91,17.04 25,17.03 25.07,16.96Z" fill-rule="evenodd" id="path_102"/><path fill="#c3bdc9" d="M19.92,18.11C20.19,17.72 20.42,17.25 20.75,17.01C21.09,16.77 21.3,16.87 21.98,16.31L22.24,15.64C21.66,16.48 20.98,17.06 20.01,16.86C20.07,16.89 20.1,16.97 20.5,17C20.3,17.2 20.12,17.64 19.92,18.11Z" fill-rule="evenodd" id="path_103"/><path fill="#dfdde2" d="M19.78,16.25C20.29,16.5 20.92,16.64 22,15.1C22.23,15.03 22.45,14.91 22.66,14.69C21.97,16.35 20,17.37 19.78,16.25Z" fill-rule="evenodd" id="path_104"/><path fill="#f1eef0" d="M22.07,17.21C22.89,14.1 25.38,12.25 23.23,10.6C24.79,13.31 22.3,14.46 22.07,17.21Z" fill-rule="evenodd" id="path_105"/><path fill="#dfdde2" d="M21.48,14.52C21.52,15.34 22.55,14.73 22.8,14.21C22.38,14.49 21.97,14.74 21.48,14.52Z" fill-rule="evenodd" id="path_106"/><path fill="#dfdde2" d="M23.02,13.26C23.12,13.13 23.13,13.26 23.29,13.29C22.92,14.07 22.28,14.29 21.93,14.31C22.4,14.06 22.84,13.78 23.02,13.26L23.02,13.26Z" fill-rule="evenodd" id="path_107"/><path fill="#c3bdc9" d="M22.77,11.94L22.85,12.02C22.96,12.02 23.07,12.02 23.19,11.91C23.19,12.01 23.16,12.05 23.11,12.08C23.17,12.65 23.11,12.98 23.03,13.24C23.12,13.13 23.2,13.28 23.3,13.28C23.44,13.06 23.68,12.27 23.3,11.6C23.31,11.79 23.1,11.99 22.78,11.94L22.77,11.94Z" fill-rule="evenodd" id="path_108"/><path fill="#c3bdc9" d="M21.43,11.69C22.05,11.44 22.41,11.89 22.69,11.93C23.14,12.58 22.67,13.15 22.38,13.5C22.58,13.17 22.87,11.8 21.44,11.69H21.43Z" fill-rule="evenodd" id="path_109"/><path fill="#cecad5" d="M21.99,17.57C22.67,17.89 22.99,17.12 23.3,16.82C23.15,16.45 23.19,16.15 23.18,15.83C22.59,16.15 22.6,17.32 21.99,17.57Z" fill-rule="evenodd" id="path_110"/><path fill="#cecad5" d="M24.3,12.09C24.25,12.12 24.24,12.34 24.17,12.33C24.12,13.9 22.7,14.76 22.37,17.03C22.57,16.79 22.72,15.83 23.25,14.96C23.81,14.04 24.35,13.53 24.3,12.09H24.3Z" fill-rule="evenodd" id="path_111"/><path fill="#dfdde2" d="M23.58,15.05C23.01,16.58 24.14,16.6 24.23,17.09C23.07,16.7 22.99,15.85 23.58,15.05Z" fill-rule="evenodd" id="path_112"/><path fill="#dfdde2" d="M23.78,10.67C25.67,11.89 24.05,14.36 23.35,15.04C23.63,14.41 25.32,12.69 23.78,10.67Z" fill-rule="evenodd" id="path_113"/><path fill="#cecad5" d="M24.42,9.99C24.61,10.34 24.92,10.9 24.47,10.79C25.27,12.57 24.39,13.49 23.95,14.48C23.03,16.9 24.56,15.94 24.38,17.63C24.9,17.02 24.22,16.13 24.26,15.82C24.22,15.37 24.49,14.42 24.59,13.84C24.7,14.16 24.87,14.35 25.08,14.48C24.72,13.22 25.84,10.74 24.43,9.99L24.42,9.99Z" fill-rule="evenodd" id="path_114"/><path fill="#cecad5" d="M24.61,14.16C24.69,14.29 24.76,14.43 24.91,14.52C24.98,15.02 24.29,16.58 25.33,16.7C24.49,17.12 24.02,15.91 24.61,14.17V14.16Z" fill-rule="evenodd" id="path_115"/><path fill="#c3bdc9" d="M24.15,9.5C24.33,9.52 24.75,9.82 25.15,9.5C25.42,9.87 24.92,10.18 24.38,9.91C24.25,9.82 24.69,9.78 24.15,9.51V9.5Z" fill-rule="evenodd" id="path_116"/><path fill="#dfdde2" d="M21.01,9.64C21.17,9.82 21.33,9.91 21.48,10.34C21.59,10.34 21.7,10.35 21.81,10.38C21.63,10.09 21.4,9.82 21.01,9.64Z" fill-rule="evenodd" id="path_117"/><path fill="#c3bdc9" d="M22.72,9.13C24.36,9.57 24.21,8.81 24.5,8.7C24.79,9.16 23.99,9.77 22.72,9.13Z" fill-rule="evenodd" id="path_118"/><path fill="#c3bec9" d="M20.72,9.45C20.62,9.42 20.54,9.42 20.49,9.43C20.63,8.26 21.93,9 22.63,9.44C21.75,9.02 20.64,8.47 20.72,9.44V9.45Z" fill-rule="evenodd" id="path_119"/><path fill="#f1eef0" d="M20.73,9.45C20.66,8.11 22.58,9.64 23.47,9.69C22.84,9.76 20.81,8.4 20.82,9.46L20.73,9.44V9.45Z" fill-rule="evenodd" id="path_120"/><path fill="#c3bdc9" d="M20.85,9.48L21.01,9.55C21.02,9.43 21.07,9.3 21.13,9.28C21.5,9.21 21.15,9.4 21.22,9.47C21.29,9.52 21.37,9.57 21.45,9.62C21.45,9.56 21.45,9.5 21.46,9.42C21.46,9.12 22.33,9.6 22.95,9.8C23.01,9.99 22.6,10.21 22.29,10.15C22.57,10.38 23.19,10.27 23.46,9.89C23.93,9.92 24.03,9.85 24.14,9.73C23.78,9.66 23.61,9.84 22.71,9.59C21.88,9.35 20.87,8.64 20.85,9.48Z" fill-rule="evenodd" id="path_121"/><path fill="#b6b1bf" d="M21.6,9.33C21.7,9.33 21.79,9.36 21.89,9.4C21.7,9.69 21.97,9.96 22.12,9.91C22.17,9.96 22.23,10.01 22.4,10.05C22.16,10.09 21.34,9.85 21.6,9.33V9.33H21.6Z" fill-rule="evenodd" id="path_122"/><path fill="#f6d155" d="M19.45,10.98C18.54,9.23 21.17,8.92 21.44,10.37C21.44,10.37 22.09,10.4 22.67,10.71C23.78,11.53 23.11,11.99 22.88,11.96C22.36,11.97 22.26,11.46 21.5,11.65C21.32,11.73 21.31,11.81 21.23,11.81C20.78,11.7 21.61,10.78 22.51,11.45C22.59,11.5 22.76,11.39 22.61,11.21C22.01,10.61 20.97,10.94 20.75,11C20.46,10.53 19.81,10.63 19.47,11L19.45,10.98Z" fill-rule="evenodd" id="path_123"/><path fill="#aaa3b5" d="M22.06,9.55C22.17,9.64 22.76,9.73 22.77,9.79C22.59,10.23 21.98,10.09 22.06,9.55Z" fill-rule="evenodd" id="path_124"/><path fill="#c3bdc9" d="M25.94,21.42C25.94,21.42 25.92,21.44 25.94,21.45C26.07,21.52 26.25,21.56 26.45,21.58L26.93,24.39C26.89,23.66 26.84,22.9 26.82,22.2C26.77,22.07 26.73,21.82 26.7,21.57C26.76,21.57 26.82,21.56 26.88,21.54C27.18,23.32 27.92,23.67 28.06,23.81C27.67,23.4 27.14,22.83 26.98,21.5C27.24,21.36 27.36,21.18 27.44,21.15C27.46,21.08 27.45,20.89 27.42,20.81C27.15,21.06 26.92,21.36 26.39,21.32C26.35,21.32 26.39,21.37 26.39,21.37C26.59,21.64 26.18,21.47 25.95,21.42L25.94,21.42Z" fill-rule="evenodd" id="path_125"/><path fill="#cecad5" d="M26.95,24.68L26.98,25.11C27.24,24.94 27.49,24.88 27.84,24.08C27.98,25.52 28,26.92 28.84,27.2C28.41,26.21 28.41,25.13 28.37,24.08C28.33,24.15 28.27,24.2 28.22,24.24C27.88,24.04 27.77,23.88 27.59,23.7C27.48,24.06 27.42,24.44 26.96,24.68L26.95,24.68Z" fill-rule="evenodd" id="path_126"/><path fill="#dfdde2" d="M27.57,21.21C27.69,21.25 27.82,21.26 27.96,21.26L28.1,23.35L27.57,21.21Z" fill-rule="evenodd" id="path_127"/><path fill="#c3bdc9" d="M28.57,21.05L28.64,21.01C28.81,21.39 29.04,21.73 29.38,21.99L30.28,28.05L28.98,21.97C28.98,23.02 28.68,23.72 28.21,24.19L28.17,23.79C28.66,23.12 28.96,22.31 28.58,21.05L28.57,21.05Z" fill-rule="evenodd" id="path_128"/><path fill="#c4bec9" d="M29.94,22.45C30.08,22.53 30.24,22.6 30.42,22.65C30.96,24.48 31.17,28.09 30.45,29.39L30.38,28.9C29.13,27.94 28.81,25.26 28.56,23.75L28.6,23.68C28.84,25.05 29.13,27.69 30.36,28.76C30.58,28.06 31.06,26.03 30.2,22.67C30.14,22.59 30.03,22.52 29.94,22.45Z" fill-rule="evenodd" id="path_129"/><path fill="#dfdde2" d="M29.18,20.5C29.29,20.49 29.35,20.5 29.52,20.45L30.72,22.24L29.18,20.5Z" fill-rule="evenodd" id="path_130"/><path fill="#dfdde2" d="M30.46,22.67C30.64,22.72 30.85,22.78 31.08,22.83C31.08,22.88 32.82,27.38 34.04,27.72C32.49,28.03 31.71,25.3 30.69,23.68C30.62,23.34 30.54,23 30.46,22.68L30.46,22.67Z" fill-rule="evenodd" id="path_131"/><path fill="#c3bdc9" d="M30.26,19.96C30.26,19.96 30.22,20.01 30.2,20.03C30.91,21.13 30.92,21.8 30.83,22.4L31.12,22.78C31.26,21.94 31.11,21.31 30.9,20.72L34.44,25.87L31.32,20.86L31.98,20.95C31.43,20.77 30.87,20.71 30.26,19.96Z" fill-rule="evenodd" id="path_132"/><path fill="#c3bdc9" d="M32.39,20.96C32.52,20.96 32.64,20.96 32.74,20.93C33.44,22.08 35.24,24.15 35.03,26.98L34.8,26.55C33.13,26.16 31.96,24.05 31.37,23.19C32.35,24.49 33.46,26.18 34.76,26.44C34.87,24.33 33.29,22.27 32.39,20.96Z" fill-rule="evenodd" id="path_133"/><path fill="#dfdde2" d="M32.75,20.92L32.82,21.03C34.36,21.85 36.1,23.49 37.18,22.28C36.06,22.73 34.26,21.16 33.07,20.56L33.13,20.82C33,20.88 32.88,20.9 32.76,20.92H32.75Z" fill-rule="evenodd" id="path_134"/><path fill="#dfdde2" d="M30.56,18.99C30.56,19.04 30.56,19.07 30.55,19.1L32.47,20.3L30.72,18.89C30.68,18.94 30.62,18.96 30.56,18.99Z" fill-rule="evenodd" id="path_135"/><path fill="#c3bdc9" d="M32.96,20.12C32.99,20.25 33.03,20.37 33.06,20.51C35.36,21.58 36.74,21.32 37.41,20.89L37.05,20.76C36.04,21.44 33.58,20.53 32.96,20.12Z" fill-rule="evenodd" id="path_136"/><path fill="#c3bdc9" d="M31.13,18.29C31.13,18.29 31.11,18.36 31.1,18.39C32.08,18.91 32.76,19.87 32.74,20.53L33.07,20.8C32.94,19.7 32.54,19.28 32.15,18.88L36.83,20.71L32.28,18.58C32.89,18.44 33.52,18.4 34.05,17.77L35.11,17.73C36.03,17.59 37.07,17.06 37.17,16.56L36.83,16.6C36.39,17.58 34.66,17.55 33.76,17.58C33.34,18.36 32.02,18.42 31.12,18.3L31.13,18.29Z" fill-rule="evenodd" id="path_137"/><path fill="#dfdde2" d="M33.74,18.08C33.62,18.17 33.5,18.24 33.38,18.29C33.86,18.4 34.32,18.53 34.74,18.69C35.95,18.82 37.15,18.63 37.2,17.6C36.69,18.43 35.24,18.28 33.75,18.08H33.74Z" fill-rule="evenodd" id="path_138"/><path fill="#dfdde2" d="M31.11,17.36C31.14,17.46 31.16,17.55 31.17,17.65L33.65,17.58C32.81,17.51 31.94,17.45 31.11,17.36Z" fill-rule="evenodd" id="path_139"/><path fill="#c3bdc9" d="M32.31,16.36C32.81,16.59 33.27,16.85 33.64,17.14L33.31,16.84C34.37,16.75 35.45,16.66 36.65,16.6L32.87,16.57L32.31,16.36Z" fill-rule="evenodd" id="path_140"/><path fill="#c3bdc9" d="M31.51,16.44C31.5,16.5 31.47,16.55 31.45,16.6L32.28,16.36C33.52,15.47 33.58,15.03 33.74,14.54L35.63,13.36L33.47,14.43C32.31,14.44 32,14.6 31.65,14.7C32.64,14.48 33.3,14.45 33.66,14.56L33.42,14.71C33.13,15.7 32.01,16.28 31.5,16.45L31.51,16.44Z" fill-rule="evenodd" id="path_141"/><path fill="#dfdde2" d="M31.5,15.63C31.53,15.69 31.54,15.77 31.56,15.85C32.15,15.53 32.7,15.17 33.26,14.81C32.67,15.1 32.08,15.4 31.5,15.64V15.63Z" fill-rule="evenodd" id="path_142"/><path fill="#dfdde2" d="M33.1,15.76C33.77,15.7 34.44,15.68 35.14,15.74C35.3,15.65 36.99,15.16 36.58,14.26C36.1,15.25 34.29,15.58 34.15,15.66C33.86,15.69 33.17,15.72 33.1,15.77V15.76Z" fill-rule="evenodd" id="path_143"/><path fill="#dfdce1" d="M35.88,13.23L36.26,13.07C36.3,13.14 36.02,13.65 35.55,14.19C34.92,14.89 34.55,15.19 33.36,15.4C33.38,15.37 33.41,15.34 33.42,15.31C34.35,15.06 35.62,14.16 35.88,13.24V13.23Z" fill-rule="evenodd" id="path_144"/><path fill="#dfdde2" d="M31.92,14.21L31.8,14.38C32.87,13.61 33.71,13.14 34.35,12.94C34.99,12.27 35.13,11.6 34.87,11.21C34.91,12.46 32.93,13.4 31.91,14.21H31.92Z" fill-rule="evenodd" id="path_145"/><path fill="#c3bec9" d="M31.23,14.7L31.19,15.01C31.98,14.44 32.4,13.39 32.29,12.51L32.01,12.8L30.78,13.8C30.84,13.86 30.92,13.92 30.97,13.98L32.01,12.83C32.08,13.77 31.44,14.51 31.23,14.7Z" fill-rule="evenodd" id="path_146"/><path fill="#dfdde2" d="M32.3,13.22L32.23,13.48C32.74,13.16 33.09,12.82 33.41,12.48C34.28,11.46 34.4,10.57 34.48,10.14L34.1,10.44C34.16,11.74 32.7,12.99 32.31,13.21L32.3,13.22Z" fill-rule="evenodd" id="path_147"/><path fill="#c3bdc9" d="M31.87,12.48C32.01,12.48 32.16,12.47 32.31,12.48L34.03,10.5L31.87,12.48Z" fill-rule="evenodd" id="path_148"/><path fill="#c3bdc9" d="M30.6,11.36L30.38,11.6C30.47,12.09 30.47,12.75 29.75,13.55L29.78,13.59L29.83,13.57C30.4,12.86 31,12.68 31.6,12.5C31.25,12.59 30.9,12.64 30.5,12.85C30.77,12.04 30.66,11.62 30.6,11.36V11.36Z" fill-rule="evenodd" id="path_149"/><path fill="#dfdde2" d="M30.68,12.01V12.17C31.29,11.78 31.92,11.33 32.48,10.7C32.81,10.27 33.23,9.67 33.29,8.86L32.96,9.12C32.9,10.47 31.16,11.63 30.68,12.01L30.68,12.01Z" fill-rule="evenodd" id="path_150"/><path fill="#dfdde2" d="M29.28,11.83C29.79,11.61 30.27,11.41 30.61,11.34L32.78,9.32C32.2,9.74 30.98,10.8 30.4,11.23C30.2,11.38 30,11.37 29.28,11.83H29.28Z" fill-rule="evenodd" id="path_151"/><path fill="#f1eef0" d="M32.9,9.13C27.4,10.09 24.35,16.73 28.03,16.13L27.82,16.08C27.09,16.15 26.9,15.51 26.97,15.1C27.03,14.66 27.45,14.41 27.57,14.37C27.54,13.98 27.53,13.59 27.91,13.27C28.06,12.9 28.24,12.71 28.41,12.52C28.99,10.42 31.91,9.38 32.89,9.14L32.9,9.13Z" fill-rule="evenodd" id="path_152"/><path fill="#c3bdc9" d="M30.34,11.59C29.65,11.69 28.71,12.45 28.56,12.77C28.55,12.81 28.56,12.85 28.33,12.98V13.02C28.57,12.92 29.21,13.02 28.61,13.16C29,13.16 29.35,13.31 29.58,13.84C30.85,13.65 31.17,14.57 30.85,15.19C31.68,15.92 31.16,16.85 30.69,17.03C30.97,17.65 31.12,18.48 30.26,18.8C30.26,19.35 30.18,20.21 28.87,20.2C28.72,20.58 28.25,21.22 27.46,20.88C27.46,20.88 27.46,20.9 27.46,20.92C27.45,20.96 27.79,21.05 27.8,21.04C28.07,21.07 28.1,21.24 27.77,21.16C27.65,21.13 27.55,21.1 27.46,21.06C27.46,21.06 27.46,21.12 27.45,21.15C28.3,21.44 28.79,20.92 29.06,20.48C30.08,20.43 30.49,19.87 30.55,18.99C31.38,18.47 31.27,17.68 31.01,17.13C31.75,16.57 31.7,15.6 31.14,15.14C31.52,13.85 30.38,13.51 29.78,13.6C29.58,13.25 29.44,13.21 29.3,13.11L30.37,11.65L29.06,13C28.94,12.95 28.76,12.94 28.55,12.94C28.83,12.25 29.92,11.71 30.35,11.59L30.34,11.59Z" fill-rule="evenodd" id="path_153"/><path fill="#dfa12f" d="M20.33,10.06C20.49,10.31 20.77,9.98 21.22,10.47L21.28,10.45C21.18,10.03 20.9,9.78 20.48,9.74C20.66,9.89 20.53,9.9 20.52,10C20.52,10.09 20.52,10.19 20.33,10.06Z" fill-rule="evenodd" id="path_154"/><path fill="#dfa12f" d="M19.6,10.81C19.85,10.67 20.39,10.47 20.74,10.95C21.82,10.63 22.59,10.93 22.69,11.36C22.76,11.24 22.45,10.58 21.22,10.69C20.16,9.95 19.57,10.62 19.6,10.81H19.6Z" fill-rule="evenodd" id="path_155"/><path fill="#dea12f" d="M21.25,11.74C21.06,11.74 21.65,11.04 22.61,11.7C22.95,11.84 23.12,11.66 23.06,11.38C23.03,11.17 22.92,11.05 22.85,10.89C23.34,11.25 23.39,11.7 23.07,11.88C22.56,12.14 22.2,11.23 21.26,11.74L21.25,11.74Z" fill-rule="evenodd" id="path_156"/><path fill="#c3bdc9" d="M20.46,21.64L20.67,21.95L20.62,21.91C20.01,22.19 19.7,22.08 19.4,21.95L19.37,21.92C18.75,22.04 18.36,21.88 18.02,21.64C18.05,21.82 18.17,21.96 18.34,22.09L17.69,24.95L18,22.27C17.62,23.32 17.14,23.8 16.47,24.1L16.51,23.8C17.13,23.49 17.66,22.89 17.9,21.6C17.66,21.63 17.41,21.66 17.16,21.6L16.55,23.71L16.84,21.52C16.58,21.35 16.36,21.12 16.13,20.9V20.86C16.2,20.95 16.27,20.67 16.26,20.58C16.72,21.33 17.37,21.47 18.01,21.25C18.01,21.32 18.01,21.39 17.98,21.49H18.01C18.01,21.49 18.05,21.42 18.06,21.36C18.05,21.35 18.04,21.32 18.03,21.3V21.27C18.39,21.91 19.26,21.61 19.37,21.67C19.36,21.7 19.37,21.79 19.4,21.87L19.41,21.9C19.41,21.9 19.43,21.81 19.41,21.75L19.38,21.69L19.41,21.7C19.7,21.93 20.11,21.91 20.45,21.63L20.46,21.64Z" fill-rule="evenodd" id="path_157"/><path fill="#c1c0c8" d="M18.44,22.15C18.64,22.24 18.85,22.31 19.08,22.36C18.97,23.71 18.3,25.23 17.58,25.69L17.59,25.31C17.42,25.02 17.28,24.55 17.24,23.59L17.3,23.54C17.31,24.21 17.39,24.82 17.61,25.29C17.95,25.03 18.69,24.18 18.81,22.54C18.81,22.43 18.78,22.38 18.73,22.35C18.59,22.27 18.51,22.21 18.43,22.16L18.44,22.15Z" fill-rule="evenodd" id="path_158"/><path fill="#c3bdc9" d="M15.85,27.82C16.63,28.03 17.14,26.53 17.42,25.53C17.29,25.26 17.1,24.98 17.08,23.77L17.02,23.83C16.94,25.4 16.92,27.12 15.84,27.82L15.85,27.82Z" fill-rule="evenodd" id="path_159"/><path fill="#dfdde3" d="M16.22,21.01L16.27,21.05C16.21,21.35 15.81,22.42 16.31,23.47C16.03,23.06 15.81,22.41 16.23,21.01H16.22Z" fill-rule="evenodd" id="path_160"/><path fill="#c3bdc9" d="M15.81,21.66L15.65,21.9L14.02,28.57L15.76,23.02C15.85,23.34 15.95,23.67 16.4,24.2C15.77,26.46 14.75,28.49 13.89,29.02L13.97,28.75C13.6,27.63 13.9,25.27 14.53,22.9C14.12,24.2 13.29,27.04 13.82,29.11L13.65,29.62C15.37,28.45 16.38,25.5 16.76,23.99C16.67,24.07 16.56,24.11 16.46,24.15C15.92,23.66 15.66,22.88 15.81,21.67L15.81,21.66Z" fill-rule="evenodd" id="path_161"/><path fill="#c3bdc9" d="M14.78,19.8C14.82,20.01 15.06,20.25 15.18,20.45C15.24,20.56 15.31,20.61 15.4,20.48L15.47,20.36C15.65,20.56 15.89,20.67 16.25,20.61L15.82,21.61C15.32,22.58 14.66,22.79 13.99,23.02L14.2,22.64C15.06,22.56 15.68,21.7 16,20.92C15.78,20.87 15.57,20.78 15.34,20.63L14.32,22.4L14.99,20.61C15.13,20.33 14.77,20.1 14.78,19.8Z" fill-rule="evenodd" id="path_162"/><path fill="#cecad5" d="M14.36,22.9C14.24,22.95 14.11,23 13.98,23.03C12.87,25.51 12.26,27.73 10.28,28.43C12.06,28.77 13.27,25.89 13.71,25.03C14.03,24.24 14.22,23.52 14.36,22.89V22.9H14.36Z" fill-rule="evenodd" id="path_163"/><path fill="#e0dee4" d="M14.61,19.87C14.41,20.11 13.72,21.07 14.15,22.67L14.19,22.62C13.88,21.56 14.21,20.37 14.61,19.86V19.87Z" fill-rule="evenodd" id="path_164"/><path fill="#c3bdc9" d="M13.88,21.29C13.82,21.7 13.83,22.03 13.86,22.36C12.52,24.74 10.28,26.94 8.98,27.03C10.64,24.81 12.28,22.53 13.93,20.27C14.04,20.22 14.15,20.15 14.25,20.08C14.07,20.34 14,20.54 13.96,20.74L9.43,26.57C10.95,26.44 13.43,22.84 13.8,21.87C13.8,21.58 13.84,21.42 13.88,21.29H13.88Z" fill-rule="evenodd" id="path_165"/><path fill="#dfdce1" d="M9.25,26.64L9.36,26.52C9.23,24.27 11.77,21.6 12.45,20.76C12.34,21 9.1,23.85 9.26,26.65V26.64H9.25Z" fill-rule="evenodd" id="path_166"/><path fill="#dfdde2" d="M7.41,22.62C7.79,23.22 8.43,23.59 10.84,22.13C11.31,21.6 11.79,21.06 12.27,20.6H12.15C11.35,20.93 9.26,23.12 7.41,22.63V22.62Z" fill-rule="evenodd" id="path_167"/><path fill="#c3bdc9" d="M13.65,18.4C13.34,18.53 12.16,18.96 12.04,20.29L11.79,20.44C13.4,20.97 14.63,19.75 14.87,19.53C14.62,19.37 14.36,19.23 14.15,18.85L13.93,18.95C13.41,19.38 12.78,19.81 12.18,20.21L14.06,19.25C14.17,19.37 14.29,19.5 14.55,19.66C13.41,20.45 12.52,20.41 12.09,20.29C12.15,19.52 12.61,18.86 13.65,18.4Z" fill-rule="evenodd" id="path_168"/><path fill="#cecad5" d="M11.83,19.99C11.8,20.15 11.75,20.32 11.76,20.44C11.25,20.64 10.67,20.81 10.04,20.92C10,20.92 9.83,20.99 9.77,20.87C9.69,20.82 9.61,20.81 9.53,20.82C9.51,20.78 9.43,20.8 9.42,20.76C10.99,20.49 11.7,20.12 11.83,20V19.99Z" fill-rule="evenodd" id="path_169"/><path fill="#dfdde1" d="M10.08,18.84C9.67,19.04 7.95,19.95 7.66,20.83C8.5,21.09 9.12,20.86 9.5,20.83C9.49,20.81 9.41,20.82 9.41,20.77C8.78,20.86 8.03,20.91 7.83,20.78L7.98,20.7C8.03,19.96 9.8,19.03 10.08,18.84H10.08Z" fill-rule="evenodd" id="path_170"/><path fill="#c3bdc9" d="M8.08,20.67C10.87,19.63 12.23,18.8 13.72,18.29V18.34C13.6,18.41 12.62,18.64 12.24,19.2L8.08,20.67Z" fill-rule="evenodd" id="path_171"/><path fill="#c3bdc9" d="M13.24,18.45C13.05,18.53 12.86,18.59 12.66,18.7C11.75,18.56 11.6,18.34 11.21,18.15L11.29,18.12C11.43,18.22 11.62,18.3 11.78,18.39C12.06,18.48 12.12,18.37 11.85,18.28C11.53,18.17 11.33,18.04 11.15,17.9C11.47,17.29 12.21,17 12.3,16.95C11.9,17.21 11.42,17.45 11.3,17.86C11.94,17.76 12.61,17.65 13.44,17.47C13.51,17.58 13.56,17.69 13.68,17.84L13.66,17.87L13.53,17.72L11.31,17.89C11.92,18.31 12.58,18.35 13.24,18.42L13.24,18.45Z" fill-rule="evenodd" id="path_172"/><path fill="#dfdde2" d="M7.52,17.59C7.77,18.45 9.93,18.23 11.21,18.14L11.27,18.12C11.17,18.04 11.08,17.97 11.03,17.9C10.5,17.79 8.08,18.3 7.52,17.59Z" fill-rule="evenodd" id="path_173"/><path fill="#dfdde2" d="M11.58,17.12L11.61,17.15C11.46,17.27 11.31,17.38 11.15,17.57C9.16,17.57 7.9,16.78 7.54,16.31C8.03,15.91 8.66,15.77 9.32,15.71C8.75,15.87 8.09,15.97 7.79,16.33H7.64C8.57,17.37 11.04,17.83 11.58,17.13L11.58,17.12Z" fill-rule="evenodd" id="path_174"/><path fill="#c3bdc9" d="M7.91,16.36C9.24,16.54 10.54,16.71 11.9,16.93C12.09,16.77 12.42,16.65 12.93,16.62C12.76,16.62 12.61,16.6 12.34,16.64C10.82,16.66 9.38,16.47 7.91,16.36Z" fill-rule="evenodd" id="path_175"/><path fill="#c3bdc9" d="M13.6,16.15C13.48,16.28 13.41,16.47 13.37,16.68C11.91,16.2 11.67,15.28 11.62,15.19C12.49,14.58 13.02,14.81 13.75,14.79C12.2,14.72 11.79,15.13 11.73,15.2C12.31,15.36 12.72,15.51 13.96,15.72C13.84,15.81 13.77,15.88 13.72,15.96C13.24,15.76 12.34,15.48 11.71,15.24C11.82,15.66 12.46,16.29 13.01,16.46C13.17,16.5 13.33,16.58 13.4,16.38C13.42,16.3 13.54,16.17 13.6,16.15H13.6Z" fill-rule="evenodd" id="path_176"/><path fill="#dfdde2" d="M8.05,14.23C8.33,14.51 9.39,15.44 11.34,15.21C11.41,15.4 11.49,15.47 11.56,15.54C11.04,15.46 10.52,15.41 10,15.45C9.14,15.19 8.36,14.88 8.04,14.23H8.05Z" fill-rule="evenodd" id="path_177"/><path fill="#dfdde2" d="M12.02,14.63C12.02,14.63 12.08,14.67 12.12,14.68C11.8,14.81 11.55,14.94 11.36,15.09C10.38,14.78 8.99,14.05 8.49,13.14C9.1,12.87 10.13,13 10.72,13.14C10.06,13.14 9.26,13 8.87,13.26L8.57,13.16C8.69,13.55 10.78,15.37 12.02,14.63H12.02Z" fill-rule="evenodd" id="path_178"/><path fill="#c3bdc9" d="M8.97,13.32C10.22,13.76 11.41,14.19 12.4,14.61C12.71,14.54 13.01,14.55 13.32,14.61C13.24,14.54 13.17,14.48 13.12,14.38H13.09L13.22,14.56C11.53,13.98 10.28,13.66 8.98,13.33L8.97,13.32Z" fill-rule="evenodd" id="path_179"/><path fill="#dfdde2" d="M12.9,13.82C12.81,13.64 12.72,13.45 12.71,13.18C12.24,13.41 10.1,12.47 9.59,11.3C9.62,12.33 11.45,13.14 12.9,13.81V13.82Z" fill-rule="evenodd" id="path_180"/><path fill="#c3bdc9" d="M14.14,14.45C14.07,14.53 14.02,14.61 13.94,14.65C13.9,14.68 13.86,14.68 13.82,14.65C13.06,14.17 12.91,13.33 12.93,13.16C13.51,13.06 14.32,13.07 15.44,13.77C15.19,13.71 14.37,13.1 13.04,13.22C13.02,13.67 13.36,14.54 14.13,14.45L14.14,14.45Z" fill-rule="evenodd" id="path_181"/><path fill="#c3bdc9" d="M13.15,13.29L14.49,14.27C14.66,14.28 14.83,14.27 15.01,14.36C15.02,14.33 15.03,14.28 15.06,14.22C14.33,13.91 13.79,13.6 13.15,13.29Z" fill-rule="evenodd" id="path_182"/><path fill="#dfdde2" d="M10.13,10.17L10.49,10.38C10.44,11.19 11.88,12.78 13.48,12.9C13.21,12.92 12.93,12.91 12.72,13.01C11.96,12.54 11.46,12.04 11.04,11.6C10.95,11.62 10.88,11.39 10.73,11.46C10.33,10.93 10.17,10.53 10.14,10.18L10.13,10.17Z" fill-rule="evenodd" id="path_183"/><path fill="#c4beca" d="M12.46,10.8C11.93,10.59 11.44,10.35 10.52,10.39C11.96,11.44 12.74,12.09 13.8,12.92C14.29,12.99 14.75,13.2 15.22,13.39C15.16,13.26 15.11,13.13 15.09,13C15.09,13.11 15.09,13.21 15.16,13.32C14.53,13.14 11.94,11.3 10.68,10.48C11.15,10.33 11.83,10.61 12.46,10.8Z" fill-rule="evenodd" id="path_184"/><path fill="#dfdde2" d="M13.2,10.85C12.61,10.35 11.97,9.77 11.82,8.96C12.5,9.04 13.83,9.5 14.86,10.24C13.9,9.69 13,9.28 12.26,9.29C12.2,9.96 12.81,10.4 13.2,10.85L13.2,10.85Z" fill-rule="evenodd" id="path_185"/><path fill="#c3bdc9" d="M12.3,9.31L12.27,9.34C13.25,10.06 13.96,10.75 14.74,11.45C14.95,11.64 14.93,11.84 14.95,12.04C15.03,11.94 14.93,11.63 15.1,11.59C15.26,11.56 15.87,11.88 15.91,11.83C14.47,11.19 13.5,10.16 12.31,9.31H12.3Z" fill-rule="evenodd" id="path_186"/><path fill="#e0dee4" d="M15.38,13.19C15.25,12.97 15.03,12.28 15.17,11.81C17.03,12.21 17.34,13.69 17.38,13.98C17.1,12.92 16.09,11.95 15.39,12.08C15.81,12.47 16.34,13.28 16.66,13.62C16.51,13.62 16.35,13.64 16.25,13.68C15.99,13.65 15.87,13.7 15.73,13.74C15.59,13.57 15.53,13.45 15.45,13.31C15.64,13.57 15.91,13.53 16.19,13.45C15.9,12.93 15.61,12.56 15.33,12.11C15.18,12.21 15.33,12.77 15.37,13.19L15.38,13.19Z" fill-rule="evenodd" id="path_187"/><path fill="#dfdde2" d="M16.13,11.21C19.3,13.32 19.54,16.78 17.3,16.21C19.99,15.89 16.84,11.88 16.13,11.21Z" fill-rule="evenodd" id="path_188"/><path fill="#c3bdc9" d="M16.29,13.69C16.55,13.58 17.24,13.59 17.27,14.67L17.04,14.85C17.04,14.55 17.09,13.89 16.29,13.7V13.69Z" fill-rule="evenodd" id="path_189"/><path fill="#c3bdc9" d="M17.04,14.86L17.28,14.68C18.44,15.12 17.87,16.37 17.07,16.17C18.02,16.08 17.82,14.84 17.04,14.86Z" fill-rule="evenodd" id="path_190"/><path fill="#dfa12f" d="M20.76,6.76C20.92,7.03 20.48,7.86 21.23,7.73C21.49,7.89 21.71,7.81 21.83,7.81C22.33,7.63 22.31,7.29 22.34,7.2C21.91,6.59 22.4,6.47 22.45,6.44C22.71,6.47 22.85,6.97 22.49,7.12C22.53,7.14 22.57,7.14 22.62,7.11C22.62,7.9 23.18,7.96 23.56,7.83C24.33,8.04 23.95,7.15 24.32,6.5C23.91,7.22 24.18,7.88 23.58,7.79C23.73,7.42 23.32,7.13 23.53,6.72C23.22,6.98 23.74,7.48 23.53,7.74C23.32,7.92 23.12,7.77 23.11,7.69C23.02,7.42 23.63,7.1 23.27,6.6C23.39,6.86 23.35,6.98 23.28,7.16C23.22,7.33 22.96,7.48 23.08,7.82C22.81,7.77 22.67,7.46 22.74,7.2C22.81,6.95 22.94,6.54 22.47,6.4C21.88,6.58 22.18,7.05 22.25,7.13C22.4,7.29 22.13,7.76 21.8,7.76C21.95,7.53 21.77,7.48 21.54,7.1C21.53,7.3 21.99,7.57 21.73,7.73C21.59,7.84 21.4,7.78 21.32,7.7C21.17,7.53 21.53,7.33 21.47,6.99C21.37,7.47 21.23,7.45 21.25,7.67C21.07,7.72 20.89,7.78 20.83,7.45C20.83,6.99 20.83,6.71 20.76,6.76Z" fill-rule="evenodd" id="path_191"/><path fill="#dfa12f" d="M23.83,8.62V8.67C22.92,8.73 21.99,8.55 21.1,8.53V8.49C22.01,8.52 22.72,8.68 23.83,8.62Z" fill-rule="evenodd" id="path_192"/><path fill="#dfa12f" d="M22.42,8.78V8.82C22.95,8.9 23.47,8.98 23.91,8.94V8.9C23.38,8.96 22.91,8.86 22.42,8.78Z" fill-rule="evenodd" id="path_193"/><path fill="#e1a02f" d="M21.17,8.02C21.02,8.07 21.09,8.29 21.17,8.28C21.34,8.29 21.5,8.31 21.67,8.28C21.77,8.23 21.8,8.06 21.69,8C21.51,7.97 21.34,7.97 21.17,8.01V8.02ZM21.14,7.99C21.42,7.94 21.69,7.98 21.84,8C21.97,8.03 21.97,8.27 21.84,8.32C21.69,8.34 21.36,8.33 21.14,8.31C20.99,8.19 21.06,8.04 21.14,7.99Z" fill-rule="evenodd" id="path_194"/><path fill="#e1a02f" d="M22.17,8.26C22.55,8.3 22.87,8.34 22.79,8.04C22.68,8.04 21.95,7.88 22.17,8.26ZM22.16,8.29C22.12,8.24 22.04,8.13 22.18,7.98C22.39,7.97 22.6,7.98 22.83,8.01C23.03,8.09 23.01,8.28 22.84,8.35C22.49,8.35 22.3,8.33 22.16,8.29Z" fill-rule="evenodd" id="path_195"/><path fill="#e1a02f" d="M23.19,8.3C23.57,8.38 23.88,8.45 23.83,8.15C23.72,8.15 23.01,7.91 23.19,8.3ZM23.18,8.34C23.13,8.28 23.07,8.17 23.22,8.03C23.75,8.05 23.67,8.06 23.86,8.11C24.05,8.21 24.02,8.39 23.85,8.44C23.39,8.45 23.31,8.38 23.18,8.33V8.34Z" fill-rule="evenodd" id="path_196"/><path fill="#c3bdc9" d="M16.41,14.19L15.81,15.94C15.98,15.94 16.12,15.95 16.41,15.89C16.68,15.34 16.73,14.55 16.41,14.19Z" fill-rule="evenodd" id="path_197"/><path fill="#ffffff" d="M16.88,17.61L15.81,15.94C15.81,15.94 15.54,16.63 15.51,16.85C15.65,17.22 16.28,17.6 16.88,17.61Z" fill-rule="evenodd" id="path_198"/><path fill="#c3bdc9" d="M16.71,16.32C17.08,16.19 17.15,15.96 17.16,15.83L16.4,15.89C16.51,16.03 16.62,16.16 16.71,16.32Z" fill-rule="evenodd" id="path_199"/><path fill="#c3bdc9" d="M15.46,15.06C15.3,14.96 14.81,14.93 14.71,15.01L15.34,15.6C15.36,15.43 15.4,15.23 15.46,15.06Z" fill-rule="evenodd" id="path_200"/><path fill="#c3bdc9" d="M14.03,16.86L15.8,15.95C15.84,15.94 15.58,16.65 15.5,16.86C15.3,16.97 14.42,17.18 14.03,16.86H14.03Z" fill-rule="evenodd" id="path_201"/><path fill="#ffffff" d="M75.43,17.44C76.97,17.44 78.14,17.83 78.92,18.63C79.71,19.43 80.1,20.69 80.1,22.43V31.31H76.38V23.36C76.38,22.39 76.21,21.64 75.88,21.15C75.55,20.66 75.03,20.41 74.34,20.41C73.37,20.41 72.66,20.76 72.25,21.46C71.84,22.16 71.63,23.17 71.63,24.48V31.31H67.93V23.36C67.93,22.71 67.85,22.16 67.7,21.73C67.55,21.29 67.33,20.96 67.03,20.74C66.74,20.51 66.35,20.41 65.87,20.41C65.18,20.41 64.64,20.58 64.25,20.93C63.86,21.27 63.58,21.78 63.41,22.45C63.24,23.12 63.17,23.94 63.17,24.9V31.31H59.46V17.69H62.29L62.79,19.44H63C63.27,18.97 63.62,18.59 64.04,18.29C64.45,18 64.92,17.78 65.42,17.64C65.92,17.5 66.43,17.44 66.95,17.44C67.95,17.44 68.79,17.6 69.49,17.93C70.18,18.26 70.71,18.76 71.08,19.44H71.41C71.81,18.74 72.39,18.23 73.13,17.92C73.88,17.6 74.64,17.44 75.43,17.44ZM99.82,22.4C99.82,20.55 99.52,18.94 98.91,17.56C98.31,16.19 97.38,15.12 96.14,14.37C94.9,13.61 93.32,13.24 91.38,13.24C89.43,13.24 87.85,13.61 86.59,14.37C85.32,15.12 84.4,16.19 83.79,17.55C83.19,18.92 82.89,20.52 82.89,22.37C82.89,23.74 83.06,25 83.4,26.13C83.74,27.26 84.25,28.21 84.95,29.03C85.65,29.85 86.52,30.47 87.59,30.91C88.65,31.35 89.9,31.56 91.36,31.56C92.81,31.56 94.07,31.35 95.13,30.91C96.19,30.47 97.07,29.84 97.76,29.03C98.46,28.22 98.98,27.26 99.32,26.13C99.66,25 99.83,23.75 99.83,22.38L99.82,22.4ZM86.86,22.38C86.86,21.12 87.02,20.05 87.33,19.15C87.64,18.26 88.13,17.56 88.8,17.08C89.47,16.6 90.33,16.36 91.39,16.36C92.99,16.36 94.13,16.89 94.83,17.97C95.52,19.04 95.87,20.51 95.87,22.38C95.87,23.61 95.72,24.69 95.42,25.58C95.11,26.48 94.63,27.17 93.96,27.65C93.29,28.13 92.41,28.37 91.36,28.37C90.31,28.37 89.46,28.13 88.79,27.65C88.12,27.17 87.63,26.48 87.32,25.58C87.01,24.69 86.85,23.62 86.85,22.38H86.86ZM106.32,12.36H102.61V31.32H105.45L106.07,29.82H106.32C106.68,30.27 107.15,30.67 107.72,31.03C108.3,31.38 109.05,31.56 110.08,31.56C111.11,31.56 112.03,31.29 112.81,30.76C113.6,30.23 114.22,29.44 114.65,28.38C115.09,27.33 115.31,26.03 115.31,24.48C115.31,22.16 114.83,20.42 113.89,19.23C112.94,18.03 111.7,17.44 110.18,17.44C109.2,17.44 108.4,17.64 107.79,18.03C107.17,18.43 106.69,18.89 106.33,19.46H106.18C106.23,19.18 106.26,18.79 106.29,18.29C106.32,17.79 106.33,17.28 106.33,16.76V12.36H106.32ZM109,20.4C109.79,20.4 110.4,20.74 110.86,21.41C111.32,22.09 111.54,23.09 111.54,24.42C111.54,25.75 111.31,26.78 110.86,27.48C110.41,28.19 109.81,28.54 109.04,28.54C108.01,28.54 107.31,28.19 106.92,27.49C106.52,26.79 106.33,25.78 106.33,24.45V24.05C106.35,23.23 106.45,22.55 106.62,22.02C106.79,21.48 107.07,21.08 107.45,20.81C107.83,20.55 108.34,20.41 108.99,20.41L109,20.4ZM116.25,17.69L121.65,31.22L121.43,31.89C121.28,32.33 121.08,32.73 120.83,33.1C120.57,33.48 120.27,33.76 119.89,33.99C119.52,34.21 119.08,34.32 118.56,34.32C118.27,34.32 118,34.3 117.74,34.26C117.47,34.23 117.26,34.2 117.09,34.16V37.11C117.3,37.15 117.57,37.2 117.88,37.25C118.18,37.29 118.55,37.31 118.97,37.31C119.84,37.31 120.64,37.15 121.36,36.83C122.08,36.52 122.72,36.04 123.29,35.41C123.85,34.79 124.29,34 124.64,33.06L130.39,17.7H126.42L123.9,25.37C123.77,25.74 123.67,26.12 123.58,26.5C123.5,26.87 123.43,27.29 123.38,27.72H123.31C123.29,27.43 123.25,27.15 123.21,26.88C123.17,26.62 123.11,26.36 123.06,26.11C123.01,25.85 122.94,25.6 122.86,25.36L120.3,17.69H116.24H116.25ZM143.53,31.32H147.56L151.47,17.7H147.84L146.21,23.73C146.11,24.16 145.99,24.67 145.88,25.26C145.78,25.86 145.68,26.44 145.6,26.98C145.51,27.53 145.46,27.94 145.43,28.21H145.33C145.33,27.91 145.29,27.48 145.21,26.94C145.15,26.39 145.07,25.87 144.97,25.36C144.88,24.85 144.8,24.48 144.75,24.24L143.15,17.71H139.07L137.4,24.24C137.36,24.37 137.32,24.59 137.26,24.93C137.2,25.26 137.13,25.65 137.07,26.06C137,26.48 136.94,26.88 136.88,27.28C136.83,27.67 136.8,27.98 136.78,28.21H136.68C136.64,27.89 136.59,27.47 136.5,26.93C136.42,26.38 136.34,25.82 136.24,25.24C136.13,24.67 136.04,24.17 135.93,23.74L134.36,17.71H130.66L134.53,31.33H138.51L139.6,26.62C139.67,26.32 139.75,25.89 139.89,25.33C140.03,24.76 140.17,24.16 140.32,23.52C140.47,22.88 140.6,22.28 140.72,21.74C140.84,21.2 140.93,20.8 140.99,20.55H141.09C141.16,20.8 141.24,21.2 141.37,21.74C141.5,22.28 141.63,22.87 141.78,23.51C141.93,24.15 142.07,24.74 142.2,25.3C142.32,25.85 142.42,26.26 142.47,26.55L143.51,31.31L143.53,31.32ZM158.86,17.4C157.91,17.4 156.98,17.51 156.09,17.73C155.2,17.96 154.39,18.26 153.67,18.64L154.9,21.15C155.53,20.88 156.15,20.63 156.79,20.45C157.43,20.27 158.07,20.17 158.72,20.17C159.38,20.17 159.9,20.34 160.28,20.67C160.66,21.01 160.84,21.54 160.84,22.25V22.85L158.48,22.92C156.45,23 154.93,23.38 153.92,24.06C152.91,24.74 152.4,25.81 152.4,27.26C152.4,28.24 152.58,29.04 152.94,29.68C153.31,30.32 153.8,30.79 154.44,31.1C155.08,31.41 155.8,31.56 156.6,31.56C157.35,31.56 157.99,31.48 158.52,31.33C159.05,31.19 159.52,30.96 159.93,30.65C160.33,30.34 160.72,29.95 161.12,29.46H161.21L161.92,31.31H164.51V22.24C164.51,20.61 164.04,19.41 163.06,18.61C162.08,17.81 160.69,17.41 158.86,17.41V17.4ZM160.82,25.03V26.15C160.82,27.02 160.54,27.69 160,28.16C159.46,28.63 158.79,28.86 157.99,28.86C157.46,28.86 157.02,28.75 156.7,28.5C156.37,28.26 156.2,27.85 156.2,27.29C156.2,26.64 156.43,26.11 156.9,25.71C157.36,25.31 158.19,25.09 159.39,25.06L160.83,25.01L160.82,25.03ZM173.47,28.6C172.99,28.6 172.6,28.47 172.3,28.21C172.01,27.96 171.86,27.58 171.86,27.05V20.48H175.66V17.69H171.86V14.79H169.49L168.41,17.67L166.37,18.92V20.49H168.15V27.06C168.15,28.24 168.33,29.15 168.7,29.8C169.07,30.45 169.57,30.91 170.22,31.17C170.86,31.44 171.59,31.57 172.4,31.57C173.09,31.57 173.74,31.5 174.32,31.39C174.91,31.27 175.4,31.12 175.8,30.94V28.17C175.42,28.3 175.03,28.4 174.65,28.48C174.26,28.55 173.87,28.6 173.46,28.6H173.47ZM184.08,17.45C182.8,17.45 181.68,17.71 180.72,18.25C179.75,18.78 179.01,19.57 178.46,20.63C177.92,21.69 177.66,23.04 177.66,24.6C177.66,26.17 177.95,27.47 178.55,28.5C179.14,29.53 179.96,30.3 181.01,30.8C182.05,31.3 183.27,31.56 184.63,31.56C185.67,31.56 186.56,31.47 187.29,31.32C188.03,31.16 188.73,30.92 189.4,30.59V27.71C188.64,28.08 187.9,28.34 187.18,28.52C186.45,28.7 185.67,28.79 184.8,28.79C183.76,28.79 182.94,28.49 182.35,27.89C181.76,27.3 181.45,26.47 181.41,25.42H190.17V23.62C190.17,22.29 189.93,21.17 189.43,20.26C188.93,19.34 188.23,18.64 187.32,18.16C186.42,17.68 185.34,17.44 184.08,17.44V17.45ZM184.1,20.08C184.69,20.08 185.18,20.2 185.55,20.46C185.92,20.72 186.21,21.06 186.4,21.48C186.59,21.91 186.7,22.4 186.7,22.95H181.49C181.57,21.96 181.83,21.24 182.31,20.77C182.79,20.31 183.38,20.08 184.1,20.08ZM196.67,12.36H192.96V31.31H196.67V12.36Z" id="path_202"/></svg>