<svg id="vector" xmlns="http://www.w3.org/2000/svg" width="24" height="24" viewBox="0 0 24 24"><defs><linearGradient gradientUnits="userSpaceOnUse" x1="12.0" y1="12.717" x2="23.998" y2="12.717" id="gradient_0"><stop stop-color="#1c2175" offset="0.0"/><stop stop-color="#003c81" offset="1.0"/></linearGradient><linearGradient gradientUnits="userSpaceOnUse" x1="0.001" y1="12.716" x2="12.0" y2="12.716" id="gradient_1"><stop stop-color="#459afd" offset="0.0"/><stop stop-color="#3b96fd" offset="0.258"/><stop stop-color="#228afd" offset="0.689"/><stop stop-color="#0b80fd" offset="1.0"/></linearGradient></defs><path fill="url(#gradient_0)" d="M12,23.224V6.093ZM24,8.439C24,4.999 21.208,2.211 17.772,2.211C15.237,2.211 12.956,3.746 12.004,6.093V23.224C19.438,16.836 22.313,13.494 23.337,11.242C23.544,10.833 23.707,10.402 23.815,9.96C23.877,9.764 23.917,9.562 23.935,9.355C23.978,9.051 24,8.743 24,8.439Z" id="path_0"/><path fill="url(#gradient_1)" d="M12,6.093C10.704,2.906 7.075,1.371 3.885,2.667C1.535,3.62 0,5.905 0,8.439C0,8.747 0.022,9.051 0.069,9.355C0.087,9.558 0.13,9.761 0.188,9.96C0.301,10.406 0.46,10.833 0.666,11.242C1.687,13.498 4.566,16.84 12,23.224" id="path_1"/></svg>