<svg id="vector" xmlns="http://www.w3.org/2000/svg" width="24" height="24" viewBox="0 0 24 24"><defs><clipPath id="clip_path_0"><path d="M0,0h24v24h-24z"/></clipPath><linearGradient gradientUnits="userSpaceOnUse" x1="12.762" y1="1.657" x2="12.762" y2="21.234" id="gradient_1"><stop stop-color="#1768d4" offset="0.0"/><stop stop-color="#007aff" offset="1.0"/></linearGradient></defs><g id="g_0"><path fill="#1c1c1e" d="M5.671,19.014C5.544,19.487 4.969,19.743 4.388,19.588L1.358,18.776C0.776,18.62 0.407,18.111 0.533,17.638L1.682,13.357L6.818,14.733L5.671,19.014ZM21.083,23.144C20.956,23.617 20.382,23.873 19.8,23.718L16.77,22.906C16.188,22.75 15.819,22.241 15.946,21.768L17.093,17.486L22.23,18.863L21.083,23.144Z" clip-path="url(#clip_path_0)"/><path fill="#ef316a" d="M9.17,8.328L0.774,6.213C0.514,6.147 0.559,5.788 0.828,5.781L4.899,5.667C5.086,5.662 5.191,5.464 5.083,5.321L3.293,2.933C3.15,2.742 3.38,2.501 3.597,2.614L6.576,4.169C6.73,4.25 6.92,4.147 6.923,3.981L6.981,0.777C6.985,0.544 7.322,0.477 7.426,0.689L8.73,3.341C8.808,3.5 9.043,3.513 9.141,3.364L11.281,0.105C11.423,-0.11 11.776,0.033 11.706,0.278L9.456,8.172C9.423,8.29 9.295,8.359 9.17,8.328Z"/><path fill="url(#gradient_1)" d="M20.724,3.664C21.536,3.882 22.153,4.542 22.31,5.363L23.306,10.545L23.929,12.861C24.023,13.21 24.024,13.577 23.93,13.926L22.553,19.063C22.134,20.628 20.516,21.554 18.94,21.132L3.718,17.054C2.142,16.631 1.204,15.019 1.624,13.454L2.997,8.332C3.007,8.294 3.018,8.256 3.03,8.219L9.944,10.071C10.477,10.214 11.026,9.898 11.169,9.364L11.766,7.134L18.463,8.928C19.587,9.229 20.648,8.251 20.453,7.093C20.286,6.103 19.563,5.304 18.602,5.047L12.746,3.478L13.234,1.657L20.724,3.664ZM21.014,13.563C20.101,13.467 19.174,13.66 18.369,14.126C17.706,14.509 17.161,15.057 16.781,15.707C16.692,15.859 16.612,16.016 16.542,16.179C16.4,16.505 16.609,16.861 16.952,16.953L19.872,17.735C20.249,17.837 20.638,17.612 20.739,17.234C20.84,16.856 20.617,16.467 20.239,16.366L18.575,15.921C18.481,15.896 18.449,15.78 18.52,15.714C18.683,15.564 18.862,15.431 19.056,15.318C19.545,15.036 20.1,14.899 20.655,14.917C21.034,14.929 21.413,14.719 21.511,14.352C21.61,13.985 21.392,13.602 21.014,13.563ZM5.925,9.595C5.579,9.44 5.199,9.663 5.1,10.03C5.002,10.397 5.226,10.768 5.56,10.947C6.05,11.209 6.461,11.605 6.743,12.094C6.855,12.288 6.945,12.493 7.01,12.704C7.039,12.797 6.953,12.881 6.859,12.856L5.195,12.41C4.817,12.309 4.429,12.534 4.328,12.912C4.227,13.29 4.451,13.678 4.828,13.779L7.749,14.563C8.092,14.654 8.45,14.45 8.491,14.097C8.511,13.921 8.52,13.744 8.519,13.568C8.515,12.815 8.317,12.069 7.934,11.405C7.47,10.599 6.764,9.968 5.925,9.595ZM10.84,11.523C10.357,11.394 9.86,11.68 9.73,12.164C9.6,12.651 9.891,13.15 10.379,13.276L15.104,14.502C15.576,14.624 16.057,14.343 16.183,13.873C16.31,13.4 16.029,12.913 15.556,12.786L10.84,11.523Z"/></g></svg>