<svg id="vector" xmlns="http://www.w3.org/2000/svg" width="24" height="24" viewBox="0 0 24 24"><defs><clipPath id="clip_path_0"><path d="M0,0h24v24h-24z"/></clipPath><linearGradient gradientUnits="userSpaceOnUse" x1="20.436" y1="3.035" x2="7.836" y2="14.563" id="gradient_1"><stop stop-color="#00b55d" offset="0.0"/><stop stop-color="#00db89" offset="1.0"/></linearGradient><linearGradient gradientUnits="userSpaceOnUse" x1="15.381" y1="17.381" x2="0.024" y2="1.574" id="gradient_2"><stop stop-color="#00b55d" offset="0.228"/><stop stop-color="#00db89" offset="1.0"/></linearGradient></defs><g id="g_0"><path fill="url(#gradient_1)" d="M21.963,3.035C23.114,3.007 24.036,3.943 23.998,5.111C23.893,8.848 22.714,17.171 20.108,19.817C17.139,22.829 12.61,23.274 9.176,21.169C9.138,21.237 9.109,21.304 9.052,21.361L6.817,23.631C6.331,24.123 5.542,24.123 5.057,23.631C4.572,23.139 4.572,22.337 5.057,21.845L7.273,19.595C3.991,16.042 4.048,10.46 7.473,6.985C10.07,4.339 18.281,3.142 21.963,3.035ZM11.825,6.829C11.238,6.321 10.391,6.669 10.089,7.385C9.938,7.743 10.115,8.149 10.413,8.399C10.508,8.478 10.597,8.565 10.679,8.659C10.915,8.931 11.086,9.254 11.179,9.602C11.271,9.95 11.284,10.315 11.214,10.668C11.19,10.79 11.155,10.91 11.112,11.026C10.978,11.391 11.026,11.831 11.335,12.067C11.953,12.537 12.862,12.419 13.118,11.686C13.188,11.488 13.242,11.284 13.283,11.077C13.416,10.408 13.393,9.718 13.218,9.059C13.042,8.4 12.719,7.789 12.272,7.275C12.133,7.115 11.984,6.967 11.825,6.829Z" clip-path="url(#clip_path_0)"/><path fill="url(#gradient_2)" d="M1.69,1.481C4.687,1.613 11.345,2.689 13.434,4.865C16.236,7.796 16.166,12.47 13.277,15.305C10.389,18.141 5.782,18.081 2.989,15.151L2.979,15.16C0.899,12.974 0.04,6.18 -0,3.146C-0.014,2.2 0.758,1.439 1.69,1.481ZM11.826,6.829C11.239,6.32 10.391,6.669 10.089,7.385C9.938,7.742 10.115,8.149 10.413,8.398C10.508,8.478 10.597,8.565 10.679,8.659C10.915,8.931 11.086,9.253 11.179,9.601C11.271,9.949 11.284,10.314 11.214,10.668C11.19,10.79 11.156,10.91 11.113,11.026C10.979,11.391 11.026,11.831 11.335,12.066C11.953,12.537 12.862,12.418 13.118,11.684C13.187,11.486 13.243,11.284 13.284,11.077C13.417,10.408 13.394,9.717 13.219,9.058C13.043,8.399 12.719,7.789 12.271,7.274C12.133,7.115 11.984,6.966 11.826,6.829Z"/></g></svg>