<svg id="vector" xmlns="http://www.w3.org/2000/svg" width="24" height="24" viewBox="0 0 24 24"><defs><linearGradient gradientUnits="userSpaceOnUse" x1="12.0" y1="2.0" x2="12.0" y2="22.0" id="gradient_0"><stop stop-color="#a1bad7" offset="0.0"/><stop stop-color="#8baace" offset="1.0"/></linearGradient><linearGradient gradientUnits="userSpaceOnUse" x1="12.0" y1="2.0" x2="12.0" y2="22.0" id="gradient_1"><stop stop-color="#a1bad7" offset="0.0"/><stop stop-color="#8baace" offset="1.0"/></linearGradient></defs><path fill="url(#gradient_0)" d="M18,10C21.314,10 24,12.686 24,16C24,19.314 21.314,22 18,22C14.686,22 12,19.314 12,16C12,12.686 14.686,10 18,10ZM18,12.375C17.655,12.375 17.375,12.655 17.375,13V17.273L15.981,15.6C15.759,15.335 15.365,15.299 15.1,15.519C14.834,15.741 14.799,16.135 15.019,16.4L17.443,19.308C17.733,19.655 18.267,19.655 18.557,19.308L20.98,16.4C21.201,16.135 21.166,15.741 20.9,15.519C20.635,15.299 20.24,15.334 20.02,15.6L18.625,17.273V13C18.625,12.655 18.345,12.375 18,12.375Z" fill-rule="evenodd" id="path_0"/><path fill="url(#gradient_1)" d="M20,2C21.105,2 22,2.895 22,4V9.952C20.854,9.192 19.478,8.75 18,8.75C15.124,8.75 12.639,10.424 11.467,12.851C10.787,12.318 9.931,12 9,12H6C3.791,12 2,13.791 2,16C2,16.552 2.448,17 3,17H10.818C10.811,16.943 10.804,16.886 10.798,16.828C10.885,17.595 11.09,18.325 11.398,19H2C0.895,19 0,18.105 0,17V4C0,2.895 0.895,2 2,2H20ZM7.5,4C5.567,4 4,5.567 4,7.5C4,9.433 5.567,11 7.5,11C9.433,11 11,9.433 11,7.5C11,5.567 9.433,4 7.5,4Z" fill-rule="evenodd" id="path_1"/></svg>