<svg id="vector" xmlns="http://www.w3.org/2000/svg" width="24" height="24" viewBox="0 0 24 24"><defs><linearGradient gradientUnits="userSpaceOnUse" x1="12.0" y1="0.0" x2="12.0" y2="24.0" id="gradient_0"><stop stop-color="#a1bad7" offset="0.0"/><stop stop-color="#8baace" offset="1.0"/></linearGradient></defs><path fill="url(#gradient_0)" d="M14.63,0C14.869,0 15.1,0.086 15.281,0.241L21.65,5.7C21.872,5.89 22,6.168 22,6.46V22C22,23.105 21.105,24 20,24H4C2.895,24 2,23.105 2,22V2C2,0.895 2.895,0 4,0H14.63ZM9.263,9.6C7.94,9.6 7.209,10.627 6.864,11.32C6.387,12.278 6.117,13.246 6.087,14.347C6.078,14.681 6.076,15.062 6.136,15.463C6.014,15.576 5.89,15.688 5.747,15.807C5.385,16.107 5.074,16.29 4.777,16.363C4.277,16.486 3.971,16.992 4.094,17.492C4.217,17.993 4.722,18.299 5.223,18.176C5.884,18.013 6.432,17.654 6.872,17.298C7.184,17.797 7.62,18.314 8.25,18.624C9.498,19.238 10.745,18.8 11.57,18.479C12.045,18.293 12.508,18.078 12.938,17.807C13.112,17.919 13.301,18.015 13.502,18.095C14.921,18.659 16.44,18.666 17.848,18.271C17.873,18.264 17.899,18.257 17.928,18.249C18.351,18.132 19.123,17.92 19.654,17.397C20.022,17.036 20.027,16.445 19.665,16.077C19.304,15.71 18.713,15.705 18.346,16.066C18.191,16.218 17.889,16.321 17.345,16.474C16.343,16.754 15.319,16.755 14.383,16.432C14.515,16.236 14.638,16.025 14.747,15.795C14.881,15.514 15.026,15.103 15.058,14.665C15.089,14.237 15.019,13.596 14.482,13.134C13.959,12.684 13.358,12.835 13.059,12.981C12.761,13.125 12.508,13.364 12.354,13.609C12.104,14.012 11.944,14.467 11.852,14.873C11.814,15.043 11.764,15.294 11.745,15.561C11.731,15.757 11.728,16.031 11.802,16.313C11.536,16.467 11.234,16.606 10.893,16.739C10.041,17.071 9.52,17.167 9.074,16.948C8.783,16.805 8.539,16.489 8.287,16.01C8.875,15.471 9.409,14.918 9.926,14.283C10.642,13.403 11.029,12.205 10.793,11.005C10.737,10.719 10.597,10.413 10.391,10.162C10.188,9.917 9.809,9.6 9.263,9.6ZM8.988,11.557C9.034,12.086 8.849,12.649 8.478,13.106C8.331,13.285 8.183,13.458 8.031,13.626C8.122,13.125 8.289,12.648 8.535,12.153C8.657,11.908 8.792,11.723 8.924,11.607C8.946,11.588 8.967,11.571 8.988,11.557Z" id="path_0"/><path fill="#d2e1f2" d="M15,0.319C15,0.047 15.324,-0.1 15.534,0.077L21.886,5.439C22.115,5.632 21.976,6 21.676,6H16.079C15.483,6 15,5.524 15,4.938V0.319Z" id="path_1"/></svg>