<svg id="vector" xmlns="http://www.w3.org/2000/svg" width="24" height="24" viewBox="0 0 24 24"><defs><clipPath id="clip_path_0"><path d="M0,0h24v24h-24z"/></clipPath><linearGradient gradientUnits="userSpaceOnUse" x1="12.001" y1="0.0" x2="12.001" y2="24.0" id="gradient_1"><stop stop-color="#feb300" offset="0.0"/><stop stop-color="#ffce59" offset="1.0"/></linearGradient></defs><g id="g_0"><path fill="url(#gradient_1)" d="M4.005,0.001C1.795,0.001 0.004,1.791 0.003,4.001L0.001,19.998C0,22.208 1.792,23.999 4.002,23.998L20,23.992C22.21,23.991 24,22.199 23.999,19.989L23.989,4.005C23.987,1.797 22.198,0.008 19.99,0.007L4.005,0.001ZM19.822,13.339C19.822,14.045 19.27,14.399 18.609,14.116L14.587,12.42C14.119,12.232 13.747,12.467 13.747,12.962V15.141C13.747,15.329 13.855,15.6 13.999,15.741L15.968,17.684C16.172,17.884 16.268,18.285 16.172,18.556L15.788,19.686C15.62,20.181 15.044,20.416 14.575,20.181L12.57,18.508C12.258,18.261 11.754,18.261 11.454,18.508L9.437,20.181C8.957,20.416 8.392,20.181 8.224,19.674L7.84,18.544C7.744,18.273 7.84,17.872 8.044,17.672L10.049,15.741C10.181,15.611 10.301,15.341 10.301,15.141V12.962C10.301,12.467 9.917,12.22 9.461,12.42L5.439,14.116C4.766,14.399 4.226,14.045 4.226,13.339V12.243C4.226,11.678 4.67,11.019 5.199,10.795L9.929,8.793C10.121,8.711 10.289,8.463 10.289,8.251V5.814C10.289,5.013 10.877,4.059 11.61,3.706C11.874,3.576 12.174,3.576 12.438,3.706C13.159,4.071 13.759,5.013 13.759,5.814V8.251C13.759,8.463 13.915,8.711 14.119,8.793L18.85,10.795C19.39,11.019 19.822,11.678 19.822,12.243V13.339Z" clip-path="url(#clip_path_0)"/></g></svg>