<svg id="vector" xmlns="http://www.w3.org/2000/svg" width="24" height="24" viewBox="0 0 24 24"><defs><linearGradient gradientUnits="userSpaceOnUse" x1="6.033" y1="9.691" x2="6.033" y2="25.646" id="gradient_0"><stop stop-color="#1768d4" offset="0.0"/><stop stop-color="#165ef8" offset="1.0"/></linearGradient><linearGradient gradientUnits="userSpaceOnUse" x1="7.16" y1="2.885" x2="7.16" y2="11.987" id="gradient_1"><stop stop-color="#165ef8" offset="0.0"/><stop stop-color="#165ef8" offset="1.0"/></linearGradient></defs><path fill="#165ef8" d="M19.358,2.857C19.82,2.411 20.55,2.43 20.989,2.898C25.003,7.174 25.003,13.895 20.989,18.171C20.55,18.639 19.82,18.657 19.358,18.211C18.897,17.765 18.879,17.024 19.318,16.556C22.483,13.184 22.483,7.884 19.318,4.512C18.879,4.044 18.897,3.303 19.358,2.857ZM16.132,5.872C16.594,5.422 17.342,5.422 17.805,5.872C20.445,8.447 20.445,12.622 17.805,15.196C17.342,15.647 16.594,15.647 16.132,15.196C15.67,14.746 15.67,14.015 16.132,13.565C17.848,11.891 17.848,9.178 16.132,7.504C15.67,7.054 15.67,6.323 16.132,5.872Z" id="path_0"/><path fill="#165ef8" d="M9.364,7.027H13.816C14.356,7.027 14.794,7.465 14.794,8.005V12.565C14.794,13.105 14.356,13.543 13.816,13.543H9.364V7.027Z" id="path_1"/><path fill="url(#gradient_0)" d="M9.99,4.023C11.095,4.023 11.99,4.919 11.99,6.023V14.514C11.99,15.618 11.094,16.514 9.99,16.514H8.201L6.688,22.161C6.545,22.695 5.996,23.011 5.463,22.868L3.186,22.258C2.652,22.115 2.336,21.567 2.479,21.033L3.689,16.514H2C0.896,16.514 0,15.618 0,14.514V6.023C0,4.919 0.895,4.023 2,4.023H9.99Z" id="path_2"/><path fill="url(#gradient_1)" d="M0,3.885C0,3.333 0.448,2.885 1,2.885H12.319C13.621,2.885 14.575,4.108 14.26,5.37L13.174,9.715C12.84,11.05 11.64,11.987 10.263,11.987H0V3.885Z" id="path_3"/></svg>