<svg id="vector" xmlns="http://www.w3.org/2000/svg" width="24" height="24" viewBox="0 0 24 24"><defs><linearGradient gradientUnits="userSpaceOnUse" x1="16.919" y1="1.439" x2="16.919" y2="15.376" id="gradient_0"><stop stop-color="#d53627" offset="0.0"/><stop stop-color="#ea475b" offset="1.0"/></linearGradient><linearGradient gradientUnits="userSpaceOnUse" x1="10.87" y1="1.4" x2="10.87" y2="22.43" id="gradient_1"><stop stop-color="#d53627" offset="0.0"/><stop stop-color="#ea475b" offset="1.0"/></linearGradient></defs><path fill="url(#gradient_0)" d="M16.919,15.376C20.768,15.376 23.888,12.256 23.888,8.407C23.888,4.559 20.768,1.439 16.919,1.439C13.071,1.439 9.951,4.559 9.951,8.407C9.951,12.256 13.071,15.376 16.919,15.376Z" id="path_0"/><path fill="url(#gradient_1)" d="M2.021,3.427C4.706,0.724 9.077,0.722 11.776,3.439L21.731,13.459L13.406,21.84C12.623,22.627 11.35,22.627 10.568,21.84L2.031,13.247C-0.66,10.538 -0.665,6.13 2.021,3.427ZM4.575,5.87C4.106,5.251 3.199,5.122 2.755,5.759C2.635,5.931 2.528,6.113 2.433,6.301C2.126,6.91 1.961,7.581 1.953,8.263C1.945,8.945 2.094,9.62 2.387,10.236C2.477,10.426 2.581,10.609 2.696,10.784C3.125,11.432 4.035,11.323 4.519,10.715C4.76,10.411 4.698,9.972 4.478,9.651C4.408,9.549 4.346,9.442 4.292,9.329C4.137,9.004 4.059,8.647 4.064,8.287C4.068,7.927 4.154,7.573 4.317,7.251C4.373,7.14 4.437,7.033 4.51,6.933C4.737,6.618 4.81,6.18 4.575,5.87Z" id="path_1"/></svg>