<svg id="vector" xmlns="http://www.w3.org/2000/svg" width="24.0d" height="24.0d" viewBox="0 0 24.0 24.0"><path fill="#52575f" d="M21.4,10.6l-3,-2.5c-3.7,-3.2 -9.1,-3.2 -12.8,0l-3,2.5C2.2,11 2,11.5 2,12c0,0.5 0.2,1 0.6,1.4l3,2.5c1.9,1.6 4.1,2.4 6.4,2.4s4.6,-0.8 6.4,-2.4l3,-2.5c0,0 0,0 0,0C21.8,13 22,12.5 22,12S21.8,11 21.4,10.6zM20.4,12.2l-3,2.5c-3.2,2.7 -7.7,2.7 -10.9,0l-3,-2.5C3.5,12.1 3.5,12 3.5,12c0,-0.1 0,-0.1 0.1,-0.2l3,-2.5c1.6,-1.3 3.5,-2 5.4,-2s3.9,0.7 5.4,2l3,2.5c0.1,0.1 0.1,0.2 0.1,0.2S20.5,12.1 20.4,12.2zM12,8.8c-1.8,0 -3.2,1.5 -3.2,3.2s1.5,3.2 3.2,3.2s3.2,-1.5 3.2,-3.2S13.8,8.8 12,8.8zM12,13.8c-1,0 -1.8,-0.8 -1.8,-1.8s0.8,-1.8 1.8,-1.8s1.8,0.8 1.8,1.8S13,13.8 12,13.8z" id="path_0"/></svg>
