<svg id="vector" xmlns="http://www.w3.org/2000/svg" width="24" height="24" viewBox="0 0 24 24"><defs><linearGradient gradientUnits="userSpaceOnUse" x1="12.0" y1="-0.055" x2="12.0" y2="23.945" id="gradient_0"><stop stop-color="#9347e0" offset="0.0"/><stop stop-color="#b65fee" offset="1.0"/></linearGradient></defs><path fill="url(#gradient_0)" d="M10.158,0.447C11.364,0.118 12.636,0.118 13.842,0.447L21.526,2.543C22.396,2.78 23,3.57 23,4.472V13.195C23,16.122 21.401,18.816 18.831,20.218L13.436,23.161C12.541,23.649 11.459,23.649 10.564,23.161L5.169,20.218C2.599,18.816 1,16.122 1,13.195V4.472C1,3.57 1.604,2.78 2.474,2.543L10.158,0.447ZM14.213,6.958C12.348,5.093 9.325,5.093 7.46,6.958C5.595,8.822 5.595,11.846 7.46,13.71C9.033,15.284 11.432,15.529 13.263,14.448L15.901,17.087C16.368,17.552 17.124,17.553 17.59,17.087C18.056,16.62 18.056,15.864 17.59,15.398L14.951,12.759C16.032,10.929 15.786,8.531 14.213,6.958ZM8.943,8.445C9.988,7.401 11.681,7.401 12.726,8.445C13.77,9.489 13.77,11.183 12.726,12.227C11.681,13.271 9.988,13.271 8.943,12.227C7.899,11.183 7.899,9.489 8.943,8.445Z" id="path_0"/></svg>