<svg id="vector" xmlns="http://www.w3.org/2000/svg" width="24" height="24" viewBox="0 0 24 24"><defs><linearGradient gradientUnits="userSpaceOnUse" x1="12.0" y1="2.0" x2="12.0" y2="22.0" id="gradient_0"><stop stop-color="#9145df" offset="0.0"/><stop stop-color="#ba62f0" offset="1.0"/></linearGradient><linearGradient gradientUnits="userSpaceOnUse" x1="12.0" y1="2.0" x2="12.0" y2="22.0" id="gradient_1"><stop stop-color="#9145df" offset="0.0"/><stop stop-color="#ba62f0" offset="1.0"/></linearGradient></defs><path fill="url(#gradient_0)" d="M18,10C21.314,10 24,12.686 24,16C24,19.314 21.314,22 18,22C14.686,22 12,19.314 12,16C12,12.686 14.686,10 18,10ZM21.134,12.606C20.778,12.394 20.317,12.51 20.105,12.866L16.943,18.182L15.36,15.965C15.21,15.755 14.971,15.645 14.731,15.651C14.682,15.653 14.634,15.658 14.586,15.669C14.539,15.68 14.492,15.695 14.446,15.715C14.401,15.735 14.357,15.761 14.314,15.791C14.146,15.911 14.042,16.088 14.011,16.277C13.995,16.372 13.996,16.47 14.018,16.565C14.033,16.637 14.061,16.706 14.099,16.772C14.111,16.794 14.125,16.816 14.14,16.837L16.062,19.528C16.24,19.778 16.49,19.927 16.754,19.979C16.798,19.988 16.843,19.994 16.888,19.997L17.021,19.999C17.244,19.989 17.464,19.912 17.648,19.771C17.759,19.687 17.857,19.579 17.935,19.448L21.395,13.634C21.448,13.545 21.48,13.449 21.493,13.352C21.533,13.063 21.401,12.764 21.134,12.606Z" fill-rule="evenodd" id="path_0"/><path fill="url(#gradient_1)" d="M20,2C21.105,2 22,2.895 22,4V9.952C20.854,9.192 19.478,8.75 18,8.75C15.124,8.75 12.639,10.424 11.467,12.851C10.787,12.318 9.931,12 9,12H6C3.791,12 2,13.791 2,16C2,16.552 2.448,17 3,17H10.818C10.811,16.943 10.804,16.886 10.798,16.828C10.885,17.595 11.09,18.325 11.398,19H2C0.895,19 0,18.105 0,17V4C0,2.895 0.895,2 2,2H20ZM7.5,4C5.567,4 4,5.567 4,7.5C4,9.433 5.567,11 7.5,11C9.433,11 11,9.433 11,7.5C11,5.567 9.433,4 7.5,4Z" fill-rule="evenodd" id="path_1"/></svg>