<svg id="vector" xmlns="http://www.w3.org/2000/svg" width="24" height="24" viewBox="0 0 24 24"><defs><linearGradient gradientUnits="userSpaceOnUse" x1="-3.5" y1="-6.5" x2="13.0" y2="22.5" id="gradient_0"><stop stop-color="#cd0103" offset="0.0"/><stop stop-color="#9b0101" offset="1.0"/></linearGradient></defs><path fill="url(#gradient_0)" d="M10.158,0.247C11.364,-0.082 12.636,-0.082 13.842,0.247L21.526,2.342C22.396,2.58 23,3.37 23,4.272V12.996C23,15.923 21.401,18.616 18.831,20.018L13.436,22.961C12.541,23.449 11.459,23.449 10.564,22.961L5.169,20.018C2.599,18.616 1,15.923 1,12.996V4.272C1,3.37 1.604,2.58 2.474,2.342L10.158,0.247ZM9.997,4.234C8.366,4.707 6.735,5.187 5.103,5.653C4.031,5.958 4.343,5.913 3.319,5.653C2.386,5.416 2.933,5.51 2,5.269V12.851C2.417,12.875 2.228,12.831 2.645,12.851C2.883,12.863 3.034,13.096 3.171,13.328C3.933,14.628 4.854,15.772 5.973,16.711C7.29,17.816 8.77,18.522 10.386,18.88C10.655,18.94 10.932,18.99 11.205,18.999C11.396,19.005 11.601,18.967 11.781,18.894C12.11,18.76 12.185,18.404 11.95,18.119C11.748,17.875 11.516,17.658 11.307,17.422C11.181,17.281 11.057,17.129 10.958,16.964C10.854,16.79 10.816,16.592 10.952,16.404C11.079,16.231 11.335,16.135 11.532,16.214C11.631,16.255 11.729,16.327 11.806,16.408C12.278,16.909 12.744,17.423 13.216,17.924C13.403,18.123 13.596,18.324 13.805,18.492C14.103,18.731 14.437,18.844 14.808,18.704C15.034,18.617 15.205,18.449 15.322,18.224C15.451,17.976 15.409,17.723 15.198,17.486C14.955,17.213 14.701,16.949 14.453,16.681C14.115,16.315 13.774,15.947 13.438,15.58C13.377,15.513 13.316,15.439 13.269,15.36C13.118,15.105 13.136,14.841 13.314,14.642C13.472,14.467 13.773,14.432 13.971,14.581C14.099,14.678 14.218,14.798 14.331,14.917C14.948,15.568 15.561,16.227 16.182,16.873C16.347,17.044 16.528,17.209 16.724,17.334C17.163,17.613 17.687,17.473 17.958,17.028C18.167,16.682 18.147,16.319 17.882,16.024C17.682,15.802 17.463,15.596 17.253,15.386C16.809,14.942 16.36,14.499 15.918,14.052C15.82,13.953 15.726,13.841 15.648,13.722C15.501,13.497 15.518,13.252 15.68,13.05C15.864,12.822 16.095,12.764 16.315,12.906C16.408,12.966 16.49,13.056 16.57,13.136C17.227,13.789 17.886,14.445 18.542,15.099C18.796,15.352 19.09,15.509 19.437,15.529C19.73,15.545 19.98,15.447 20.174,15.198C20.339,14.983 20.36,14.753 20.21,14.525C20.09,14.343 19.952,14.168 19.804,14.015C18.55,12.725 17.288,11.438 16.03,10.152C15.475,9.584 14.916,9.016 14.362,8.445C14.047,8.12 13.699,7.883 13.246,7.909C12.978,7.924 12.741,8.035 12.516,8.183C12.021,8.508 11.532,8.846 11.032,9.162C10.578,9.448 10.093,9.655 9.573,9.755C8.903,9.884 8.268,9.778 7.671,9.428C7.443,9.294 7.224,9.129 7.015,8.961C6.668,8.682 6.556,8.296 6.612,7.831C6.678,7.289 6.929,6.896 7.343,6.61C8.279,5.964 9.213,5.303 10.144,4.649C10.19,4.617 10.238,4.583 10.282,4.549C10.351,4.496 10.4,4.429 10.364,4.329C10.327,4.228 10.25,4.184 10.156,4.193C10.103,4.198 10.049,4.219 9.997,4.234ZM13.265,4.018C12.867,4.064 12.492,4.2 12.148,4.42C11.658,4.735 11.175,5.068 10.689,5.392C9.65,6.086 8.611,6.79 7.564,7.47C7.091,7.778 7.199,8.014 7.458,8.334C7.748,8.69 8.113,8.906 8.538,8.986C9.243,9.118 9.899,8.972 10.507,8.55C11.061,8.165 11.621,7.784 12.181,7.41C12.478,7.211 12.791,7.041 13.144,6.998C13.734,6.926 14.247,7.145 14.699,7.549C14.931,7.757 15.158,7.98 15.378,8.204C16.943,9.791 18.508,11.382 20.071,12.97C20.176,13.077 21.224,14.117 22,15V8C20.443,7.622 19.617,7.03 19.122,6.745C17.822,5.995 16.517,5.248 15.22,4.493C14.605,4.135 13.964,3.938 13.265,4.018Z" fill-rule="evenodd" id="path_0"/></svg>