<svg id="vector" xmlns="http://www.w3.org/2000/svg" width="24" height="24" viewBox="0 0 24 24"><defs><clipPath id="clip_path_0"><path d="M0,0h24v24h-24z"/></clipPath><linearGradient gradientUnits="userSpaceOnUse" x1="12.0" y1="8.0" x2="12.0" y2="24.0" id="gradient_1"><stop stop-color="#a1bad7" offset="0.0"/><stop stop-color="#8baace" offset="1.0"/></linearGradient></defs><g id="g_0"><path fill="#d2e1f2" d="M1.644,6.659C1.288,5.613 1.77,4.504 2.721,4.181L14.593,0.146C15.639,-0.21 16.775,0.35 17.13,1.396L21.957,15.598C22.313,16.644 21.83,17.754 20.88,18.077L8.835,22.17C7.884,22.493 6.826,21.907 6.47,20.861L1.644,6.659Z" clip-path="url(#clip_path_0)"/><path fill="url(#gradient_1)" d="M11.99,12.091H22C23.105,12.091 24,12.986 24,14.091V22C24,23.105 23.105,24 22,24H2C0.895,24 0,23.105 0,22V10C0,8.895 0.895,8 2,8H7.657C8.326,8 8.95,8.334 9.321,8.891L11.158,11.646C11.343,11.924 11.655,12.091 11.99,12.091Z"/></g></svg>