<svg id="vector" xmlns="http://www.w3.org/2000/svg" width="24" height="24" viewBox="0 0 24 24"><defs><clipPath id="clip_path_0"><path d="M0,0h24v24h-24z"/></clipPath><linearGradient gradientUnits="userSpaceOnUse" x1="11.475" y1="0.0" x2="11.475" y2="22.865" id="gradient_1"><stop stop-color="#1768d4" offset="0.0"/><stop stop-color="#007aff" offset="1.0"/></linearGradient><linearGradient gradientUnits="userSpaceOnUse" x1="17.739" y1="11.479" x2="17.739" y2="24.0" id="gradient_2"><stop stop-color="#1768d4" offset="0.0"/><stop stop-color="#007aff" offset="1.0"/></linearGradient></defs><g id="g_0"><path fill="url(#gradient_1)" d="M11.478,0C17.731,0 22.812,5 22.949,11.219C22.062,10.509 21.027,9.976 19.896,9.675C19.067,5.786 15.614,2.87 11.478,2.87C7.213,2.87 3.672,5.972 2.989,10.043H4.434C5.455,10.043 6.406,9.519 7.304,9.023L7.418,8.96C8.457,8.389 9.893,8.035 11.478,8.035C13.064,8.035 14.499,8.389 15.538,8.96L15.652,9.023C15.935,9.179 16.224,9.336 16.517,9.48C13.228,9.962 10.564,12.364 9.694,15.51C9.226,14.637 8.349,13.925 7.459,13.445C6.841,13.111 6.281,12.913 5.578,12.913H2.989C3.573,16.394 6.245,19.165 9.674,19.896C9.966,20.991 10.475,21.996 11.152,22.865C11.014,22.862 10.88,22.857 10.749,22.847C4.66,22.341 0,17.392 0,11.478C0,5.139 5.139,0 11.478,0Z" clip-path="url(#clip_path_0)"/><path fill="url(#gradient_2)" d="M17.739,11.479C21.197,11.479 24,14.282 24,17.739C24,21.197 21.197,24 17.739,24C14.281,24 11.479,21.197 11.479,17.739C11.479,14.282 14.282,11.479 17.739,11.479ZM21.263,15.506C20.882,15.126 20.266,15.126 19.886,15.506L17.068,18.323L15.899,17.176C15.516,16.799 14.899,16.805 14.523,17.188C14.146,17.572 14.151,18.189 14.535,18.565L16.392,20.39C16.773,20.764 17.385,20.76 17.763,20.383L21.263,16.883C21.643,16.502 21.643,15.886 21.263,15.506Z"/></g></svg>