<svg id="vector" xmlns="http://www.w3.org/2000/svg" width="24" height="24" viewBox="0 0 24 24"><defs><clipPath id="clip_path_0"><path d="M0,0h24v24h-24z"/></clipPath><linearGradient gradientUnits="userSpaceOnUse" x1="12.0" y1="0.0" x2="12.0" y2="24.0" id="gradient_1"><stop stop-color="#90b1d7" offset="0.0"/><stop stop-color="#7692b2" offset="1.0"/></linearGradient><linearGradient gradientUnits="userSpaceOnUse" x1="12.0" y1="0.0" x2="12.0" y2="24.0" id="gradient_2"><stop stop-color="#a1bad7" offset="0.0"/><stop stop-color="#5d738d" offset="1.0"/></linearGradient><linearGradient gradientUnits="userSpaceOnUse" x1="12.0" y1="0.0" x2="12.0" y2="24.0" id="gradient_3"><stop stop-color="#a1bad7" offset="0.0"/><stop stop-color="#94afcf" offset="1.0"/></linearGradient></defs><g id="g_0"><path fill="url(#gradient_1)" d="M0,9.29L12.492,2.418L24,9.945L11.508,16.818L0,9.29Z" clip-path="url(#clip_path_0)"/><path fill="url(#gradient_2)" d="M0,9.294L11.508,16.818L11.538,23.993L0.077,16.494L0,9.294Z"/><path fill="url(#gradient_3)" d="M11.513,16.819L24,9.945L23.991,17.118L11.476,24L11.513,16.819Z"/><path fill="#4d5d70" d="M6.92,10.974L15.187,6.425L16.526,7.31L8.314,11.888L6.92,10.974Z"/><path fill="#d2e1f2" d="M8.168,4.033L15.424,0L15.415,7.195L8.131,11.235L8.168,4.033Z"/></g></svg>