<svg id="vector" xmlns="http://www.w3.org/2000/svg" width="24" height="24" viewBox="0 0 24 24"><defs><linearGradient gradientUnits="userSpaceOnUse" x1="12.0" y1="0.0" x2="12.0" y2="24.0" id="gradient_0"><stop stop-color="#a1bad7" offset="0.0"/><stop stop-color="#8baace" offset="1.0"/></linearGradient></defs><path fill="url(#gradient_0)" d="M14.63,0C14.869,0 15.1,0.086 15.281,0.241L21.65,5.7C21.872,5.89 22,6.168 22,6.46V22C22,23.105 21.105,24 20,24H4C2.895,24 2,23.105 2,22V2C2,0.895 2.895,0 4,0H14.63ZM7,15C6.448,15 6,15.448 6,16C6,16.552 6.448,17 7,17H14C14.552,17 15,16.552 15,16C15,15.448 14.552,15 14,15H7ZM7,10C6.448,10 6,10.448 6,11C6,11.552 6.448,12 7,12H17C17.552,12 18,11.552 18,11C18,10.448 17.552,10 17,10H7Z" id="path_0"/><path fill="#d2e1f2" d="M15,0.319C15,0.047 15.324,-0.1 15.534,0.077L21.886,5.439C22.115,5.632 21.976,6 21.676,6H16.079C15.483,6 15,5.524 15,4.938V0.319Z" id="path_1"/></svg>