<svg id="vector" xmlns="http://www.w3.org/2000/svg" width="24" height="24" viewBox="0 0 24 24"><defs><linearGradient gradientUnits="userSpaceOnUse" x1="12.0" y1="0.001" x2="12.0" y2="24.0" id="gradient_0"><stop stop-color="#9347e0" offset="0.0"/><stop stop-color="#b65fee" offset="1.0"/></linearGradient></defs><path fill="url(#gradient_0)" d="M10.158,0.503C11.364,0.174 12.636,0.174 13.842,0.503L21.526,2.598C22.396,2.836 23,3.626 23,4.528V13.252C23,16.179 21.401,18.872 18.831,20.274L13.436,23.216C12.541,23.705 11.459,23.705 10.564,23.216L5.169,20.274C2.599,18.872 1,16.179 1,13.252V4.528C1,3.626 1.604,2.836 2.474,2.598L10.158,0.503ZM8.116,10.476C7.094,10.476 6.265,11.305 6.265,12.328V15.106C6.265,16.129 7.094,16.957 8.116,16.958H15.524C16.547,16.958 17.377,16.129 17.377,15.106V12.328C17.377,11.305 16.547,10.476 15.524,10.476H8.116ZM11.82,4.58C10.505,4.58 9.488,4.938 8.843,5.739C8.232,6.497 8.116,7.462 8.116,8.284C8.116,8.795 8.532,9.21 9.043,9.21C9.554,9.209 9.969,8.795 9.969,8.284C9.969,7.573 10.085,7.149 10.285,6.901C10.45,6.696 10.822,6.432 11.82,6.432C12.819,6.432 13.191,6.696 13.356,6.901C13.556,7.149 13.673,7.573 13.673,8.284C13.673,8.795 14.087,9.21 14.599,9.21C15.11,9.21 15.524,8.795 15.524,8.284C15.524,7.462 15.409,6.497 14.799,5.739C14.154,4.938 13.136,4.58 11.82,4.58Z" id="path_0"/></svg>